<svg width="21" height="20" viewBox="0 0 21 20" fill="none" xmlns="http://www.w3.org/2000/svg">
<path d="M1 2.54745C1 2.28208 1.10536 2.02758 1.29289 1.83994C1.48043 1.65229 1.73478 1.54688 2 1.54688H4C4.26522 1.54688 4.51957 1.65229 4.70711 1.83994C4.89464 2.02758 5 2.28208 5 2.54745V6.54977C5 6.81514 4.89464 7.06964 4.70711 7.25729C4.51957 7.44493 4.26522 7.55035 4 7.55035H2C1.73478 7.55035 1.48043 7.44493 1.29289 7.25729C1.10536 7.06964 1 6.81514 1 6.54977V2.54745ZM14 15.555C14 16.0857 14.2107 16.5947 14.5858 16.97C14.9609 17.3453 15.4696 17.5561 16 17.5561C16.5304 17.5561 17.0391 17.3453 17.4142 16.97C17.7893 16.5947 18 16.0857 18 15.555C18 15.0242 17.7893 14.5152 17.4142 14.14C17.0391 13.7647 16.5304 13.5538 16 13.5538C15.4696 13.5538 14.9609 13.7647 14.5858 14.14C14.2107 14.5152 14 15.0242 14 15.555Z" stroke="#828282" stroke-width="1.3" stroke-linecap="round" stroke-linejoin="round"/>
<path d="M8 3.54883H15C17.761 3.54883 20 6.68464 20 10.5529V15.5558H18M14 15.5558H6" stroke="#828282" stroke-width="1.3" stroke-linecap="round" stroke-linejoin="round"/>
<path d="M14 3.54883L15.5 10.5529H20M7.5 8.55172H15M10 3.54883V8.55172M3 7.55115V18.5575" stroke="#828282" stroke-width="1.3" stroke-linecap="round" stroke-linejoin="round"/>
</svg>
