<svg width="21" height="20" viewBox="0 0 21 20" fill="none" xmlns="http://www.w3.org/2000/svg">
<path d="M19.977 7.60768L18.3419 2.00482C18.3073 1.88636 18.2343 1.78217 18.1338 1.708C18.0333 1.63383 17.9109 1.59372 17.785 1.59375H13.8789L14.3374 6.98398C14.3445 7.07062 14.3725 7.15436 14.4191 7.2283C14.4658 7.30223 14.5297 7.36425 14.6057 7.40923C14.9821 7.62941 15.7176 8.03576 16.2919 8.20869C17.2725 8.50447 18.7049 8.39769 19.5214 8.29941C19.6008 8.28936 19.677 8.26248 19.7446 8.22063C19.8123 8.17878 19.8699 8.12297 19.9132 8.05711C19.9566 7.99125 19.9848 7.91691 19.9958 7.83928C20.0068 7.76166 20.0004 7.68262 19.977 7.60768Z" stroke="#828282" stroke-width="1.3"/>
<path d="M12.4305 8.20869C12.9787 8.04332 13.6736 7.66627 14.0616 7.44136C14.1519 7.38848 14.2252 7.31177 14.273 7.22001C14.3208 7.12825 14.3412 7.02516 14.3319 6.92256L13.8783 1.59375H7.12193L6.66829 6.92256C6.6588 7.02531 6.67914 7.1286 6.72694 7.22055C6.77475 7.31249 6.8481 7.38936 6.93854 7.4423C7.32655 7.66627 8.02148 8.04332 8.56971 8.20869C10.0107 8.64339 10.9894 8.64339 12.4305 8.20869Z" stroke="#828282" stroke-width="1.3"/>
<path d="M2.65852 2.00482L1.02349 7.60862C1.00041 7.68345 0.994242 7.76229 1.00541 7.83969C1.01658 7.91708 1.04481 7.99117 1.08816 8.0568C1.13151 8.12244 1.18892 8.17805 1.25643 8.21979C1.32393 8.26152 1.3999 8.28836 1.47906 8.29847C2.29464 8.39769 3.72795 8.50353 4.70858 8.20869C5.28287 8.03576 6.01931 7.62941 6.39477 7.41017C6.47085 7.36511 6.53487 7.30294 6.58154 7.22883C6.6282 7.15471 6.65615 7.07078 6.66309 6.98398L7.12156 1.59375H3.21544C3.08959 1.59372 2.96717 1.63383 2.86668 1.708C2.7662 1.78217 2.69313 1.88636 2.65852 2.00482Z" stroke="#828282" stroke-width="1.3"/>
<path d="M1.8125 8.20898V16.7139C1.8125 17.2152 2.01588 17.6959 2.37789 18.0503C2.73991 18.4048 3.23091 18.6039 3.74288 18.6039H17.2555C17.7675 18.6039 18.2585 18.4048 18.6205 18.0503C18.9825 17.6959 19.1859 17.2152 19.1859 16.7139V8.20898" stroke="#828282" stroke-width="1.3"/>
</svg>
