<svg width="19" height="22" viewBox="0 0 19 22" fill="none" xmlns="http://www.w3.org/2000/svg">
<path d="M3.25474 21.6274L4.58795 18.6919C4.26022 18.4705 3.94553 18.2385 3.64388 17.996C3.34301 17.7542 3.05518 17.4837 2.7804 17.1845C2.65683 17.2411 2.52673 17.2838 2.39011 17.3125C2.25349 17.3412 2.12109 17.3552 1.99291 17.3545C1.44796 17.3545 0.979761 17.1618 0.588317 16.7764C0.196873 16.3911 0.0011515 15.9302 0.0011515 15.3937C0.0011515 15.0877 0.071381 14.7971 0.21184 14.5221C0.3523 14.2471 0.544184 14.02 0.787493 13.8409C0.633986 13.4064 0.521158 12.9674 0.449009 12.5239C0.376861 12.0804 0.340787 11.6126 0.340787 11.1207C0.340787 10.6289 0.376861 10.1615 0.449009 9.71873C0.521158 9.27595 0.63437 8.83657 0.788645 8.40058C0.544568 8.2215 0.3523 7.99482 0.21184 7.72054C0.071381 7.44626 0.000767537 7.15535 0 6.84782C0 6.3121 0.195722 5.85118 0.587166 5.46507C0.97861 5.07895 1.44681 4.88628 1.99176 4.88703C2.12071 4.88703 2.25349 4.90139 2.39011 4.9301C2.52673 4.95881 2.65721 5.00113 2.78155 5.05704C3.41401 4.377 4.13088 3.80652 4.93219 3.3456C5.7335 2.88469 6.5943 2.54844 7.51457 2.33687C7.58135 1.85707 7.80816 1.45017 8.19499 1.1162C8.5826 0.782223 9.0201 0.615234 9.50748 0.615234C9.99487 0.615234 10.4324 0.776178 10.82 1.09806C11.2076 1.41995 11.434 1.81853 11.4992 2.2938C12.4502 2.50537 13.326 2.84048 14.1265 3.29913C14.9278 3.75778 15.6451 4.32486 16.2783 5.00037C16.4019 4.9437 16.5235 4.90857 16.6433 4.89497C16.763 4.88136 16.8847 4.87419 17.0082 4.87343C17.5532 4.87343 18.0214 5.06649 18.4128 5.4526C18.8043 5.83796 19 6.29887 19 6.83535C19 7.14061 18.9309 7.42888 18.7928 7.70014C18.6546 7.9714 18.4658 8.19619 18.2263 8.37451C18.3798 8.81276 18.4927 9.25743 18.5648 9.70853C18.637 10.1596 18.673 10.6304 18.673 11.1207C18.673 11.6111 18.637 12.0883 18.5648 12.5522C18.4927 13.0162 18.3798 13.4646 18.2263 13.8976C18.4504 14.0767 18.6281 14.2943 18.7594 14.5504C18.8906 14.8073 18.9562 15.088 18.9562 15.3925C18.9562 15.929 18.7605 16.3899 18.3691 16.7753C17.9776 17.1614 17.5094 17.3545 16.9645 17.3545C16.8401 17.3545 16.7181 17.3439 16.5984 17.3227C16.4794 17.3016 16.3578 17.2698 16.2334 17.2275C15.9586 17.5275 15.6793 17.8007 15.3953 18.047C15.1113 18.2933 14.7885 18.5275 14.427 18.7497L15.7027 21.6263H14.5467L13.4968 19.2642C13.169 19.4207 12.8436 19.5525 12.5205 19.6598C12.1973 19.7671 11.8573 19.8631 11.5004 19.9477C11.4336 20.4237 11.2064 20.8223 10.8188 21.1434C10.4312 21.4653 9.99372 21.6263 9.50633 21.6263C9.01895 21.6263 8.58183 21.4593 8.19499 21.1253C7.80816 20.7913 7.58135 20.3844 7.51457 19.9046C7.15306 19.8192 6.80959 19.7229 6.48415 19.6156C6.15872 19.5091 5.83213 19.3772 5.50439 19.2201L4.41065 21.6263L3.25474 21.6274ZM4.95522 17.7852L7.22675 12.8163C7.03179 12.5783 6.88327 12.3169 6.78119 12.032C6.67911 11.7471 6.62845 11.4434 6.62922 11.1207C6.62922 10.3493 6.91321 9.68435 7.48119 9.12596C8.04916 8.56757 8.7246 8.288 9.50748 8.28724C10.2904 8.28649 10.9658 8.56606 11.5338 9.12596C12.1018 9.68586 12.3857 10.3508 12.3857 11.1207C12.3857 11.4434 12.3263 11.7532 12.2073 12.0501C12.0883 12.3471 11.9294 12.6214 11.7307 12.873L14.0022 17.8294C14.2631 17.6639 14.5122 17.4833 14.7494 17.2876C14.9865 17.0919 15.2111 16.8728 15.4229 16.6302C15.2678 16.4647 15.1539 16.2777 15.081 16.0692C15.008 15.8606 14.9716 15.6351 14.9716 15.3925C14.9716 14.7881 15.2157 14.2867 15.7038 13.8885C16.1927 13.4903 16.7223 13.3524 17.2926 13.4748C17.4077 13.097 17.5014 12.7166 17.5735 12.3335C17.6457 11.9504 17.6818 11.5462 17.6818 11.1207C17.6818 10.6953 17.6457 10.2888 17.5735 9.90121C17.5014 9.51358 17.4074 9.13125 17.2915 8.7542C16.7219 8.87586 16.2 8.73758 15.7257 8.33938C15.2521 7.94117 15.0153 7.43983 15.0153 6.83535C15.0153 6.62227 15.0575 6.41335 15.142 6.20858C15.2279 6.00457 15.3365 5.81944 15.4678 5.65321C14.9113 5.06233 14.2858 4.57459 13.5912 4.18999C12.8981 3.80463 12.1551 3.50806 11.3622 3.30027C11.2248 3.66522 10.9896 3.96293 10.6565 4.19339C10.3226 4.42309 9.93961 4.53794 9.50748 4.53794C9.07459 4.53794 8.69159 4.42309 8.35848 4.19339C8.0246 3.96293 7.78897 3.66522 7.65158 3.30027C6.85027 3.50806 6.10269 3.80576 5.40883 4.19339C4.71498 4.58101 4.08982 5.07215 3.53336 5.66681C3.66461 5.83305 3.77283 6.01817 3.85803 6.22218C3.94322 6.42619 3.98544 6.63512 3.98467 6.84895C3.98467 7.46779 3.7429 7.968 3.25935 8.34958C2.7758 8.73116 2.24888 8.87019 1.6786 8.76667C1.56347 9.14447 1.47713 9.52492 1.41956 9.90801C1.36199 10.2911 1.33321 10.6953 1.33321 11.1207C1.33321 11.5462 1.36199 11.9504 1.41956 12.3335C1.47713 12.7166 1.56347 13.097 1.6786 13.4748C2.21895 13.3524 2.73857 13.4869 3.23747 13.8783C3.73637 14.2697 3.98582 14.7745 3.98582 15.3925C3.98582 15.6351 3.94898 15.8512 3.8753 16.0409C3.80238 16.2305 3.6884 16.4081 3.53336 16.5736C3.74597 16.8169 3.97085 17.0311 4.20802 17.2162C4.44519 17.4013 4.69426 17.5914 4.95522 17.7863M5.88547 18.3133C6.15565 18.4516 6.43772 18.5695 6.73169 18.667C7.02565 18.7644 7.33267 18.8558 7.65273 18.9412C7.78935 18.5763 8.0246 18.2789 8.35848 18.0492C8.69159 17.8188 9.07459 17.7036 9.50748 17.7036C9.93961 17.7036 10.3226 17.8188 10.6565 18.0492C10.9896 18.2789 11.2248 18.5763 11.3622 18.9412C11.6662 18.8558 11.9598 18.7716 12.243 18.6885C12.5262 18.6054 12.8025 18.4951 13.0719 18.3575L10.9155 13.5836C10.7006 13.6924 10.4792 13.7816 10.2512 13.8511C10.0233 13.9206 9.77535 13.955 9.50748 13.9543C9.23424 13.9543 8.97558 13.9187 8.7315 13.8477C8.48743 13.7767 8.25716 13.6698 8.04072 13.527L5.88547 18.3133ZM9.50748 12.8209C9.96801 12.8209 10.371 12.6603 10.7164 12.3392C11.0617 12.018 11.2344 11.6119 11.2344 11.1207C11.2344 10.6674 11.0617 10.2707 10.7164 9.93068C10.371 9.59066 9.96801 9.42064 9.50748 9.42064C9.00858 9.42064 8.59603 9.59066 8.26983 9.93068C7.94363 10.2707 7.78052 10.6674 7.78052 11.1207C7.78052 11.6119 7.94363 12.018 8.26983 12.3392C8.59603 12.6603 9.00858 12.8209 9.50748 12.8209Z" fill="#828282"/>
</svg>
