<svg width="19" height="16" viewBox="0 0 19 16" fill="none" xmlns="http://www.w3.org/2000/svg">
<path d="M18.4818 14.6487H15.5455V12.3141H17.7909C17.8697 12.3141 17.9474 12.2967 18.0182 12.2634C18.089 12.23 18.151 12.1815 18.1995 12.1215C18.248 12.0615 18.2816 11.9917 18.2979 11.9173C18.3142 11.8429 18.3127 11.7658 18.2935 11.6921L15.5299 1.01929C15.5018 0.911114 15.4371 0.815098 15.346 0.746493C15.255 0.677887 15.1428 0.640625 15.0273 0.640625C14.9118 0.640625 14.7996 0.677887 14.7085 0.746493C14.6174 0.815098 14.5527 0.911114 14.5246 1.01929L11.761 11.6921C11.7418 11.7658 11.7403 11.8429 11.7566 11.9173C11.7729 11.9917 11.8066 12.0615 11.8551 12.1215C11.9035 12.1815 11.9655 12.23 12.0363 12.2634C12.1071 12.2967 12.1849 12.3141 12.2636 12.3141H14.5091V14.6487H8.63636V12.9811H9.5C9.63743 12.9811 9.76923 12.9284 9.86641 12.8346C9.96359 12.7408 10.0182 12.6135 10.0182 12.4808C10.0182 12.3482 9.96359 12.2209 9.86641 12.1271C9.76923 12.0333 9.63743 11.9806 9.5 11.9806H8.63636V10.3129H9.5C9.63743 10.3129 9.76923 10.2602 9.86641 10.1664C9.96359 10.0726 10.0182 9.94533 10.0182 9.81265C10.0182 9.67996 9.96359 9.55271 9.86641 9.45889C9.76923 9.36507 9.63743 9.31236 9.5 9.31236H1.9C1.76257 9.31236 1.63077 9.36507 1.53359 9.45889C1.43641 9.55271 1.38182 9.67996 1.38182 9.81265C1.38182 9.94533 1.43641 10.0726 1.53359 10.1664C1.63077 10.2602 1.76257 10.3129 1.9 10.3129H2.76364V11.9806H1.9C1.76257 11.9806 1.63077 12.0333 1.53359 12.1271C1.43641 12.2209 1.38182 12.3482 1.38182 12.4808C1.38182 12.6135 1.43641 12.7408 1.53359 12.8346C1.63077 12.9284 1.76257 12.9811 1.9 12.9811H2.76364V14.6487H0.518182C0.380751 14.6487 0.24895 14.7015 0.151772 14.7953C0.0545939 14.8891 0 15.0163 0 15.149C0 15.2817 0.0545939 15.409 0.151772 15.5028C0.24895 15.5966 0.380751 15.6493 0.518182 15.6493H18.4818C18.6192 15.6493 18.7511 15.5966 18.8482 15.5028C18.9454 15.409 19 15.2817 19 15.149C19 15.0163 18.9454 14.8891 18.8482 14.7953C18.7511 14.7015 18.6192 14.6487 18.4818 14.6487ZM15.0273 3.20387L17.1276 11.3135H12.9269L15.0273 3.20387ZM3.8 10.3129H7.6V11.9806H3.8V10.3129ZM3.8 12.9811H7.6V14.6487H3.8V12.9811ZM8.46364 6.31065C8.90775 6.31065 9.34188 6.1835 9.71114 5.94529C10.0804 5.70708 10.3682 5.36849 10.5382 4.97236C10.7081 4.57623 10.7526 4.14034 10.6659 3.7198C10.5793 3.29927 10.3654 2.91299 10.0514 2.6098C9.73738 2.30661 9.33728 2.10014 8.9017 2.01649C8.46613 1.93284 8.01464 1.97577 7.60434 2.13986C7.19404 2.30394 6.84334 2.58181 6.59661 2.93832C6.34988 3.29483 6.21818 3.71397 6.21818 4.14274C6.21818 4.71771 6.45476 5.26912 6.87586 5.67568C7.29697 6.08224 7.8681 6.31065 8.46364 6.31065ZM8.46364 2.97541C8.70277 2.97541 8.93654 3.04387 9.13537 3.17214C9.33421 3.30041 9.48918 3.48272 9.58069 3.69602C9.6722 3.90932 9.69615 4.14404 9.64949 4.37048C9.60284 4.59692 9.48769 4.80492 9.31859 4.96817C9.1495 5.13143 8.93406 5.2426 8.69952 5.28764C8.46498 5.33269 8.22187 5.30957 8.00094 5.22122C7.78 5.13286 7.59117 4.98324 7.45831 4.79128C7.32546 4.59931 7.25455 4.37362 7.25455 4.14274C7.25455 3.83314 7.38193 3.53623 7.60868 3.31731C7.83543 3.09839 8.14297 2.97541 8.46364 2.97541Z" fill="#828282"/>
</svg>
