<svg width="19" height="19" viewBox="0 0 19 19" fill="none" xmlns="http://www.w3.org/2000/svg">
<path d="M7.79077 3.55412C8.58727 2.2266 9.89924 1.25789 11.4381 0.861089C12.9769 0.464285 14.6165 0.671893 15.9963 1.43824C17.376 2.20459 18.3828 3.4669 18.7952 4.94749C19.2076 6.42807 18.9919 8.00564 18.1954 9.33316L17.9684 9.71C17.892 9.83728 17.7662 9.93016 17.6187 9.9682C17.4711 10.0062 17.3139 9.98632 17.1816 9.91283L13.1901 7.69609L10.9656 11.4424C12.5092 11.8935 13.8363 12.9187 14.7844 14.2443L14.6807 14.241C14.2976 14.2393 13.9248 14.3602 13.6209 14.5846C12.515 13.1958 10.9299 12.3014 9.21576 12.3014C7.50163 12.3014 5.91652 13.1958 4.81063 14.5846C4.47846 14.3393 4.06501 14.2184 3.64714 14.2443C4.93734 12.4399 6.9268 11.193 9.21576 11.193C9.40315 11.193 9.58861 11.2011 9.77216 11.2174L12.1925 7.14191L7.7758 4.68687C7.64351 4.61338 7.54698 4.49234 7.50745 4.35037C7.46791 4.2084 7.48861 4.05714 7.56499 3.92985L7.79077 3.55412ZM8.85174 4.00633L10.8135 5.09586L10.8262 5.07702C11.4437 4.25682 12.0243 3.62616 12.7834 3.07309C13.3504 2.66973 13.9578 2.32182 14.5966 2.03454C13.549 1.68224 12.4076 1.68575 11.3623 2.04451C10.3171 2.40326 9.43107 3.09562 8.85174 4.00633ZM14.4042 7.08982C14.9399 6.18539 15.1968 5.4716 15.2866 4.77887C15.3592 4.22136 15.327 3.65387 15.2187 2.97666C14.4941 3.30695 13.9446 3.6173 13.4792 3.95646C12.8617 4.40645 12.3699 4.92406 11.8158 5.65226L14.4042 7.08982ZM15.4018 7.644L17.2577 8.67478C17.7607 7.78455 17.9494 6.7611 17.7952 5.75872C17.641 4.75633 17.1524 3.82932 16.4029 3.11742C16.4847 3.73811 16.5066 4.32333 16.4294 4.91741C16.3154 5.79302 15.9916 6.64869 15.4018 7.644ZM4.30606 15.7296C4.26659 15.6155 4.18966 15.517 4.08688 15.4487C3.98409 15.3804 3.86102 15.3461 3.73622 15.351C3.61142 15.3559 3.49164 15.3996 3.39496 15.4757C3.29827 15.5518 3.22991 15.6561 3.20017 15.7728C3.00434 16.542 2.6334 16.9643 2.21063 17.2103C1.76827 17.4664 1.20496 17.5661 0.575985 17.5661C0.423224 17.5661 0.27672 17.6245 0.168702 17.7284C0.0606839 17.8324 0 17.9733 0 18.1203C0 18.2673 0.0606839 18.4082 0.168702 18.5122C0.27672 18.6161 0.423224 18.6745 0.575985 18.6745C1.31094 18.6745 2.11156 18.5614 2.8062 18.1591C3.22027 17.9184 3.56924 17.5869 3.82454 17.1915C5.19884 18.8773 7.88178 18.8696 9.21576 17.1738C10.5716 18.8962 13.3168 18.8773 14.6703 17.1106C15.038 17.5919 15.5174 17.984 16.0704 18.2555C16.6234 18.527 17.2347 18.6705 17.8555 18.6745C18.0083 18.6745 18.1548 18.6161 18.2628 18.5122C18.3708 18.4082 18.4315 18.2673 18.4315 18.1203C18.4315 17.9733 18.3708 17.8324 18.2628 17.7284C18.1548 17.6245 18.0083 17.5661 17.8555 17.5661C16.7231 17.5661 15.5942 16.8568 15.221 15.7351C15.1837 15.624 15.111 15.5271 15.0131 15.4582C14.9152 15.3892 14.7972 15.3518 14.6759 15.3512C14.5546 15.3506 14.4362 15.3868 14.3375 15.4548C14.2389 15.5227 14.1651 15.6189 14.1266 15.7296C13.3859 17.8787 10.4864 17.851 9.76064 15.8182C9.72172 15.7089 9.64828 15.6141 9.55058 15.5469C9.45289 15.4798 9.33582 15.4437 9.21576 15.4437C9.0957 15.4437 8.97863 15.4798 8.88094 15.5469C8.78324 15.6141 8.7098 15.7089 8.67088 15.8182C7.94514 17.851 5.04678 17.8787 4.30606 15.7296Z" fill="#828282"/>
</svg>
