<svg width="14" height="14" viewBox="0 0 14 14" fill="none" xmlns="http://www.w3.org/2000/svg">
<path d="M11.6154 1.75H2.38462C1.61991 1.75 1 2.3796 1 3.15625V11.5938C1 12.3704 1.61991 13 2.38462 13H11.6154C12.3801 13 13 12.3704 13 11.5938V3.15625C13 2.3796 12.3801 1.75 11.6154 1.75Z" stroke="#828282" stroke-width="0.8" stroke-linejoin="round"/>
<path d="M8.5 7C8.91421 7 9.25 6.66421 9.25 6.25C9.25 5.83579 8.91421 5.5 8.5 5.5C8.08579 5.5 7.75 5.83579 7.75 6.25C7.75 6.66421 8.08579 7 8.5 7Z" fill="#828282"/>
<path d="M10.75 7C11.1642 7 11.5 6.66421 11.5 6.25C11.5 5.83579 11.1642 5.5 10.75 5.5C10.3358 5.5 10 5.83579 10 6.25C10 6.66421 10.3358 7 10.75 7Z" fill="#828282"/>
<path d="M8.5 9.25C8.91421 9.25 9.25 8.91421 9.25 8.5C9.25 8.08579 8.91421 7.75 8.5 7.75C8.08579 7.75 7.75 8.08579 7.75 8.5C7.75 8.91421 8.08579 9.25 8.5 9.25Z" fill="#828282"/>
<path d="M10.75 9.25C11.1642 9.25 11.5 8.91421 11.5 8.5C11.5 8.08579 11.1642 7.75 10.75 7.75C10.3358 7.75 10 8.08579 10 8.5C10 8.91421 10.3358 9.25 10.75 9.25Z" fill="#828282"/>
<path d="M3.25 9.25C3.66421 9.25 4 8.91421 4 8.5C4 8.08579 3.66421 7.75 3.25 7.75C2.83579 7.75 2.5 8.08579 2.5 8.5C2.5 8.91421 2.83579 9.25 3.25 9.25Z" fill="#828282"/>
<path d="M6.25 9.25C6.66421 9.25 7 8.91421 7 8.5C7 8.08579 6.66421 7.75 6.25 7.75C5.83579 7.75 5.5 8.08579 5.5 8.5C5.5 8.91421 5.83579 9.25 6.25 9.25Z" fill="#828282"/>
<path d="M3.25 11.5C3.66421 11.5 4 11.1642 4 10.75C4 10.3358 3.66421 10 3.25 10C2.83579 10 2.5 10.3358 2.5 10.75C2.5 11.1642 2.83579 11.5 3.25 11.5Z" fill="#828282"/>
<path d="M6.25 11.5C6.66421 11.5 7 11.1642 7 10.75C7 10.3358 6.66421 10 6.25 10C5.83579 10 5.5 10.3358 5.5 10.75C5.5 11.1642 5.83579 11.5 6.25 11.5Z" fill="#828282"/>
<path d="M8.5 11.5C8.91421 11.5 9.25 11.1642 9.25 10.75C9.25 10.3358 8.91421 10 8.5 10C8.08579 10 7.75 10.3358 7.75 10.75C7.75 11.1642 8.08579 11.5 8.5 11.5Z" fill="#828282"/>
<path d="M3.25 1V1.75M10.75 1V1.75" stroke="#828282" stroke-width="0.8" stroke-linecap="round" stroke-linejoin="round"/>
<path d="M13 4H1" stroke="#828282" stroke-width="0.8" stroke-linejoin="round"/>
</svg>
