<svg width="15" height="11" viewBox="0 0 15 11" fill="none" xmlns="http://www.w3.org/2000/svg">
<path d="M0 10.051V9.21768H7.965V10.051H0ZM0 6.06018V5.22685H3.71833V6.06018H0ZM0 2.07018V1.23685H3.71833V2.07018H0ZM14.41 10.0827L11.17 6.89102C10.8689 7.11602 10.5417 7.29018 10.1883 7.41352C9.835 7.53685 9.47306 7.59852 9.1025 7.59852C8.16694 7.59852 7.36972 7.27518 6.71083 6.62852C6.05194 5.98185 5.72167 5.19157 5.72 4.25768C5.71833 3.32379 6.04861 2.53324 6.71083 1.88602C7.37306 1.23879 8.17167 0.915461 9.10667 0.916016C10.0417 0.916572 10.8389 1.2399 11.4983 1.88602C12.1578 2.53213 12.4861 3.31991 12.4833 4.24935C12.4833 4.61991 12.4217 4.98185 12.2983 5.33518C12.175 5.68852 11.9953 6.01046 11.7592 6.30102L15 9.49268L14.41 10.0827ZM9.1025 6.76602C9.81028 6.76602 10.4119 6.52268 10.9075 6.03602C11.4031 5.54935 11.6508 4.95657 11.6508 4.25768C11.6508 3.55879 11.4031 2.96574 10.9075 2.47852C10.4119 1.99129 9.81028 1.74824 9.1025 1.74935C8.39472 1.75046 7.79306 1.99352 7.2975 2.47852C6.80194 2.96352 6.55417 3.55657 6.55417 4.25768C6.55417 4.95879 6.80194 5.55157 7.2975 6.03602C7.79306 6.52046 8.39472 6.76352 9.1025 6.76518" fill="#302D38"/>
</svg>
