<svg width="12" height="10" viewBox="0 0 12 10" fill="none" xmlns="http://www.w3.org/2000/svg">
<path fill-rule="evenodd" clip-rule="evenodd" d="M7.58333 4.16811C8.02305 4.16804 8.45101 4.02609 8.8036 3.76335C9.1562 3.50061 9.4146 3.13112 9.54042 2.70978H11.0833C11.238 2.70978 11.3864 2.64832 11.4958 2.53893C11.6052 2.42953 11.6667 2.28116 11.6667 2.12645C11.6667 1.97174 11.6052 1.82337 11.4958 1.71397C11.3864 1.60457 11.238 1.54311 11.0833 1.54311H9.54042C9.4144 1.12199 9.1559 0.752755 8.80333 0.49024C8.45075 0.227725 8.0229 0.0859375 7.58333 0.0859375C7.14376 0.0859375 6.71591 0.227725 6.36334 0.49024C6.01076 0.752755 5.75227 1.12199 5.62625 1.54311H0.583333C0.428624 1.54311 0.280251 1.60457 0.170854 1.71397C0.0614581 1.82337 0 1.97174 0 2.12645C0 2.28116 0.0614581 2.42953 0.170854 2.53893C0.280251 2.64832 0.428624 2.70978 0.583333 2.70978H5.62625C5.75206 3.13112 6.01047 3.50061 6.36306 3.76335C6.71566 4.02609 7.14361 4.16804 7.58333 4.16811ZM0.583333 7.37645C0.428624 7.37645 0.280251 7.43791 0.170854 7.5473C0.0614581 7.6567 0 7.80507 0 7.95978C0 8.11449 0.0614581 8.26286 0.170854 8.37226C0.280251 8.48166 0.428624 8.54311 0.583333 8.54311H1.83458C1.9606 8.96423 2.2191 9.33347 2.57167 9.59599C2.92425 9.8585 3.35209 10.0003 3.79167 10.0003C4.23124 10.0003 4.65909 9.8585 5.01166 9.59599C5.36424 9.33347 5.62273 8.96423 5.74875 8.54311H11.0833C11.238 8.54311 11.3864 8.48166 11.4958 8.37226C11.6052 8.26286 11.6667 8.11449 11.6667 7.95978C11.6667 7.80507 11.6052 7.6567 11.4958 7.5473C11.3864 7.43791 11.238 7.37645 11.0833 7.37645H5.74875C5.62273 6.95533 5.36424 6.58609 5.01166 6.32357C4.65909 6.06106 4.23124 5.91927 3.79167 5.91927C3.35209 5.91927 2.92425 6.06106 2.57167 6.32357C2.2191 6.58609 1.9606 6.95533 1.83458 7.37645H0.583333Z" fill="#302D38"/>
</svg>
