<svg width="115" height="30" viewBox="0 0 115 30" fill="none" xmlns="http://www.w3.org/2000/svg">
	<mask id="mask0_2202_889" style="mask-type:luminance" maskUnits="userSpaceOnUse" x="0" y="0" width="27" height="30">
		<path d="M0 12.2469V29.8496H26.7729L25.4374 28.5421H1.36841V12.7881L12.8157 1.84888L24.0527 12.5843V25.6968H3.73834V14.1874L12.8105 5.68024L21.6225 14.0983C21.6361 15.5576 21.6498 17.1738 21.6635 18.7901C21.6772 20.3016 21.6908 21.8131 21.7045 23.2019C19.2031 23.2201 16.6717 23.2071 14.2169 23.1965C11.7623 23.1861 9.23078 23.1756 6.72395 23.1913C6.73218 22.0301 6.74042 20.7829 6.74866 19.5354C6.7597 18.0944 6.76777 16.6533 6.77881 15.3406L12.8049 9.77026L18.5464 15.3276L18.5108 20.5946H10.1366L8.79848 21.9021H19.871L19.9175 14.794L12.8268 7.9292L5.41319 14.781V15.0555C5.40215 16.4416 5.39112 17.9846 5.38041 19.5275C5.37201 21.0183 5.36113 22.5062 5.35026 23.8452L5.34746 24.5094L6.04254 24.504C8.76273 24.4806 11.5323 24.4938 14.2115 24.504C16.8935 24.5173 19.6684 24.5278 22.3996 24.504L23.0838 24.499L23.0784 23.8452C23.0647 22.2839 23.0482 20.5318 23.0317 18.7795C23.0181 17.0639 23.0017 15.3485 22.9881 13.8186L22.9854 13.5519L12.8212 3.83918L2.36993 13.6381V27.0043H25.4209V12.0428L12.8157 -4.19617e-05L0 12.2469Z" fill="white" />
	</mask>
	<g mask="url(#mask0_2202_889)">
		<path d="M1.56496 0.000207901L0 3.24023V0.000207901H1.56496Z" fill="#224646" />
		<path d="M1.84108 -0.000466824L0 3.81152V3.23956L1.56496 -0.000466824H1.84108Z" fill="#224646" />
		<path d="M2.11737 -7.15256e-06L0 4.38379V3.81198L1.84125 -7.15256e-06H2.11737Z" fill="#224646" />
		<path d="M2.39349 -0.000524521L0 4.95508V4.38327L2.11737 -0.000524521H2.39349Z" fill="#224747" />
		<path d="M2.66961 -6.58035e-05L0 5.52734V4.95554L2.39349 -6.58035e-05H2.66961Z" fill="#224848" />
		<path d="M2.9459 0.000234604L0 6.09961V5.52765L2.66977 0.000234604H2.9459Z" fill="#224949" />
		<path d="M3.22202 -0.000281334L0 6.6709V6.09909L2.9459 -0.000281334H3.22202Z" fill="#224A4A" />
		<path d="M3.4983 0.000177383L0 7.24316V6.67136L3.22218 0.000177383H3.4983Z" fill="#234B4B" />
		<path d="M3.77442 -0.000497818L0 7.81445V7.24249L3.4983 -0.000497818H3.77442Z" fill="#224B4C" />
		<path d="M4.05071 -3.91006e-05L0 8.38672V7.81491L3.77459 -3.91006e-05H4.05071Z" fill="#234C4C" />
		<path d="M4.32683 -0.000555992L0 8.95801V8.3862L4.05071 -0.000555992H4.32683Z" fill="#224D4D" />
		<path d="M4.60295 -9.53674e-05L0 9.53027V8.95847L4.32683 -9.53674e-05H4.60295Z" fill="#224E4E" />
		<path d="M4.87924 0.000205994L0 10.1025V9.53058L4.60312 0.000205994H4.87924Z" fill="#234F4F" />
		<path d="M5.15536 -0.000313759L0 10.6738V10.102L4.87924 -0.000313759H5.15536Z" fill="#225050" />
		<path d="M5.43165 0.000146866L0 11.2461V10.6743L5.15552 0.000146866H5.43165Z" fill="#235051" />
		<path d="M5.70777 -0.000528336L0 11.8174V11.2454L5.43165 -0.000528336H5.70777Z" fill="#225151" />
		<path d="M5.98405 -6.86646e-05L0 12.3896V11.8178L5.70793 -6.86646e-05H5.98405Z" fill="#235252" />
		<path d="M6.26017 -0.000585556L0 12.9609V12.3891L5.98405 -0.000585556H6.26017Z" fill="#235353" />
		<path d="M6.53629 -0.000126839L0 13.5332V12.9614L6.26017 -0.000126839H6.53629Z" fill="#235454" />
		<path d="M6.81258 0.000175476L0 14.1055V13.5335L6.53646 0.000175476H6.81258Z" fill="#235555" />
		<path d="M7.0887 -0.000344276L0 14.6768V14.105L6.81258 -0.000344276H7.0887Z" fill="#235656" />
		<path d="M7.36499 0.000117302L0 15.249V14.6772L7.08887 0.000117302H7.36499Z" fill="#235757" />
		<path d="M7.64111 -0.000557899L0 15.8203V15.2483L7.36499 -0.000557899H7.64111Z" fill="#235758" />
		<path d="M7.91739 -9.72748e-05L0 16.3926V15.8208L7.64127 -9.72748e-05H7.91739Z" fill="#235859" />
		<path d="M8.19352 0.000362396L0 16.9648V16.393L7.91739 0.000362396H8.19352Z" fill="#235A5A" />
		<path d="M8.4698 -0.000154495L0 17.5361V16.9643L8.19368 -0.000154495H8.4698Z" fill="#245A5B" />
		<path d="M8.74592 0.000146866L0 18.1084V17.5364L8.4698 0.000146866H8.74592Z" fill="#235B5B" />
		<path d="M9.02204 -0.000371933L0 18.6797V18.1079L8.74592 -0.000371933H9.02204Z" fill="#245C5C" />
		<path d="M9.29833 8.7738e-05L0 19.252V18.6801L9.02221 8.7738e-05H9.29833Z" fill="#235D5D" />
		<path d="M9.57445 -0.000432968L0 19.8232V19.2514L9.29833 -0.000432968H9.57445Z" fill="#245E5E" />
		<path d="M9.85074 -0.0001297L0 20.3955V19.8235L9.57462 -0.0001297H9.85074Z" fill="#245F5F" />
		<path d="M10.1269 0.000333786L0 20.9678V20.396L9.85074 0.000333786H10.1269Z" fill="#256060" />
		<path d="M10.4031 -0.000185013L0 21.5391V20.9673L10.127 -0.000185013H10.4031Z" fill="#246161" />
		<path d="M10.6793 0.000114441L0 22.1113V21.5394L10.4031 0.000114441H10.6793Z" fill="#246262" />
		<path d="M10.9554 -0.000402451L0 22.6826V22.1108L10.6793 -0.000402451H10.9554Z" fill="#246363" />
		<path d="M11.2317 5.53131e-05L0 23.2549V22.6831L10.9556 5.53131e-05H11.2317Z" fill="#246363" />
		<path d="M11.5078 -0.000459671L0 23.8262V23.2544L11.2317 -0.000459671H11.5078Z" fill="#256464" />
		<path d="M11.7841 -0.000164032L0 24.3984V23.8265L11.508 -0.000164032H11.7841Z" fill="#246566" />
		<path d="M12.0602 0.000299454L0 24.9707V24.3989L11.7841 0.000299454H12.0602Z" fill="#256767" />
		<path d="M12.3365 -0.000217438L0 25.542V24.9702L12.0604 -0.000217438H12.3365Z" fill="#256767" />
		<path d="M12.6126 8.39233e-05L0 26.1143V25.5423L12.3365 8.39233e-05H12.6126Z" fill="#246868" />
		<path d="M12.8889 -0.000432968L0 26.6855V26.1137L12.6128 -0.000432968H12.8889Z" fill="#256969" />
		<path d="M13.165 2.47955e-05L0 27.2578V26.686L12.8889 2.47955e-05H13.165Z" fill="#256A6A" />
		<path d="M13.4411 -0.000495911L0 27.8291V27.2573L13.165 -0.000495911H13.4411Z" fill="#266B6B" />
		<path d="M13.7174 -0.000192642L0 28.4014V27.8294L13.4413 -0.000192642H13.7174Z" fill="#256C6C" />
		<path d="M13.9935 0.000267029L0 28.9736V28.4018L13.7174 0.000267029H13.9935Z" fill="#246D6D" />
		<path d="M14.1219 -0.000249863L14.2438 0.0534363L0 29.5449V28.9731L13.9935 -0.000249863H14.1219Z" fill="#256E6E" />
		<path d="M14.2438 0.0538006L14.4715 0.154245L0.129165 29.8496H0V29.5453L14.2438 0.0538006Z" fill="#256F6F" />
		<path d="M14.4712 0.154245L14.6989 0.254688L0.405192 29.8496H0.128906L14.4712 0.154245Z" fill="#26706F" />
		<path d="M14.6992 0.254692L14.9268 0.355135L0.68156 29.8496H0.405273L14.6992 0.254692Z" fill="#257171" />
		<path d="M14.9269 0.355129L15.1546 0.455574L0.957762 29.8496H0.681641L14.9269 0.355129Z" fill="#257171" />
		<path d="M15.1548 0.455574L15.3825 0.556019L1.23429 29.8496H0.958008L15.1548 0.455574Z" fill="#267272" />
		<path d="M15.3826 0.555864L15.6103 0.656309L1.5105 29.8496H1.23438L15.3826 0.555864Z" fill="#257374" />
		<path d="M15.6096 0.656309L15.8373 0.756752L1.78605 29.8496H1.50977L15.6096 0.656309Z" fill="#267474" />
		<path d="M15.8375 0.756754L16.0652 0.857197L2.06242 29.8496H1.78613L15.8375 0.756754Z" fill="#257575" />
		<path d="M16.0653 0.857195L16.293 0.957638L2.33862 29.8496H2.0625L16.0653 0.857195Z" fill="#257676" />
		<path d="M16.2932 0.957642L16.5209 1.05808L2.61515 29.8496H2.33887L16.2932 0.957642Z" fill="#267777" />
		<path d="M16.521 1.05808L16.7486 1.15852L2.89136 29.8496H2.61523L16.521 1.05808Z" fill="#257879" />
		<path d="M16.7489 1.15853L16.9766 1.25897L3.16789 29.8496H2.8916L16.7489 1.15853Z" fill="#277979" />
		<path d="M16.9758 1.25897L17.2035 1.35942L3.44328 29.8496H3.16699L16.9758 1.25897Z" fill="#267A7A" />
		<path d="M17.2036 1.35926L17.4313 1.4597L3.71948 29.8496H3.44336L17.2036 1.35926Z" fill="#277B7B" />
		<path d="M17.4315 1.45971L17.6592 1.56015L3.99601 29.8496H3.71973L17.4315 1.45971Z" fill="#277C7C" />
		<path d="M17.6593 1.56015L17.887 1.66059L4.27221 29.8496H3.99609L17.6593 1.56015Z" fill="#267C7D" />
		<path d="M17.8872 1.66059L18.1149 1.76104L4.54875 29.8496H4.27246L17.8872 1.66059Z" fill="#287D7E" />
		<path d="M18.1142 1.76103L18.3419 1.86148L4.82414 29.8496H4.54785L18.1142 1.76103Z" fill="#277E7F" />
		<path d="M18.3429 1.86148L18.5706 1.96192L5.10132 29.8496H4.8252L18.3429 1.86148Z" fill="#277F80" />
		<path d="M18.5699 1.96193L18.7976 2.06237L5.37687 29.8496H5.10059L18.5699 1.96193Z" fill="#288081" />
		<path d="M18.7977 2.06221L19.0253 2.16265L5.65307 29.8496H5.37695L18.7977 2.06221Z" fill="#278182" />
		<path d="M19.0256 2.16265L19.2533 2.2631L5.92961 29.8496H5.65332L19.0256 2.16265Z" fill="#298283" />
		<path d="M19.2525 2.2631L19.4802 2.36354L6.205 29.8496H5.92871L19.2525 2.2631Z" fill="#288383" />
		<path d="M19.4813 2.36355L19.709 2.46399L6.48218 29.8496H6.20605L19.4813 2.36355Z" fill="#288485" />
		<path d="M19.7082 2.46398L19.9359 2.56443L6.75773 29.8496H6.48145L19.7082 2.46398Z" fill="#298585" />
		<path d="M19.936 2.56443L20.1637 2.66487L7.03393 29.8496H6.75781L19.936 2.56443Z" fill="#288586" />
		<path d="M20.1639 2.66487L20.3916 2.76531L7.3103 29.8496H7.03418L20.1639 2.66487Z" fill="#288687" />
		<path d="M20.3919 2.76516L20.6196 2.8656L7.58683 29.8496H7.31055L20.3919 2.76516Z" fill="#288889" />
		<path d="M20.6196 2.8656L20.8473 2.96605L7.86304 29.8496H7.58691L20.6196 2.8656Z" fill="#28898A" />
		<path d="M20.8476 2.96605L21.0752 3.06649L8.13957 29.8496H7.86328L20.8476 2.96605Z" fill="#28898A" />
		<path d="M21.0744 3.06649L21.302 3.16693L8.41479 29.8496H8.13867L21.0744 3.06649Z" fill="#298A8C" />
		<path d="M21.3023 3.16694L21.53 3.26738L8.69116 29.8496H8.41504L21.3023 3.16694Z" fill="#298B8C" />
		<path d="M21.5302 3.26738L21.7579 3.36782L8.96769 29.8496H8.69141L21.5302 3.26738Z" fill="#288C8D" />
		<path d="M21.758 3.36782L21.9857 3.46827L9.24389 29.8496H8.96777L21.758 3.36782Z" fill="#298D8E" />
		<path d="M21.9859 3.46827L22.2136 3.56871L9.52043 29.8496H9.24414L21.9859 3.46827Z" fill="#298E8F" />
		<path d="M22.2127 3.56855L22.4404 3.669L9.79565 29.8496H9.51953L22.2127 3.56855Z" fill="#288E90" />
		<path d="M22.4406 3.66899L22.6683 3.76944L10.072 29.8496H9.7959L22.4406 3.66899Z" fill="#299091" />
		<path d="M22.6686 3.76944L22.8962 3.86989L10.3486 29.8496H10.0723L22.6686 3.76944Z" fill="#299092" />
		<path d="M22.8963 3.86989L23.124 3.97033L10.6248 29.8496H10.3486L22.8963 3.86989Z" fill="#289193" />
		<path d="M23.1243 3.97033L23.3519 4.07077L10.9013 29.8496H10.625L23.1243 3.97033Z" fill="#2A9294" />
		<path d="M23.352 4.07077L23.5797 4.17122L11.1775 29.8496H10.9014L23.352 4.07077Z" fill="#299395" />
		<path d="M23.579 4.17122L23.8067 4.27166L11.4529 29.8496H11.1768L23.579 4.17122Z" fill="#289496" />
		<path d="M23.8069 4.27151L24.0346 4.37195L11.7294 29.8496H11.4531L23.8069 4.27151Z" fill="#2B9596" />
		<path d="M24.0347 4.37195L24.2624 4.47239L12.0056 29.8496H11.7295L24.0347 4.37195Z" fill="#2A9597" />
		<path d="M24.2626 4.47239L24.4903 4.57284L12.2821 29.8496H12.0059L24.2626 4.47239Z" fill="#299698" />
		<path d="M24.4904 4.57284L24.7181 4.67328L12.5583 29.8496H12.2822L24.4904 4.57284Z" fill="#2B9799" />
		<path d="M24.7173 4.67328L24.945 4.77372L12.8337 29.8496H12.5576L24.7173 4.67328Z" fill="#2A989A" />
		<path d="M24.9453 4.77373L25.1729 4.87417L13.1103 29.8496H12.834L24.9453 4.77373Z" fill="#29999B" />
		<path d="M25.173 4.87417L25.4007 4.97461L13.3865 29.8496H13.1104L25.173 4.87417Z" fill="#2B9A9B" />
		<path d="M25.401 4.97461L25.6286 5.07505L13.663 29.8496H13.3867L25.401 4.97461Z" fill="#2B9A9C" />
		<path d="M25.6287 5.0749L25.8564 5.17534L13.9392 29.8496H13.6631L25.6287 5.0749Z" fill="#2A9B9D" />
		<path d="M25.8566 5.17534L26.0843 5.27579L14.2156 29.8496H13.9395L25.8566 5.17534Z" fill="#2C9C9E" />
		<path d="M26.0836 5.27579L26.3113 5.37623L14.4911 29.8496H14.2148L26.0836 5.27579Z" fill="#2B9D9F" />
		<path d="M26.3114 5.37623L26.5391 5.47667L14.7673 29.8496H14.4912L26.3114 5.37623Z" fill="#2B9D9F" />
		<path d="M26.5393 5.47668L26.767 5.57712L15.0439 29.8496H14.7676L26.5393 5.47668Z" fill="#2A9EA1" />
		<path d="M26.7671 5.57712L26.773 5.5798V6.13649L15.3201 29.8496H15.0439L26.7671 5.57712Z" fill="#2C9FA1" />
		<path d="M26.7732 6.7083L15.5964 29.8496H15.3203L26.7732 6.13649V6.7083Z" fill="#2BA0A2" />
		<path d="M26.7725 7.2801L15.8718 29.8496H15.5957L26.7725 6.70829V7.2801Z" fill="#2AA1A3" />
		<path d="M26.7728 7.85207L16.1484 29.8496H15.8721L26.7728 7.28026V7.85207Z" fill="#2DA1A3" />
		<path d="M26.7728 8.42387L16.4246 29.8496H16.1484L26.7728 7.85206V8.42387Z" fill="#2CA2A4" />
		<path d="M26.7731 8.99568L16.7011 29.8496H16.4248L26.7731 8.42387V8.99568Z" fill="#2BA3A5" />
		<path d="M26.7732 9.56764L16.9773 29.8496H16.7012L26.7732 8.99583V9.56764Z" fill="#2BA3A6" />
		<path d="M26.7734 10.1394L17.2538 29.8496H16.9775L26.7734 9.56764V10.1394Z" fill="#2DA4A7" />
		<path d="M26.7725 10.7113L17.5291 29.8496H17.2529L26.7725 10.1394V10.7113Z" fill="#2CA5A7" />
		<path d="M26.7728 11.2831L17.8056 29.8496H17.5293L26.7728 10.7113V11.2831Z" fill="#2CA5A8" />
		<path d="M26.7728 11.855L18.0818 29.8496H17.8057L26.7728 11.2832V11.855Z" fill="#2BA6A9" />
		<path d="M26.7731 12.4268L18.3582 29.8496H18.082L26.7731 11.855V12.4268Z" fill="#2BA7A9" />
		<path d="M26.7733 12.9986L18.6347 29.8496H18.3584L26.7733 12.4268V12.9986Z" fill="#2DA7AA" />
		<path d="M26.7724 13.5706L18.9099 29.8496H18.6338L26.7724 12.9988V13.5706Z" fill="#2DA8AB" />
		<path d="M26.7727 14.1424L19.1864 29.8496H18.9102L26.7727 13.5706V14.1424Z" fill="#2DA8AB" />
		<path d="M26.7728 14.7142L19.4626 29.8496H19.1865L26.7728 14.1424V14.7142Z" fill="#2CA9AC" />
		<path d="M26.773 15.286L19.7392 29.8496H19.4629L26.773 14.7142V15.286Z" fill="#2CA9AD" />
		<path d="M26.7731 15.858L20.0154 29.8496H19.7393L26.7731 15.2862V15.858Z" fill="#2EAAAD" />
		<path d="M26.7733 16.4298L20.2917 29.8496H20.0156L26.7733 15.858V16.4298Z" fill="#2EAAAD" />
		<path d="M26.7726 17.0016L20.5673 29.8496H20.291L26.7726 16.4298V17.0016Z" fill="#2DABAE" />
		<path d="M26.7727 17.5736L20.8435 29.8496H20.5674L26.7727 17.0018V17.5736Z" fill="#2DABAF" />
		<path d="M26.7729 18.1454L21.12 29.8496H20.8438L26.7729 17.5736V18.1454Z" fill="#2DABAF" />
		<path d="M26.773 18.7172L21.3962 29.8496H21.1201L26.773 18.1454V18.7172Z" fill="#2CACAF" />
		<path d="M26.7733 19.289L21.6728 29.8496H21.3965L26.7733 18.7172V19.289Z" fill="#2CACAF" />
		<path d="M21.6719 29.8496L26.7724 19.289V29.8496H21.6719Z" fill="#2CACAF" />
	</g>
	<path d="M30.4202 25.1475V23.7063L32.1979 22.0076H35.1883V25.1475H30.4202ZM36.9536 20.3199V20.3194H33.9645H31.4656L30.4202 21.3184L29.6988 22.0076L28.6562 23.004V25.1475V25.392V26.8358V29.9756H30.4202V26.8358H35.1883V29.9754H36.9541V20.3199H36.9536Z" fill="#2CACAF" />
	<path d="M45.8667 24.6347H41.1002V22.0075H45.8667V24.6347ZM46.8223 20.3191H45.8667H39.3145L39.335 29.9756H41.1002V26.3229H42.0483L45.2947 29.9754H47.6221L44.3767 26.3229H45.8667H46.7107L47.6335 25.4411V24.6347V22.0073V21.0943L46.8223 20.3191Z" fill="#2CACAF" />
	<path d="M112.473 24.6347H107.707V22.0075H112.473V24.6347ZM113.429 20.3191H112.473H105.921L105.941 29.9756H107.707V26.3229H108.655L111.901 29.9754H114.229L110.983 26.3229H112.473H113.317L114.24 25.4411V24.6347V22.0073V21.0943L113.429 20.3191Z" fill="#2CACAF" />
	<path d="M57.8718 22.0256V20.3191H51.3385H49.5527V22.0256V24.294V26.0006V28.2691V29.9756H51.3385H57.8718V28.2691H51.3385V26.0006H57.8718V24.294H51.3385V22.0256H57.8718Z" fill="#2CACAF" />
	<path d="M66.1027 20.3184V26.5696L61.3551 20.3184H61.2626H59.7137H59.5693V20.4198V21.0027V29.9746H61.3551V23.3074L66.1027 29.4414L66.5164 29.9746H67.8884V28.877V20.3184H66.1027Z" fill="#2CACAF" />
	<path d="M75.9694 24.3737V25.1473V26.8357V28.2874H71.2013V26.8357V25.1473V24.3737V22.0075H74.1917L75.9694 23.7062V24.3737ZM76.6908 22.0075L75.9694 21.3182L74.924 20.3193H72.4251H69.436V20.3197H69.4355V29.9753H71.2013V29.9756H75.9694L77.7333 29.9754V26.8357V25.3918V25.1473V23.0039L76.6908 22.0075Z" fill="#2CACAF" />
	<path d="M81.1253 22.0076H85.8919V28.2872H81.1253V22.0076ZM86.8583 20.3194H80.1615L79.3613 21.0842V29.2108L80.1615 29.9756H86.8583L87.6586 29.2108V21.0842L86.8583 20.3194Z" fill="#2CACAF" />
	<path d="M99.0064 20.3193L95.0664 25.0823L91.0511 20.3193H89.2871V29.9756H91.0511V23.0089L93.9341 26.4273L95.0664 27.7696L96.1989 26.4273L99.0054 23.0975L99.0064 23.0964V29.9756H100.77V20.3193H99.0064Z" fill="#2CACAF" />
	<path d="M104.292 30H102.397V20.319H104.292V30Z" fill="#2CACAF" />
</svg>
