<svg width="14" height="11" viewBox="0 0 14 11" fill="none" xmlns="http://www.w3.org/2000/svg">
<path d="M12.5 4.5V0.5C12.5 0.367392 12.4473 0.240215 12.3536 0.146447C12.2598 0.0526785 12.1326 0 12 0H2C1.86739 0 1.74021 0.0526785 1.64645 0.146447C1.55268 0.240215 1.5 0.367392 1.5 0.5V4.5C1.10218 4.5 0.720644 4.65804 0.43934 4.93934C0.158035 5.22064 0 5.60218 0 6V11H1.125V10H12.875V11H14V6C14 5.60218 13.842 5.22064 13.5607 4.93934C13.2794 4.65804 12.8978 4.5 12.5 4.5ZM6.5 4.5H2.75V3.5C2.75 3.36739 2.80268 3.24021 2.89645 3.14645C2.99021 3.05268 3.11739 3 3.25 3H6C6.13261 3 6.25979 3.05268 6.35355 3.14645C6.44732 3.24021 6.5 3.36739 6.5 3.5V4.5ZM7.5 3.5C7.5 3.36739 7.55268 3.24021 7.64645 3.14645C7.74021 3.05268 7.86739 3 8 3H10.75C10.8826 3 11.0098 3.05268 11.1036 3.14645C11.1973 3.24021 11.25 3.36739 11.25 3.5V4.5H7.5V3.5Z" fill="#828282"/>
</svg>
