<svg width="11" height="11" viewBox="0 0 11 11" fill="none" xmlns="http://www.w3.org/2000/svg">
<path fill-rule="evenodd" clip-rule="evenodd" d="M10.4438 0C10.5913 0 10.7328 0.0585975 10.8371 0.162901C10.9414 0.267205 11 0.408672 11 0.55618V5.5C11 5.64751 10.9414 5.78897 10.8371 5.89328C10.7328 5.99758 10.5913 6.05618 10.4438 6.05618C10.2963 6.05618 10.1548 5.99758 10.0505 5.89328C9.94624 5.78897 9.88764 5.64751 9.88764 5.5V1.89843L1.89843 9.88764H5.5C5.64751 9.88764 5.78897 9.94624 5.89328 10.0505C5.99758 10.1548 6.05618 10.2963 6.05618 10.4438C6.05618 10.5913 5.99758 10.7328 5.89328 10.8371C5.78897 10.9414 5.64751 11 5.5 11H0.55618C0.408672 11 0.267205 10.9414 0.162901 10.8371C0.0585975 10.7328 0 10.5913 0 10.4438V5.5C-2.17672e-09 5.42696 0.0143861 5.35464 0.0423368 5.28716C0.0702874 5.21968 0.111255 5.15837 0.162901 5.10672C0.214548 5.05508 0.27586 5.01411 0.343339 4.98616C0.410818 4.95821 0.483141 4.94382 0.55618 4.94382C0.629218 4.94382 0.701542 4.95821 0.769021 4.98616C0.8365 5.01411 0.897812 5.05508 0.949458 5.10672C1.0011 5.15837 1.04207 5.21968 1.07002 5.28716C1.09797 5.35464 1.11236 5.42696 1.11236 5.5V9.10157L9.10157 1.11236H5.5C5.35249 1.11236 5.21103 1.05376 5.10672 0.949458C5.00242 0.845154 4.94382 0.703688 4.94382 0.55618C4.94382 0.408672 5.00242 0.267205 5.10672 0.162901C5.21103 0.0585975 5.35249 0 5.5 0H10.4438Z" fill="#828282"/>
</svg>
