<svg width="17" height="10" viewBox="0 0 17 10" fill="none" xmlns="http://www.w3.org/2000/svg">
<path d="M15.7714 1.42857H0.714285C0.524845 1.42857 0.343164 1.35332 0.209209 1.21936C0.075255 1.08541 0 0.903726 0 0.714285C0 0.524845 0.075255 0.343164 0.209209 0.209209C0.343164 0.075255 0.524845 0 0.714285 0H15.7714C15.9609 0 16.1425 0.075255 16.2765 0.209209C16.4104 0.343164 16.4857 0.524845 16.4857 0.714285C16.4857 0.903726 16.4104 1.08541 16.2765 1.21936C16.1425 1.35332 15.9609 1.42857 15.7714 1.42857Z" fill="#828282"/>
<path d="M10.5071 5.7147H0.714285C0.524845 5.7147 0.343164 5.63945 0.209209 5.50549C0.075255 5.37154 0 5.18986 0 5.00042C0 4.81098 0.075255 4.6293 0.209209 4.49534C0.343164 4.36139 0.524845 4.28613 0.714285 4.28613H10.5071C10.6966 4.28613 10.8783 4.36139 11.0122 4.49534C11.1462 4.6293 11.2214 4.81098 11.2214 5.00042C11.2214 5.18986 11.1462 5.37154 11.0122 5.50549C10.8783 5.63945 10.6966 5.7147 10.5071 5.7147Z" fill="#828282"/>
<path d="M5.2 9.99986H0.714285C0.524845 9.99986 0.343164 9.92461 0.209209 9.79065C0.075255 9.6567 0 9.47501 0 9.28557C0 9.09613 0.075255 8.91445 0.209209 8.7805C0.343164 8.64654 0.524845 8.57129 0.714285 8.57129H5.2C5.38944 8.57129 5.57112 8.64654 5.70507 8.7805C5.83903 8.91445 5.91428 9.09613 5.91428 9.28557C5.91428 9.47501 5.83903 9.6567 5.70507 9.79065C5.57112 9.92461 5.38944 9.99986 5.2 9.99986Z" fill="#828282"/>
</svg>
