<svg width="11" height="11" viewBox="0 0 11 11" fill="none" xmlns="http://www.w3.org/2000/svg">
<path d="M5.81192 2.75089L5.88263 2.68018L5.81192 2.60947L3.16397 -0.0384841L3.09326 -0.109195L3.02255 -0.0384841L0.374602 2.60947L0.303891 2.68018L0.374602 2.75089L0.858 3.23428L0.928711 3.305L0.999422 3.23428L2.65475 1.57896L2.64951 10.9999L2.64946 11.1H2.74951H3.43701H3.53696L3.53701 11.0001L3.54225 1.5943L5.18721 3.23439L5.25792 3.30489L5.32852 3.23428L5.81192 2.75089ZM10.146 7.76533L10.0753 7.69539L10.005 7.76572L8.35475 9.41594L8.34951 -5.56173e-05L8.34946 -0.1H8.24951H7.56201H7.46196L7.46201 5.56483e-05L7.46725 9.4103L5.82266 7.76572L5.75234 7.69539L5.68163 7.76533L5.19286 8.24872L5.1213 8.3195L5.19254 8.39061L7.84586 11.0386L7.91658 11.1091L7.98721 11.0385L10.6352 8.39054L10.7063 8.31943L10.6348 8.24872L10.146 7.76533Z" fill="#302D38" stroke="#302D38" stroke-width="0.2"/>
</svg>
