<svg width="134" height="125" viewBox="0 0 134 125" fill="none" xmlns="http://www.w3.org/2000/svg">
<ellipse cx="67" cy="61.5" rx="67" ry="61.5" fill="#2CACAF"/>
<g clip-path="url(#clip0_2262_37975)">
<path d="M105.983 106.667L106.942 125C106.942 125 66.3561 86.5584 61.2998 75.3108C56.2435 64.0632 65.7612 36.2402 65.7612 36.2402L86.8788 47.7838L105.983 106.667Z" fill="#D696A0"/>
<path d="M43.751 28.5449L37.505 29.1369C37.505 29.1369 34.2332 36.2406 44.3458 36.8326L43.751 28.5449Z" fill="#D696A0"/>
<path d="M43.751 39.4961L37.505 40.0881C37.505 40.0881 34.2332 47.1918 44.3458 47.7838L43.751 39.4961Z" fill="#D696A0"/>
<path d="M43.751 51.3359L37.505 51.9279C37.505 51.9279 34.2332 59.0317 44.3458 59.6236L43.751 51.3359Z" fill="#D696A0"/>
<path d="M45.5352 63.1748L39.2891 63.7668C39.2891 63.7668 36.0174 70.8705 46.13 71.4625L45.5352 63.1748Z" fill="#D696A0"/>
<path d="M40.71 31.3983H41.1839V18.4779C41.1839 17.4959 41.3783 16.5235 41.7559 15.6163C42.1335 14.709 42.687 13.8846 43.3848 13.1902C44.0826 12.4959 44.9109 11.945 45.8226 11.5692C46.7343 11.1934 47.7114 11 48.6982 11H76.205C77.1918 11 78.1689 11.1934 79.0806 11.5692C79.9923 11.945 80.8207 12.4958 81.5184 13.1902C82.2162 13.8846 82.7697 14.709 83.1473 15.6162C83.525 16.5235 83.7193 17.4959 83.7194 18.4779V89.3599C83.7194 90.3419 83.525 91.3143 83.1474 92.2216C82.7697 93.1288 82.2162 93.9532 81.5185 94.6476C80.8207 95.342 79.9923 95.8928 79.0806 96.2686C78.1689 96.6444 77.1918 96.8378 76.205 96.8378H48.6983C46.7053 96.8378 44.794 96.05 43.3848 94.6476C41.9756 93.2452 41.1839 91.3432 41.1839 89.3599V40.5952H40.71V31.3983Z" fill="#3F3D56"/>
<path d="M48.3948 12.9453H51.9854C51.8203 13.3482 51.7572 13.7853 51.8018 14.2181C51.8465 14.6509 51.9973 15.0661 52.2412 15.4272C52.4851 15.7884 52.8144 16.0842 53.2003 16.2888C53.5861 16.4934 54.0166 16.6005 54.4538 16.6005H70.2121C70.6493 16.6005 71.0797 16.4934 71.4656 16.2888C71.8514 16.0842 72.1808 15.7884 72.4247 15.4272C72.6685 15.0661 72.8194 14.6509 72.864 14.2181C72.9086 13.7853 72.8456 13.3482 72.6805 12.9453H76.0341C77.5224 12.9453 78.9497 13.5337 80.0021 14.581C81.0545 15.6282 81.6457 17.0487 81.6457 18.5297V89.3077C81.6457 90.0411 81.5005 90.7673 81.2185 91.4448C80.9365 92.1223 80.5232 92.738 80.0021 93.2565C79.481 93.7751 78.8624 94.1864 78.1815 94.4671C77.5007 94.7477 76.771 94.8922 76.0341 94.8922H48.3948C47.6579 94.8922 46.9282 94.7477 46.2474 94.4671C45.5665 94.1864 44.9479 93.7751 44.4268 93.2565C43.9057 92.738 43.4924 92.1223 43.2104 91.4448C42.9284 90.7673 42.7832 90.0411 42.7832 89.3077V18.5298C42.7832 17.7964 42.9284 17.0702 43.2104 16.3927C43.4924 15.7151 43.9057 15.0995 44.4268 14.581C44.9479 14.0624 45.5665 13.651 46.2474 13.3704C46.9282 13.0898 47.6579 12.9453 48.3948 12.9453Z" fill="white"/>
<path d="M68.1363 32.7744H56.293V35.6185H68.1363V32.7744Z" fill="#27AE60"/>
<path d="M68.7005 44.9951H55.7295V47.8392H68.7005V44.9951Z" fill="#E5E5E5"/>
<path d="M76.6902 51.1045H47.7402V53.9485H76.6902V51.1045Z" fill="#E5E5E5"/>
<path d="M76.6902 57.2139H47.7402V60.0579H76.6902V57.2139Z" fill="#E5E5E5"/>
<path d="M134 116.216L100.709 78.4188L99.5194 54.1477L87.0273 33.4285L83.4581 24.5488C83.4581 24.5488 75.1301 25.4368 81.971 42.3082L84.7966 51.3358C82.2495 56.7952 80.93 62.7418 80.93 68.7609V89.4477C80.93 94.3188 104.256 120.852 106.971 124.905L134 116.216Z" fill="#EDB3BB"/>
<path opacity="0.2" d="M84.4373 35.1839L86.9207 33.9693L86.8361 33.7978L84.5415 34.9202L81.0777 25.8828L80.8984 25.951L84.4373 35.1839Z" fill="black"/>
<path opacity="0.2" d="M37.538 29.0464L37.4717 29.2256L41.1506 30.5742L41.2169 30.395L37.538 29.0464Z" fill="black"/>
<path opacity="0.2" d="M37.538 40.1225L37.4717 40.3018L41.1506 41.6504L41.2169 41.4712L37.538 40.1225Z" fill="black"/>
<path opacity="0.2" d="M37.538 51.9634L37.4717 52.1426L41.1506 53.4912L41.2169 53.312L37.538 51.9634Z" fill="black"/>
<path opacity="0.2" d="M39.4658 63.8074L39.3828 63.9795L41.1739 64.835L41.2569 64.6628L39.4658 63.8074Z" fill="black"/>
<path d="M61.9336 84.0898C66.3519 84.0898 69.9336 80.5081 69.9336 76.0898C69.9336 71.6716 66.3519 68.0898 61.9336 68.0898C57.5153 68.0898 53.9336 71.6716 53.9336 76.0898C53.9336 80.5081 57.5153 84.0898 61.9336 84.0898Z" fill="#27AE60"/>
<path d="M58 76.2727L60.625 79L65 74" stroke="white" stroke-width="1.5" stroke-linecap="round" stroke-linejoin="round"/>
</g>
<defs>
<clipPath id="clip0_2262_37975">
<rect width="97" height="114" fill="white" transform="translate(37 11)"/>
</clipPath>
</defs>
</svg>
