<svg width="21" height="26" viewBox="0 0 21 26" fill="none" xmlns="http://www.w3.org/2000/svg">
<path class="first-path" d="M9.59518 -0.0810331L1.84518 2.82522C0.837683 3.21272 0.166016 4.16855 0.166016 5.25355V11.3244C0.166016 17.5631 4.20893 23.4273 9.7631 25.2098C10.241 25.3648 10.7577 25.3648 11.2356 25.2098C16.7898 23.4273 20.8327 17.5761 20.8327 11.3244V5.25355C20.8318 4.72792 20.6705 4.21508 20.3705 3.78349C20.0705 3.3519 19.6459 3.0221 19.1535 2.83813L11.4035 -0.0681164C10.8223 -0.300616 10.1764 -0.300616 9.59518 -0.0810331Z" fill="#FF6E30"/>
<path d="M11.6613 12.5C10.6267 12.5 8.56133 13.0154 8.56133 14.05V14.825H14.7613V14.05C14.7613 13.0154 12.696 12.5 11.6613 12.5ZM8.17383 10.95V9.7875H7.39883V10.95H6.23633V11.725H7.39883V12.8875H8.17383V11.725H9.33633V10.95M11.6613 11.725C12.0724 11.725 12.4667 11.5617 12.7573 11.271C13.048 10.9803 13.2113 10.5861 13.2113 10.175C13.2113 9.76391 13.048 9.36967 12.7573 9.07898C12.4667 8.7883 12.0724 8.625 11.6613 8.625C11.2502 8.625 10.856 8.7883 10.5653 9.07898C10.2746 9.36967 10.1113 9.76391 10.1113 10.175C10.1113 10.5861 10.2746 10.9803 10.5653 11.271C10.856 11.5617 11.2502 11.725 11.6613 11.725Z" fill="white"/>
</svg>
