<svg width="22" height="26" viewBox="0 0 22 26" fill="none" xmlns="http://www.w3.org/2000/svg">
<path d="M10.0673 -0.0810331L2.06732 2.82522C1.02732 3.21272 0.333984 4.16855 0.333984 5.25355V11.3244C0.333984 17.5631 4.50732 23.4273 10.2407 25.2098C10.734 25.3648 11.2673 25.3648 11.7606 25.2098C17.494 23.4273 21.6673 17.5761 21.6673 11.3244V5.25355C21.6664 4.72792 21.4999 4.21508 21.1902 3.78349C20.8805 3.3519 20.4423 3.0221 19.934 2.83813L11.934 -0.0681164C11.334 -0.300616 10.6673 -0.300616 10.0673 -0.0810331Z" fill="#FF6E30"/>
<g clip-path="url(#clip0_4006_12834)">
<path d="M11.2992 7.65625V9.69062C11.2992 9.92186 11.394 10.1436 11.5628 10.3071C11.7316 10.4706 11.9605 10.5625 12.1992 10.5625H14.2992V14.9219C14.2992 15.1531 14.2044 15.3749 14.0356 15.5384C13.8668 15.7019 13.6379 15.7937 13.3992 15.7937H11.1387C11.2407 15.6229 11.2992 15.4244 11.2992 15.2125V13.4688C11.2993 13.2069 11.2081 12.9526 11.0404 12.7472C10.8727 12.5418 10.6383 12.3973 10.3752 12.3371C10.3228 12.059 10.1879 11.8018 9.98696 11.5969C9.78602 11.392 9.52777 11.2482 9.24382 11.1833C8.95987 11.1184 8.66254 11.135 8.38821 11.2312C8.11388 11.3274 7.87445 11.499 7.69922 11.725V8.52813C7.69922 8.29689 7.79404 8.07512 7.96282 7.91162C8.13161 7.74811 8.36052 7.65625 8.59922 7.65625H11.2992ZM11.8992 7.69025V9.69062C11.8992 9.7677 11.9308 9.84163 11.9871 9.89613C12.0433 9.95063 12.1197 9.98125 12.1992 9.98125H14.2641C14.222 9.83925 14.1434 9.70994 14.0355 9.60547L12.2871 7.912C12.1793 7.80743 12.0458 7.73112 11.8992 7.69025ZM7.84922 12.7422H7.69922C7.50031 12.7422 7.30954 12.8187 7.16889 12.955C7.02824 13.0912 6.94922 13.2761 6.94922 13.4688V15.2125C6.94922 15.4052 7.02824 15.59 7.16889 15.7263C7.30954 15.8625 7.50031 15.9391 7.69922 15.9391H10.0992C10.2981 15.9391 10.4889 15.8625 10.6295 15.7263C10.7702 15.59 10.8492 15.4052 10.8492 15.2125V13.4688C10.8492 13.2761 10.7702 13.0912 10.6295 12.955C10.4889 12.8187 10.2981 12.7422 10.0992 12.7422H9.94922V12.5969C9.94922 12.4633 9.92206 12.331 9.86929 12.2076C9.81652 12.0842 9.73918 11.9721 9.64168 11.8776C9.54418 11.7832 9.42843 11.7082 9.30104 11.6571C9.17364 11.606 9.03711 11.5797 8.89922 11.5797C8.76133 11.5797 8.62479 11.606 8.4974 11.6571C8.37001 11.7082 8.25426 11.7832 8.15676 11.8776C8.05926 11.9721 7.98191 12.0842 7.92915 12.2076C7.87638 12.331 7.84922 12.4633 7.84922 12.5969V12.7422ZM8.44922 12.5969C8.44922 12.4813 8.49663 12.3704 8.58102 12.2886C8.66541 12.2069 8.77987 12.1609 8.89922 12.1609C9.01857 12.1609 9.13303 12.2069 9.21742 12.2886C9.30181 12.3704 9.34922 12.4813 9.34922 12.5969V12.7422H8.44922V12.5969ZM9.49922 14.3406C9.49922 14.4948 9.436 14.6426 9.32348 14.7516C9.21096 14.8606 9.05835 14.9219 8.89922 14.9219C8.74009 14.9219 8.58748 14.8606 8.47495 14.7516C8.36243 14.6426 8.29922 14.4948 8.29922 14.3406C8.29922 14.1865 8.36243 14.0386 8.47495 13.9296C8.58748 13.8206 8.74009 13.7594 8.89922 13.7594C9.05835 13.7594 9.21096 13.8206 9.32348 13.9296C9.436 14.0386 9.49922 14.1865 9.49922 14.3406Z" fill="white"/>
</g>
<defs>
<clipPath id="clip0_4006_12834">
<rect width="9.6" height="9.3" fill="white" transform="translate(6.19922 7.0752)"/>
</clipPath>
</defs>
</svg>
