<svg width="22" height="26" viewBox="0 0 22 26" fill="none" xmlns="http://www.w3.org/2000/svg">
<path d="M9.73333 0.163108L1.73333 3.06936C0.693334 3.45686 0 4.41269 0 5.49769V11.5685C0 17.8073 4.17333 23.6714 9.90667 25.4539C10.4 25.6089 10.9333 25.6089 11.4267 25.4539C17.16 23.6714 21.3333 17.8202 21.3333 11.5685V5.49769C21.3324 4.97206 21.1659 4.45922 20.8562 4.02763C20.5465 3.59604 20.1083 3.26624 19.6 3.08227L11.6 0.176024C11 -0.0564758 10.3333 -0.0564758 9.73333 0.163108Z" fill="#FF6E30"/>
<path d="M14.2 10.175L11 12.1125L7.8 10.175V9.4L11 11.3375L14.2 9.4M14.2 8.625H7.8C7.356 8.625 7 8.96988 7 9.4V14.05C7 14.2555 7.08429 14.4527 7.23431 14.598C7.38434 14.7433 7.58783 14.825 7.8 14.825H14.2C14.4122 14.825 14.6157 14.7433 14.7657 14.598C14.9157 14.4527 15 14.2555 15 14.05V9.4C15 9.19446 14.9157 8.99733 14.7657 8.85199C14.6157 8.70665 14.4122 8.625 14.2 8.625Z" fill="white"/>
</svg>
