<svg width="21" height="26" viewBox="0 0 21 26" fill="none" xmlns="http://www.w3.org/2000/svg">
<path d="M9.59518 -0.0810331L1.84518 2.82522C0.837683 3.21272 0.166016 4.16855 0.166016 5.25355V11.3244C0.166016 17.5631 4.20893 23.4273 9.7631 25.2098C10.241 25.3648 10.7577 25.3648 11.2356 25.2098C16.7898 23.4273 20.8327 17.5761 20.8327 11.3244V5.25355C20.8318 4.72792 20.6705 4.21508 20.3705 3.78349C20.0705 3.3519 19.6459 3.0221 19.1535 2.83813L11.4035 -0.0681164C10.8223 -0.300616 10.1764 -0.300616 9.59518 -0.0810331Z" fill="#FF6E30"/>
<g clip-path="url(#clip0_4006_12833)">
<path d="M7.78761 9.01272C7.78764 8.93794 7.76604 8.86475 7.7254 8.80197C7.68477 8.7392 7.62683 8.68952 7.55859 8.65894C7.61439 8.61515 7.68182 8.58531 7.75622 8.57446L11.9404 7.97655C12.0504 7.96084 12.1624 7.96893 12.2689 8.00028C12.3754 8.03163 12.474 8.08551 12.5579 8.15827C12.6418 8.23102 12.709 8.32096 12.7552 8.42198C12.8013 8.523 12.8251 8.63275 12.8251 8.7438V9.06155C12.6985 9.02903 12.5683 9.01262 12.4376 9.01272H7.78761ZM9.62823 12.1127C9.62823 11.8815 9.72009 11.6597 9.8836 11.4962C10.0471 11.3327 10.2689 11.2408 10.5001 11.2408C10.7313 11.2408 10.9531 11.3327 11.1166 11.4962C11.2801 11.6597 11.372 11.8815 11.372 12.1127C11.372 12.344 11.2801 12.5657 11.1166 12.7292C10.9531 12.8927 10.7313 12.9846 10.5001 12.9846C10.2689 12.9846 10.0471 12.8927 9.8836 12.7292C9.72009 12.5657 9.62823 12.344 9.62823 12.1127Z" fill="white"/>
<path fill-rule="evenodd" clip-rule="evenodd" d="M12.8254 9.46607C13.2768 9.62611 13.6004 10.0566 13.6004 10.5627V14.4377C13.6004 14.746 13.4779 15.0417 13.2599 15.2597C13.0419 15.4777 12.7462 15.6002 12.4379 15.6002H8.56289C8.25458 15.6002 7.95889 15.4777 7.74088 15.2597C7.52287 15.0417 7.40039 14.746 7.40039 14.4377V9.0127C7.40039 9.11547 7.44122 9.21403 7.51389 9.2867C7.58656 9.35937 7.68512 9.4002 7.78789 9.4002H12.4379C12.5735 9.4002 12.7041 9.42345 12.8254 9.46607ZM10.5004 10.6596C10.115 10.6596 9.74539 10.8127 9.47288 11.0852C9.20036 11.3577 9.04727 11.7273 9.04727 12.1127C9.04727 12.4981 9.20036 12.8677 9.47288 13.1402C9.74539 13.4127 10.115 13.5658 10.5004 13.5658C10.8858 13.5658 11.2554 13.4127 11.5279 13.1402C11.8004 12.8677 11.9535 12.4981 11.9535 12.1127C11.9535 11.7273 11.8004 11.3577 11.5279 11.0852C11.2554 10.8127 10.8858 10.6596 10.5004 10.6596ZM9.72539 14.1471C9.64831 14.1471 9.57439 14.1777 9.51989 14.2322C9.46539 14.2867 9.43477 14.3606 9.43477 14.4377C9.43477 14.5148 9.46539 14.5887 9.51989 14.6432C9.57439 14.6977 9.64831 14.7283 9.72539 14.7283H11.2754C11.3525 14.7283 11.4264 14.6977 11.4809 14.6432C11.5354 14.5887 11.566 14.5148 11.566 14.4377C11.566 14.3606 11.5354 14.2867 11.4809 14.2322C11.4264 14.1777 11.3525 14.1471 11.2754 14.1471H9.72539Z" fill="white"/>
</g>
<defs>
<clipPath id="clip0_4006_12833">
<rect width="9.3" height="9.3" fill="white" transform="translate(5.84961 7.0752)"/>
</clipPath>
</defs>
</svg>
