<svg width="21" height="26" viewBox="0 0 21 26" fill="none" xmlns="http://www.w3.org/2000/svg">
<path d="M9.59518 -0.0810331L1.84518 2.82522C0.837683 3.21272 0.166016 4.16855 0.166016 5.25355V11.3244C0.166016 17.5631 4.20893 23.4273 9.7631 25.2098C10.241 25.3648 10.7577 25.3648 11.2356 25.2098C16.7898 23.4273 20.8327 17.5761 20.8327 11.3244V5.25355C20.8318 4.72792 20.6705 4.21508 20.3705 3.78349C20.0705 3.3519 19.6459 3.0221 19.1535 2.83813L11.4035 -0.0681164C10.8223 -0.300616 10.1764 -0.300616 9.59518 -0.0810331Z" fill="#FF6E30"/>
<path d="M7.89884 11.5137C8.45684 12.6104 9.35584 13.5055 10.4525 14.0674L11.305 13.2149C11.4096 13.1102 11.5646 13.0754 11.7002 13.1219C12.1342 13.2652 12.6031 13.3427 13.0836 13.3427C13.2967 13.3427 13.4711 13.5171 13.4711 13.7302V15.0826C13.4711 15.2957 13.2967 15.4701 13.0836 15.4701C9.44497 15.4701 6.49609 12.5212 6.49609 8.88262C6.49609 8.66949 6.67047 8.49512 6.88359 8.49512H8.23984C8.45297 8.49512 8.62734 8.66949 8.62734 8.88262C8.62734 9.36699 8.70484 9.83199 8.84822 10.266C8.89084 10.4016 8.85984 10.5527 8.75134 10.6612L7.89884 11.5137Z" fill="white"/>
</svg>
