<svg class="first-path" width="21" height="26" viewBox="0 0 21 26" fill="none" xmlns="http://www.w3.org/2000/svg">
	<path d="M9.59518 -0.0810331L1.84518 2.82522C0.837683 3.21272 0.166016 4.16855 0.166016 5.25355V11.3244C0.166016 17.5631 4.20893 23.4273 9.7631 25.2098C10.241 25.3648 10.7577 25.3648 11.2356 25.2098C16.7898 23.4273 20.8327 17.5761 20.8327 11.3244V5.25355C20.8318 4.72792 20.6705 4.21508 20.3705 3.78349C20.0705 3.3519 19.6459 3.0221 19.1535 2.83813L11.4035 -0.0681164C10.8223 -0.300616 10.1764 -0.300616 9.59518 -0.0810331Z" fill="#FF6E30" />
	<g clip-path="url(#clip0_4006_12835)">
		<path d="M14.5512 11.0155L11.6088 11.0155L11.6088 8.07312C11.6085 8.0164 11.5858 7.9621 11.5457 7.92198C11.5056 7.88187 11.4513 7.85918 11.3945 7.85884L10.0046 7.85884C9.97641 7.85879 9.94852 7.86429 9.9225 7.87504C9.89648 7.88579 9.87284 7.90158 9.85293 7.92149C9.83302 7.94139 9.81724 7.96504 9.80649 7.99106C9.79574 8.01708 9.79023 8.04497 9.79028 8.07312L9.79028 11.0155L6.84788 11.0155C6.79105 11.0155 6.73655 11.0381 6.69636 11.0783C6.65618 11.1185 6.6336 11.173 6.63359 11.2298V12.6198C6.63354 12.6479 6.63904 12.6758 6.64979 12.7019C6.66055 12.7279 6.67633 12.7515 6.69624 12.7714C6.71614 12.7913 6.73979 12.8071 6.76581 12.8179C6.79183 12.8286 6.81972 12.8341 6.84788 12.8341L9.79028 12.8341L9.79028 15.7765C9.79029 15.8333 9.81287 15.8878 9.85305 15.928C9.89324 15.9682 9.94774 15.9908 10.0046 15.9908L11.3945 15.9908C11.4227 15.9908 11.4506 15.9853 11.4766 15.9746C11.5026 15.9638 11.5263 15.948 11.5462 15.9281C11.5661 15.9082 11.5819 15.8846 11.5926 15.8586C11.6034 15.8325 11.6089 15.8046 11.6088 15.7765L11.6088 12.8341L14.5512 12.8341C14.6081 12.8341 14.6626 12.8115 14.7027 12.7713C14.7429 12.7311 14.7655 12.6766 14.7655 12.6198V11.2298C14.7656 11.2017 14.7601 11.1738 14.7493 11.1478C14.7386 11.1217 14.7228 11.0981 14.7029 11.0782C14.683 11.0583 14.6593 11.0425 14.6333 11.0317C14.6073 11.021 14.5794 11.0155 14.5512 11.0155Z" fill="white" />
	</g>
	<defs>
		<clipPath id="clip0_4006_12835">
			<rect width="6.85817" height="6.85817" fill="white" transform="translate(5.84961 11.9248) rotate(-45)" />
		</clipPath>
	</defs>
</svg>
