<svg width="22" height="26" viewBox="0 0 22 26" fill="none" xmlns="http://www.w3.org/2000/svg">
	<path class="first-path" d="M10.0673 -0.0810331L2.06732 2.82522C1.02732 3.21272 0.333984 4.16855 0.333984 5.25355V11.3244C0.333984 17.5631 4.50732 23.4273 10.2407 25.2098C10.734 25.3648 11.2673 25.3648 11.7606 25.2098C17.494 23.4273 21.6673 17.5761 21.6673 11.3244V5.25355C21.6664 4.72792 21.4999 4.21508 21.1902 3.78349C20.8805 3.3519 20.4423 3.0221 19.934 2.83813L11.934 -0.0681164C11.334 -0.300616 10.6673 -0.300616 10.0673 -0.0810331Z" fill="#FF6E30" />
	<g clip-path="url(#clip0_4006_12836)">
		<path d="M11.8026 8.88281H6.99589C6.55589 8.88281 6.19922 9.22833 6.19922 9.65458V14.311C6.19922 14.7373 6.55589 15.0828 6.99589 15.0828H11.8026C12.2426 15.0828 12.5992 14.7373 12.5992 14.311V9.65458C12.5992 9.22833 12.2426 8.88281 11.8026 8.88281ZM14.9592 9.49151L13.1326 10.7121V13.2535L14.9592 14.4725C15.3126 14.7082 15.7992 14.4677 15.7992 14.0559V9.90807C15.7992 9.49797 15.3142 9.25578 14.9592 9.49151Z" fill="white" />
	</g>
	<defs>
		<clipPath id="clip0_4006_12836">
			<rect width="9.6" height="8.26667" fill="white" transform="translate(6.19922 7.84961)" />
		</clipPath>
	</defs>
</svg>
