<svg width="256" height="286" viewBox="0 0 256 286" fill="none" xmlns="http://www.w3.org/2000/svg">
<g opacity="0.05">
<mask id="mask0_2474_50360" style="mask-type:luminance" maskUnits="userSpaceOnUse" x="0" y="0" width="256" height="286">
<path d="M0 117.342V286H256L243.23 273.472H13.0847V122.528L122.543 17.7152L229.99 120.575V246.21H35.7457V135.935L122.493 54.4247L206.752 135.081C206.883 149.063 207.014 164.549 207.144 180.035C207.275 194.517 207.406 209 207.537 222.306C183.618 222.481 159.414 222.356 135.941 222.255C112.47 222.155 88.264 222.054 64.2938 222.205C64.3726 211.078 64.4513 199.129 64.5301 187.176C64.6356 173.369 64.7128 159.562 64.8184 146.985L122.439 93.6127L177.339 146.859L176.999 197.324H96.9251L84.1303 209.852H190.005L190.449 141.747L122.649 75.9729L51.7605 141.622V144.253C51.655 157.533 51.5494 172.317 51.447 187.1C51.3667 201.384 51.2627 215.64 51.1587 228.469L51.1319 234.833L57.7782 234.782C83.7885 234.557 110.271 234.684 135.889 234.782C161.534 234.909 188.067 235.01 214.183 234.782L220.725 234.734L220.673 228.469C220.543 213.51 220.385 196.723 220.227 179.934C220.097 163.496 219.941 147.06 219.81 132.401L219.785 129.846L122.595 36.785L22.6611 130.672V258.738H243.073V115.387L122.543 0L0 117.342Z" fill="white"/>
</mask>
<g mask="url(#mask0_2474_50360)">
<path d="M15 0L0 31V0H15Z" fill="#224646"/>
<path d="M18 0L0 37V31.4484L15.3004 0H18Z" fill="#224646"/>
<path d="M20 0L0 42V36.5217L17.3918 0H20Z" fill="#224646"/>
<path d="M23 0L0 47V41.5769L20.3466 0H23Z" fill="#224747"/>
<path d="M26 0L0 53V47.5172L23.3108 0H26Z" fill="#224848"/>
<path d="M28 3.8147e-06L0 58V52.5611L25.3755 3.8147e-06H28Z" fill="#224949"/>
<path d="M31 0L0 64V58.5144L28.3434 0H31Z" fill="#224A4A"/>
<path d="M33 0L0 69V63.5527L30.3953 0H33Z" fill="#234B4B"/>
<path d="M36 0L0 75V69.5109L33.3664 0H36Z" fill="#224B4C"/>
<path d="M39 0L0 80V74.5456L36.3415 0H39Z" fill="#234C4C"/>
<path d="M41 0L0 86V80.5108L38.3835 0H41Z" fill="#224D4D"/>
<path d="M44 0L0 91V85.5402L41.3605 0H44Z" fill="#224E4E"/>
<path d="M47 0L0 97V91.5082L44.3402 0H47Z" fill="#234F4F"/>
<path d="M49 0L0 102V96.5359L46.3756 0H49Z" fill="#225050"/>
<path d="M52 0L0 108V102.509L49.3565 0H52Z" fill="#235051"/>
<path d="M55 7.62939e-06L0 113V107.531L52.3393 7.62939e-06H55Z" fill="#225151"/>
<path d="M57 0L0 119V113.508L54.3699 0H57Z" fill="#235252"/>
<path d="M60 -7.62939e-06L0 124V118.53L57.3535 -7.62939e-06H60Z" fill="#235353"/>
<path d="M62 0L0 130V124.507L59.3809 0H62Z" fill="#235454"/>
<path d="M65 0L0 135V129.526L62.3655 0H65Z" fill="#235555"/>
<path d="M68 0L0 141V135.507L65.3512 0H68Z" fill="#235656"/>
<path d="M70 0L0 146V140.525L67.3756 0H70Z" fill="#235757"/>
<path d="M73 0L0 152V146.505L70.3621 0H73Z" fill="#235758"/>
<path d="M76 0L0 157V151.524L73.3495 0H76Z" fill="#235859"/>
<path d="M78 0L0 163V157.506L75.3714 0H78Z" fill="#235A5A"/>
<path d="M81 0L0 168V162.522L78.3593 0H81Z" fill="#245A5B"/>
<path d="M84 1L0 174V168.536L81.348 1H84Z" fill="#235B5B"/>
<path d="M86 0L0 179V173.521L83.368 0H86Z" fill="#245C5C"/>
<path d="M89 0L0 184V178.535L86.3571 0H89Z" fill="#235D5D"/>
<path d="M92 0L0 190V184.52L89.3468 0H92Z" fill="#245E5E"/>
<path d="M94 0L0 195V189.532L91.3651 0H94Z" fill="#245F5F"/>
<path d="M97 0L0 201V195.518L94.3552 0H97Z" fill="#256060"/>
<path d="M99 0L0 206V200.531L96.3723 0H99Z" fill="#246161"/>
<path d="M102 -1.52588e-05L0 212V206.516L99.3627 -1.52588e-05H102Z" fill="#246262"/>
<path d="M105 0L0 217V211.53L102.354 0H105Z" fill="#246363"/>
<path d="M107 0L0 223V217.517L104.369 0H107Z" fill="#246363"/>
<path d="M110 0L0 228V222.528L107.361 0H110Z" fill="#256464"/>
<path d="M113 -1.52588e-05L0 234V228.514L110.352 -1.52588e-05H113Z" fill="#246566"/>
<path d="M115 0L0 239V233.527L112.367 0H115Z" fill="#256767"/>
<path d="M118 0L0 245V239.515L115.359 0H118Z" fill="#256767"/>
<path d="M121 0L0 250V244.524L118.351 0H121Z" fill="#246868"/>
<path d="M123 0L0 256V250.515L120.365 0H123Z" fill="#256969"/>
<path d="M126 0L0 261V255.525L123.357 0H126Z" fill="#256A6A"/>
<path d="M129 0L0 267V261.514L126.35 0H129Z" fill="#266B6B"/>
<path d="M131 0L0 272V266.522L128.363 0H131Z" fill="#256C6C"/>
<path d="M134 0L0 278V272.513L131.356 0H134Z" fill="#246D6D"/>
<path d="M134.836 0L136 0.514252L0 283V277.523L133.611 0H134.836Z" fill="#256E6E"/>
<path d="M135.829 1L138 1.96075L1.23171 286H0V283.089L135.829 1Z" fill="#256F6F"/>
<path d="M137.828 1L140 1.96402L3.63581 286H1L137.828 1Z" fill="#26706F"/>
<path d="M140.821 2L143 2.9639L6.6446 286H4L140.821 2Z" fill="#257171"/>
<path d="M142.829 3L145 3.96378L9.63282 286H7L142.829 3Z" fill="#257171"/>
<path d="M144.822 4L147 4.96362L11.6432 286H9L144.822 4Z" fill="#267272"/>
<path d="M146.83 5L149 5.9635L14.6314 286H12L146.83 5Z" fill="#257374"/>
<path d="M148.823 6L151 6.96338L16.6419 286H14L148.823 6Z" fill="#267474"/>
<path d="M151.815 7L154 7.96326L19.6508 286H17L151.815 7Z" fill="#257575"/>
<path d="M153.824 8L156 8.96313L22.6389 286H20L153.824 8Z" fill="#257676"/>
<path d="M155.817 9L158 9.96301L24.6495 286H22L155.817 9Z" fill="#267777"/>
<path d="M157.825 10L160 10.9629L27.6375 286H25L157.825 10Z" fill="#257879"/>
<path d="M160.818 11L163 11.9627L30.6481 286H28L160.818 11Z" fill="#277979"/>
<path d="M161.826 12L164 12.9626L32.6376 286H30L161.826 12Z" fill="#267A7A"/>
<path d="M164.819 13L167 13.9625L35.6452 286H33L164.819 13Z" fill="#277B7B"/>
<path d="M166.828 14L169 14.9623L38.6361 286H36L166.828 14Z" fill="#277C7C"/>
<path d="M168.82 15L171 15.9622L40.6437 286H38L168.82 15Z" fill="#267C7D"/>
<path d="M170.829 16L173 16.9621L43.6346 286H41L170.829 16Z" fill="#287D7E"/>
<path d="M172.821 17L175 17.9619L45.6439 286H43L172.821 17Z" fill="#277E7F"/>
<path d="M174.83 18L177 18.9618L48.6316 286H46L174.83 18Z" fill="#277F80"/>
<path d="M177.822 19L180 19.9617L51.6424 286H49L177.822 19Z" fill="#288081"/>
<path d="M178.831 20L181 20.9615L53.63 286H51L178.831 20Z" fill="#278182"/>
<path d="M181.824 21L184 21.9614L56.641 286H54L181.824 21Z" fill="#298283"/>
<path d="M184.816 22L187 22.9612L59.6504 286H57L184.816 22Z" fill="#288383"/>
<path d="M185.825 23L188 23.9611L61.6379 286H59L185.825 23Z" fill="#288485"/>
<path d="M188.817 24L191 24.961L64.649 286H62L188.817 24Z" fill="#298585"/>
<path d="M190.826 25L193 25.9608L67.6364 286H65L190.826 25Z" fill="#288586"/>
<path d="M192.818 26L195 26.9607L69.646 286H67L192.818 26Z" fill="#288687"/>
<path d="M194.827 26L197 26.9642L72.6364 286H70L194.827 26Z" fill="#288889"/>
<path d="M197.819 27L200 27.9641L75.6445 286H73L197.819 27Z" fill="#28898A"/>
<path d="M198.829 28L201 28.964L77.6349 286H75L198.829 28Z" fill="#28898A"/>
<path d="M201.821 29L204 29.9638L80.643 286H78L201.821 29Z" fill="#298A8C"/>
<path d="M202.83 30L205 30.9637L82.6317 286H80L202.83 30Z" fill="#298B8C"/>
<path d="M205.822 31L208 31.9636L85.6431 286H83L205.822 31Z" fill="#288C8D"/>
<path d="M207.831 32L210 32.9634L88.6302 286H86L207.831 32Z" fill="#298D8E"/>
<path d="M209.823 33L212 33.9633L90.6415 286H88L209.823 33Z" fill="#298E8F"/>
<path d="M212.815 34L215 34.9631L93.6499 286H91L212.815 34Z" fill="#288E90"/>
<path d="M214.824 35L217 35.963L96.6384 286H94L214.824 35Z" fill="#299091"/>
<path d="M216.816 36L219 36.9628L98.65 286H96L216.816 36Z" fill="#299092"/>
<path d="M218.826 37L221 37.9627L101.637 286H99L218.826 37Z" fill="#289193"/>
<path d="M221.817 38L224 38.9626L104.648 286H102L221.817 38Z" fill="#2A9294"/>
<path d="M222.827 39L225 39.9624L106.635 286H104L222.827 39Z" fill="#299395"/>
<path d="M225.819 40L228 40.9623L109.645 286H107L225.819 40Z" fill="#289496"/>
<path d="M227.828 41L230 41.9621L112.635 286H110L227.828 41Z" fill="#2B9596"/>
<path d="M229.82 42L232 42.9619L114.644 286H112L229.82 42Z" fill="#2A9597"/>
<path d="M231.83 43L234 43.9618L117.634 286H115L231.83 43Z" fill="#299698"/>
<path d="M233.821 44L236 44.9617L119.642 286H117L233.821 44Z" fill="#2B9799"/>
<path d="M235.831 45L238 45.9615L122.63 286H120L235.831 45Z" fill="#2A989A"/>
<path d="M238.823 46L241 46.9613L125.642 286H123L238.823 46Z" fill="#29999B"/>
<path d="M240.814 47L243 47.9612L127.651 286H125L240.814 47Z" fill="#2B9A9B"/>
<path d="M242.824 48L245 48.961L130.641 286H128L242.824 48Z" fill="#2B9A9C"/>
<path d="M245.815 49L248 49.9609L133.649 286H131L245.815 49Z" fill="#2A9B9D"/>
<path d="M246.825 50L249 50.9607L135.637 286H133L246.825 50Z" fill="#2C9C9E"/>
<path d="M249.817 51L252 51.9605L138.649 286H136L249.817 51Z" fill="#2B9D9F"/>
<path d="M251.827 52L254 52.9604L141.636 286H139L251.827 52Z" fill="#2B9D9F"/>
<path d="M253.818 52L256 52.9644L143.648 286H141L253.818 52Z" fill="#2A9EA1"/>
<path d="M255.943 53L256 53.0257V58.3696L146.637 286H144L255.943 53Z" fill="#2C9FA1"/>
<path d="M256 64.4738L148.652 286H146L256 59V64.4738Z" fill="#2BA0A2"/>
<path d="M256 69.4855L151.643 286H149L256 64V69.4855Z" fill="#2AA1A3"/>
<path d="M256 75.4725L154.636 286H152L256 70V75.4725Z" fill="#2DA1A3"/>
<path d="M256 80.4848L156.651 286H154L256 75V80.4848Z" fill="#2CA2A4"/>
<path d="M256 86.471L159.643 286H157L256 81V86.471Z" fill="#2BA3A5"/>
<path d="M256 91.484L162.632 286H160L256 86V91.484Z" fill="#2BA3A6"/>
<path d="M256 97.4694L164.651 286H162L256 92V97.4694Z" fill="#2DA4A7"/>
<path d="M256 102.483L167.64 286H165L256 97V102.483Z" fill="#2CA5A7"/>
<path d="M256 108.468L170.63 286H168L256 103V108.468Z" fill="#2CA5A8"/>
<path d="M256 113.482L172.648 286H170L256 108V113.482Z" fill="#2BA6A9"/>
<path d="M256 119.466L175.637 286H173L256 114V119.466Z" fill="#2BA7A9"/>
<path d="M256 124.481L178.627 286H176L256 119V124.481Z" fill="#2DA7AA"/>
<path d="M256 130.463L180.646 286H178L256 125V130.463Z" fill="#2DA8AB"/>
<path d="M256 135.48L183.635 286H181L256 130V135.48Z" fill="#2DA8AB"/>
<path d="M256 141.461L185.657 286H183L256 136V141.461Z" fill="#2CA9AC"/>
<path d="M256 146.478L188.646 286H186L256 141V146.478Z" fill="#2CA9AD"/>
<path d="M256 151.497L191.63 286H189L256 146V151.497Z" fill="#2EAAAD"/>
<path d="M256 157.476L193.656 286H191L256 152V157.476Z" fill="#2EAAAD"/>
<path d="M256 162.497L196.643 286H194L256 157V162.497Z" fill="#2DABAE"/>
<path d="M256 168.474L199.625 286H197L256 163V168.474Z" fill="#2DABAF"/>
<path d="M256 173.496L201.656 286H199L256 168V173.496Z" fill="#2DABAF"/>
<path d="M256 179.472L204.638 286H202L256 174V179.472Z" fill="#2CACAF"/>
<path d="M256 184.496L207.621 286H205L256 179V184.496Z" fill="#2CACAF"/>
<path d="M207 286L256 185V286H207Z" fill="#2CACAF"/>
</g>
</g>
</svg>
