<svg width="19" height="15" viewBox="0 0 19 15" fill="none" xmlns="http://www.w3.org/2000/svg">
<path d="M14.2222 1H16.1111C16.6121 1 17.0925 1.19566 17.4468 1.54394C17.801 1.89223 18 2.3646 18 2.85714V4.71429M18 10.2857V12.1429C18 12.6354 17.801 13.1078 17.4468 13.4561C17.0925 13.8043 16.6121 14 16.1111 14H14.2222M4.77778 14H2.88889C2.38792 14 1.90748 13.8043 1.55324 13.4561C1.19901 13.1078 1 12.6354 1 12.1429V10.2857M1 4.71429V2.85714C1 2.3646 1.19901 1.89223 1.55324 1.54394C1.90748 1.19566 2.38792 1 2.88889 1H4.77778M4.77778 5.64286C4.77778 5.39658 4.87728 5.1604 5.0544 4.98626C5.23152 4.81212 5.47174 4.71429 5.72222 4.71429H13.2778C13.5283 4.71429 13.7685 4.81212 13.9456 4.98626C14.1227 5.1604 14.2222 5.39658 14.2222 5.64286V9.35714C14.2222 9.60342 14.1227 9.8396 13.9456 10.0137C13.7685 10.1879 13.5283 10.2857 13.2778 10.2857H5.72222C5.47174 10.2857 5.23152 10.1879 5.0544 10.0137C4.87728 9.8396 4.77778 9.60342 4.77778 9.35714V5.64286Z" stroke="black" stroke-width="1.2" stroke-linecap="round" stroke-linejoin="round"/>
</svg>
