<svg width="18" height="18" viewBox="0 0 18 18" fill="none" xmlns="http://www.w3.org/2000/svg">
<path d="M15.7899 14.0302L9.79824 2.9032C9.37355 2.1143 8.24222 2.1143 7.81718 2.9032L1.82585 14.0302C1.73364 14.2014 1.68741 14.3937 1.69168 14.5881C1.69594 14.7826 1.75055 14.9726 1.85018 15.1397C1.9498 15.3068 2.09104 15.4451 2.26011 15.5413C2.42917 15.6375 2.62029 15.6882 2.8148 15.6885H14.7992C14.9939 15.6885 15.1852 15.638 15.3545 15.542C15.5238 15.4459 15.6653 15.3076 15.7651 15.1404C15.865 14.9733 15.9197 14.7832 15.9241 14.5886C15.9284 14.394 15.8822 14.2016 15.7899 14.0302ZM8.80789 13.9658C8.66882 13.9658 8.53288 13.9246 8.41725 13.8473C8.30162 13.7701 8.2115 13.6602 8.15828 13.5318C8.10507 13.4033 8.09114 13.2619 8.11827 13.1255C8.1454 12.9891 8.21237 12.8638 8.3107 12.7655C8.40903 12.6672 8.53432 12.6002 8.67071 12.5731C8.80711 12.546 8.94848 12.5599 9.07696 12.6131C9.20544 12.6663 9.31525 12.7564 9.39251 12.8721C9.46977 12.9877 9.51101 13.1236 9.51101 13.2627C9.51101 13.4492 9.43693 13.628 9.30507 13.7599C9.17321 13.8917 8.99437 13.9658 8.80789 13.9658ZM9.57148 6.89414L9.36968 11.1832C9.36968 11.3324 9.31042 11.4755 9.20493 11.5809C9.09944 11.6864 8.95637 11.7457 8.80718 11.7457C8.658 11.7457 8.51492 11.6864 8.40943 11.5809C8.30395 11.4755 8.24468 11.3324 8.24468 11.1832L8.04289 6.8959C8.03835 6.79345 8.05449 6.69114 8.09034 6.59506C8.12619 6.49898 8.18101 6.4111 8.25155 6.33666C8.32208 6.26222 8.40688 6.20274 8.50089 6.16178C8.5949 6.12081 8.6962 6.09919 8.79875 6.0982H8.80613C8.90937 6.09815 9.01155 6.11901 9.10651 6.15954C9.20147 6.20006 9.28724 6.2594 9.35863 6.33399C9.43002 6.40857 9.48556 6.49684 9.52191 6.59347C9.55825 6.69011 9.57463 6.79311 9.57007 6.89625L9.57148 6.89414Z" fill="#F13F2D"/>
</svg>
