<svg width="14" height="14" viewBox="0 0 14 14" fill="none" xmlns="http://www.w3.org/2000/svg">
<g clip-path="url(#clip0_2475_51903)">
<path fill-rule="evenodd" clip-rule="evenodd" d="M7 14C3.13381 14 0 10.8662 0 7C0 3.13381 3.13381 0 7 0C10.8662 0 14 3.13381 14 7C14 10.8662 10.8662 14 7 14ZM4.59375 6.66663V7.45762H5.3655V8.59863H4.59375V9.34456H5.3655V10.9375H6.23525V9.34456H7.98525V8.59863H6.23525V7.45762H7.33294C7.66734 7.46043 8.00039 7.41474 8.32169 7.322C8.62619 7.23144 8.89044 7.0945 9.11531 6.90944C9.34019 6.72525 9.51781 6.49381 9.64819 6.21469C9.77856 5.936 9.84375 5.60831 9.84375 5.23163C9.84375 4.85538 9.7825 4.53162 9.65912 4.26038C9.53575 3.98913 9.36556 3.76469 9.14812 3.58794C8.93069 3.41119 8.66994 3.27906 8.36544 3.19244C8.0362 3.10255 7.69608 3.05882 7.35481 3.0625H5.3655V6.66663H4.59375ZM7.35437 6.66663H6.23525V3.8535H7.35481C7.85444 3.8535 8.24775 3.96288 8.53388 4.18119C8.82 4.3995 8.9635 4.74994 8.9635 5.23163C8.9635 5.71375 8.82 6.07338 8.53388 6.31094C8.24775 6.54806 7.85444 6.66663 7.35481 6.66663H7.35437Z" fill="#27AE60"/>
</g>
<defs>
<clipPath id="clip0_2475_51903">
<rect width="14" height="14" fill="white"/>
</clipPath>
</defs>
</svg>
