<svg width="148" height="219" viewBox="0 0 148 219" fill="none" xmlns="http://www.w3.org/2000/svg">
<g clip-path="url(#clip0_2475_54629)">
<path d="M106.74 58.9569C123.042 58.9569 136.257 45.7589 136.257 29.4784C136.257 13.1979 123.042 0 106.74 0C90.439 0 77.2241 13.1979 77.2241 29.4784C77.2241 45.7589 90.439 58.9569 106.74 58.9569Z" fill="#FF6884"/>
<path d="M63.1961 213.601L1.79607 211.482L0.000950765 61.9836C-0.0425131 58.355 1.40603 54.8018 3.97553 52.2356L67.7497 16.6179C72.742 11.6324 80.5997 11.2721 86.0278 15.7819L124.73 47.936C127.888 50.559 129.671 54.4159 129.623 58.5174L128.293 170.948L145.114 194.281L145.15 194.33L148 219L63.1961 213.601Z" fill="#F1F2F2"/>
<path d="M68.7908 51.4267V44.4943C68.7908 42.6645 70.2814 41.1758 72.1136 41.1758H81.8661C83.6983 41.1758 85.1887 42.6645 85.1887 44.4943V51.4267C85.1887 53.2565 83.6983 54.7452 81.8661 54.7452H72.1136C70.2814 54.7452 68.7908 53.2565 68.7908 51.4267Z" fill="#4D88DF"/>
<path d="M48.1763 105.237V79.5881C48.1763 77.7583 49.6669 76.2695 51.4991 76.2695H65.9367C67.7689 76.2695 69.2593 77.7583 69.2593 79.5881V105.237C69.2593 107.067 67.7689 108.555 65.9367 108.555H51.4991C49.6669 108.555 48.1763 107.067 48.1763 105.237Z" fill="#3F3D56"/>
<path d="M13.197 135.034V109.385C13.197 107.555 14.6877 106.066 16.5198 106.066H30.9575C32.7897 106.066 34.2801 107.555 34.2801 109.385V135.034C34.2801 136.864 32.7897 138.352 30.9575 138.352H16.5198C14.6877 138.352 13.197 136.864 13.197 135.034Z" fill="#3F3D56"/>
<path d="M80.8113 165.275C79.0663 165.214 77.6592 163.799 77.6075 162.056L76.8775 137.266C76.8463 136.207 77.305 135.224 78.1359 134.566C78.9668 133.909 80.0308 133.69 81.0552 133.961L81.7852 134.156C83.2374 134.543 84.2517 135.861 84.2517 137.362V161.959C84.2517 162.867 83.8912 163.715 83.2367 164.346C82.6113 164.95 81.7971 165.277 80.9323 165.277C80.8921 165.277 80.8518 165.277 80.8113 165.275Z" fill="#3F3D56"/>
<path d="M50.5188 161.855V136.132C50.5188 134.316 51.9429 132.859 53.7606 132.814L66.8829 132.494C68.7018 132.469 70.2322 133.895 70.2855 135.716L71.0414 161.759C71.0675 162.663 70.7344 163.518 70.103 164.167C69.472 164.816 68.6256 165.173 67.7199 165.173H53.8416C52.0094 165.173 50.5188 163.685 50.5188 161.855Z" fill="#3F3D56"/>
<path d="M128.08 179.431L138.365 197.692L139.546 218.229L147.735 218.748L144.924 194.417L128.058 171.021C126.602 173.638 126.61 176.822 128.08 179.431Z" fill="#CCCCCC"/>
<path d="M139.217 212.351L105.836 212.807L105.842 213.275L139.223 212.819L139.217 212.351Z" fill="#3F3D56"/>
<path d="M137.192 208.222L105.542 208.469L105.545 208.937L137.195 208.69L137.192 208.222Z" fill="#3F3D56"/>
<path d="M135.549 204.001L105.274 204.592L105.283 205.06L135.558 204.469L135.549 204.001Z" fill="#3F3D56"/>
<path d="M134.609 199.805L105.535 200.77L105.551 201.237L134.625 200.273L134.609 199.805Z" fill="#3F3D56"/>
<path d="M133.203 196.068L105.27 197.049L105.286 197.517L133.22 196.536L133.203 196.068Z" fill="#3F3D56"/>
<path d="M131.337 192.779H104.13V193.247H131.337V192.779Z" fill="#3F3D56"/>
<path d="M129.929 189.497L103.488 189.807L103.493 190.275L129.934 189.965L129.929 189.497Z" fill="#3F3D56"/>
<path d="M128.518 186.225L102.897 187.074L102.913 187.542L128.534 186.693L128.518 186.225Z" fill="#3F3D56"/>
<path d="M127.585 182.966L102.285 183.41L102.293 183.878L127.593 183.434L127.585 182.966Z" fill="#3F3D56"/>
<path d="M125.707 179.724L101.483 180.48L101.497 180.948L125.722 180.192L125.707 179.724Z" fill="#3F3D56"/>
<path d="M124.776 176.871L100.765 177.105L100.769 177.573L124.78 177.339L124.776 176.871Z" fill="#3F3D56"/>
<path d="M99.0099 167.236V135.504C99.0099 133.674 100.501 132.186 102.333 132.186H117.707C119.54 132.186 121.03 133.674 121.03 135.504V167.236C121.03 169.066 119.54 170.554 117.707 170.554H102.333C100.501 170.554 99.0099 169.066 99.0099 167.236Z" fill="#4D88DF"/>
<path d="M63.1962 213.6L7.86941 211.869L7.65002 211.855V190.819C7.65002 188.159 37.9279 185.994 40.5916 185.994H67.4739C70.1376 185.994 72.3047 188.159 72.3047 190.819V213.601H72.0704L63.1962 213.6Z" fill="#CCCCCC"/>
<path d="M100.884 109.683V85.4377C100.884 83.6079 102.375 82.1191 104.207 82.1191H109.274C111.106 82.1191 112.597 83.6079 112.597 85.4377V109.683C112.597 111.513 111.106 113.001 109.274 113.001H104.207C102.375 113.001 100.884 111.513 100.884 109.683Z" fill="#3F3D56"/>
<path d="M106.038 215.941L104.632 195.353L100.416 175.7L99.2443 170.319C96.8374 168.685 93.5962 170.503 93.7415 173.406L93.8564 175.7L98.073 195.353L99.4785 215.941" fill="#CCCCCC"/>
</g>
<defs>
<clipPath id="clip0_2475_54629">
<rect width="148" height="219" fill="white"/>
</clipPath>
</defs>
</svg>
