<svg width="158" height="243" viewBox="0 0 158 243" fill="none" xmlns="http://www.w3.org/2000/svg">
<path d="M153.435 103.443L61.34 157.006C61.0176 157.193 60.6339 157.245 60.273 157.151C59.9121 157.057 59.6035 156.824 59.4149 156.504L0.191712 55.6698C0.00381283 55.349 -0.0485574 54.9672 0.0460896 54.608C0.140737 54.2489 0.374675 53.9418 0.696578 53.7541L92.7917 0.190773C93.114 0.00379349 93.4977 -0.0483201 93.8586 0.045865C94.2195 0.14005 94.5281 0.372843 94.7168 0.693173L153.94 101.527C154.128 101.848 154.18 102.23 154.086 102.589C153.991 102.948 153.757 103.255 153.435 103.443Z" fill="white"/>
<path d="M153.435 103.443L61.34 157.006C61.0176 157.193 60.6339 157.245 60.273 157.151C59.9121 157.057 59.6035 156.824 59.4149 156.504L0.191712 55.6698C0.00381283 55.349 -0.0485574 54.9672 0.0460896 54.608C0.140737 54.2489 0.374675 53.9418 0.696578 53.7541L92.7917 0.190773C93.114 0.00379349 93.4977 -0.0483201 93.8586 0.045865C94.2195 0.14005 94.5281 0.372843 94.7168 0.693173L153.94 101.527C154.128 101.848 154.18 102.23 154.086 102.589C153.991 102.948 153.757 103.255 153.435 103.443ZM0.980626 54.2377C0.787476 54.3503 0.647107 54.5346 0.590318 54.7501C0.533529 54.9656 0.564958 55.1947 0.677709 55.3871L59.9009 156.221C60.014 156.413 60.1992 156.553 60.4158 156.609C60.6323 156.666 60.8625 156.635 61.0559 156.522L153.151 102.959C153.344 102.846 153.485 102.662 153.541 102.447C153.598 102.231 153.567 102.002 153.454 101.81L94.2308 0.975813C94.1176 0.783606 93.9325 0.643922 93.7159 0.58741C93.4994 0.530898 93.2691 0.562172 93.0757 0.674372L0.980626 54.2377Z" fill="#3F3D56"/>
<path d="M60.18 64.2802L37.3384 77.565C37.0161 77.752 36.6324 77.8041 36.2715 77.7099C35.9106 77.6157 35.602 77.383 35.4134 77.0626L22.0633 54.3327C21.8754 54.0119 21.823 53.6301 21.9177 53.271C22.0123 52.9118 22.2463 52.6047 22.5682 52.417L45.4097 39.1322C45.732 38.9452 46.1157 38.8931 46.4766 38.9873C46.8375 39.0815 47.1461 39.3143 47.3348 39.6346L60.6848 62.3645C60.8727 62.6853 60.9251 63.0671 60.8304 63.4262C60.7358 63.7854 60.5019 64.0925 60.18 64.2802ZM22.8522 52.9006C22.6591 53.0133 22.5187 53.1975 22.4619 53.413C22.4051 53.6285 22.4365 53.8576 22.5493 54.05L35.8994 76.78C36.0125 76.9722 36.1977 77.1119 36.4142 77.1684C36.6308 77.2249 36.861 77.1936 37.0544 77.0814L59.8959 63.7966C60.0891 63.684 60.2295 63.4997 60.2862 63.2842C60.343 63.0687 60.3116 62.8396 60.1989 62.6472L46.8488 39.9172C46.7356 39.725 46.5504 39.5853 46.3339 39.5288C46.1174 39.4723 45.8871 39.5036 45.6937 39.6158L22.8522 52.9006Z" fill="#F2F2F2"/>
<path d="M55.2522 70.8767L32.4107 84.1616C32.1206 84.3298 31.7753 84.3768 31.4505 84.292C31.1256 84.2072 30.8479 83.9977 30.6781 83.7094L17.3281 60.9795C17.1589 60.6908 17.1118 60.3471 17.197 60.0239C17.2822 59.7007 17.4927 59.4243 17.7824 59.2554L40.624 45.9705C40.9141 45.8022 41.2594 45.7553 41.5842 45.8401C41.909 45.9249 42.1868 46.1344 42.3566 46.4227L55.7066 69.1526C55.8757 69.4413 55.9229 69.7849 55.8377 70.1082C55.7525 70.4314 55.542 70.7078 55.2522 70.8767Z" fill="#4D88DF"/>
<path d="M110.384 53.7333L38.9435 95.2837C38.6535 95.4524 38.308 95.4995 37.9831 95.4147C37.6582 95.3299 37.3804 95.1201 37.2109 94.8315C37.0414 94.543 36.9941 94.1992 37.0793 93.8758C37.1645 93.5525 37.3753 93.2761 37.6653 93.1074L109.106 51.557C109.249 51.4735 109.408 51.4189 109.573 51.3964C109.738 51.374 109.905 51.384 110.066 51.426C110.227 51.468 110.378 51.5411 110.511 51.6411C110.643 51.7412 110.754 51.8663 110.838 52.0092C110.922 52.152 110.977 52.31 111 52.474C111.022 52.638 111.012 52.8048 110.97 52.9649C110.928 53.1249 110.854 53.2752 110.754 53.4071C110.653 53.5389 110.528 53.6497 110.384 53.7333Z" fill="#CCCCCC"/>
<path d="M97.5343 71.2645L43.3464 102.781C43.2028 102.864 43.0441 102.919 42.8793 102.941C42.7146 102.964 42.5469 102.954 42.3861 102.912C42.0611 102.827 41.7834 102.617 41.6139 102.329C41.4444 102.04 41.397 101.696 41.4822 101.373C41.5674 101.049 41.7782 100.773 42.0682 100.604L96.2561 69.0882C96.3997 69.0047 96.5585 68.9502 96.7232 68.9277C96.888 68.9052 97.0557 68.9153 97.2165 68.9572C97.3774 68.9992 97.5284 69.0723 97.6609 69.1724C97.7934 69.2725 97.9048 69.3975 97.9887 69.5404C98.0726 69.6833 98.1275 69.8412 98.15 70.0052C98.1726 70.1692 98.1625 70.336 98.1203 70.4961C98.0782 70.6562 98.0047 70.8065 97.9041 70.9383C97.8036 71.0701 97.6779 71.181 97.5343 71.2645Z" fill="#CCCCCC"/>
<path d="M93.9506 26.3094L62.3612 44.6821C62.0712 44.8507 61.7257 44.8979 61.4008 44.8131C61.0759 44.7283 60.7981 44.5185 60.6286 44.2299C60.4591 43.9413 60.4118 43.5976 60.497 43.2742C60.5822 42.9509 60.793 42.6745 61.083 42.5058L92.6724 24.1332C92.9624 23.9645 93.3078 23.9174 93.6328 24.0022C93.7936 24.0442 93.9446 24.1173 94.0771 24.2173C94.2096 24.3174 94.321 24.4424 94.405 24.5853C94.4889 24.7282 94.5437 24.8862 94.5663 25.0501C94.5889 25.2141 94.5788 25.3809 94.5366 25.541C94.4944 25.7011 94.4209 25.8514 94.3204 25.9832C94.2198 26.1151 94.0942 26.2259 93.9506 26.3094Z" fill="#CCCCCC"/>
<path d="M90.4699 38.3895L66.7642 52.177C66.6206 52.2605 66.4618 52.315 66.2971 52.3375C66.1323 52.36 65.9647 52.3499 65.8038 52.308C65.6429 52.266 65.4919 52.1929 65.3594 52.0928C65.2269 51.9928 65.1155 51.8677 65.0316 51.7248C64.9477 51.5819 64.8928 51.424 64.8703 51.26C64.8477 51.096 64.8578 50.9292 64.9 50.7691C64.9421 50.609 65.0156 50.4587 65.1162 50.3269C65.2167 50.1951 65.3424 50.0842 65.486 50.0007L89.1917 36.2132C89.4817 36.0446 89.8272 35.9975 90.1521 36.0822C90.477 36.167 90.7548 36.3768 90.9243 36.6654C91.0938 36.954 91.1411 37.2978 91.0559 37.6211C90.9707 37.9444 90.7599 38.2208 90.4699 38.3895Z" fill="#CCCCCC"/>
<path d="M119.19 68.7255L47.7494 110.276C47.4594 110.445 47.1139 110.492 46.789 110.407C46.4641 110.322 46.1863 110.112 46.0168 109.824C45.8473 109.535 45.8 109.191 45.8852 108.868C45.9704 108.545 46.1812 108.268 46.4712 108.1L117.912 66.5492C118.202 66.3805 118.547 66.3334 118.872 66.4182C119.197 66.503 119.475 66.7127 119.644 67.0013C119.814 67.2899 119.861 67.6337 119.776 67.957C119.691 68.2804 119.48 68.5568 119.19 68.7255Z" fill="#CCCCCC"/>
<path d="M106.34 86.2567L52.1519 117.773C52.0083 117.856 51.8495 117.911 51.6848 117.933C51.52 117.956 51.3524 117.946 51.1915 117.904C51.0306 117.862 50.8796 117.789 50.7471 117.689C50.6146 117.589 50.5032 117.464 50.4193 117.321C50.3354 117.178 50.2805 117.02 50.2579 116.856C50.2354 116.692 50.2455 116.525 50.2876 116.365C50.3298 116.205 50.4033 116.055 50.5039 115.923C50.6044 115.791 50.7301 115.68 50.8737 115.597L105.062 84.0804C105.205 83.9969 105.364 83.9424 105.529 83.9199C105.693 83.8974 105.861 83.9074 106.022 83.9494C106.183 83.9914 106.334 84.0645 106.466 84.1646C106.599 84.2646 106.71 84.3897 106.794 84.5326C106.878 84.6755 106.933 84.8334 106.955 84.9974C106.978 85.1614 106.968 85.3282 106.926 85.4883C106.884 85.6484 106.81 85.7986 106.71 85.9305C106.609 86.0623 106.483 86.1732 106.34 86.2567Z" fill="#CCCCCC"/>
<path d="M127.995 83.7176L56.5543 125.268C56.4107 125.352 56.252 125.406 56.0872 125.429C55.9224 125.451 55.7548 125.441 55.5939 125.399C55.4331 125.357 55.282 125.284 55.1496 125.184C55.0171 125.084 54.9057 124.959 54.8217 124.816C54.7378 124.673 54.683 124.515 54.6604 124.351C54.6378 124.187 54.6479 124.02 54.6901 123.86C54.7323 123.7 54.8058 123.55 54.9063 123.418C55.0069 123.286 55.1325 123.175 55.2761 123.092L126.717 81.5414C126.86 81.4578 127.019 81.4033 127.184 81.3808C127.349 81.3583 127.516 81.3684 127.677 81.4104C127.838 81.4524 127.989 81.5255 128.121 81.6255C128.254 81.7256 128.365 81.8506 128.449 81.9935C128.533 82.1364 128.588 82.2944 128.611 82.4583C128.633 82.6223 128.623 82.7891 128.581 82.9492C128.539 83.1093 128.465 83.2596 128.365 83.3914C128.264 83.5233 128.138 83.6341 127.995 83.7176Z" fill="#CCCCCC"/>
<path d="M132.397 91.2137L60.9568 132.764C60.8132 132.848 60.6545 132.902 60.4897 132.925C60.3249 132.947 60.1573 132.937 59.9964 132.895C59.8355 132.853 59.6845 132.78 59.552 132.68C59.4195 132.58 59.3081 132.455 59.2242 132.312C59.1403 132.169 59.0855 132.011 59.0629 131.847C59.0403 131.683 59.0504 131.516 59.0926 131.356C59.1348 131.196 59.2082 131.046 59.3088 130.914C59.4093 130.782 59.535 130.671 59.6786 130.588L131.119 89.0375C131.263 88.9539 131.421 88.8994 131.586 88.8769C131.751 88.8544 131.919 88.8645 132.08 88.9065C132.24 88.9484 132.391 89.0216 132.524 89.1216C132.656 89.2217 132.768 89.3467 132.852 89.4896C132.936 89.6325 132.99 89.7905 133.013 89.9544C133.036 90.1184 133.026 90.2852 132.983 90.4453C132.941 90.6054 132.868 90.7557 132.767 90.8875C132.667 91.0194 132.541 91.1302 132.397 91.2137Z" fill="#CCCCCC"/>
<path d="M109.295 120.396C110.287 119.233 111.181 117.989 111.966 116.678C112.67 115.496 113.36 114.231 113.516 112.845C113.595 112.254 113.533 111.653 113.335 111.091C113.137 110.529 112.809 110.021 112.376 109.609C111.958 109.225 111.429 108.984 110.864 108.92C110.299 108.856 109.728 108.973 109.235 109.253C108.735 109.539 108.322 109.953 108.04 110.453C107.758 110.953 107.617 111.519 107.631 112.092C107.672 112.723 107.855 113.337 108.167 113.887C108.48 114.438 108.913 114.912 109.434 115.273C111.546 116.795 114.844 116.715 117.094 115.557C119.629 114.252 120.939 110.838 118.948 108.501C118.533 108.015 117.844 108.558 117.948 109.082C118.079 109.791 118.478 110.422 119.062 110.848C119.645 111.274 120.37 111.462 121.089 111.373C121.807 111.285 122.465 110.927 122.927 110.373C123.389 109.818 123.621 109.109 123.575 108.39L122.68 108.911C123.777 109.395 124.984 109.582 126.177 109.455C127.371 109.327 128.51 108.889 129.479 108.185C129.959 107.838 130.387 107.426 130.752 106.961C131.19 106.392 131.926 106.025 132.522 105.615L136.818 102.661C137.45 102.227 136.849 101.191 136.212 101.629L132.322 104.304C131.673 104.75 131.021 105.19 130.376 105.642C129.916 105.965 129.632 106.486 129.213 106.869C128.42 107.579 127.44 108.05 126.387 108.227C125.335 108.405 124.253 108.28 123.269 107.869C123.177 107.82 123.075 107.796 122.971 107.797C122.866 107.799 122.765 107.828 122.675 107.88C122.585 107.932 122.51 108.007 122.457 108.096C122.405 108.185 122.376 108.287 122.374 108.39C122.421 108.819 122.296 109.249 122.027 109.587C121.757 109.925 121.364 110.143 120.933 110.194C120.502 110.244 120.069 110.124 119.727 109.858C119.386 109.592 119.163 109.203 119.109 108.775L118.109 109.357C119.394 110.864 118.538 113.177 117.058 114.188C115.403 115.319 112.957 115.516 111.091 114.813C110.633 114.656 110.213 114.407 109.856 114.081C109.499 113.756 109.214 113.36 109.018 112.92C108.836 112.522 108.784 112.078 108.87 111.649C108.955 111.22 109.173 110.829 109.494 110.531C109.772 110.257 110.145 110.102 110.536 110.098C110.927 110.094 111.303 110.241 111.587 110.508C111.896 110.822 112.123 111.207 112.247 111.628C112.372 112.05 112.39 112.495 112.301 112.926C112.108 114.123 111.443 115.227 110.824 116.25C110.118 117.415 109.319 118.522 108.435 119.561C107.939 120.144 108.794 120.985 109.295 120.396Z" fill="#4D88DF"/>
<path d="M109.912 158.803C110.016 158.909 110.111 159.023 110.196 159.144L123.499 158.82L125.051 155.998L129.637 157.772L127.378 163.034C127.195 163.459 126.879 163.813 126.477 164.045C126.074 164.276 125.608 164.37 125.146 164.315L110.116 162.508C109.762 162.955 109.279 163.284 108.732 163.45C108.185 163.617 107.6 163.615 107.055 163.443C106.51 163.271 106.03 162.938 105.68 162.488C105.329 162.038 105.125 161.493 105.094 160.924C105.062 160.356 105.206 159.792 105.504 159.306C105.803 158.821 106.244 158.438 106.767 158.208C107.29 157.977 107.871 157.911 108.433 158.017C108.995 158.124 109.511 158.398 109.912 158.803Z" fill="#FFB7B7"/>
<path d="M153.279 239.2H148.905L146.824 222.41L153.28 222.41L153.279 239.2Z" fill="#FFB7B7"/>
<path d="M154.394 243.418L140.29 243.418V243.24C140.29 241.791 140.869 240.402 141.898 239.377C142.928 238.353 144.324 237.777 145.78 237.777H145.78L154.394 237.778L154.394 243.418Z" fill="#2F2E41"/>
<path d="M113.559 239.102L109.537 237.392L114.251 221.139L120.188 223.663L113.559 239.102Z" fill="#FFB7B7"/>
<path d="M112.92 243.42L99.95 237.906L100.02 237.743C100.592 236.41 101.672 235.359 103.024 234.819C104.375 234.279 105.886 234.296 107.225 234.865L107.225 234.865L115.147 238.233L112.92 243.42Z" fill="#2F2E41"/>
<path d="M132.017 162.44L131.701 167.541L140.947 168.525L150.621 169.556L147.774 161.811L132.017 162.44Z" fill="#FFB7B7"/>
<path d="M131.41 167.606L127.818 142.688L134.044 140.658L135.872 138.162L144.771 138.686L146.077 141.598L150.822 143.829L150.093 157.305L150.625 168.578L131.41 167.606Z" fill="#2F2E41"/>
<path d="M129.149 160.929L122.816 158.408L122.843 158.296C122.87 158.183 125.566 146.975 125.923 145.174C126.296 143.298 127.658 142.779 127.716 142.758L127.758 142.742L130.264 143.501L131.365 152.107L129.149 160.929Z" fill="#2F2E41"/>
<path d="M116.817 236.152L108.388 234.431L121.861 197.436L126.472 184.817C126.472 184.817 129.396 174.7 130.718 170.785L131.515 165.531L150.392 167.61C150.392 167.61 155.664 175.315 154.062 187.874L154.786 235.076L146.357 235.506L139.296 187.9L126.904 213.998C126.904 213.998 122.998 225.134 120.204 227.548L116.817 236.152Z" fill="#2F2E41"/>
<path d="M142.822 169.363C142.97 169.359 143.119 169.367 143.266 169.387L152.072 159.459L151.048 156.408L155.473 154.268L157.814 159.494C158.003 159.916 158.05 160.388 157.946 160.839C157.843 161.289 157.595 161.694 157.241 161.993L145.691 171.733C145.779 172.295 145.693 172.871 145.444 173.383C145.195 173.896 144.795 174.321 144.298 174.602C143.8 174.883 143.229 175.006 142.659 174.956C142.089 174.906 141.548 174.684 141.108 174.321C140.668 173.957 140.35 173.469 140.195 172.921C140.041 172.373 140.058 171.791 140.244 171.253C140.43 170.714 140.776 170.245 141.237 169.908C141.697 169.57 142.25 169.38 142.822 169.363Z" fill="#FFB7B7"/>
<path d="M151.37 160.425L147.696 151.826L149.129 145.836L150.673 143.895C150.786 143.847 150.908 143.823 151.031 143.824C151.154 143.825 151.275 143.852 151.387 143.902C151.957 144.13 152.441 144.829 152.828 145.979L156.271 155.738L151.37 160.425Z" fill="#2F2E41"/>
<path d="M132.31 134.976V128.493C132.31 126.19 133.23 123.98 134.867 122.351C136.504 120.722 138.725 119.807 141.04 119.807C143.355 119.807 145.575 120.722 147.212 122.351C148.849 123.98 149.769 126.19 149.769 128.493V134.976C149.769 135.285 149.645 135.582 149.425 135.801C149.205 136.02 148.907 136.143 148.597 136.143H133.483C133.172 136.143 132.874 136.02 132.654 135.801C132.434 135.582 132.311 135.285 132.31 134.976Z" fill="#2F2E41"/>
<path d="M139.246 135.992C142.781 135.992 145.646 133.14 145.646 129.623C145.646 126.105 142.781 123.254 139.246 123.254C135.712 123.254 132.846 126.105 132.846 129.623C132.846 133.14 135.712 135.992 139.246 135.992Z" fill="#FFB7B7"/>
<path d="M130.245 129.012C130.247 127.19 130.975 125.444 132.27 124.156C133.564 122.867 135.319 122.143 137.15 122.141H138.453C140.284 122.143 142.039 122.867 143.334 124.156C144.628 125.444 145.356 127.19 145.358 129.012V129.142H142.605L141.666 126.525L141.478 129.142H140.055L139.581 127.822L139.486 129.142H130.245L130.245 129.012Z" fill="#2F2E41"/>
<path d="M138.616 136.872C138.487 136.698 138.41 136.491 138.393 136.275C138.377 136.059 138.422 135.843 138.524 135.652C139.905 133.038 141.838 128.21 139.272 125.232L139.088 125.018H146.537V136.147L139.77 137.335C139.701 137.347 139.632 137.353 139.562 137.353C139.378 137.353 139.196 137.31 139.031 137.226C138.867 137.142 138.724 137.021 138.616 136.872Z" fill="#2F2E41"/>
<path d="M51.7186 235.533L55.6716 236.938L63.0022 222.434L57.1678 220.359L51.7186 235.533Z" fill="#9F616A"/>
<path d="M49.3405 238.986L51.1713 233.889L58.9564 236.657C60.2712 237.127 61.3453 238.096 61.943 239.352C62.5407 240.609 62.6133 242.05 62.1447 243.359L62.087 243.519L49.3405 238.986Z" fill="#2F2E41"/>
<path d="M77.4241 239.424L81.622 239.423L83.6194 223.311L77.4235 223.311L77.4241 239.424Z" fill="#9F616A"/>
<path d="M76.3535 238.059L84.6208 238.059H84.6211C85.313 238.059 85.9982 238.194 86.6374 238.458C87.2766 238.721 87.8574 239.107 88.3467 239.594C88.8359 240.081 89.224 240.659 89.4888 241.295C89.7536 241.931 89.8898 242.613 89.8899 243.301V243.472L76.3538 243.472L76.3535 238.059Z" fill="#2F2E41"/>
<path d="M67.8571 136.481L69.6828 132.891C69.6828 132.891 76.4841 134.586 77.1024 138.509L67.8571 136.481Z" fill="#F1F1F1"/>
<path d="M60.3237 177.527L65.2885 205.098L52.1053 228.298L59.9811 231.365L73.3356 208.876L75.0476 202.742L76.0748 234.772L83.1777 234.558L86.4341 204.65L81.2109 176.846L60.3237 177.527Z" fill="#2F2E41"/>
<path d="M69.7492 184.046C62.4553 184.046 57.8243 182.658 57.7206 182.636L57.5526 182.601L61.3517 165.072L61.5228 148.904C61.5228 142.053 66.0543 137.001 66.6832 136.535C66.789 136.119 66.9849 135.732 67.257 135.399C67.5291 135.066 67.8709 134.796 68.2586 134.609C69.7701 133.926 71.6172 134.745 71.695 134.78L77.239 136.849L77.265 136.925C77.3318 137.121 84.6341 160.977 84.6341 160.977C84.6341 160.977 84.1921 181.82 84.0381 182.503C84.0381 182.503 73.8019 184.046 69.7492 184.046Z" fill="#3F3D56"/>
<path d="M75.3532 131.761C79.4916 131.761 82.8463 128.422 82.8463 124.304C82.8463 120.186 79.4916 116.848 75.3532 116.848C71.2149 116.848 67.8601 120.186 67.8601 124.304C67.8601 128.422 71.2149 131.761 75.3532 131.761Z" fill="#9F616A"/>
<path opacity="0.2" d="M66.9988 150.227L80.108 168.428L82.0438 159.928L66.9988 150.227Z" fill="black"/>
<path d="M108.099 162.611C107.73 162.901 107.302 163.107 106.844 163.215C106.387 163.323 105.911 163.329 105.451 163.234C104.991 163.139 104.557 162.945 104.18 162.665C103.803 162.385 103.493 162.027 103.271 161.615L91.9871 163.412L94.4316 158.027L104.772 157.146C105.492 156.82 106.308 156.768 107.064 157.001C107.82 157.234 108.464 157.734 108.874 158.408C109.285 159.081 109.432 159.881 109.289 160.656C109.146 161.431 108.722 162.126 108.099 162.611Z" fill="#9F616A"/>
<path d="M95.0127 157.72L99.067 157.324L100.191 162.952L95.0889 163.042L95.0127 157.72Z" fill="#F1F1F1"/>
<path d="M98.3362 164.913L78.4801 163.153L68.454 147.286L68.4231 147.146C68.1386 145.85 68.3378 144.495 68.9836 143.334C69.6295 142.173 70.6777 141.286 71.9327 140.838C73.1877 140.39 74.5636 140.412 75.8035 140.9C77.0435 141.388 78.0627 142.308 78.6709 143.488L84.5564 154.912L96.4345 156.699L98.3362 164.913Z" fill="#3F3D56"/>
<path d="M68.9714 130.778L75.1907 131C75.5698 131.013 76.5987 126.942 76.7334 126.097C76.8398 125.547 77.1438 125.055 77.5884 124.712C78.0331 124.369 78.5881 124.198 79.1498 124.233C79.6153 124.276 80.7893 123.411 82.0007 122.386C84.3006 120.44 84.1809 116.786 81.6545 115.142C81.5855 115.097 81.5177 115.056 81.4512 115.019C79.8574 114.131 77.9929 113.833 76.1666 113.81C74.511 113.789 72.8084 113.997 71.3499 114.777C68.735 116.175 67.3433 119.23 67.2211 122.181C67.0988 125.132 68.0496 128.018 69.1286 130.77" fill="#2F2E41"/>
</svg>
