<svg width="122" height="247" viewBox="0 0 122 247" fill="none" xmlns="http://www.w3.org/2000/svg">
<g opacity="0.02">
<mask id="mask0_2475_54786" style="mask-type:luminance" maskUnits="userSpaceOnUse" x="0" y="0" width="238" height="265">
<path d="M0 108.726V265H238L226.128 253.392H12.1646V113.531L113.927 16.4144L213.819 111.721V228.132H33.2324V125.954L113.88 50.4285L192.215 125.163C192.336 138.118 192.458 152.467 192.58 166.815C192.701 180.234 192.823 193.654 192.944 205.983C170.708 206.145 148.205 206.029 126.383 205.935C104.562 205.843 82.0579 205.749 59.7731 205.889C59.8464 195.58 59.9196 184.507 59.9928 173.432C60.0909 160.639 60.1627 147.846 60.2608 136.192L113.83 86.739L164.87 136.076L164.554 182.836H90.1101L78.2149 194.443H176.645L177.058 131.339L114.025 70.3945L48.1211 131.223V133.661C48.023 145.966 47.9248 159.665 47.8296 173.362C47.755 186.597 47.6583 199.806 47.5616 211.694L47.5367 217.59L53.7157 217.543C77.8971 217.335 102.518 217.452 126.335 217.543C150.176 217.66 174.844 217.754 199.123 217.543L205.206 217.498L205.157 211.694C205.036 197.833 204.889 182.278 204.743 166.722C204.621 151.491 204.476 136.262 204.355 122.679L204.331 120.311L113.975 34.084L21.0677 121.077V239.74H225.982V106.915L113.927 0L0 108.726Z" fill="white"/>
</mask>
<g mask="url(#mask0_2475_54786)">
<path d="M14 0L0 29V0H14Z" fill="#224646"/>
<path d="M16 0L0 34V28.8985L13.6004 0H16Z" fill="#224646"/>
<path d="M19 0L0 39V33.913L16.5223 0H19Z" fill="#224646"/>
<path d="M21 0L0 44V38.923L18.5774 0H21Z" fill="#224747"/>
<path d="M24 0L0 49V43.931L21.5177 0H24Z" fill="#224848"/>
<path d="M26 0L0 54V48.9362L23.563 0H26Z" fill="#224949"/>
<path d="M29 0L0 59V53.9429L26.5148 0H29Z" fill="#224A4A"/>
<path d="M31 0L0 64V58.9474L28.5532 0H31Z" fill="#234B4B"/>
<path d="M34 0L0 69V63.95L31.5127 0H34Z" fill="#224B4C"/>
<path d="M36 0L0 74V68.9547L33.546 0H36Z" fill="#234C4C"/>
<path d="M38 0L0 80V74.8938L35.575 0H38Z" fill="#224D4D"/>
<path d="M41 0L0 85V79.9001L38.5405 0H41Z" fill="#224E4E"/>
<path d="M43 0L0 90V84.9045L40.5666 0H43Z" fill="#234F4F"/>
<path d="M46 0L0 95V89.9109L43.5362 0H46Z" fill="#225050"/>
<path d="M48 0L0 100V94.9154L45.5599 0H48Z" fill="#235051"/>
<path d="M51 7.62939e-06L0 105V99.9182L48.5328 7.62939e-06H51Z" fill="#225151"/>
<path d="M53 0L0 110V104.923L50.5544 0H53Z" fill="#235252"/>
<path d="M56 0L0 115V109.927L53.53 0H56Z" fill="#235353"/>
<path d="M58 0L0 120V114.93L55.5498 0H58Z" fill="#235454"/>
<path d="M61 -7.62939e-06L0 125V119.931L58.5276 -7.62939e-06H61Z" fill="#235555"/>
<path d="M63 0L0 130V124.935L60.546 0H63Z" fill="#235656"/>
<path d="M65 0L0 135V129.938L62.5631 0H65Z" fill="#235757"/>
<path d="M68 0L0 140V134.939L65.5427 0H68Z" fill="#235758"/>
<path d="M70 0L0 146V140.907L67.5587 0H70Z" fill="#235859"/>
<path d="M73 0L0 151V145.91L70.5399 0H73Z" fill="#235A5A"/>
<path d="M75 0L0 156V150.913L72.555 0H75Z" fill="#245A5B"/>
<path d="M78 0L0 161V155.915L75.5374 0H78Z" fill="#235B5B"/>
<path d="M80 0L0 166V160.919L77.5516 0H80Z" fill="#245C5C"/>
<path d="M83 0L0 171V165.921L80.5353 0H83Z" fill="#235D5D"/>
<path d="M85 0L0 176V170.923L82.5487 0H85Z" fill="#245E5E"/>
<path d="M88 0L0 181V175.924L85.5333 0H88Z" fill="#245F5F"/>
<path d="M90 0L0 186V180.928L87.546 0H90Z" fill="#256060"/>
<path d="M92 1.52588e-05L0 191V185.929L89.5581 1.52588e-05H92Z" fill="#246161"/>
<path d="M95 0L0 196V190.93L92.5437 0H95Z" fill="#246262"/>
<path d="M97 0L0 201V195.933L94.5552 0H97Z" fill="#246363"/>
<path d="M100 -1.52588e-05L0 206V200.935L97.5416 -1.52588e-05H100Z" fill="#246363"/>
<path d="M102 1.52588e-05L0 212V206.912L99.5526 1.52588e-05H102Z" fill="#256464"/>
<path d="M105 0L0 217V211.913L102.54 0H105Z" fill="#246566"/>
<path d="M107 0L0 222V216.916L104.55 0H107Z" fill="#256767"/>
<path d="M110 0L0 227V221.918L107.538 0H110Z" fill="#256767"/>
<path d="M112 0L0 232V226.919L109.548 0H112Z" fill="#246868"/>
<path d="M115 1.52588e-05L0 237V231.922L112.536 1.52588e-05H115Z" fill="#256969"/>
<path d="M117 0L0 242V236.923L114.546 0H117Z" fill="#256A6A"/>
<path d="M119 0L0 247V241.925L116.555 0H119Z" fill="#266B6B"/>
<path d="M122 0L0 252V246.925L119.544 0H122Z" fill="#256C6C"/>
<path d="M124 0L0 257V251.928L121.553 0H124Z" fill="#246D6D"/>
<path d="M125.913 0L127 0.476074L0 262V256.929L124.769 0H125.913Z" fill="#256E6E"/>
<path d="M126.97 0L129 0.893341L1.15139 265H0V262.293L126.97 0Z" fill="#256F6F"/>
<path d="M128.969 1L131 1.89297L3.46515 265H1L128.969 1Z" fill="#26706F"/>
<path d="M130.977 2L133 2.89261L6.45434 265H4L130.977 2Z" fill="#257171"/>
<path d="M132.971 3L135 3.89224L8.46112 265H6L132.971 3Z" fill="#257171"/>
<path d="M134.98 4L137 4.89188L11.4517 265H9L134.98 4Z" fill="#267272"/>
<path d="M136.973 5L139 5.89151L13.4585 265H11L136.973 5Z" fill="#257374"/>
<path d="M137.982 6L140 6.89114L15.449 265H13L137.982 6Z" fill="#267474"/>
<path d="M140.975 7L143 7.89075L18.4573 265H16L140.975 7Z" fill="#257575"/>
<path d="M141.984 8L144 8.89038L20.4448 265H18L141.984 8Z" fill="#257676"/>
<path d="M144.977 9.00002L147 9.89L23.4547 265H21L144.977 9.00002Z" fill="#267777"/>
<path d="M146.97 9.00002L149 9.89311L25.4616 265H23L146.97 9.00002Z" fill="#257879"/>
<path d="M148.979 10L151 10.8927L28.452 265H26L148.979 10Z" fill="#277979"/>
<path d="M150.972 11L153 11.8923L30.4604 265H28L150.972 11Z" fill="#267A7A"/>
<path d="M152.982 12L155 12.892L33.4478 265H31L152.982 12Z" fill="#277B7B"/>
<path d="M154.975 13L157 13.8916L35.4577 265H33L154.975 13Z" fill="#277C7C"/>
<path d="M156.984 14L159 14.8912L38.445 265H36L156.984 14Z" fill="#267C7D"/>
<path d="M158.977 15L161 15.8908L40.455 265H38L158.977 15Z" fill="#287D7E"/>
<path d="M160.97 16L163 16.8904L42.4636 265H40L160.97 16Z" fill="#277E7F"/>
<path d="M162.979 17L165 17.89L45.4508 265H43L162.979 17Z" fill="#277F80"/>
<path d="M164.972 17L167 17.8932L47.4609 265H45L164.972 17Z" fill="#288081"/>
<path d="M166.981 18L169 18.8929L50.4479 265H48L166.981 18Z" fill="#278182"/>
<path d="M168.974 19L171 19.8924L52.4581 265H50L168.974 19Z" fill="#298283"/>
<path d="M170.984 20L173 20.8921L55.4465 265H53L170.984 20Z" fill="#288383"/>
<path d="M172.977 21L175 21.8917L57.4539 265H55L172.977 21Z" fill="#288485"/>
<path d="M175.969 22L178 22.8913L60.4642 265H58L175.969 22Z" fill="#298585"/>
<path d="M176.979 23L179 23.8909L62.451 265H60L176.979 23Z" fill="#288586"/>
<path d="M179.972 24L182 24.8905L65.4599 265H63L179.972 24Z" fill="#288687"/>
<path d="M180.981 25L183 25.89L67.4496 265H65L180.981 25Z" fill="#288889"/>
<path d="M182.974 25L185 25.8934L69.4571 265H67L182.974 25Z" fill="#28898A"/>
<path d="M184.984 26L187 26.893L72.4467 265H70L184.984 26Z" fill="#28898A"/>
<path d="M186.976 27L189 27.8926L74.4542 265H72L186.976 27Z" fill="#298A8C"/>
<path d="M189.969 28L192 28.8922L77.4633 265H75L189.969 28Z" fill="#298B8C"/>
<path d="M190.979 29L193 29.8918L79.4528 265H77L190.979 29Z" fill="#288C8D"/>
<path d="M193.971 30L196 30.8914L82.4605 265H80L193.971 30Z" fill="#298D8E"/>
<path d="M194.981 31L197 31.8909L84.4498 265H82L194.981 31Z" fill="#298E8F"/>
<path d="M197.974 32L200 32.8905L87.4576 265H85L197.974 32Z" fill="#288E90"/>
<path d="M198.984 33L201 33.8901L89.4454 265H87L198.984 33Z" fill="#299091"/>
<path d="M201.976 33L204 33.8935L92.4561 265H90L201.976 33Z" fill="#299092"/>
<path d="M203.968 34L206 34.8931L94.4639 265H92L203.968 34Z" fill="#289193"/>
<path d="M204.978 35L207 35.8927L96.4531 265H94L204.978 35Z" fill="#2A9294"/>
<path d="M207.971 36L210 36.8923L99.461 265H97L207.971 36Z" fill="#299395"/>
<path d="M208.981 37L211 37.8919L101.449 265H99L208.981 37Z" fill="#289496"/>
<path d="M211.973 38L214 38.8914L104.459 265H102L211.973 38Z" fill="#2B9596"/>
<path d="M212.983 39L215 39.891L106.446 265H104L212.983 39Z" fill="#2A9597"/>
<path d="M215.976 40L218 40.8906L109.456 265H107L215.976 40Z" fill="#299698"/>
<path d="M217.968 41L220 41.8901L111.465 265H109L217.968 41Z" fill="#2B9799"/>
<path d="M219.978 41L222 41.8937L114.452 265H112L219.978 41Z" fill="#2A989A"/>
<path d="M221.97 42L224 42.8932L116.463 265H114L221.97 42Z" fill="#29999B"/>
<path d="M223.981 43L226 43.8928L119.449 265H117L223.981 43Z" fill="#2B9A9B"/>
<path d="M225.973 44L228 44.8924L121.46 265H119L225.973 44Z" fill="#2B9A9C"/>
<path d="M226.983 45L229 45.892L123.446 265H121L226.983 45Z" fill="#2A9B9D"/>
</g>
</g>
</svg>
