<svg width="151" height="230" viewBox="0 0 151 230" fill="none" xmlns="http://www.w3.org/2000/svg">
<g clip-path="url(#clip0_2475_54463)">
<path d="M73.9545 87.8242C77.9022 87.8242 81.1024 84.6307 81.1024 80.6914C81.1024 76.7521 77.9022 73.5586 73.9545 73.5586C70.0068 73.5586 66.8066 76.7521 66.8066 80.6914C66.8066 84.6307 70.0068 87.8242 73.9545 87.8242Z" fill="#2CACAF"/>
<path d="M77.6237 77.719C77.5161 77.6167 77.3733 77.5596 77.2246 77.5596C77.076 77.5596 76.9331 77.6167 76.8256 77.719C75.3089 78.9261 73.9467 80.3146 72.7695 81.8534C72.4805 81.2954 72.1915 80.7373 71.9025 80.1793C71.5689 79.5352 70.5947 80.1042 70.928 80.7478C71.3507 81.5639 71.7734 82.3801 72.1961 83.1963C72.2471 83.2796 72.3187 83.3485 72.404 83.3962C72.4893 83.444 72.5855 83.4691 72.6833 83.4691C72.7812 83.4691 72.8774 83.444 72.9627 83.3962C73.048 83.3485 73.1196 83.2796 73.1706 83.1963C74.4251 81.4332 75.9244 79.8572 77.6237 78.5154C77.7287 78.4094 77.7876 78.2663 77.7876 78.1172C77.7876 77.9681 77.7287 77.8251 77.6237 77.719Z" fill="white"/>
<path d="M41.9715 100.918L31.1927 84.0259L43.6743 77.3555L46.9503 90.2432L70.0324 102.69C70.9437 102.363 71.9307 102.307 72.8731 102.53C73.8155 102.753 74.6726 103.244 75.3399 103.945C76.0071 104.645 76.4557 105.524 76.6309 106.475C76.8061 107.425 76.7004 108.406 76.3266 109.298C75.9529 110.19 75.3272 110.953 74.526 111.496C73.7247 112.039 72.7825 112.338 71.8141 112.355C70.8458 112.373 69.8932 112.109 69.0725 111.596C68.2518 111.083 67.5984 110.343 67.1921 109.465L41.9715 100.918Z" fill="#A0616A"/>
<path d="M23.3178 63.7657C19.931 68.7277 31.9666 86.7643 31.9666 86.7643C32.553 85.5032 38.1578 99.6657 39.0966 98.8291C41.7647 96.4514 45.9412 89.8281 48.2628 89.5329C49.5905 89.364 45.1836 79.968 45.1836 79.968C45.1836 79.968 43.1696 74.4196 40.4366 67.3322C39.7012 65.3141 38.4661 63.5146 36.8463 62.101C35.2264 60.6874 33.2745 59.7058 31.1722 59.2475C31.1722 59.2475 26.7045 58.8036 23.3178 63.7657Z" fill="#3F3D56"/>
<path d="M23.4832 225.43L28.6022 225.43L31.0374 205.727L23.4821 205.727L23.4832 225.43Z" fill="#A0616A"/>
<path d="M22.1771 223.762L23.618 223.762L29.2434 221.479L32.2584 223.762H32.2588C33.9627 223.762 35.5968 224.438 36.8016 225.64C38.0064 226.842 38.6833 228.473 38.6834 230.173V230.381L22.1774 230.382L22.1771 223.762Z" fill="#2F2E41"/>
<path d="M47.2652 225.43L52.3841 225.43L54.8197 205.727L47.2644 205.727L47.2652 225.43Z" fill="#A0616A"/>
<path d="M45.9594 223.762L47.4002 223.762L53.0256 221.479L56.0407 223.762H56.0411C57.7449 223.762 59.379 224.438 60.5838 225.64C61.7886 226.842 62.4656 228.473 62.4657 230.173V230.381L45.9596 230.382L45.9594 223.762Z" fill="#2F2E41"/>
<path d="M49.4811 117.711L16.1844 118.542C9.86059 121.969 9.76457 129.387 11.8366 138.195C11.8366 138.195 11.1371 143.43 12.5361 144.826C13.935 146.222 14.6345 146.222 13.935 148.665C13.2355 151.108 16.9312 155.098 16.4823 155.546C16.0335 155.994 14.9842 158.437 14.9842 158.437L18.4816 178.331C18.4816 178.331 20.9298 212.882 21.6293 213.58C22.3288 214.278 23.0282 213.58 22.3288 215.325C21.6293 217.07 20.9298 216.372 21.6293 217.07C22.2489 217.736 22.8326 218.435 23.378 219.164H31.8337C31.8337 219.164 32.4712 215.674 32.4712 215.325C32.4712 214.976 33.1707 212.882 33.1707 212.533C33.1707 212.184 32.5525 211.567 32.5525 211.567C32.3388 210.857 32.1945 210.129 32.1215 209.392C32.1215 208.694 30.023 181.821 30.023 181.821L34.2199 146.92L44.3624 181.123C44.3624 181.123 44.3624 211.137 45.0618 211.835C45.7613 212.533 45.7613 212.184 45.4116 213.58C45.0618 214.976 43.6629 214.627 44.7121 215.674C45.7613 216.721 46.111 214.976 45.7613 216.721L45.4116 218.466L55.9038 218.616C55.9038 218.616 57.3027 215.674 56.6032 214.627C55.9038 213.58 55.9457 213.866 56.7991 212.152C57.6525 210.439 58.0022 210.09 57.6525 209.741C57.3027 209.392 57.3027 207.535 57.3027 207.535L55.554 174.143C55.554 174.143 55.2043 138.893 55.2043 137.846C55.1779 137.307 55.2774 136.77 55.4948 136.276V134.855L54.1551 129.819L49.4811 117.711Z" fill="#2F2E41"/>
<path d="M29.479 48.621C35.1927 48.621 39.8245 43.9989 39.8245 38.2973C39.8245 32.5957 35.1927 27.9736 29.479 27.9736C23.7654 27.9736 19.1335 32.5957 19.1335 38.2973C19.1335 43.9989 23.7654 48.621 29.479 48.621Z" fill="#A0616A"/>
<path d="M34.6519 55.4444C36.8806 56.7666 38.2139 59.196 38.9793 61.6682C40.3962 66.2451 41.2491 70.9772 41.5192 75.7599L42.3275 90.0786L52.3393 120.567C43.6624 127.894 11.0474 122.232 11.0474 122.232C11.0474 122.232 10.0463 121.899 11.0474 120.9C12.0486 119.901 13.0233 120.786 12.0221 119.787C11.0209 118.788 11.7111 119.901 12.0448 118.902C12.3786 117.903 12.0448 118.569 11.7111 118.236C11.3774 117.903 14.2946 114.906 14.2946 114.906L11.6248 97.4051L8.2876 62.1048C12.2923 57.1095 20.3463 54.1647 20.3463 54.1647L22.4273 50.4268L32.8326 51.2574L34.6519 55.4444Z" fill="#3F3D56"/>
<path d="M38.0073 32.8124C38.8114 33.4108 39.4071 34.2459 39.7105 35.1999C39.8271 33.6408 39.8345 32.0754 39.7327 30.5153C39.6108 29.4189 38.8373 29.1723 37.9417 28.8866C37.1328 28.6284 36.2181 28.3368 35.972 27.2725C32.72 24.1156 27.0589 24.2747 23.1845 25.3759C21.0527 25.9819 19.826 26.7605 19.7163 27.2165L19.6935 27.3104L19.6069 27.3536C17.9636 28.1736 17.6438 30.7627 17.6649 32.7903C17.7049 36.6104 19.0267 40.9491 19.7713 41.3015C19.8108 41.3202 19.8207 41.3129 19.8378 41.2987C20.959 40.4046 22.3269 41.3666 22.9281 41.8896C23.2826 39.5154 24.4243 37.3282 26.1707 35.6773C27.9171 34.0265 30.1675 33.0072 32.5624 32.7824C33.3446 32.7069 34.1205 32.5771 34.8845 32.3938C35.2721 32.2938 35.6705 32.2416 36.0707 32.2385C36.7598 32.228 37.4356 32.4283 38.0073 32.8124Z" fill="#2F2E41"/>
<path d="M102.231 125.937L122.132 105.771L127.375 89.6419L118.937 86.2363C114.758 90.4435 110.455 103.323 110.455 103.323L96.8719 121.515C96.7634 121.555 96.6553 121.598 96.5487 121.648C95.9234 121.943 95.3848 122.393 94.9849 122.956C94.5851 123.519 94.3376 124.176 94.2663 124.862C94.195 125.549 94.3024 126.242 94.578 126.875C94.8536 127.508 95.2882 128.059 95.8397 128.475C96.3913 128.892 97.0411 129.159 97.7264 129.252C98.4118 129.344 99.1094 129.259 99.752 129.003C100.395 128.748 100.96 128.332 101.394 127.795C101.829 127.258 102.117 126.618 102.231 125.937Z" fill="#FFB8B8"/>
<path d="M116.636 88.0812L127.306 91.1614L127.346 91.1537C131.268 90.3938 134.371 83.8894 136.283 78.5667C136.912 76.8112 136.849 74.8827 136.108 73.1713C135.366 71.4599 134.002 70.0932 132.289 69.3476C131.022 68.806 129.629 68.6289 128.266 68.8362C126.904 69.0435 125.626 69.627 124.579 70.5208L119.259 75.0923L116.636 88.0812Z" fill="#2CACAF"/>
<path d="M107.506 224.832L101.768 224.831L99.0381 202.744L107.507 202.745L107.506 224.832Z" fill="#FFB8B8"/>
<path d="M108.97 222.962L107.355 222.961L101.049 220.402L97.6692 222.961H97.6688C95.7587 222.961 93.927 223.718 92.5764 225.066C91.2257 226.414 90.4669 228.242 90.4668 230.148V230.381L108.97 230.382L108.97 222.962Z" fill="#2F2E41"/>
<path d="M132.969 224.832L127.231 224.831L124.501 202.744L132.97 202.745L132.969 224.832Z" fill="#FFB8B8"/>
<path d="M134.433 222.962L132.818 222.961L126.512 220.402L123.132 222.961H123.132C121.222 222.961 119.39 223.718 118.039 225.066C116.689 226.414 115.93 228.242 115.93 230.148V230.381L134.433 230.382L134.433 222.962Z" fill="#2F2E41"/>
<path d="M141.719 129.693C141.719 129.693 142.389 137.717 140.714 145.406C139.039 153.096 139.039 174.752 139.039 174.752L135.354 216.953L124.297 215.95L121.282 145.406L110.561 169.144L111.566 172.487L110.227 173.323C110.227 173.323 111.231 179.842 110.561 179.842C109.891 179.842 108.216 180.845 108.216 180.845L109.556 215.281L98.1647 214.947L94.1443 166.469L98.4997 138.72L98.8348 133.37L100.342 133.432L101.11 131.197L102.52 127.353L141.719 129.693Z" fill="#2F2E41"/>
<path d="M142.298 131.378L142.358 131.294C145.547 126.839 140.751 116.133 140.027 114.581L143.074 113.594L142.388 107.775L142.063 105.18L144.392 102.856L144.398 102.798L145.739 91.0967L147.687 83.3246C148.421 80.3865 148.359 77.3064 147.506 74.4004C146.653 71.4944 145.04 68.8672 142.834 66.7886L138.33 62.5509L132.856 54.4688H124.029L121.002 60.1736C118.068 60.8503 115.465 62.5329 113.646 64.9281C111.827 67.3234 110.907 70.2795 111.048 73.2816L111.734 88.2436L109.049 106.873L109.047 110.244L106.025 113.595L106.685 116.888L104.385 117.872L103.369 122.6C102.949 123.154 100.175 126.845 100.175 127.854C100.175 128.005 100.287 128.152 100.528 128.314C102.418 129.592 112.867 132.196 117.491 130.349C122.418 128.384 141.999 131.332 142.197 131.362L142.298 131.378Z" fill="#2CACAF"/>
<path d="M127.302 51.8597C133.759 51.8597 138.993 46.6368 138.993 40.194C138.993 33.7512 133.759 28.5283 127.302 28.5283C120.846 28.5283 115.612 33.7512 115.612 40.194C115.612 46.6368 120.846 51.8597 127.302 51.8597Z" fill="#FFB8B8"/>
<path d="M126.182 52.0488C127.993 52.0303 129.798 51.8576 131.579 51.5324C133.342 51.1271 137.233 48.1253 138.293 46.352C139.08 45.0344 139.553 42.9964 139.811 41.5189C140.16 39.5635 140.092 37.5568 139.614 35.6289C139.136 33.701 138.257 31.8949 137.035 30.3274C136.564 29.6707 135.924 29.1533 135.182 28.8299C135.116 28.8062 135.049 28.7855 134.981 28.7681C133.906 28.5152 132.931 27.9475 132.182 27.1379C132.036 26.9739 131.879 26.8207 131.712 26.6793C130.871 26.0077 129.883 25.5441 128.829 25.3265C127.125 24.9182 124.688 25.4298 121.586 26.8484C120.027 27.5612 118.297 27.3623 116.963 27.1095C116.889 27.097 116.812 27.1044 116.741 27.1307C116.67 27.1571 116.607 27.2015 116.559 27.2596C116.008 27.8027 115.272 28.1177 114.498 28.1413C114.025 28.1743 113.545 28.842 112.966 29.7114C112.834 29.9088 112.681 30.1391 112.57 30.2797L112.547 30.0157L112.287 30.3176C111.878 30.7919 111.595 31.362 111.466 31.9747C111.337 32.5873 111.365 33.2226 111.548 33.8215C111.731 34.4203 112.063 34.9631 112.513 35.3994C112.963 35.8358 113.516 36.1514 114.121 36.3169C114.601 36.4312 115.092 36.4963 115.585 36.5111C115.884 36.5302 116.194 36.55 116.491 36.5936C117.445 36.7631 118.339 37.1766 119.085 37.7938C119.831 38.411 120.405 39.2107 120.749 40.115C120.83 40.3239 120.958 40.5115 121.124 40.6631C121.289 40.8147 121.487 40.9264 121.703 40.9895C121.918 41.0526 122.145 41.0655 122.367 41.027C122.588 40.9886 122.797 40.9 122.979 40.7679C123.281 40.5206 123.638 40.3498 124.02 40.2701C124.403 40.1904 124.799 40.2041 125.175 40.3102C125.502 40.4807 125.76 40.7582 125.906 41.0961C126.083 41.4722 126.368 41.7872 126.725 42.0009C127.942 42.588 128.095 45.3235 127.723 47.6168C127.364 49.8273 126.583 51.4398 125.824 51.5381C125.24 51.6137 125.174 51.657 125.134 51.7615L125.099 51.855L125.167 51.9399C125.494 52.0486 125.84 52.0857 126.182 52.0488Z" fill="#2F2E41"/>
<path d="M116.483 89.3284L110.864 82.1836C105.14 83.7564 94.984 92.7899 94.984 92.7899L74.1267 101.822C73.4306 101.705 72.7159 101.774 72.0546 102.02C71.3933 102.267 70.8088 102.683 70.3599 103.226C69.9109 103.77 69.6134 104.422 69.4973 105.117C69.3811 105.812 69.4505 106.525 69.6983 107.184C69.9461 107.844 70.3637 108.427 70.909 108.874C71.4543 109.321 72.108 109.617 72.8044 109.732C73.5008 109.848 74.2154 109.777 74.876 109.529C75.5367 109.281 76.1202 108.864 76.5679 108.319L103.89 100.713L116.483 89.3284Z" fill="#FFB8B8"/>
<path d="M115.136 90.9618L124.003 81.0988L124.495 74.1102C124.587 72.7379 124.292 71.3673 123.644 70.1534C122.996 68.9395 122.021 67.9306 120.828 67.2408C119.205 66.3166 117.292 66.0418 115.474 66.4718C113.656 66.9019 112.069 68.0048 111.035 69.5575C107.902 74.2692 104.532 80.6395 106.266 84.2312L106.283 84.2676L115.136 90.9618Z" fill="#2CACAF"/>
<path d="M33.4165 128.034L10.3724 116.257C8.73328 115.419 8.19032 113.197 9.16209 111.303L24.1873 82.0276C25.1591 80.1342 27.2832 79.2753 28.9224 80.113L51.9664 91.8901C53.6056 92.7278 54.1486 94.9497 53.1768 96.8432L38.1515 126.119C37.1798 128.013 35.0556 128.871 33.4165 128.034Z" fill="#E6E6E6"/>
<path d="M29.4793 122.619L13.8228 114.618C12.2877 113.833 11.7791 111.752 12.6892 109.979L25.1719 85.6571C26.082 83.8838 28.0714 83.0795 29.6066 83.8641L48.5164 93.5283C50.0515 94.3129 50.56 96.3937 49.6499 98.167L42.8686 111.38C38.8147 119.279 36.3174 126.114 29.4793 122.619Z" fill="white"/>
<path d="M37.2203 109.337L23.3529 102.25C23.1834 102.129 23.0629 101.952 23.0136 101.75C22.9643 101.548 22.9893 101.336 23.0842 101.151C23.1791 100.966 23.3376 100.821 23.5305 100.743C23.7235 100.665 23.9381 100.659 24.1352 100.726L38.0026 107.813C38.1722 107.933 38.2926 108.111 38.342 108.313C38.3913 108.515 38.3662 108.727 38.2713 108.912C38.1764 109.097 38.018 109.242 37.825 109.32C37.6321 109.398 37.4174 109.404 37.2203 109.337Z" fill="#2CACAF"/>
<path d="M24.9716 106.879L21.8069 105.262C21.6373 105.141 21.5169 104.964 21.4676 104.762C21.4182 104.56 21.4433 104.347 21.5382 104.162C21.6331 103.977 21.7915 103.833 21.9845 103.755C22.1775 103.677 22.3921 103.671 22.5893 103.737L25.7539 105.355C25.9235 105.475 26.0439 105.653 26.0932 105.855C26.1426 106.056 26.1175 106.269 26.0226 106.454C25.9277 106.639 25.7693 106.784 25.5763 106.862C25.3834 106.94 25.1687 106.946 24.9716 106.879Z" fill="#2CACAF"/>
<path d="M29.0309 112.755L20.2612 108.274C20.0917 108.153 19.9712 107.976 19.9219 107.774C19.8726 107.572 19.8977 107.359 19.9926 107.174C20.0875 106.989 20.2459 106.845 20.4388 106.766C20.6318 106.688 20.8465 106.682 21.0436 106.749L29.8133 111.231C29.9829 111.352 30.1033 111.529 30.1526 111.731C30.202 111.933 30.1769 112.146 30.082 112.33C29.9871 112.515 29.8287 112.66 29.6357 112.738C29.4427 112.816 29.2281 112.822 29.0309 112.755Z" fill="#2CACAF"/>
<path d="M42.7077 98.6448L28.8403 91.5576C28.6708 91.4371 28.5503 91.2597 28.501 91.0578C28.4517 90.856 28.4768 90.6432 28.5717 90.4583C28.6666 90.2733 28.825 90.1287 29.0179 90.0506C29.2109 89.9726 29.4256 89.9665 29.6227 90.0333L43.4901 97.1205C43.6596 97.2411 43.7801 97.4185 43.8294 97.6203C43.8787 97.8221 43.8536 98.035 43.7587 98.2199C43.6638 98.4048 43.5054 98.5495 43.3125 98.6275C43.1195 98.7055 42.9049 98.7117 42.7077 98.6448Z" fill="#2CACAF"/>
<path d="M30.4592 96.1868L27.2946 94.5694C27.125 94.4489 27.0046 94.2714 26.9552 94.0696C26.9059 93.8677 26.931 93.6549 27.0259 93.47C27.1208 93.2851 27.2792 93.1404 27.4722 93.0624C27.6651 92.9844 27.8798 92.9782 28.0769 93.045L31.2416 94.6624C31.4112 94.783 31.5316 94.9604 31.5809 95.1622C31.6302 95.3641 31.6052 95.5769 31.5102 95.7618C31.4153 95.9467 31.2569 96.0914 31.064 96.1694C30.871 96.2475 30.6564 96.2536 30.4592 96.1868Z" fill="#2CACAF"/>
<path d="M34.5186 102.063L25.7489 97.5812C25.5793 97.4606 25.4589 97.2832 25.4096 97.0813C25.3603 96.8795 25.3853 96.6666 25.4802 96.4817C25.5752 96.2968 25.7336 96.1521 25.9265 96.0741C26.1195 95.9961 26.3341 95.9899 26.5313 96.0567L35.301 100.539C35.4705 100.659 35.591 100.837 35.6403 101.038C35.6896 101.24 35.6645 101.453 35.5696 101.638C35.4747 101.823 35.3163 101.968 35.1234 102.046C34.9304 102.124 34.7157 102.13 34.5186 102.063Z" fill="#2CACAF"/>
<path d="M14.3206 102.546L9.11462 83.2061L23.0264 80.5781L22.2783 93.853L40.5572 112.635C41.5249 112.595 42.4832 112.838 43.3152 113.332C44.1473 113.827 44.8171 114.552 45.2431 115.42C45.6691 116.288 45.8328 117.261 45.7143 118.22C45.5958 119.179 45.2002 120.084 44.5757 120.822C43.9511 121.561 43.1247 122.102 42.1972 122.38C41.2696 122.659 40.2811 122.661 39.352 122.388C38.4229 122.116 37.5934 121.579 36.9647 120.844C36.336 120.109 35.9352 119.207 35.8113 118.248L14.3206 102.546Z" fill="#A0616A"/>
<path d="M7.69131 61.5223C2.96916 65.2423 9.03005 86.0507 9.03005 86.0507C9.96843 85.023 11.0589 100.211 12.2059 99.6939C15.4657 98.2241 21.4406 93.1557 23.7441 93.5688C25.0613 93.8051 23.6812 83.5227 23.6812 83.5227C23.6812 83.5227 23.4274 77.627 22.9503 70.0478C22.8553 67.9026 22.2178 65.8163 21.0974 63.983C19.9769 62.1497 18.4099 60.6291 16.5421 59.5628C16.5421 59.5628 12.4135 57.8022 7.69131 61.5223Z" fill="#3F3D56"/>
<path d="M89.9627 137.162L80.3476 132.632C80.1084 132.519 79.9239 132.316 79.8346 132.068C79.7454 131.819 79.7587 131.545 79.8716 131.307C79.9846 131.068 80.1879 130.884 80.4369 130.795C80.686 130.706 80.9602 130.719 81.1995 130.832L90.8145 135.362C90.9329 135.418 91.0392 135.497 91.1272 135.594C91.2153 135.69 91.2833 135.803 91.3275 135.927C91.3717 136.05 91.3912 136.18 91.3849 136.311C91.3785 136.441 91.3465 136.569 91.2905 136.687C91.2346 136.806 91.1559 136.912 91.0589 136.999C90.9619 137.087 90.8485 137.155 90.7252 137.199C90.6019 137.243 90.4711 137.263 90.3403 137.257C90.2094 137.25 90.0812 137.218 89.9627 137.162Z" fill="white"/>
<path d="M91.4562 134.006L81.8412 129.475C81.602 129.363 81.4174 129.16 81.3282 128.911C81.2389 128.663 81.2522 128.389 81.3652 128.15C81.4781 127.912 81.6815 127.728 81.9305 127.638C82.1795 127.549 82.4538 127.563 82.693 127.675L92.308 132.206C92.5472 132.319 92.7318 132.522 92.8211 132.77C92.9103 133.019 92.897 133.292 92.7841 133.531C92.6711 133.77 92.4678 133.954 92.2188 134.043C91.9697 134.132 91.6954 134.119 91.4562 134.006Z" fill="white"/>
</g>
<defs>
<clipPath id="clip0_2475_54463">
<rect width="151" height="231" fill="white"/>
</clipPath>
</defs>
</svg>
