<svg width="155" height="135" viewBox="0 0 155 135" fill="none" xmlns="http://www.w3.org/2000/svg">
<path d="M122.647 94.372C122.622 94.0917 122.659 93.8094 122.754 93.5448C122.85 93.2803 123.003 93.0399 123.201 92.8408C123.4 92.6416 123.64 92.4884 123.904 92.3921C124.168 92.2957 124.45 92.2585 124.73 92.283L126.76 88.3828L129.429 89.0401L126.484 94.5076C126.412 94.9757 126.17 95.401 125.806 95.703C125.441 96.0049 124.978 96.1624 124.505 96.1457C124.033 96.129 123.582 95.9392 123.24 95.6123C122.897 95.2854 122.686 94.844 122.647 94.372Z" fill="#FFB7B7"/>
<path d="M134.769 132.367L132.517 132.367L131.446 123.672L134.769 123.672L134.769 132.367Z" fill="#FFB7B7"/>
<path d="M135.343 134.552L128.082 134.552V134.46C128.082 133.71 128.38 132.99 128.91 132.46C129.44 131.929 130.159 131.631 130.908 131.631L135.343 131.631L135.343 134.552Z" fill="#2F2E41"/>
<path d="M152.881 130.683L150.708 131.276L147.389 123.17L150.595 122.295L152.881 130.683Z" fill="#FFB7B7"/>
<path d="M154.009 132.639L147.004 134.551L146.979 134.462C146.782 133.738 146.88 132.966 147.252 132.314C147.624 131.663 148.239 131.186 148.962 130.988L153.241 129.82L154.009 132.639Z" fill="#2F2E41"/>
<path d="M130.658 94.8084L129.534 111.884L131.947 131.042L135.9 129.834L136.066 112.717L139.228 102.846L148.59 129.209L152.875 127.627L149.338 110.509L147.341 94.4336L130.658 94.8084Z" fill="#2F2E41"/>
<path d="M141.579 64.8223L134.923 65.8047L132.525 68.1786L131.781 76.7078L132.243 84.2626L130.315 97.5853C130.315 97.5853 135.163 94.8916 138.919 98.2635C142.676 101.635 147.932 98.8594 148.04 96.6163L141.579 64.8223Z" fill="#CBCBCB"/>
<path d="M138.199 75.5198L138.199 75.5103L141.505 64.7216L141.548 64.7188C141.783 64.7035 147.327 64.3765 148.567 67.1164L148.573 67.1296L148.196 78.3412L148.715 95.9003L138.462 98.1232L138.388 98.1395L138.199 75.5198Z" fill="#2F2E41"/>
<path d="M134.535 74.7748L135.141 65.6289C130.827 65.8975 130.892 68.9592 130.897 69.0927L130.85 82.7731L129.986 97.4088L133.128 97.1729L134.535 74.7748Z" fill="#2F2E41"/>
<path d="M124.807 91.415L128.637 82.5174L131.31 77.6035L132.706 86.4676L127.86 93.7435L124.807 91.415Z" fill="#2F2E41"/>
<path d="M140.635 88.1427C140.694 87.8675 140.812 87.6085 140.981 87.384C141.151 87.1595 141.367 86.9749 141.616 86.8433C141.864 86.7116 142.138 86.6361 142.419 86.6219C142.7 86.6078 142.98 86.6555 143.241 86.7616L146.33 83.6348L148.687 85.0509L144.261 89.4053C144.054 89.8313 143.698 90.1664 143.261 90.3472C142.823 90.528 142.335 90.5419 141.888 90.3863C141.441 90.2306 141.067 89.9163 140.836 89.5028C140.605 89.0893 140.533 88.6053 140.635 88.1427Z" fill="#FFB7B7"/>
<path d="M143.234 85.6188L149.533 78.7008L145.363 72.7443L145.793 69.8321L148.25 66.793L148.298 66.855C148.56 67.1944 154.717 75.2007 154.893 78.2316C155.071 81.2738 146.222 88.969 145.845 89.295L145.793 89.3404L143.234 85.6188Z" fill="#2F2E41"/>
<path d="M137.738 64.0737C140.211 64.0737 142.216 62.0669 142.216 59.5915C142.216 57.1161 140.211 55.1094 137.738 55.1094C135.265 55.1094 133.26 57.1161 133.26 59.5915C133.26 62.0669 135.265 64.0737 137.738 64.0737Z" fill="#FFB7B7"/>
<path d="M141.949 56.0089L142.166 55.5715L141.074 55.0283C141.074 55.0283 139.869 53.0658 137.689 53.6173C135.508 54.1688 134.528 54.4988 134.528 54.4988L133.438 55.0476L133.985 55.5922L133.004 55.9223L133.659 56.2482L132.897 56.6869L133.307 58.936C133.307 58.936 133.989 57.2302 135.3 57.882C136.61 58.5339 139.008 57.5451 139.008 57.5451L141.091 61.5801C141.091 61.5801 141.52 60.1656 142.286 60.5428C142.286 60.5428 144.244 57.4226 141.949 56.0089Z" fill="#2F2E41"/>
<path d="M91.2851 81.384L23.1951 100.181L0.773438 18.7974L68.8634 0L91.2851 81.384Z" fill="white"/>
<path d="M91.2851 81.384L23.1951 100.181L0.773438 18.7974L68.8634 0L91.2851 81.384ZM24.0651 98.6474L89.7526 80.5132L67.9935 1.53405L2.30593 19.6683L24.0651 98.6474Z" fill="#F1F1F1"/>
<path d="M54.0457 36.4582L36.9776 41.1702C36.7369 41.2363 36.4797 41.2042 36.2626 41.0808C36.0454 40.9574 35.886 40.7529 35.8194 40.512L31.1123 23.4265C31.0462 23.1855 31.0783 22.9281 31.2015 22.7107C31.3248 22.4934 31.5291 22.3338 31.7698 22.2671L48.8378 17.5552C49.0786 17.489 49.3357 17.5211 49.5529 17.6445C49.77 17.7679 49.9294 17.9725 49.9961 18.2133L54.7032 35.2988C54.7693 35.5398 54.7372 35.7972 54.6139 36.0146C54.4907 36.232 54.2863 36.3915 54.0457 36.4582ZM31.8699 22.6306C31.7255 22.6707 31.6029 22.7664 31.5289 22.8968C31.455 23.0272 31.4357 23.1817 31.4754 23.3263L36.1825 40.4118C36.2225 40.5563 36.3181 40.679 36.4484 40.7531C36.5787 40.8271 36.733 40.8464 36.8775 40.8067L53.9455 36.0947C54.0899 36.0547 54.2125 35.959 54.2865 35.8286C54.3604 35.6981 54.3797 35.5437 54.34 35.3991L49.6329 18.3136C49.5929 18.1691 49.4973 18.0463 49.367 17.9723C49.2367 17.8983 49.0824 17.879 48.9379 17.9187L31.8699 22.6306Z" fill="#E5E5E5"/>
<path d="M49.719 39.902L32.651 44.6139C32.4343 44.6735 32.2028 44.6446 32.0074 44.5335C31.812 44.4225 31.6685 44.2384 31.6085 44.0216L26.9014 26.9361C26.8419 26.7192 26.8708 26.4875 26.9817 26.2919C27.0926 26.0963 27.2766 25.9527 27.4931 25.8926L44.5612 21.1807C44.7779 21.1211 45.0093 21.1501 45.2047 21.2611C45.4002 21.3722 45.5436 21.5563 45.6036 21.7731L50.3107 38.8585C50.3702 39.0754 50.3413 39.3071 50.2304 39.5027C50.1195 39.6984 49.9356 39.842 49.719 39.902Z" fill="#2CACAF"/>
<path d="M69.4916 42.2356L21.8613 55.3848L22.3689 57.2272L69.9992 44.0781L69.4916 42.2356Z" fill="#F1F1F1"/>
<path d="M70.8151 47.0383L23.1848 60.1875L23.6924 62.03L71.3227 48.8808L70.8151 47.0383Z" fill="#F1F1F1"/>
<path d="M72.1382 51.843L24.5079 64.9922L25.0155 66.8347L72.6458 53.6855L72.1382 51.843Z" fill="#F1F1F1"/>
<path d="M74.4679 60.2981L26.8376 73.4473L27.3453 75.2897L74.9755 62.1406L74.4679 60.2981Z" fill="#F1F1F1"/>
<path d="M75.7914 65.1008L28.1611 78.25L28.6687 80.0925L76.299 66.9433L75.7914 65.1008Z" fill="#F1F1F1"/>
<path d="M77.1148 69.9055L29.4845 83.0547L29.9921 84.8972L77.6224 71.748L77.1148 69.9055Z" fill="#F1F1F1"/>
<path d="M113.081 99.9105H42.4493V15.4883H113.081V99.9105Z" fill="white"/>
<path d="M113.081 99.9105H42.4493V15.4883H113.081V99.9105ZM43.6954 98.6632H111.835V16.7356H43.6954V98.6632Z" fill="#E5E5E5"/>
<path d="M100.221 51.7793H59.8383V53.6906H100.221V51.7793Z" fill="#2CACAF"/>
<path d="M100.221 56.748H59.8383V58.6593H100.221V56.748Z" fill="#2CACAF"/>
<path d="M100.221 61.7188H59.8383V63.63H100.221V61.7188Z" fill="#2CACAF"/>
<path d="M56.5553 54.2622C57.2434 54.2622 57.8013 53.7038 57.8013 53.0149C57.8013 52.326 57.2434 51.7676 56.5553 51.7676C55.8671 51.7676 55.3092 52.326 55.3092 53.0149C55.3092 53.7038 55.8671 54.2622 56.5553 54.2622Z" fill="#2CACAF"/>
<path d="M100.221 30.3672H59.8383V32.2785H100.221V30.3672Z" fill="#E5E5E5"/>
<path d="M100.221 35.3359H59.8383V37.2472H100.221V35.3359Z" fill="#E5E5E5"/>
<path d="M100.221 40.3047H59.8383V42.216H100.221V40.3047Z" fill="#E5E5E5"/>
<path d="M56.5553 32.6411C57.2434 32.6411 57.8013 32.0827 57.8013 31.3938C57.8013 30.7049 57.2434 30.1465 56.5553 30.1465C55.8671 30.1465 55.3092 30.7049 55.3092 31.3938C55.3092 32.0827 55.8671 32.6411 56.5553 32.6411Z" fill="#E5E5E5"/>
<path d="M100.221 73.4004H59.8383V75.3117H100.221V73.4004Z" fill="#E5E5E5"/>
<path d="M100.221 78.3691H59.8383V80.2804H100.221V78.3691Z" fill="#E5E5E5"/>
<path d="M100.221 83.3379H59.8383V85.2492H100.221V83.3379Z" fill="#E5E5E5"/>
<path d="M56.5553 75.6743C57.2434 75.6743 57.8013 75.1159 57.8013 74.427C57.8013 73.7381 57.2434 73.1797 56.5553 73.1797C55.8671 73.1797 55.3092 73.7381 55.3092 74.427C55.3092 75.1159 55.8671 75.6743 56.5553 75.6743Z" fill="#E5E5E5"/>
<path d="M109.784 107.178C117.757 107.178 124.22 100.708 124.22 92.7268C124.22 84.7455 117.757 78.2754 109.784 78.2754C101.81 78.2754 95.3469 84.7455 95.3469 92.7268C95.3469 100.708 101.81 107.178 109.784 107.178Z" fill="#2CACAF"/>
<path d="M113.783 91.8051V89.04C113.784 88.514 113.681 87.993 113.48 87.5069C113.279 87.0208 112.984 86.579 112.613 86.2069C112.242 85.8348 111.8 85.5397 111.315 85.3383C110.83 85.1369 110.309 85.0332 109.784 85.0332C109.258 85.0332 108.738 85.1369 108.252 85.3383C107.767 85.5397 107.326 85.8348 106.954 86.2069C106.583 86.579 106.288 87.0208 106.088 87.5069C105.887 87.993 105.783 88.514 105.784 89.04V91.8051C105.249 91.8292 104.744 92.0587 104.375 92.4459C104.005 92.8331 103.798 93.3481 103.798 93.8838V100.418H115.77V93.8838C115.769 93.3481 115.563 92.8331 115.193 92.4459C114.823 92.0587 114.318 91.8292 113.783 91.8051ZM109.784 86.4458C110.471 86.4466 111.129 86.7202 111.615 87.2066C112.101 87.6929 112.374 88.3522 112.375 89.04V91.8003H107.192V89.04C107.193 88.3523 107.466 87.6929 107.952 87.2066C108.438 86.7202 109.097 86.4466 109.784 86.4458Z" fill="white"/>
<path d="M110.86 95.0327C110.86 94.8469 110.812 94.6643 110.721 94.5026C110.63 94.3409 110.498 94.2055 110.339 94.1096C110.18 94.0138 109.999 93.9607 109.814 93.9555C109.628 93.9503 109.445 93.9932 109.281 94.0801C109.117 94.1669 108.978 94.2947 108.878 94.4511C108.778 94.6075 108.72 94.7871 108.709 94.9726C108.699 95.158 108.737 95.343 108.819 95.5095C108.901 95.676 109.025 95.8184 109.178 95.9229V98.2643H110.389V95.9229C110.534 95.8242 110.653 95.6915 110.735 95.5364C110.817 95.3812 110.86 95.2082 110.86 95.0327Z" fill="#2CACAF"/>
</svg>
