<svg width="183" height="224" viewBox="0 0 183 224" fill="none" xmlns="http://www.w3.org/2000/svg">
<path d="M3.68894 209.365C5.72628 209.365 7.37787 207.722 7.37787 205.696C7.37787 203.669 5.72628 202.026 3.68894 202.026C1.65159 202.026 0 203.669 0 205.696C0 207.722 1.65159 209.365 3.68894 209.365Z" fill="#3F3D56"/>
<path d="M136.024 16.7717H119.421L119.25 14.4008L118.399 16.7717H115.843L115.505 12.0725L113.818 16.7717H108.871V16.5389C108.875 13.2674 110.183 10.1309 112.509 7.81752C114.835 5.50417 117.988 4.20291 121.277 4.19922H123.618C126.907 4.20291 130.06 5.50417 132.386 7.81751C134.712 10.1309 136.02 13.2674 136.024 16.5389V16.7717Z" fill="#2F2E41"/>
<path d="M174.469 117.983C175.968 118.398 177.569 118.251 178.966 117.57C180.364 116.889 181.462 115.722 182.053 114.289C182.643 112.857 182.685 111.259 182.17 109.798C181.655 108.337 180.619 107.115 179.258 106.363L165.764 91.1357L154.351 93.5884L170.404 109.228C170.009 110.059 169.802 110.967 169.798 111.886C169.795 112.806 169.993 113.715 170.381 114.55C170.769 115.384 171.335 116.124 172.042 116.718C172.748 117.311 173.576 117.743 174.469 117.983Z" fill="#A0616A"/>
<path d="M130.072 63.4669L163.705 105.459L173.957 100.778L134.425 39.5605L130.072 63.4669Z" fill="#3F3D56"/>
<path d="M50.8071 224.71C52.8444 224.71 54.496 223.067 54.496 221.04C54.496 219.014 52.8444 217.371 50.8071 217.371C48.7698 217.371 47.1182 219.014 47.1182 221.04C47.1182 223.067 48.7698 224.71 50.8071 224.71Z" fill="#3F3D56"/>
<path d="M53.4895 147.155C53.4895 147.155 62.2088 120.804 62.8795 118.969C63.5502 117.134 70.5927 120.137 72.4371 120.637C74.2816 121.137 73.7786 122.972 73.7786 122.972L64.3886 149.991L67.2391 151.325L75.9584 124.139C80.9888 118.969 77.2998 118.635 77.2998 118.635C77.2998 118.635 66.5684 114.966 62.5441 114.633C58.5198 114.299 60.0289 119.136 60.0289 119.136L50.3036 144.82L53.4895 147.155Z" fill="#3F3D56"/>
<path d="M74.4494 153.493L74.4477 153.492C73.2105 151.727 71.4536 150.387 69.419 149.657C69.3469 149.631 69.2631 149.601 69.1675 149.567C64.548 147.961 32.3621 139.317 32.3621 139.317C32.3621 139.317 25.9904 136.982 23.1398 143.32C20.2893 149.657 3.35376 202.194 3.35376 202.194C3.35376 202.194 36.4769 219.813 46.1335 221.731C46.7297 221.874 47.3448 221.922 47.9562 221.874C49.5976 221.648 51.2132 221.264 52.7803 220.728C54.5136 220.167 56.1623 219.374 57.6816 218.372L76.4616 162.5C76.4616 162.5 79.1444 156.329 74.4494 153.493Z" fill="#37BA37"/>
<path d="M74.4493 153.493L74.4476 153.492C73.2104 151.727 71.4535 150.387 69.4189 149.657C69.3468 149.631 69.2629 149.601 69.1674 149.567C70.6866 152.216 71.2634 156.329 71.2634 156.329C71.2634 156.329 52.8188 210.867 51.142 216.037C49.8643 219.978 47.2871 221.317 46.1334 221.731C46.7296 221.874 47.3447 221.922 47.9561 221.874C49.5975 221.648 51.2131 221.264 52.7802 220.729C53.2385 220.206 53.6445 219.64 53.9925 219.039C53.9925 219.039 72.7725 163.167 74.4493 160.498C76.1261 157.83 74.4493 153.493 74.4493 153.493Z" fill="#3F3D56"/>
<path d="M39.4883 224.794C41.5256 224.794 43.1772 223.151 43.1772 221.124C43.1772 219.098 41.5256 217.455 39.4883 217.455C37.4509 217.455 35.7993 219.098 35.7993 221.124C35.7993 223.151 37.4509 224.794 39.4883 224.794Z" fill="#3F3D56"/>
<path d="M68.7117 121.203C67.2279 121.67 65.6233 121.579 64.2021 120.949C62.7808 120.318 61.6416 119.19 61.0003 117.78C60.3589 116.369 60.2601 114.774 60.7224 113.296C61.1847 111.817 62.1761 110.559 63.5088 109.76L76.4492 94.0635L87.9433 96.1102L72.4607 112.309C72.8848 113.126 73.1237 114.025 73.1605 114.944C73.1973 115.863 73.0312 116.778 72.6738 117.626C72.3163 118.474 71.7763 119.234 71.0918 119.852C70.4072 120.47 69.5948 120.931 68.7117 121.203Z" fill="#A0616A"/>
<path d="M156.908 190.267L164.924 190.142L163.96 217.316H156.91L156.908 190.267Z" fill="#A0616A"/>
<path d="M155.111 215.028L168.996 215.027H168.997C171.343 215.027 173.594 215.955 175.253 217.605C176.913 219.256 177.845 221.494 177.845 223.829V224.115L155.111 224.115L155.111 215.028Z" fill="#2F2E41"/>
<path d="M103.836 183.06L112.592 188.651L95.0765 209.611L89.1434 205.822L103.836 183.06Z" fill="#A0616A"/>
<path d="M88.8738 202.929L100.558 210.39L100.559 210.39C102.533 211.652 103.924 213.641 104.423 215.922C104.923 218.203 104.492 220.587 103.224 222.552L103.069 222.792L83.938 210.576L88.8738 202.929Z" fill="#2F2E41"/>
<path d="M100.716 100.08C100.716 100.08 120.172 35.8063 126.424 34.9378C132.677 34.0692 142.751 51.4296 142.751 51.4296C155.813 68.0057 169.281 121.699 169.281 121.699C169.281 121.699 146.829 123.097 130.416 131.782C114.003 140.468 94.6334 131.343 94.6334 131.343L100.716 100.08Z" fill="#3F3D56"/>
<path opacity="0.1" d="M100.716 100.081C100.716 100.081 120.172 35.807 126.424 34.9385C132.677 34.0699 140.192 51.6065 140.192 51.6065C146.701 78.3642 169.281 121.7 169.281 121.7C169.281 121.7 146.829 123.097 130.416 131.783C114.003 140.469 94.6334 131.343 94.6334 131.343L100.716 100.081Z" fill="black"/>
<path d="M116.678 80.8498V113.147L112.856 159.931L93.7651 195.321L102.877 201.794L128.911 168.131L139.207 134.706L155.378 208.7L167.527 207.836L159.09 105.246L143.079 76.3691L116.678 80.8498Z" fill="#2F2E41"/>
<path d="M136.294 49.6111C142.369 55.6532 136.728 62.1268 136.728 62.1268L143.67 77.6636L116.335 85.0004L106.782 42.5426L113.291 35.6374C126.307 35.2058 126.315 34.9375 126.315 34.9375C128.595 37.1575 136.294 49.6111 136.294 49.6111Z" fill="#CCCCCC"/>
<path d="M105.531 38.2553C103.271 39.9083 101.686 42.3161 101.066 45.0373C100.446 47.7584 100.833 50.6105 102.156 53.0709C105.288 59.0171 108.656 68.2279 106.919 78.3396C103.776 96.6395 93.7002 110.543 88.0875 115.008C86.1335 116.562 86.0653 118.826 86.3521 120.451C87.1534 124.992 91.5794 130.144 94.6406 131.177C94.8467 131.245 95.0627 131.279 95.2798 131.277C100.253 131.279 112.486 115.524 126.544 84.7484C135.299 65.5818 128.945 50.2138 122.073 40.6966C121.171 39.4513 120.029 38.3965 118.714 37.5931C117.4 36.7898 115.938 36.2539 114.413 36.0165C112.888 35.7792 111.332 35.845 109.833 36.2103C108.334 36.5756 106.923 37.2331 105.682 38.1446L105.531 38.2553Z" fill="#3F3D56"/>
<path d="M118.497 56.7843L79.0195 108.306L68.6061 103.99L105.921 41.4111L118.497 56.7843Z" fill="#3F3D56"/>
<path d="M130.207 29.3441H103.055C102.496 29.3435 101.961 29.1225 101.566 28.7297C101.171 28.3369 100.949 27.8042 100.948 27.2487V15.6075C100.947 13.5582 101.352 11.5289 102.139 9.63536C102.927 7.74183 104.082 6.02121 105.539 4.57182C106.995 3.12242 108.724 1.97265 110.627 1.18821C112.531 0.403756 114.571 0 116.631 0C118.691 0 120.731 0.403756 122.635 1.18821C124.538 1.97265 126.267 3.12242 127.724 4.57182C129.18 6.02121 130.335 7.74183 131.123 9.63536C131.91 11.5289 132.315 13.5582 132.314 15.6075V27.2487C132.313 27.8042 132.091 28.3368 131.696 28.7297C131.301 29.1225 130.766 29.3435 130.207 29.3441Z" fill="#2F2E41"/>
<path d="M129.943 23.1218C132.989 17.5795 130.941 10.6305 125.369 7.60074C119.797 4.57102 112.81 6.60791 109.764 12.1502C106.718 17.6926 108.766 24.6416 114.338 27.6713C119.91 30.7011 126.897 28.6642 129.943 23.1218Z" fill="#A0616A"/>
<path d="M119.285 31.5172C119.16 31.5171 119.035 31.5062 118.912 31.4845L106.754 29.3509V9.36523H120.138L119.806 9.74948C115.196 15.0972 118.669 23.7685 121.15 28.4614C121.333 28.8051 121.414 29.1932 121.385 29.581C121.356 29.9687 121.217 30.3404 120.985 30.6532C120.79 30.9207 120.535 31.1385 120.239 31.2887C119.944 31.4389 119.617 31.5172 119.285 31.5172Z" fill="#2F2E41"/>
</svg>
