<svg width="169" height="225" viewBox="0 0 169 225" fill="none" xmlns="http://www.w3.org/2000/svg">
<path d="M44.566 212.845L49.1691 214.44L57.5507 197.549L50.7571 195.194L44.566 212.845Z" fill="#A0616A"/>
<path d="M50.5558 215.383L51.6441 212.281L50.4082 211.935L45.3806 210.517L44.2161 210.191L39.6997 220.279L39.4576 220.82L42.726 221.953L43.0251 221.436L44.3818 219.086L44.7254 222.026L44.7999 222.672L53.4649 225.676C53.9817 225.852 54.5472 225.817 55.0388 225.581C55.5303 225.344 55.9081 224.924 56.0902 224.413C57.0517 222.841 51.1335 216.672 50.5558 215.383Z" fill="#2F2E41"/>
<path d="M12.0125 216.421H16.8872L19.2064 197.728L12.0114 197.728L12.0125 216.421Z" fill="#A0616A"/>
<path d="M18.5096 216.858V213.572L17.228 213.65L12.0112 213.957L10.8038 214.031L9.88075 225.034L9.8313 225.624H13.2927L13.404 225.039L13.9067 222.376L15.2047 225.039L15.4891 225.624H24.666C25.2121 225.621 25.7347 225.403 26.1205 225.019C26.5063 224.635 26.724 224.115 26.7263 223.572C27.1137 221.774 19.4821 217.886 18.5096 216.858Z" fill="#2F2E41"/>
<path d="M46.802 99.1221L54.4582 109.21C54.4582 109.21 48.1159 105.173 52.3441 107C56.5723 108.827 55.0599 112.286 55 114.5C54.9401 116.714 54.3761 116.025 56.5312 118.292C58.6863 120.559 73.122 150.701 73.122 150.701C73.122 150.701 61.2931 194.34 59.7783 196.12C58.2635 197.9 56.5722 196.219 58.2635 197.9C59.9548 199.582 62.0689 197.48 59.9548 199.582C57.8407 201.683 54.9409 205.392 54.9409 205.392L46.4246 204.205C46.4246 204.205 37.1227 195.378 51.9213 180.667C51.9213 180.667 55.6467 165.948 53.9954 165.952C52.3441 165.955 52.3441 168.328 52.3441 163.569V158.809L32.7465 122.311C32.7465 122.311 20.2399 112.612 20.4364 108.179C20.6328 103.746 46.802 99.1221 46.802 99.1221Z" fill="#2F2E41"/>
<path d="M32.8946 109.21C32.8946 109.21 41.7738 153.765 40.5053 155.026C39.2369 156.287 39.2369 159.452 39.2369 159.452L18.9416 204.205L10.9081 204.626C10.7184 191.821 10.6662 182.109 17.6732 173.101L21.0558 107.108L32.8946 109.21Z" fill="#2F2E41"/>
<path d="M44.4221 56.321L34.7451 48.7262L29.6654 48.4326L22.128 53.2329L20.2823 62.5935L15.9173 73.1342L22.3196 101.58C22.3196 101.58 22.92 103.621 21.3465 103.867C19.773 104.112 19.9617 107.121 19.9617 107.121C19.9617 107.121 20.2821 109.728 18.7542 109.958C17.2262 110.188 13.152 110.188 16.7171 114.745C20.2823 119.301 48.4808 102.066 48.4808 102.066L52.5764 80.7027C52.5764 80.7027 60.5192 70.0972 51.9654 64.0232L44.4221 56.321Z" fill="#E6E6E6"/>
<path d="M2.17791 120.907C1.75152 120.378 1.44698 119.763 1.28573 119.104C1.12449 118.445 1.11047 117.76 1.24465 117.095C1.37884 116.431 1.65797 115.803 2.06239 115.258C2.4668 114.712 2.98667 114.261 3.58536 113.936L15.7574 73.3271L23.3685 77.1365L10.1129 116.06C10.5944 117.096 10.6769 118.272 10.3448 119.364C10.0127 120.457 9.2891 121.39 8.31101 121.987C7.33293 122.585 6.16837 122.805 5.03801 122.606C3.90765 122.407 2.88999 121.802 2.17791 120.907Z" fill="#A0616A"/>
<path d="M23.8761 52.857C23.8761 52.857 21.7004 51.7075 20.2122 56.6818C19.0208 60.664 9.3533 84.3841 9.23 90.1511C8.4344 90.3187 7.71751 90.7446 7.19226 91.3619C6.66701 91.9791 6.36325 92.7526 6.32886 93.5603L18.2818 95.1527C20.3705 93.4014 20.9185 91.036 20.1103 90.334L22.7056 83.2875L33.5328 60.8679L25.4636 53.6602L23.8761 52.857Z" fill="#E6E6E6"/>
<path d="M87.7445 107.558C87.8989 106.898 87.9058 106.212 87.7646 105.549C87.6235 104.886 87.3379 104.262 86.9278 103.72C86.5177 103.178 85.9932 102.733 85.3911 102.415C84.7891 102.096 84.1242 101.913 83.4432 101.878L55.5208 70.1758L49.5977 77.2019L78.4814 106.599C78.4979 107.74 78.9348 108.836 79.7095 109.678C80.4841 110.52 81.5426 111.051 82.6844 111.169C83.8262 111.287 84.972 110.985 85.9046 110.319C86.8372 109.654 87.4918 108.672 87.7445 107.558Z" fill="#A0616A"/>
<path d="M38.5786 55.5289C38.5786 55.5289 40.0403 53.5571 43.5459 57.4024C46.3524 60.4809 65.3873 77.7122 68.0071 82.8591C68.7974 82.6682 69.6291 82.7441 70.3712 83.0748C71.1133 83.4056 71.7236 83.9724 72.106 84.6859L62.0212 91.2603C59.3761 90.5792 57.8531 88.6819 58.2764 87.7015L52.8711 82.4637L33.3562 66.9034L37.4965 56.9356L38.5786 55.5289Z" fill="#E6E6E6"/>
<path d="M42.4874 37.7308C44.685 32.113 41.8855 25.7879 36.2345 23.6032C30.5836 21.4186 24.2211 24.2016 22.0235 29.8194C19.8259 35.4371 22.6254 41.7622 28.2764 43.9469C33.9273 46.1316 40.2898 43.3485 42.4874 37.7308Z" fill="#A0616A"/>
<path d="M45.3718 23.7709C44.7111 23.0626 43.8359 22.5881 42.8791 22.4195C41.9223 22.2509 40.9364 22.3973 40.071 22.8367C40.2919 21.6101 40.5128 20.3836 40.7337 19.157C38.8979 18.8776 37.062 18.5983 35.2262 18.3189C32.4565 17.8974 29.6026 17.4787 26.8788 18.1322C24.9289 18.6282 23.1521 19.6438 21.7401 21.0697C20.328 22.4955 19.3341 24.2774 18.8656 26.2234C17.6793 25.4238 16.2914 24.9709 14.8593 24.9161C13.4272 24.8612 12.0083 25.2066 10.7637 25.9131C9.51908 26.6195 8.49864 27.6587 7.81821 28.9126C7.13778 30.1666 6.82463 31.5851 6.91429 33.007C7.04626 35.1 8.03073 37.0312 8.63992 39.0389C10.9548 46.6684 7.12092 55.6739 0 59.3332C2.29347 61.0628 4.662 62.83 7.4393 63.5826C10.2166 64.3353 13.5367 63.8406 15.3658 61.6307C16.3015 60.5001 16.7531 59.0604 17.1838 57.6604C18.9253 51.9996 20.6668 46.3388 22.4082 40.6779L25.2236 45.7312C26.1227 46.9809 25.8009 48.7298 25.1532 50.1248C24.5055 51.5198 23.5646 52.8113 23.2747 54.3205C22.9848 55.8297 23.6585 57.6997 25.1672 58.0332C27.2055 53.2663 29.2875 48.1866 28.4968 43.0669C28.1891 41.0744 27.4518 39.0308 28.031 37.0989C28.4785 35.606 29.6632 34.4312 30.9794 33.5859C32.3574 32.7025 33.905 32.1134 35.5242 31.8562C39.1023 31.2904 43.5561 32.0502 45.6564 29.1153C46.2008 28.3152 46.4676 27.3602 46.4162 26.3956C46.3649 25.431 45.9982 24.5094 45.3718 23.7709Z" fill="#2F2E41"/>
<path d="M131.589 218.779L125.845 218.779L123.113 196.756L131.59 196.757L131.589 218.779Z" fill="#FFB6B6"/>
<path d="M131.791 224.736L114.13 224.735V224.513C114.13 222.701 114.854 220.962 116.143 219.681C117.432 218.399 119.181 217.679 121.004 217.679H121.004L124.23 215.246L130.249 217.68L131.791 217.68L131.791 224.736Z" fill="#2F2E41"/>
<path d="M156.641 218.779L150.898 218.779L148.166 196.756L156.643 196.757L156.641 218.779Z" fill="#FFB6B6"/>
<path d="M156.844 224.736L139.183 224.735V224.513C139.183 222.701 139.907 220.962 141.196 219.681C142.485 218.399 144.234 217.679 146.057 217.679H146.057L149.283 215.246L155.302 217.68L156.844 217.68L156.844 224.736Z" fill="#2F2E41"/>
<path d="M117.288 98.7842C117.288 98.7842 111.763 115.656 112.783 117.877C113.802 120.097 115.543 118.367 113.803 120.097C112.062 121.827 110.543 119.988 112.173 122.926C113.803 125.864 116.271 150.049 117.357 151.219C118.443 152.39 119.936 152.421 118.609 153.559C117.283 154.697 115.543 152.39 117.283 154.697C119.023 157.003 123.641 210.215 123.641 210.215H132.661C132.661 210.215 134.908 207.64 133.636 205.965C132.365 204.289 133.748 203.643 133.636 202.525C133.525 201.406 133.948 198.994 134.026 197.893C134.105 196.793 135.629 170.573 131.967 155.426L138.645 126.587L146.735 161.443C146.735 161.443 143.014 190.681 146.735 200.08C146.735 200.08 143.735 202.564 145.066 204.003C146.396 205.442 147.556 204.289 146.396 205.442C145.236 206.596 148.137 210.632 148.137 210.632L157.998 210.056L163.579 155.426C163.579 155.426 164.52 149.729 163.579 148.753C162.638 147.777 162.638 151.237 162.638 147.777V143.164C162.638 143.164 162.093 114.789 162.02 113.118C161.948 111.447 154.987 99.3377 154.987 99.3377L117.288 98.7842Z" fill="#2F2E41"/>
<path d="M117.371 40.5099V73.7786C118.451 76.9999 119.008 80.3718 119.022 83.7674C118.986 89.4231 117.735 95.9406 117.739 98.7901C117.722 99.168 117.764 99.5462 117.862 99.9118C123.4 115.871 152.709 101.368 155.373 100.01C155.5 99.9472 155.567 99.9118 155.567 99.9118L154.989 82.0357L155.088 76.8957L155.773 41.6355L155.159 41.1475L149.783 36.8851L149.256 36.4679L147.641 38.8097L133.242 37.8258L127.747 36.3145L126.033 37.0071L118.305 40.1321L117.371 40.5099Z" fill="#37BA37"/>
<path d="M108.845 107.447L110.738 97.0508L116.863 97.2972L114.468 108.218C114.792 108.792 114.947 109.444 114.918 110.102C114.889 110.759 114.675 111.395 114.302 111.939C113.929 112.482 113.411 112.911 112.806 113.178C112.201 113.445 111.533 113.539 110.878 113.449C110.222 113.359 109.605 113.089 109.095 112.669C108.585 112.25 108.203 111.697 107.992 111.073C107.781 110.45 107.749 109.78 107.9 109.14C108.05 108.499 108.378 107.913 108.845 107.447Z" fill="#FFB6B6"/>
<path d="M118.311 40.4395C121.459 41.2499 123.255 45.3059 124.361 48.3455C125.784 52.2508 123.476 76.3272 120.668 79.8391C118.49 82.5629 119.007 82.0393 119.726 84.2952C120.445 86.551 122.106 84.3508 120.611 87.7064C119.116 91.0621 117.843 90.4566 118.839 91.8873C119.835 93.3179 120.997 93.1532 119.723 95.2985C118.45 97.4438 118.561 98.2141 118.284 99.0393C118.007 99.8645 117.673 105.806 117.673 105.806C117.673 105.806 111.198 104.759 107.822 106.024C107.822 106.024 110.148 100.193 109.208 99.1471C108.267 98.1015 107.05 97.8812 108.046 96.561C109.043 95.2409 111.035 95.3514 108.932 94.4706C106.829 93.5898 108.603 81.1565 108.603 81.1565C106.243 72.9728 107.888 60.732 110.277 47.7369C110.631 45.8151 111.607 44.0613 113.058 42.7435C114.509 41.4257 116.354 40.6164 118.311 40.4395Z" fill="#37BA37"/>
<path d="M159.159 106.757L159.617 96.2015L165.719 95.6201L164.836 106.763C165.234 107.288 165.477 107.913 165.538 108.569C165.598 109.224 165.474 109.883 165.179 110.472C164.883 111.06 164.428 111.555 163.865 111.901C163.302 112.247 162.653 112.43 161.991 112.429C161.33 112.428 160.681 112.244 160.119 111.897C159.556 111.55 159.103 111.054 158.808 110.465C158.514 109.875 158.391 109.216 158.453 108.561C158.515 107.906 158.76 107.281 159.159 106.757Z" fill="#FFB6B6"/>
<path d="M152.781 40.6084L152.952 40.6284C154.542 40.8149 156.063 41.3841 157.382 42.2865C158.702 43.189 159.78 44.3975 160.524 45.8075C162.467 49.4849 168.613 74.3917 167.108 77.8097C165.705 80.9973 165.763 80.2135 166.783 82.3517C167.802 84.4898 169.148 82.086 168.124 85.6122C167.101 89.1384 165.757 88.71 166.939 89.9932C168.12 91.2765 169.249 90.9566 168.28 93.2537C167.311 95.5509 167.526 96.2991 167.364 97.154C167.202 98.0089 167.682 103.941 167.682 103.941C167.682 103.941 161.124 103.776 157.952 105.484C157.952 105.484 159.461 99.3932 158.387 98.4841C157.312 97.575 156.076 97.5207 156.883 96.0785C157.69 94.6362 159.679 94.4772 157.476 93.8879C155.272 93.2987 155.334 80.7411 155.334 80.7411L152.781 40.6084Z" fill="#37BA37"/>
<path d="M137.059 27.1566C137.316 27.2157 137.573 27.2668 137.831 27.3062C138.617 27.4345 139.415 27.4754 140.21 27.4282C142.281 27.3176 144.282 26.6388 145.989 25.4671C147.696 24.2954 149.043 22.6766 149.881 20.7901C150.719 18.9037 151.015 16.8233 150.736 14.7799C150.457 12.7364 149.615 10.8096 148.301 9.21314C146.988 7.61672 145.256 6.41308 143.297 5.73569C141.337 5.0583 139.228 4.93364 137.202 5.37554C135.175 5.81743 133.312 6.80862 131.818 8.23917C130.324 9.66971 129.257 11.4837 128.737 13.48C128.713 13.5705 128.689 13.6571 128.67 13.7476C127.994 16.6316 128.498 19.6643 130.072 22.1788C131.645 24.6933 134.158 26.4838 137.059 27.1566Z" fill="#FFB6B6"/>
<path d="M147.424 25.8389C148.986 24.6237 149.138 22.3072 150.471 20.847C152.7 18.4056 153.747 15.779 152.579 12.8861C151.547 10.3274 151.766 7.18223 149.542 5.53526C150.635 5.14218 150.892 4.32588 149.928 4.31081C149.278 4.30064 146.855 5.53548 148.021 3.99721C149.187 2.45893 146.98 3.06612 147.126 2.43645C147.272 1.80678 148.208 1.45803 148.621 1.95716C147.303 0.42199 144.425 0.749286 143.489 2.54067C142.176 0.583549 140.781 -0.763134 138.771 0.478857C136.797 1.69867 136.823 3.20653 134.7 2.84415C133.702 2.6738 133.608 4.54832 132.926 5.29264C132.244 6.03697 131.247 6.61303 130.252 6.42609C129.257 6.23915 128.496 5.00641 129.054 4.16604L126.709 9.48488L125.764 8.33234C124.262 9.30535 124.755 11.8443 126.267 12.8021C127.779 13.7598 130.664 11.5462 131.484 13.1306C132.777 15.6283 135.811 14.3671 137.895 12.602C140.421 10.4613 143.471 16.97 142.254 20.0401C143.517 18.8073 145.853 19.8303 146.507 21.4652C147.161 23.1 146.681 24.9419 146.196 26.634L147.424 25.8389Z" fill="#2F2E41"/>
<path d="M126.033 37.0079L126.425 37.5038L127.478 38.8341L131.376 50.2792L149.783 36.8859L149.256 36.4687L146.453 30.5455L132.055 29.5615L127.747 36.3152L126.033 37.0079Z" fill="#3F3D56"/>
<path d="M69.7227 80.7127C69.7005 81.2113 69.9209 81.6298 70.2213 81.6752C70.2339 81.6772 70.2466 81.6785 70.2594 81.6791C70.5785 81.6931 70.8559 81.283 70.8791 80.7636C70.8849 80.6435 70.8758 80.5231 70.8518 80.4052C70.7809 80.0584 70.5847 79.8079 70.3432 79.7972C70.0234 79.7831 69.7459 80.1933 69.7227 80.7127Z" fill="white"/>
</svg>
