<svg width="62" height="102" viewBox="0 0 62 102" fill="none" xmlns="http://www.w3.org/2000/svg">
<g opacity="0.02">
<mask id="mask0_2245_38620" style="mask-type:luminance" maskUnits="userSpaceOnUse" x="0" y="0" width="91" height="102">
<path d="M0 41.627V101.458H91L86.4608 97.0138H4.65119V43.4667L43.5602 6.28458L81.7542 42.7737V87.3427H12.7065V48.2229L43.5423 19.3072L73.4939 47.92C73.5404 52.88 73.5869 58.3735 73.6334 63.867C73.6798 69.0047 73.7263 74.1424 73.7728 78.8626C65.2706 78.9247 56.6665 78.8803 48.3228 78.8445C39.9797 78.8091 31.3751 78.7733 22.8544 78.8268C22.8824 74.8798 22.9104 70.6406 22.9384 66.4003C22.9759 61.5023 23.0034 56.6044 23.0409 52.1426L43.5233 33.209L63.0385 52.0982L62.9176 70.0006H34.4538L29.9057 74.4447H67.5408L67.6987 50.2847L43.5977 26.9514L18.3992 50.2402V51.1735C18.3617 55.8847 18.3242 61.1294 18.2878 66.3735C18.2592 71.4406 18.2223 76.498 18.1853 81.0491L18.1758 83.3068L20.5384 83.2886C29.7842 83.2089 39.198 83.2538 48.3044 83.2886C57.4203 83.3336 66.852 83.3694 76.1353 83.2886L78.4609 83.2715L78.4425 81.0491C78.396 75.7424 78.34 69.787 78.284 63.8312C78.2375 58 78.1821 52.1693 78.1356 46.9691L78.1266 46.0626L43.5787 13.0495L8.0553 46.3558V91.7868H86.4048V40.9335L43.5602 0.000160217L0 41.627Z" fill="white"/>
</mask>
<g mask="url(#mask0_2245_38620)">
<path d="M5.31876 0.00094223L-0.000488281 11.0137V0.00094223H5.31876Z" fill="#224646"/>
<path d="M6.25728 0.00119495L-0.000488281 12.958V11.0139L5.31876 0.00119495H6.25728Z" fill="#224646"/>
<path d="M7.19637 3.05176e-05L-0.000488281 14.9004V12.9568L6.25784 3.05176e-05H7.19637Z" fill="#224646"/>
<path d="M8.13489 0.000818253L-0.000488281 16.8447V14.9012L7.19637 0.000818253H8.13489Z" fill="#224747"/>
<path d="M9.07342 -0.000349045L-0.000488281 18.7871V16.8436L8.13489 -0.000349045H9.07342Z" fill="#224848"/>
<path d="M10.0125 0.00087738L-0.000488281 20.7324V18.7883L9.07398 0.00087738H10.0125Z" fill="#224949"/>
<path d="M10.951 0.000692368L-0.000488281 22.6758V20.7322L10.0125 0.000692368H10.951Z" fill="#224A4A"/>
<path d="M11.8901 0.000499725L-0.000488281 24.6191V22.6756L10.9516 0.000499725H11.8901Z" fill="#234B4B"/>
<path d="M12.8286 0.000751495L-0.000488281 26.5635V24.6194L11.8901 0.000751495H12.8286Z" fill="#224B4C"/>
<path d="M13.7677 0.00153542L-0.000488281 28.5078V26.5643L12.8292 0.00153542H13.7677Z" fill="#234C4C"/>
<path d="M14.7062 0.00037384L-0.000488281 30.4502V28.5066L13.7677 0.00037384H14.7062Z" fill="#224D4D"/>
<path d="M15.6448 0.000190735L-0.000488281 32.3936V30.45L14.7062 0.000190735H15.6448Z" fill="#224E4E"/>
<path d="M16.5839 0.00141907L-0.000488281 34.3389V32.3948L15.6453 0.00141907H16.5839Z" fill="#234F4F"/>
<path d="M17.5224 -0.000736237L-0.000488281 36.2803V34.3367L16.5839 -0.000736237H17.5224Z" fill="#225050"/>
<path d="M18.4615 5.34058e-05L-0.000488281 38.2246V36.2811L17.5229 5.34058e-05H18.4615Z" fill="#235051"/>
<path d="M19.4 0.00030899L-0.000488281 40.1689V38.2249L18.4615 0.00030899H19.4Z" fill="#225151"/>
<path d="M20.3391 -0.000854492L-0.000488281 42.1113V40.1678L19.4006 -0.000854492H20.3391Z" fill="#235252"/>
<path d="M21.2776 -6.48499e-05L-0.000488281 44.0557V42.1121L20.3391 -6.48499e-05H21.2776Z" fill="#235353"/>
<path d="M22.2161 0.000717163L-0.000488281 46V44.0565L21.2776 0.000717163H22.2161Z" fill="#235454"/>
<path d="M23.1552 -3.8147e-06L-0.000488281 47.9434V45.9993L22.2167 -3.8147e-06H23.1552Z" fill="#235555"/>
<path d="M24.0937 -0.00019455L-0.000488281 49.8867V47.9432L23.1552 -0.00019455H24.0937Z" fill="#235656"/>
<path d="M25.0328 -0.00038147L-0.000488281 51.8301V49.8865L24.0943 -0.00038147H25.0328Z" fill="#235757"/>
<path d="M25.9713 -0.000133514L-0.000488281 53.7744V51.8303L25.0328 -0.000133514H25.9713Z" fill="#235758"/>
<path d="M26.9104 0.000659943L-0.000488281 55.7188V53.7752L25.9719 0.000659943H26.9104Z" fill="#235859"/>
<path d="M27.849 -0.00050354L-0.000488281 57.6611V55.7176L26.9104 -0.00050354H27.849Z" fill="#235A5A"/>
<path d="M28.788 0.000286102L-0.000488281 59.6055V57.6619L27.8495 0.000286102H28.788Z" fill="#245A5B"/>
<path d="M29.7266 0.000537872L-0.000488281 61.5498V59.6057L28.788 0.000537872H29.7266Z" fill="#235B5B"/>
<path d="M30.6651 0.000339508L-0.000488281 63.4932V61.5496L29.7266 0.000339508H30.6651Z" fill="#245C5C"/>
<path d="M31.6042 0.000160217L-0.000488281 65.4365V63.493L30.6657 0.000160217H31.6042Z" fill="#235D5D"/>
<path d="M32.5427 -4.57764e-05L-0.000488281 67.3799V65.4363L31.6042 -4.57764e-05H32.5427Z" fill="#245E5E"/>
<path d="M33.4818 0.000213623L-0.000488281 69.3242V67.3801L32.5433 0.000213623H33.4818Z" fill="#245F5F"/>
<path d="M34.4203 0.00101471L-0.000488281 71.2686V69.325L33.4818 0.00101471H34.4203Z" fill="#256060"/>
<path d="M35.3594 -0.000160217L-0.000488281 73.2109V71.2674L34.4209 -0.000160217H35.3594Z" fill="#246161"/>
<path d="M36.2979 8.39233e-05L-0.000488281 75.1553V73.2112L35.3594 8.39233e-05H36.2979Z" fill="#246262"/>
<path d="M37.2365 0.00087738L-0.000488281 77.0996V75.1561L36.2979 0.00087738H37.2365Z" fill="#246363"/>
<path d="M38.1755 0.000679016L-0.000488281 79.043V77.0994L37.237 0.000679016H38.1755Z" fill="#246363"/>
<path d="M39.1141 0.000495911L-0.000488281 80.9863V79.0428L38.1755 0.000495911H39.1141Z" fill="#256464"/>
<path d="M40.0532 -0.000244141L-0.000488281 82.9297V80.9856L39.1146 -0.000244141H40.0532Z" fill="#246566"/>
<path d="M40.9917 0.000556946L-0.000488281 84.874V82.9305L40.0532 0.000556946H40.9917Z" fill="#256767"/>
<path d="M41.9308 0.00133514L-0.000488281 86.8184V84.8748L40.9922 0.00133514H41.9308Z" fill="#256767"/>
<path d="M42.8693 -0.000350952L-0.000488281 88.7607V86.8167L41.9308 -0.000350952H42.8693Z" fill="#246868"/>
<path d="M43.8084 0.000419617L-0.000488281 90.7051V88.7615L42.8698 0.000419617H43.8084Z" fill="#256969"/>
<path d="M44.7469 0.00121307L-0.000488281 92.6494V90.7059L43.8084 0.00121307H44.7469Z" fill="#256A6A"/>
<path d="M45.6854 -0.000938416L-0.000488281 94.5908V92.6473L44.7469 -0.000938416H45.6854Z" fill="#266B6B"/>
<path d="M46.6245 0.000289917L-0.000488281 96.5361V94.5921L45.686 0.000289917H46.6245Z" fill="#256C6C"/>
<path d="M47.563 0.000114441L-0.000488281 98.4795V96.5359L46.6245 0.000114441H47.563Z" fill="#246D6D"/>
<path d="M47.9993 -0.00106049L48.4136 0.181419L-0.000488281 100.422V98.4783L47.563 -0.00106049H47.9993Z" fill="#256E6E"/>
<path d="M48.4136 0.183167L49.1875 0.524574L0.438538 101.458H-0.000488281V100.424L48.4136 0.183167Z" fill="#256F6F"/>
<path d="M49.1889 0.52459L49.9628 0.86599L1.37903 101.458H0.439941L49.1889 0.52459Z" fill="#26706F"/>
<path d="M49.9613 0.86599L50.7352 1.2074L2.31604 101.458H1.37695L49.9613 0.86599Z" fill="#257171"/>
<path d="M50.7356 1.20739L51.5095 1.54879L3.25493 101.458H2.31641L50.7356 1.20739Z" fill="#257171"/>
<path d="M51.5104 1.54781L52.2843 1.88922L4.19494 101.457H3.25586L51.5104 1.54781Z" fill="#267272"/>
<path d="M52.2847 1.88966L53.0585 2.23107L5.13384 101.458H4.19531L52.2847 1.88966Z" fill="#257374"/>
<path d="M53.057 2.23107L53.8309 2.57248L6.07141 101.458H5.13232L53.057 2.23107Z" fill="#267474"/>
<path d="M53.8309 2.57247L54.6048 2.91388L7.00989 101.458H6.0708L53.8309 2.57247Z" fill="#257575"/>
<path d="M54.6071 2.91386L55.381 3.25527L7.95073 101.458H7.01221L54.6071 2.91386Z" fill="#257676"/>
<path d="M55.38 3.2553L56.1538 3.59671L8.88879 101.458H7.94971L55.38 3.2553Z" fill="#267777"/>
<path d="M56.1537 3.59668L56.9276 3.93808L9.8272 101.458H8.88867L56.1537 3.59668Z" fill="#257879"/>
<path d="M56.9266 3.93712L57.7005 4.27852L10.7653 101.457H9.82617L56.9266 3.93712Z" fill="#277979"/>
<path d="M57.7004 4.27852L58.4743 4.61993L11.7037 101.457H10.7646L57.7004 4.27852Z" fill="#267A7A"/>
<path d="M58.4757 4.62038L59.2496 4.96178L12.6436 101.458H11.7051L58.4757 4.62038Z" fill="#277B7B"/>
<path d="M59.249 4.96179L60.0229 5.30319L13.5821 101.458H12.6431L59.249 4.96179Z" fill="#277C7C"/>
<path d="M60.0233 5.30319L60.7972 5.6446L14.521 101.458H13.5825L60.0233 5.30319Z" fill="#267C7D"/>
<path d="M60.7962 5.6446L61.57 5.98601L15.4591 101.458H14.52L60.7962 5.6446Z" fill="#287D7E"/>
<path d="M61.5715 5.98601L62.3453 6.32741L16.399 101.458H15.46L61.5715 5.98601Z" fill="#277E7F"/>
<path d="M62.3447 6.3274L63.1186 6.66881L17.337 101.458H16.3984L62.3447 6.3274Z" fill="#277F80"/>
<path d="M63.1181 6.66785L63.892 7.00925L18.2755 101.457H17.3364L63.1181 6.66785Z" fill="#288081"/>
<path d="M63.8919 7.00968L64.6658 7.35109L19.2139 101.458H18.2754L63.8919 7.00968Z" fill="#278182"/>
<path d="M64.6672 7.35109L65.4411 7.6925L20.1544 101.458H19.2153L64.6672 7.35109Z" fill="#298283"/>
<path d="M65.4395 7.6925L66.2134 8.03391L21.0914 101.458H20.1523L65.4395 7.6925Z" fill="#288383"/>
<path d="M66.2143 8.0339L66.9882 8.37531L22.0308 101.458H21.0923L66.2143 8.0339Z" fill="#288485"/>
<path d="M66.9896 8.3753L67.7635 8.7167L22.9713 101.458H22.0322L66.9896 8.3753Z" fill="#298585"/>
<path d="M67.7614 8.7167L68.5353 9.05811L23.9078 101.458H22.9692L67.7614 8.7167Z" fill="#288586"/>
<path d="M68.5362 9.05713L69.3101 9.39854L24.8472 101.457H23.9087L68.5362 9.05713Z" fill="#288687"/>
<path d="M69.3106 9.39899L70.0845 9.74039L25.7867 101.458H24.8477L69.3106 9.39899Z" fill="#288889"/>
<path d="M70.0839 9.74038L70.8577 10.0818L26.7247 101.458H25.7861L70.0839 9.74038Z" fill="#28898A"/>
<path d="M70.8577 10.0818L71.6316 10.4232L27.6637 101.458H26.7246L70.8577 10.0818Z" fill="#28898A"/>
<path d="M71.6324 10.4232L72.4063 10.7646L28.6031 101.458H27.6646L71.6324 10.4232Z" fill="#298A8C"/>
<path d="M72.4053 10.7646L73.1792 11.106L29.5406 101.458H28.6021L72.4053 10.7646Z" fill="#298B8C"/>
<path d="M73.1801 11.106L73.954 11.4474L30.4806 101.458H29.5415L73.1801 11.106Z" fill="#288C8D"/>
<path d="M73.9544 11.4464L74.7283 11.7878L31.4195 101.457H30.481L73.9544 11.4464Z" fill="#298D8E"/>
<path d="M74.7268 11.7878L75.5007 12.1292L32.3571 101.457H31.418L74.7268 11.7878Z" fill="#298E8F"/>
<path d="M75.5015 12.1297L76.2754 12.4711L33.2964 101.458H32.3579L75.5015 12.1297Z" fill="#288E90"/>
<path d="M76.2758 12.4711L77.0497 12.8125L34.2354 101.458H33.2969L76.2758 12.4711Z" fill="#299091"/>
<path d="M77.0492 12.8125L77.8231 13.1539L35.1739 101.458H34.2349L77.0492 12.8125Z" fill="#299092"/>
<path d="M77.8239 13.1539L78.5978 13.4953L36.1133 101.458H35.1748L77.8239 13.1539Z" fill="#289193"/>
<path d="M78.5963 13.4953L79.3702 13.8367L37.0509 101.458H36.1118L78.5963 13.4953Z" fill="#2A9294"/>
<path d="M79.3711 13.8367L80.145 14.1781L37.9903 101.458H37.0518L79.3711 13.8367Z" fill="#299395"/>
<path d="M80.1449 14.1771L80.9188 14.5185L38.9288 101.457H37.9902L80.1449 14.1771Z" fill="#289496"/>
<path d="M80.9188 14.519L81.6927 14.8604L39.8678 101.458H38.9287L80.9188 14.519Z" fill="#2B9596"/>
<path d="M81.692 14.8604L82.4659 15.2018L40.8057 101.458H39.8672L81.692 14.8604Z" fill="#2A9597"/>
<path d="M82.4674 15.2018L83.2412 15.5432L41.7462 101.458H40.8071L82.4674 15.2018Z" fill="#299698"/>
<path d="M83.2397 15.5432L84.0135 15.8846L42.6832 101.458H41.7446L83.2397 15.5432Z" fill="#2B9799"/>
<path d="M84.0145 15.8846L84.7884 16.226L43.6226 101.458H42.6841L84.0145 15.8846Z" fill="#2A989A"/>
<path d="M84.7873 16.226L85.5612 16.5674L44.5607 101.458H43.6216L84.7873 16.226Z" fill="#29999B"/>
<path d="M85.5621 16.5664L86.336 16.9079L45.5001 101.457H44.5615L85.5621 16.5664Z" fill="#2B9A9B"/>
<path d="M86.3364 16.9078L87.1103 17.2492L46.4396 101.457H45.5005L86.3364 16.9078Z" fill="#2B9A9C"/>
<path d="M87.1102 17.2497L87.8841 17.5911L47.378 101.458H46.4395L87.1102 17.2497Z" fill="#2A9B9D"/>
<path d="M87.884 17.5911L88.6579 17.9325L48.3165 101.458H47.3779L87.884 17.5911Z" fill="#2C9C9E"/>
<path d="M88.6584 17.9325L89.4323 18.2739L49.256 101.458H48.3169L88.6584 17.9325Z" fill="#2B9D9F"/>
<path d="M89.4312 18.2739L90.205 18.6153L50.1934 101.458H49.2549L89.4312 18.2739Z" fill="#2B9D9F"/>
<path d="M90.2055 18.6153L90.9794 18.9567L51.1329 101.458H50.1938L90.2055 18.6153Z" fill="#2A9EA1"/>
<path d="M90.9797 18.9558L90.9999 18.9649V20.857L52.0718 101.457H51.1333L90.9797 18.9558Z" fill="#2C9FA1"/>
<path d="M90.9994 22.8016L53.0098 101.458H52.0713L90.9994 20.858V22.8016Z" fill="#2BA0A2"/>
<path d="M90.9998 24.7451L53.9488 101.458H53.0103L90.9998 22.8016V24.7451Z" fill="#2AA1A3"/>
<path d="M90.9998 26.6892L54.8878 101.458H53.9487L90.9998 24.7456V26.6892Z" fill="#2DA1A3"/>
<path d="M91.0006 28.6327L55.8272 101.458H54.8887L91.0006 26.6892V28.6327Z" fill="#2CA2A4"/>
<path d="M91.0011 30.5763L56.7667 101.458H55.8276L91.0011 28.6327V30.5763Z" fill="#2BA3A5"/>
<path d="M91.0009 32.5194L57.7051 101.457H56.7666L91.0009 30.5758V32.5194Z" fill="#2BA3A6"/>
<path d="M90.9999 34.4639L58.6432 101.458H57.7041L90.9999 32.5204V34.4639Z" fill="#2DA4A7"/>
<path d="M91.0003 36.4075L59.5821 101.458H58.6436L91.0003 34.4639V36.4075Z" fill="#2CA5A7"/>
<path d="M90.9993 38.351L60.5201 101.458H59.5811L90.9993 36.4075V38.351Z" fill="#2CA5A8"/>
<path d="M91.0001 40.2951L61.4595 101.458H60.521L91.0001 38.3515V40.2951Z" fill="#2BA6A9"/>
<path d="M91.0001 42.2386L62.398 101.458H61.4595L91.0001 40.2951V42.2386Z" fill="#2BA7A9"/>
</g>
</g>
</svg>
