<svg width="19" height="19" viewBox="0 0 19 19" fill="none" xmlns="http://www.w3.org/2000/svg">
<path d="M1 9.07539C1 5.87004 1 4.26694 1.9962 3.27159C2.99155 2.27539 4.59465 2.27539 7.8 2.27539H11.2C14.4054 2.27539 16.0084 2.27539 17.0038 3.27159C18 4.26694 18 5.87004 18 9.07539V10.7754C18 13.9807 18 15.5838 17.0038 16.5792C16.0084 17.5754 14.4054 17.5754 11.2 17.5754H7.8C4.59465 17.5754 2.99155 17.5754 1.9962 16.5792C1 15.5838 1 13.9807 1 10.7754V9.07539Z" stroke="#D5D5D5"/>
<path d="M5.25078 2.275V1M13.7508 2.275V1M1.42578 6.525H17.5758" stroke="#D5D5D5" stroke-linecap="round"/>
<path d="M14.6004 13.3252C14.6004 13.5506 14.5108 13.7668 14.3514 13.9262C14.192 14.0856 13.9758 14.1752 13.7504 14.1752C13.525 14.1752 13.3088 14.0856 13.1493 13.9262C12.9899 13.7668 12.9004 13.5506 12.9004 13.3252C12.9004 13.0998 12.9899 12.8836 13.1493 12.7242C13.3088 12.5647 13.525 12.4752 13.7504 12.4752C13.9758 12.4752 14.192 12.5647 14.3514 12.7242C14.5108 12.8836 14.6004 13.0998 14.6004 13.3252ZM14.6004 9.9252C14.6004 10.1506 14.5108 10.3668 14.3514 10.5262C14.192 10.6856 13.9758 10.7752 13.7504 10.7752C13.525 10.7752 13.3088 10.6856 13.1493 10.5262C12.9899 10.3668 12.9004 10.1506 12.9004 9.9252C12.9004 9.69976 12.9899 9.48356 13.1493 9.32415C13.3088 9.16475 13.525 9.0752 13.7504 9.0752C13.9758 9.0752 14.192 9.16475 14.3514 9.32415C14.5108 9.48356 14.6004 9.69976 14.6004 9.9252ZM10.3504 13.3252C10.3504 13.5506 10.2608 13.7668 10.1014 13.9262C9.94203 14.0856 9.72582 14.1752 9.50039 14.1752C9.27496 14.1752 9.05876 14.0856 8.89935 13.9262C8.73994 13.7668 8.65039 13.5506 8.65039 13.3252C8.65039 13.0998 8.73994 12.8836 8.89935 12.7242C9.05876 12.5647 9.27496 12.4752 9.50039 12.4752C9.72582 12.4752 9.94203 12.5647 10.1014 12.7242C10.2608 12.8836 10.3504 13.0998 10.3504 13.3252ZM10.3504 9.9252C10.3504 10.1506 10.2608 10.3668 10.1014 10.5262C9.94203 10.6856 9.72582 10.7752 9.50039 10.7752C9.27496 10.7752 9.05876 10.6856 8.89935 10.5262C8.73994 10.3668 8.65039 10.1506 8.65039 9.9252C8.65039 9.69976 8.73994 9.48356 8.89935 9.32415C9.05876 9.16475 9.27496 9.0752 9.50039 9.0752C9.72582 9.0752 9.94203 9.16475 10.1014 9.32415C10.2608 9.48356 10.3504 9.69976 10.3504 9.9252ZM6.10039 13.3252C6.10039 13.5506 6.01084 13.7668 5.85143 13.9262C5.69203 14.0856 5.47582 14.1752 5.25039 14.1752C5.02496 14.1752 4.80876 14.0856 4.64935 13.9262C4.48994 13.7668 4.40039 13.5506 4.40039 13.3252C4.40039 13.0998 4.48994 12.8836 4.64935 12.7242C4.80876 12.5647 5.02496 12.4752 5.25039 12.4752C5.47582 12.4752 5.69203 12.5647 5.85143 12.7242C6.01084 12.8836 6.10039 13.0998 6.10039 13.3252ZM6.10039 9.9252C6.10039 10.1506 6.01084 10.3668 5.85143 10.5262C5.69203 10.6856 5.47582 10.7752 5.25039 10.7752C5.02496 10.7752 4.80876 10.6856 4.64935 10.5262C4.48994 10.3668 4.40039 10.1506 4.40039 9.9252C4.40039 9.69976 4.48994 9.48356 4.64935 9.32415C4.80876 9.16475 5.02496 9.0752 5.25039 9.0752C5.47582 9.0752 5.69203 9.16475 5.85143 9.32415C6.01084 9.48356 6.10039 9.69976 6.10039 9.9252Z" fill="#D5D5D5"/>
</svg>
