<svg width="55" height="66" viewBox="0 0 55 66" fill="none" xmlns="http://www.w3.org/2000/svg">
<g clip-path="url(#clip0_2475_54679)">
<path d="M25.1392 1.34399L4.88921 8.65649C2.25671 9.63149 0.501709 12.0365 0.501709 14.7665V30.0415C0.501709 45.739 11.0655 60.494 25.578 64.979C26.8267 65.369 28.1767 65.369 29.4255 64.979C43.938 60.494 54.5017 45.7715 54.5017 30.0415V14.7665C54.4993 13.4439 54.078 12.1536 53.294 11.0676C52.5101 9.98169 51.4008 9.15189 50.1142 8.68899L29.8642 1.37649C28.3455 0.791493 26.658 0.791493 25.1392 1.34399Z" fill="#2CACAF"/>
<path d="M35.6001 27.15L27.5001 32.025L19.4001 27.15V25.2L27.5001 30.075L35.6001 25.2M35.6001 23.25H19.4001C18.2762 23.25 17.3751 24.1177 17.3751 25.2V36.9C17.3751 37.4172 17.5885 37.9132 17.9682 38.2789C18.348 38.6446 18.8631 38.85 19.4001 38.85H35.6001C36.1372 38.85 36.6523 38.6446 37.032 38.2789C37.4118 37.9132 37.6251 37.4172 37.6251 36.9V25.2C37.6251 24.6828 37.4118 24.1868 37.032 23.8211C36.6523 23.4554 36.1372 23.25 35.6001 23.25Z" fill="#F7F7F7"/>
</g>
<defs>
<clipPath id="clip0_2475_54679">
<rect width="55" height="66" fill="white"/>
</clipPath>
</defs>
</svg>
