<svg width="55" height="66" viewBox="0 0 55 66" fill="none" xmlns="http://www.w3.org/2000/svg">
	<g clip-path="url(#clip0_2475_54672)">
		<path d="M25.3719 1.34399L4.87907 8.65649C2.21501 9.63149 0.438965 12.0365 0.438965 14.7665V30.0415C0.438965 45.739 11.1294 60.494 25.8159 64.979C27.0796 65.369 28.4458 65.369 29.7095 64.979C44.396 60.494 55.0864 45.7715 55.0864 30.0415V14.7665C55.084 13.4439 54.6576 12.1536 53.8643 11.0676C53.0709 9.98169 51.9483 9.15189 50.6463 8.68899L30.1535 1.37649C28.6165 0.791493 26.9088 0.791493 25.3719 1.34399Z" fill="#2CACAF" />
		<path d="M20.8863 30.521C22.3618 33.2803 24.739 35.5325 27.6387 36.9463L29.8929 34.8013C30.1696 34.538 30.5794 34.4503 30.938 34.5673C32.0856 34.928 33.3254 35.123 34.596 35.123C35.1595 35.123 35.6206 35.5618 35.6206 36.098V39.5008C35.6206 40.037 35.1595 40.4758 34.596 40.4758C24.9746 40.4758 17.1771 33.056 17.1771 23.9008C17.1771 23.3645 17.6382 22.9258 18.2018 22.9258H21.788C22.3516 22.9258 22.8126 23.3645 22.8126 23.9008C22.8126 25.1195 23.0176 26.2895 23.3967 27.3815C23.5094 27.7228 23.4274 28.103 23.1405 28.376L20.8863 30.521Z" fill="#F7F7F7" />
	</g>
	<defs>
		<clipPath id="clip0_2475_54672">
			<rect width="55" height="66" fill="white" />
		</clipPath>
	</defs>
</svg>
