<svg width="78" height="55" viewBox="0 0 78 55" fill="none" xmlns="http://www.w3.org/2000/svg">
<g clip-path="url(#clip0_2475_52835)">
<path d="M75.959 8.5184C75.5135 6.87193 74.6444 5.3709 73.4383 4.16477C72.2322 2.95864 70.7313 2.08951 69.0848 1.64391C63.0571 0 38.7978 0 38.7978 0C38.7978 0 14.5373 0.0497601 8.50966 1.69367C6.86317 2.13929 5.36215 3.00848 4.15608 4.21466C2.95 5.42084 2.08095 6.92194 1.63547 8.56846C-0.187756 19.2784 -0.895018 35.598 1.68553 45.8795C2.13106 47.526 3.00013 49.027 4.2062 50.2331C5.41228 51.4393 6.91327 52.3084 8.55972 52.754C14.5874 54.3979 38.8473 54.3979 38.8473 54.3979C38.8473 54.3979 63.1069 54.3979 69.1343 52.754C70.7808 52.3084 72.2818 51.4393 73.488 50.2332C74.6941 49.0271 75.5632 47.526 76.0088 45.8795C77.9318 35.1544 78.5244 18.8449 75.959 8.5184Z" fill="#FF0000"/>
<path d="M31.0781 38.8552L51.2031 27.1986L31.0781 15.542V38.8552Z" fill="white"/>
</g>
<defs>
<clipPath id="clip0_2475_52835">
<rect width="77.6744" height="54.6148" fill="white"/>
</clipPath>
</defs>
</svg>
