<svg width="399" height="345" viewBox="0 0 399 345" fill="none" xmlns="http://www.w3.org/2000/svg">
<g filter="url(#filter0_dd_2475_53487)">
<path d="M17.0016 330H25.8096L30 295L17 295.001L17.0016 330Z" fill="#9F616A"/>
<path d="M15 327.001L32.7119 327H32.7126C35.7061 327 38.577 328.225 40.6938 330.404C42.8105 332.583 43.9998 335.539 44 338.621V338.999L15.0005 339L15 327.001Z" fill="#2F2E41"/>
<path d="M11.1515 206C11.1515 206 7.30397 210.415 13.6749 227.627L12.5527 322L33.1989 321.591L37.7372 275.556L46 208.379L11.1515 206Z" fill="#2F2E41"/>
<path d="M53.9597 219L53.7291 218.965C26.7863 214.879 6.45479 210.961 6.25257 210.922L6 210.874L13.0628 193.791C13.0071 192.006 11.4782 141.879 14.4049 127.477C17.2382 113.535 30.5932 111.25 32.1151 111.035L33.6432 106L52.949 115.99L56.3161 127.514L57 159.098L53.9597 219Z" fill="#2F513E"/>
<path d="M65.7085 154C64.8436 154 63.9881 154.183 63.1957 154.539C62.4034 154.894 61.6913 155.414 61.1043 156.065H28.8241L17 158.646L18.9413 174L61.0029 164.724C61.6993 165.53 62.5816 166.145 63.5693 166.512C64.5569 166.879 65.6184 166.986 66.657 166.824C67.6955 166.662 68.6779 166.236 69.5145 165.585C70.351 164.933 71.0152 164.077 71.4462 163.095C71.8772 162.113 72.0614 161.035 71.982 159.961C71.9025 158.887 71.562 157.85 70.9914 156.946C70.4208 156.042 69.6384 155.298 68.7156 154.784C67.7927 154.269 66.7589 154 65.7085 154Z" fill="#9F616A"/>
<path d="M65.5824 100.306C69.6744 92.787 66.9087 83.3515 59.4051 79.2313C51.9014 75.1112 42.5013 77.8665 38.4093 85.3856C34.3172 92.9046 37.0829 102.34 44.5866 106.46C52.0902 110.58 61.4904 107.825 65.5824 100.306Z" fill="#9F616A"/>
<path d="M36.8386 80.6471L36.0914 79.1279L39.8512 77.2409C39.8512 77.2409 43.9989 70.4237 51.5042 72.3395C59.0096 74.2553 62.3864 75.4018 62.3864 75.4018L66.1367 77.308L64.2544 79.1998L67.6311 80.3464L65.3752 81.4786L68 83.0026L66.587 90.815C66.587 90.815 64.2402 84.8896 59.7284 87.154C55.2167 89.4184 46.9641 85.9834 46.9641 85.9834L39.7943 100C39.7943 100 38.3152 95.0865 35.678 96.3967C35.678 96.3967 28.9407 85.5581 36.8386 80.6471Z" fill="#2F2E41"/>
<path d="M18.6118 176L14.8983 165.033L14 128.477L15.5823 123.29C16.1518 121.424 17.0951 119.69 18.3556 118.194C19.616 116.698 21.1678 115.47 22.9179 114.583C24.6679 113.697 26.5802 113.17 28.5402 113.035C30.5002 112.9 32.4675 113.159 34.3242 113.796C36.181 114.434 37.8889 115.438 39.3457 116.746C40.8024 118.055 41.9781 119.642 42.8022 121.413C43.6262 123.184 44.0817 125.101 44.1414 127.051C44.2011 129.001 43.8637 130.942 43.1494 132.759L34.6686 154.335L35.0997 155.165L53.4734 155.018L60 166.681L18.6118 176Z" fill="#346248"/>
<path d="M200.962 171.029C201.653 170.577 202.234 169.982 202.663 169.288C203.092 168.594 203.36 167.816 203.446 167.011C203.533 166.205 203.437 165.391 203.165 164.625C202.893 163.859 202.452 163.161 201.873 162.579L211 145L200.545 146.179L193.481 162.691C192.54 163.703 192.013 165.015 192 166.379C191.988 167.742 192.49 169.063 193.412 170.091C194.334 171.119 195.612 171.782 197.004 171.955C198.395 172.128 199.804 171.799 200.962 171.029Z" fill="#FFB7B7"/>
<path d="M272.999 298L264.868 297.999L261 267L273 267.001L272.999 298Z" fill="#FFB7B7"/>
<path d="M274.999 307L249 306.999V306.653C249 303.828 250.066 301.118 251.964 299.12C253.862 297.123 256.436 296 259.12 296H259.12L275 296.001L274.999 307Z" fill="#2F2E41"/>
<path d="M228.998 298L220.868 297.999L217 267L229 267.001L228.998 298Z" fill="#FFB7B7"/>
<path d="M229 307L203 306.999V306.653C203 303.828 204.066 301.118 205.964 299.12C207.862 297.123 210.436 296 213.12 296H213.12L229 296.001L229 307Z" fill="#2F2E41"/>
<path d="M228.388 166L220.504 184.376L214 290L230.426 289.335L234.912 238.984L248.751 194.138L256.707 244.134L259.993 288.006L273.584 288.601L279 166H228.388Z" fill="#2F2E41"/>
<path d="M267.791 75L244.728 75.5743L231.188 82.494L230.445 133.546L222 168.793C222 168.793 274.764 172.408 282.059 167.127L273.438 126.86L285 83.3425L267.791 75Z" fill="#2CACAF"/>
<path d="M235 83.4461L232.85 82C232.85 82 223.94 84.6588 221.307 96.4877C221.307 96.4877 219.292 102.422 218.408 106.503C217.394 111.183 195 154.17 195 154.17L208.407 158L232.988 118.419L235 83.4461Z" fill="#2CACAF"/>
<path d="M284.192 177.966C283.674 177.34 283.297 176.606 283.088 175.817C282.88 175.027 282.844 174.2 282.985 173.395C283.125 172.59 283.437 171.826 283.9 171.157C284.363 170.488 284.965 169.93 285.663 169.522L282 150L291.395 153.972L293.434 171.902C294.031 173.138 294.161 174.553 293.799 175.879C293.436 177.206 292.607 178.351 291.468 179.099C290.329 179.846 288.959 180.144 287.618 179.935C286.277 179.726 285.058 179.026 284.192 177.966Z" fill="#FFB7B7"/>
<path d="M281.401 84.8019L283.878 84C283.878 84 291.734 89.0168 290.987 101.146C290.987 101.146 291.281 107.422 291 111.599C290.677 116.39 295 164 295 164H281L275 120.885L281.401 84.8019Z" fill="#2CACAF"/>
<path d="M273 54C273 57.1645 272.062 60.2579 270.303 62.8891C268.545 65.5203 266.047 67.5711 263.123 68.7821C260.199 69.9931 256.982 70.3099 253.879 69.6926C250.775 69.0752 247.924 67.5513 245.686 65.3137C243.449 63.0761 241.925 60.2252 241.307 57.1215C240.69 54.0178 241.007 50.8007 242.218 47.8771C243.429 44.9535 245.48 42.4546 248.111 40.6965C250.742 38.9384 253.835 38.0001 257 38C261.233 37.9895 265.297 39.6608 268.297 42.6465C271.298 45.6321 272.989 49.6874 273 53.9203C273 53.9469 273 53.9734 273 54Z" fill="#FFB7B7"/>
<path d="M241.684 32.2965C243.551 28.3041 247.165 29.0934 250.326 30.4468C254.328 29.5641 258.134 26.9216 262.447 28.4843C266.694 34.6268 280.956 32.8196 277.922 42.8197C277.918 45.2159 282.457 43.8211 281.664 47.7456C284.069 55.2982 272.985 69.6016 266.622 66.5896C268.196 63.7221 271.791 57.2092 266.338 56.5633C254.61 67.4135 265.128 35.902 250.392 45.066C245.512 49.5058 238.832 36.7374 241.684 32.2965Z" fill="#2F2E41"/>
<path d="M287.338 179.896C288.102 180.049 288.89 180.033 289.648 179.85C290.405 179.667 291.113 179.322 291.721 178.838C292.329 178.355 292.824 177.744 293.169 177.05C293.514 176.357 293.701 175.596 293.719 174.822L334 137.178L324.937 130L288.123 169.355C286.812 169.413 285.568 169.946 284.626 170.854C283.685 171.761 283.111 172.98 283.015 174.279C282.918 175.579 283.304 176.868 284.101 177.903C284.898 178.939 286.05 179.648 287.338 179.896Z" fill="#9F616A"/>
<path d="M327.316 142.183L319.566 133.234C319.345 132.979 319.183 132.681 319.09 132.359C318.997 132.037 318.976 131.699 319.027 131.368C319.079 131.037 319.202 130.721 319.389 130.442C319.576 130.162 319.822 129.925 320.11 129.748L330.2 123.525C331.529 122.42 333.248 121.88 334.98 122.022C336.712 122.165 338.317 122.978 339.441 124.284C340.566 125.59 341.119 127.283 340.979 128.99C340.839 130.697 340.017 132.279 338.694 133.391L330.896 142.202C330.673 142.454 330.397 142.656 330.087 142.794C329.778 142.931 329.442 143.002 329.102 143C328.762 142.998 328.427 142.924 328.119 142.783C327.811 142.642 327.537 142.437 327.316 142.183Z" fill="#CBCBCB"/>
<path d="M305.998 330L296.513 329.999L292 292L306 292.001L305.998 330Z" fill="#9F616A"/>
<path d="M308.999 339L278 338.999V338.59C278 335.251 279.272 332.049 281.534 329.688C283.797 327.327 286.866 326 290.066 326H290.067L309 326.001L308.999 339Z" fill="#2F2E41"/>
<path d="M384.998 330L375.513 329.999L371 292L385 292.001L384.998 330Z" fill="#9F616A"/>
<path d="M386.999 339L356 338.999V338.59C356 335.251 357.272 332.049 359.534 329.688C361.797 327.327 364.866 326 368.066 326H368.067L387 326.001L386.999 339Z" fill="#2F2E41"/>
<path d="M358.751 162.828L368.57 126.224L355.832 119H338.053L331.137 126.465C331.137 126.465 319.584 134.576 322.38 143.563L326.891 164.032L319.992 196.541L285.229 245.185L277 292.966L309.393 301.535L344.421 231.94L361.405 309L393 307.397L382.113 213.962C382.113 213.962 379.009 185.498 362.741 167.726L358.751 162.828Z" fill="#2F513E"/>
<path d="M379.423 195.441C379.976 194.898 380.402 194.242 380.671 193.519C380.941 192.796 381.046 192.023 380.981 191.255C380.916 190.487 380.682 189.743 380.295 189.074C379.907 188.405 379.377 187.829 378.74 187.385L371.045 136L360 139.452L371.056 188.942C370.374 190.05 370.126 191.367 370.36 192.644C370.593 193.92 371.292 195.068 372.323 195.869C373.354 196.67 374.647 197.069 375.955 196.99C377.264 196.911 378.497 196.36 379.423 195.441Z" fill="#9F616A"/>
<path d="M372.855 143.592L360.7 144.984C360.354 145.024 360.004 144.989 359.673 144.882C359.342 144.775 359.038 144.598 358.782 144.364C358.526 144.13 358.323 143.844 358.189 143.525C358.054 143.206 357.99 142.862 358.001 142.517L358.395 130.409C358.201 128.651 358.717 126.888 359.83 125.507C360.943 124.126 362.562 123.239 364.332 123.042C366.102 122.844 367.878 123.352 369.272 124.453C370.666 125.555 371.563 127.16 371.767 128.917L374.917 140.58C375.008 140.914 375.024 141.263 374.966 141.604C374.908 141.945 374.777 142.269 374.581 142.555C374.385 142.841 374.13 143.082 373.832 143.261C373.534 143.44 373.201 143.553 372.855 143.592Z" fill="#CBCBCB"/>
<path d="M327 109.214V93.7381C327 88.238 329.16 82.9632 333.004 79.0741C336.849 75.1849 342.063 73 347.5 73C352.937 73 358.151 75.1849 361.996 79.0741C365.84 82.9632 368 88.238 368 93.7381V109.214C367.999 109.953 367.709 110.661 367.193 111.183C366.676 111.705 365.976 111.999 365.246 112H329.754C329.024 111.999 328.324 111.705 327.807 111.183C327.291 110.661 327.001 109.953 327 109.214Z" fill="#2F2E41"/>
<path d="M350.489 109.131C357.75 105.144 360.427 96.0126 356.467 88.7361C352.507 81.4596 343.41 78.7931 336.148 82.7804C328.887 86.7677 326.21 95.8988 330.17 103.175C334.13 110.452 343.227 113.118 350.489 109.131Z" fill="#9F616A"/>
<path d="M322 95.6852C322.005 91.2615 323.739 87.0205 326.823 83.8925C329.907 80.7645 334.087 79.005 338.448 79H341.552C345.913 79.005 350.093 80.7645 353.177 83.8925C356.261 87.0205 357.995 91.2615 358 95.6852V96H351.441L349.204 89.6459L348.757 96H345.368L344.239 92.794L344.013 96H322V95.6852Z" fill="#2F2E41"/>
<path d="M341.527 112.869C341.225 112.459 341.045 111.973 341.008 111.465C340.97 110.958 341.075 110.449 341.313 110C344.533 103.856 349.041 92.5039 343.057 85.503L342.627 85H360V111.164L344.218 113.957C344.058 113.985 343.896 114 343.734 114C343.303 114 342.878 113.897 342.495 113.701C342.111 113.504 341.779 113.219 341.527 112.869Z" fill="#2F2E41"/>
<path d="M180.587 128.06C180.364 128.289 180.159 128.535 179.974 128.796L151.252 128.096L147.901 122L138 125.832L142.878 137.199C143.273 138.117 143.955 138.883 144.824 139.382C145.693 139.881 146.7 140.086 147.696 139.967L180.147 136.064C180.912 137.028 181.954 137.738 183.135 138.099C184.316 138.46 185.579 138.454 186.756 138.082C187.933 137.711 188.969 136.992 189.725 136.02C190.482 135.048 190.923 133.87 190.991 132.642C191.058 131.414 190.749 130.195 190.104 129.147C189.459 128.098 188.508 127.27 187.379 126.773C186.249 126.276 184.995 126.132 183.781 126.362C182.568 126.592 181.454 127.185 180.587 128.06Z" fill="#FFB7B7"/>
<path d="M88.0016 301H97.4874L102 265L88 265.001L88.0016 301Z" fill="#FFB7B7"/>
<path d="M85 299.001L103.323 299H103.323C106.42 299 109.39 300.225 111.58 302.404C113.769 304.583 115 307.539 115 310.621V310.999L85.0006 311L85 299.001Z" fill="#2F2E41"/>
<path d="M173.314 302L182 298.287L171.82 263L159 268.48L173.314 302Z" fill="#FFB7B7"/>
<path d="M169 299.042L186.202 291.928L186.203 291.928C189.11 290.725 192.392 290.69 195.326 291.831C198.26 292.971 200.606 295.192 201.848 298.007L202 298.352L173.836 310L169 299.042Z" fill="#2F2E41"/>
<path d="M133.315 135.382L134 146.577L113.965 148.739L93 151L99.1704 134L133.315 135.382Z" fill="#FFB7B7"/>
<path d="M133.747 139.868C133.524 139.779 111.279 130.974 97.615 138.174L97.279 138.351L94.5532 124.698L93 95.3442L103.107 90.4844L105.89 84.1414L124.844 83L128.739 88.4357L142 92.8584L134.074 140L133.747 139.868Z" fill="#2EAAAD"/>
<path d="M135 113.082L137.317 94.6277L142.594 93L142.683 93.0333C142.805 93.0786 145.673 94.191 146.458 98.2147C147.211 102.077 152.886 126.111 152.943 126.353L153 126.593L139.667 132L135 113.082Z" fill="#2EAAAD"/>
<path d="M165.832 295L184 291.272L154.963 211.122L145.025 183.784C145.025 183.784 138.722 161.864 135.874 153.382L134.155 142L93.4721 146.505C93.4721 146.505 82.1093 163.197 85.5612 190.405L84 292.67L102.168 293.602L117.385 190.463L144.093 247.003C144.093 247.003 152.511 271.131 158.534 276.36L165.832 295Z" fill="#2F2E41"/>
<path d="M109.206 150.816C108.891 150.808 108.576 150.826 108.263 150.869L89.578 129.286L91.7516 122.653L82.3617 118L77.3946 129.362C76.9933 130.28 76.8949 131.305 77.1141 132.285C77.3333 133.265 77.8583 134.146 78.6103 134.795L103.118 155.968C102.932 157.191 103.114 158.443 103.642 159.557C104.17 160.671 105.018 161.595 106.073 162.206C107.129 162.817 108.342 163.085 109.551 162.976C110.759 162.867 111.907 162.385 112.841 161.595C113.775 160.805 114.45 159.743 114.778 158.552C115.106 157.36 115.07 156.095 114.675 154.925C114.281 153.755 113.546 152.735 112.569 152.001C111.592 151.267 110.419 150.854 109.206 150.816Z" fill="#FFB7B7"/>
<path d="M81 120.836L88.2269 99.6737C89.0391 97.179 90.0569 95.6635 91.252 95.169C91.4874 95.0601 91.7423 95.0026 92.0004 95.0001C92.2586 94.9976 92.5144 95.0502 92.7518 95.1546L95.9924 99.3635L99 112.352L91.2886 131L81 120.836Z" fill="#2EAAAD"/>
<path d="M129.515 78H97.485C96.8262 77.9992 96.1946 77.7356 95.7287 77.2669C95.2628 76.7983 95.0007 76.1628 95 75.5V61.6111C95 56.6751 96.9491 51.9413 100.419 48.4511C103.888 44.9608 108.593 43 113.5 43C118.407 43 123.112 44.9608 126.581 48.4511C130.051 51.9413 132 56.6751 132 61.6111V75.5C131.999 76.1628 131.737 76.7983 131.271 77.2669C130.805 77.7356 130.174 77.9993 129.515 78Z" fill="#2F2E41"/>
<path d="M117.5 79C124.956 79 131 72.732 131 65C131 57.268 124.956 51 117.5 51C110.044 51 104 57.268 104 65C104 72.732 110.044 79 117.5 79Z" fill="#FFB7B7"/>
<path d="M137 63H117.433L117.232 60.1712L116.229 63H113.216L112.818 57.3934L110.83 63H105V62.7222C105.004 58.819 106.546 55.0769 109.287 52.3169C112.028 49.5569 115.744 48.0044 119.621 48H122.379C126.256 48.0044 129.972 49.5569 132.713 52.3169C135.454 55.0769 136.996 58.819 137 62.7222L137 63Z" fill="#2F2E41"/>
<path d="M116.554 81C116.409 80.9998 116.264 80.9865 116.121 80.9601L102 78.3595V54H117.544L117.159 54.4684C111.805 60.9864 115.839 71.5555 118.72 77.2754C118.932 77.6943 119.027 78.1673 118.993 78.64C118.959 79.1126 118.798 79.5656 118.529 79.9469C118.303 80.2729 118.006 80.5384 117.663 80.7215C117.319 80.9045 116.939 81 116.554 81Z" fill="#2F2E41"/>
</g>
<defs>
<filter id="filter0_dd_2475_53487" x="0" y="-6" width="399" height="351" filterUnits="userSpaceOnUse" color-interpolation-filters="sRGB">
<feFlood flood-opacity="0" result="BackgroundImageFix"/>
<feColorMatrix in="SourceAlpha" type="matrix" values="0 0 0 0 0 0 0 0 0 0 0 0 0 0 0 0 0 0 127 0" result="hardAlpha"/>
<feOffset dy="2"/>
<feGaussianBlur stdDeviation="2"/>
<feColorMatrix type="matrix" values="0 0 0 0 0 0 0 0 0 0 0 0 0 0 0 0 0 0 0.08 0"/>
<feBlend mode="normal" in2="BackgroundImageFix" result="effect1_dropShadow_2475_53487"/>
<feColorMatrix in="SourceAlpha" type="matrix" values="0 0 0 0 0 0 0 0 0 0 0 0 0 0 0 0 0 0 127 0" result="hardAlpha"/>
<feOffset/>
<feGaussianBlur stdDeviation="3"/>
<feColorMatrix type="matrix" values="0 0 0 0 0 0 0 0 0 0 0 0 0 0 0 0 0 0 0.02 0"/>
<feBlend mode="normal" in2="effect1_dropShadow_2475_53487" result="effect2_dropShadow_2475_53487"/>
<feBlend mode="normal" in="SourceGraphic" in2="effect2_dropShadow_2475_53487" result="shape"/>
</filter>
</defs>
</svg>
