<svg width="265" height="288" viewBox="0 0 265 288" fill="none" xmlns="http://www.w3.org/2000/svg">
<path d="M19 255.195L22.7212 259L40 246.616L34.508 241L19 255.195Z" fill="#C78F8F"/>
<path d="M24.6688 257.932L20.536 253.97L19.5212 253L9 261.584L11.7369 264.536L14.9584 262.428L13.4784 266.415L20.7348 274.242C21.0825 274.617 21.5386 274.869 22.0366 274.961C22.5347 275.053 23.0486 274.981 23.5032 274.754C23.9579 274.527 24.3296 274.157 24.564 273.699C24.7985 273.242 24.8834 272.719 24.8064 272.209L23.2404 261.87L26 259.206L24.6688 257.932Z" fill="#2F2E41"/>
<path d="M100 113.137L98.8285 125.877C98.8285 125.877 96.7838 135.476 98.1996 134.698C99.6154 133.92 97.0769 137.422 97.7455 140.458C98.4141 143.495 92.0347 166.14 94.924 163.794C97.8134 161.448 93.2543 177.653 90.3708 185.648C89.4879 188.12 88.5807 190.621 87.6677 193.105C87.4876 193.608 87.3072 194.104 87.1212 194.607C85.9378 197.839 84.7543 201.022 83.6192 204.026C83.457 204.445 83.3006 204.864 83.1446 205.277C83.1385 205.289 83.1385 205.301 83.1326 205.301C79.3962 215.097 76.1945 222.805 74.9151 224.08C74.2484 224.744 63.6703 232.356 53.008 239.98C41.8172 247.981 30.5361 256 30.5361 256L20 244.989C20 244.989 20.2522 244.917 20.7268 244.774C21.6038 244.522 23.2258 244.049 25.3523 243.421C34.2183 240.818 22.9554 236.766 31.0048 233.87C33.2753 233.056 34.7891 232.422 35.1314 232.087C37.1317 230.142 39.8169 225.504 41.0843 227.449C42.3517 229.394 48.1005 214.942 49.7582 213.511C50.6472 212.739 53.5486 209.131 56.0356 205.959C58.1738 203.23 60.0119 200.819 60.0119 200.819C60.0119 200.819 60.048 199.526 60.1019 197.467C60.1803 194.422 60.2944 189.688 60.4146 184.948C60.4085 184.942 60.4085 184.942 60.4146 184.942C60.4566 183.159 60.4985 181.376 60.5408 179.682C60.5707 178.371 60.6006 177.109 60.6308 175.942C60.7088 172.447 60.7628 169.802 60.7628 169.144C60.7628 166.983 60.7628 168.665 62.4748 167.36C62.7305 167.16 62.9732 166.944 63.2017 166.714C63.5677 166.386 63.9053 166.028 64.2109 165.643C64.3371 165.374 63.5501 165.739 62.5288 165.535C61.9758 165.425 61.4643 165.164 61.0511 164.781C58.9006 162.854 61.2195 156.93 61.2195 156.93C56.3298 147.187 56.6844 139.198 58.9728 133.04C60.684 128.621 63.4001 124.658 66.9079 121.461C68.2429 120.194 69.6974 119.057 71.2511 118.068L71.4013 117.26L73.0532 108.349C73.9316 107.868 74.8452 107.454 75.7862 107.111C78.7202 106.062 81.8685 105.749 84.9526 106.201C88.0177 106.643 90.9853 107.6 93.7289 109.032C95.9714 110.154 98.0759 111.531 100 113.137Z" fill="#2F2E41"/>
<path d="M54 275.493L59.4269 276L64 254.748L55.9896 254L54 275.493Z" fill="#C78F8F"/>
<path d="M69.1299 283.763L61.1095 277.117L61.473 273.294L59.6075 273.234L53.8286 273.048H53.8224L52.405 273L50 286.388L54.0525 286.759L55.1247 283.044L56.6211 286.999L58.7654 287.197L67.349 287.988C67.4218 287.994 67.5005 288 67.5732 288C67.9145 288 68.2519 287.929 68.5631 287.791C68.8743 287.652 69.1522 287.45 69.3784 287.197C69.7297 286.816 69.9447 286.332 69.99 285.819C70.0255 285.433 69.9658 285.044 69.816 284.686C69.6662 284.328 69.4307 284.011 69.1299 283.763Z" fill="#2F2E41"/>
<path d="M83.5607 204.334C81.5328 215.371 72.9493 241.249 67.7575 256.395C65.3947 263.316 63.7439 268 63.7439 268L61.0523 267.151H61.0461L56.4943 265.715L54.8374 265.188H54.8312L52.8215 264.548C52.8215 264.548 53.0549 252.19 53.0788 240.274C53.0967 235.279 53.0727 230.356 52.9772 226.456C52.8694 222.203 52.684 219.158 52.3791 218.553C51.1167 216.077 53.2284 215.814 55.4595 215.192C57.6964 214.564 55.9499 213.618 55.0824 211.609C54.4965 210.268 55.6508 208.48 56.4703 207.463C56.6964 207.177 56.938 206.903 57.1941 206.643C57.1941 206.643 56.7992 206.506 56.0936 206.267C58.2227 203.539 60.0531 201.128 60.0531 201.128C60.0531 201.128 60.0891 199.836 60.1428 197.778C60.2208 194.734 60.3344 190.002 60.4541 185.264C60.448 185.258 60.448 185.258 60.4541 185.258C60.4959 183.475 60.5377 181.693 60.5797 180C64.001 182.626 67.3268 185.198 70.3415 187.579C70.3452 187.582 70.3482 187.586 70.3502 187.59C70.3523 187.594 70.3534 187.599 70.3534 187.603C77.597 193.328 83.0344 197.922 83.7999 199.382C84.1469 200.039 84.0271 201.798 83.5607 204.334Z" fill="#2F2E41"/>
<path d="M70 92L71.1378 102.384L70.4687 116L101.12 112.417L104 92L100.33 92.0358L70 92Z" fill="#FFB6B6"/>
<path d="M95.4046 58.2903L83.9745 49.3458L77.9745 49L69.0716 54.6534L66.8915 65.6775L61.7357 78.0914L69.2979 111.593C69.2979 111.593 70.0071 113.997 68.1485 114.286C66.2899 114.574 66.5128 118.118 66.5128 118.118C66.5128 118.118 66.8913 121.189 65.0865 121.459C63.2818 121.73 58.4694 121.73 62.6805 127.097C66.8915 132.463 100.199 112.166 100.199 112.166L105.036 87.005C105.036 87.005 114.418 74.5147 104.315 67.3613L95.4046 58.2903Z" fill="white"/>
<path d="M46.199 134.92C45.7 134.298 45.3435 133.575 45.1548 132.801C44.9661 132.026 44.9497 131.221 45.1068 130.439C45.2638 129.658 45.5905 128.921 46.0638 128.28C46.5371 127.638 47.1456 127.108 47.8463 126.727L62.0922 79L71 83.477L55.4859 129.223C56.0495 130.441 56.1461 131.822 55.7574 133.106C55.3687 134.39 54.5218 135.487 53.377 136.189C52.2323 136.891 50.8693 137.15 49.5464 136.916C48.2234 136.682 47.0324 135.972 46.199 134.92Z" fill="#C78F8F"/>
<path d="M71.6408 54.1354C71.6408 54.1354 69.0815 52.7802 67.331 58.6446C65.9295 63.3395 54.5577 91.3043 54.4126 98.1033C53.4768 98.3009 52.6335 98.8031 52.0156 99.5308C51.3978 100.259 51.0405 101.17 51 102.123L65.0603 104C67.5172 101.935 68.1618 99.1466 67.2112 98.3189L70.264 90.0114L83 63.5798L73.5083 55.0822L71.6408 54.1354Z" fill="white"/>
<path d="M146.858 119.657C147.039 118.868 147.047 118.049 146.881 117.256C146.715 116.464 146.379 115.718 145.897 115.071C145.415 114.425 144.798 113.892 144.09 113.512C143.382 113.132 142.6 112.913 141.8 112.871L108.965 75L102 83.3933L135.965 118.511C135.984 119.874 136.498 121.183 137.409 122.189C138.32 123.195 139.565 123.829 140.907 123.97C142.25 124.111 143.597 123.75 144.694 122.955C145.791 122.16 146.561 120.987 146.858 119.657Z" fill="#C78F8F"/>
<path d="M89.1995 57.5998C89.1995 57.5998 90.9347 55.26 95.0962 59.823C98.4278 63.4759 121.024 83.9234 124.134 90.0308C125.072 89.8043 126.06 89.8943 126.941 90.2868C127.822 90.6793 128.546 91.3518 129 92.1986L117.028 100C113.888 99.1917 112.08 96.9404 112.583 95.777L106.166 89.5616L83 71.0972L87.915 59.269L89.1995 57.5998Z" fill="white"/>
<path d="M247.138 135.784C246.199 135.454 245.424 134.765 244.977 133.863C244.531 132.961 244.448 131.918 244.747 130.955C244.81 130.76 244.89 130.571 244.984 130.39L236 120.415L239.376 114L250.229 129.017C250.939 129.473 251.481 130.155 251.769 130.957C252.057 131.759 252.076 132.636 251.823 133.45C251.675 133.911 251.438 134.339 251.127 134.708C250.816 135.077 250.437 135.38 250.01 135.6C249.584 135.819 249.12 135.952 248.643 135.989C248.167 136.026 247.687 135.968 247.233 135.817C247.201 135.807 247.17 135.796 247.138 135.784Z" fill="#FFB6B6"/>
<path d="M189.252 60.8677C188.951 62.261 188.919 63.6982 189.158 65.1033C189.221 65.5009 189.308 65.8944 189.418 66.2817C189.826 67.7293 190.213 69.0632 190.587 70.2666C190.807 71.0142 191.033 71.7185 191.249 72.3723C192.495 76.1891 193.468 78.35 194.158 78.8048C194.493 79.0272 194.829 79.2309 195.154 79.4298C196.824 80.443 198.033 81.1774 197.224 83.0473C197.107 83.3145 196.967 83.5716 196.807 83.816C196.539 84.2268 196.243 84.6188 195.92 84.9892C195.737 85.1987 195.567 85.4199 195.413 85.6516C195.211 85.9473 195.124 86.1965 195.232 86.4221C195.369 86.6998 195.748 86.8378 196.563 86.8768C196.692 86.8825 196.841 86.8904 196.999 86.8899C197.051 86.8932 197.104 86.8911 197.164 86.8916C197.269 86.893 197.387 86.8939 197.508 86.8894C198.514 86.8703 199.813 87.3958 201.202 88.198C205.303 90.5674 210.136 95.3364 210.195 95.3957L240.369 126L240.957 125.609L242.353 124.679L242.836 124.359L243.387 123.991L245.787 122.398L247 121.594L239.217 107.42L238.37 105.879L237.643 104.55L222.785 77.4837L216.884 68.1786L215.566 66.1054L209.954 57.2645C209.161 56.0136 208.128 54.9297 206.914 54.0748C205.699 53.2199 204.326 52.6107 202.874 52.282C201.422 51.9533 199.919 51.9115 198.45 52.159C196.982 52.4065 195.577 52.9385 194.316 53.7246C194.231 53.7776 194.146 53.8318 194.063 53.887C191.607 55.5071 189.883 58.0101 189.252 60.8677Z" fill="white"/>
<path d="M190.82 276L185.4 275.953L183 254L191 254.07L190.82 276Z" fill="#FFB6B6"/>
<path d="M192.965 272.642L191.537 272.543L185.714 272.13L183.839 272L183.804 276.057L175.071 282.208C174.64 282.512 174.313 282.952 174.14 283.462C173.966 283.972 173.954 284.527 174.105 285.045C174.257 285.563 174.564 286.017 174.982 286.341C175.399 286.665 175.906 286.842 176.427 286.846L187.296 286.939L189.199 282.937L189.895 286.963L194 287L192.965 272.642Z" fill="#2F2E41"/>
<path d="M249 271.409L243.792 273L235 253.348L242.687 251L249 271.409Z" fill="#FFB6B6"/>
<path d="M249.832 269L248.437 269.337L242.757 270.7L240.927 271.143L242.077 274.855L235.527 283.07C235.203 283.476 235.019 283.973 235.001 284.49C234.984 285.007 235.133 285.516 235.428 285.943C235.723 286.37 236.147 286.692 236.64 286.863C237.133 287.034 237.668 287.045 238.168 286.894L248.58 283.725L249.23 279.505L251.072 282.963L255 281.765L249.832 269Z" fill="#2F2E41"/>
<path d="M179.877 93L169.282 123.548L168.932 125.993C166.263 128.508 169.616 129.336 168.359 129.999C167.102 130.663 166.256 132.522 167.95 132.854C169.645 133.186 175.108 252.337 182.315 256.964C189.522 261.59 193.907 264.936 192.584 258.162C192.051 255.433 192.805 240.799 193.896 224.297C194.019 222.427 195.973 220.447 194.278 218.629C192.584 216.811 194.487 215.614 194.593 214.105C196.113 192.557 197.868 171.282 197.868 171.282C197.868 171.282 209.1 209.551 212.017 206.589C214.934 203.626 213.779 210.92 214.67 213.1C215.415 214.921 212.237 218.499 216.908 218.554C221.578 218.609 232.546 255.807 233.659 255.765C235.863 255.682 242.06 255.917 245.74 255.166C247.557 254.795 239.491 226.631 232.755 202.312C232.218 200.373 229.295 200.328 231.175 196.583C233.055 192.839 223.7 168.612 224.503 167.491C226.634 164.517 227.445 163.224 225.344 163.03C223.242 162.835 222.621 163.978 222.508 161.093C222.394 158.208 222.032 151.094 222.032 151.094C222.032 151.094 220.51 122.958 209.851 107.413L208.942 98.1768L179.877 93Z" fill="#2F2E41"/>
<path d="M206.62 34L192.62 35.9866L191.775 46.0895L184.867 56.8594C184.867 56.8594 169.511 67.6293 180.221 84.6423C176.145 99.2979 172.093 113.353 168.23 122.724C165.221 141.318 192.18 143.1 223 136.52C223 136.52 222.575 128.569 219.778 124.746C216.981 120.924 218.504 120.09 218.504 120.09L216.55 112.949C217.655 102.626 213.921 101.7 212.166 96.9311L217.494 47.4489L206.62 34Z" fill="white"/>
<path d="M139.046 120.775C139.195 119.789 139.727 118.899 140.53 118.295C141.333 117.691 142.343 117.42 143.345 117.539C143.548 117.567 143.748 117.611 143.944 117.671L152.067 107L159 109.165L146.273 122.596C145.957 123.379 145.388 124.036 144.654 124.466C143.92 124.896 143.062 125.074 142.215 124.972C141.243 124.845 140.361 124.343 139.764 123.574C139.167 122.806 138.904 121.835 139.032 120.874C139.036 120.841 139.041 120.808 139.046 120.775Z" fill="#FFB6B6"/>
<path d="M211.432 54.1597C211.234 53.9131 211.018 53.6727 210.79 53.4381C209.206 51.8014 207.165 50.6824 204.935 50.2275C202.705 49.7727 200.39 50.0032 198.293 50.8889C198.089 50.9729 197.885 51.0692 197.688 51.1655C190.518 54.6946 186.649 57.0456 186.181 58.1459C186.019 58.5187 185.881 58.8854 185.743 59.2401C185.61 59.5888 185.484 59.9194 185.353 60.22C184.801 61.5068 184.165 62.3065 182.545 61.9457C182.008 61.814 181.49 61.6141 181.003 61.3506C180.781 61.2423 180.577 61.1281 180.385 61.0197C179.689 60.6351 179.185 60.3586 178.843 60.6111C178.513 60.8574 178.501 61.4827 178.801 62.9318C178.901 63.5366 178.884 64.1548 178.753 64.7535C178.357 66.5 177.735 68.1876 176.905 69.7739C175.662 72.2606 174.263 74.6664 172.718 76.9769L158.445 97.3712L157.479 98.7481L156.423 100.257L148 112.294L148.498 112.805L150.586 114.94L151.048 115.415L151.468 115.847L152.554 116.96L153.574 118L176.33 99.4215L178.867 97.3471L183.415 93.6316L192.732 86.0258L210.364 69.6718C211.477 68.6476 212.373 67.4088 212.996 66.0295C213.62 64.6502 213.959 63.1589 213.994 61.645C213.994 61.5429 214 61.4466 214 61.3444C214.007 58.7226 213.098 56.1811 211.432 54.1597Z" fill="white"/>
<path d="M198.5 34C207.06 34 214 27.0604 214 18.5C214 9.93959 207.06 3 198.5 3C189.94 3 183 9.93959 183 18.5C183 27.0604 189.94 34 198.5 34Z" fill="#FFB6B6"/>
<path d="M218.786 40.3175C220.898 43.32 222.311 46.7519 222.923 50.3642C221.22 51.4459 219.238 52.014 217.217 51.9997C217.148 51.7369 217.08 51.4741 217.001 51.2112C216.416 49.1758 215.544 47.2324 214.413 45.4382C214.568 47.3729 214.304 49.3182 213.639 51.1431C212.571 50.6611 211.426 50.3678 210.256 50.2766C209.304 50.2766 208.364 50.4965 207.511 50.9191C206.521 47.6579 205.609 44.6594 204.962 42.5079C204.943 47.9013 196.982 52.6034 188.296 51.9219C187.983 51.7272 191.13 42.8584 190.826 42.6539C190.13 42.1964 189.453 41.6999 188.777 41.2131C191.62 36.8517 194.708 32.1788 194.178 31.4779C194.218 32.3444 191.1 36.511 187.708 40.444C185.826 39.0714 196.522 16.7388 191.237 14.928C191.149 15.7166 189.982 15.7166 188.561 15.5511C188.186 14.25 187.628 13.0079 186.904 11.8614C186.998 13.0163 186.858 14.1783 186.492 15.2785C185.089 15.2789 183.689 15.4257 182.316 15.7166C181.998 15.2203 181.648 14.7455 181.267 14.2952C181.305 14.8439 181.288 15.395 181.218 15.9405C179.816 16.2423 178.659 16.5927 178.493 16.8751C177.395 16.4759 179.267 14.6749 178.581 13.7403C176.836 11.4039 179.424 7.99659 181.061 5.58221C184.424 0.636755 191.806 -1.07665 197.031 1.89257C197.267 1.08453 198.473 0.549115 200.022 0.188912C200.678 0.0452217 201.35 -0.0169191 202.021 0.00393181C208.688 0.120746 217.943 5.5822 218.305 12.1925C218.335 12.8544 218.384 13.5748 218.433 14.3439C218.903 21.7427 218.325 28.5671 223.413 33.9799C225.256 35.9366 225.276 45.2046 224.57 49.9749C222.736 48.057 221.433 40.5998 218.786 40.3175Z" fill="#2F2E41"/>
<path d="M67.7209 24.6418C66.3598 28.0174 62.5201 34.6557 62 38.277L62.2341 38.0478C62.6806 38.8075 63.1881 39.53 63.7514 40.2083C64.7612 39.1522 65.9807 38.3171 67.3323 37.7563C66.5942 39.2644 66.1668 40.9044 66.0751 42.5797C67.5242 47.103 74.2232 45.0886 78.1481 44.5947C82.0676 49.0595 87.2823 50.2246 94.111 47.6577C96.0208 47.8535 98.1587 47.9724 99.497 46.8486C100.835 45.7248 100.038 43.6436 100.758 42.0694C105.887 30.857 101.154 26.8116 97.1325 21.7274C96.2475 20.6086 96.2512 18.9389 95.1744 17.8715C93.6802 16.3918 91.3899 15.9367 89.2783 15.5721C89.8268 15.6009 90.3736 15.4885 90.8659 15.2459C91.3582 15.0033 91.7795 14.6386 92.0893 14.1868C92.361 13.7317 92.5012 13.2107 92.4945 12.6812C92.4877 12.1518 92.3343 11.6345 92.051 11.1863C91.2958 9.93953 89.7265 9.21448 88.2126 9.03335C86.721 8.93248 85.2227 9.06074 83.7703 9.41363C82.8295 9.53686 81.9184 9.82686 81.0802 10.2699C80.6847 10.48 80.3631 10.8053 80.1583 11.2024C79.9535 11.5995 79.8753 12.0493 79.9341 12.4918C80.0603 12.9005 80.2774 13.2755 80.5694 13.5889C80.8614 13.9023 81.2207 14.146 81.6204 14.3018C82.23 14.5585 82.8711 14.7332 83.5269 14.8216C80.5147 14.4323 77.4548 14.9656 74.7545 16.3506C71.3702 18.1483 69.0866 21.2679 67.7209 24.6418Z" fill="#2F2E41"/>
<path d="M86 44C92.6274 44 98 38.6274 98 32C98 25.3726 92.6274 20 86 20C79.3726 20 74 25.3726 74 32C74 38.6274 79.3726 44 86 44Z" fill="#C78F8F"/>
<path d="M74.2436 24.9968C74.9632 27.1129 77.0194 27.7948 78.92 28.2201C79.5193 28.356 80.1222 28.4827 80.7307 28.5954C80.9552 28.3222 81.194 28.0546 81.4434 27.8015C82.4793 26.7429 83.7303 25.9059 85.1169 25.3437C84.5173 26.5378 84.1188 27.818 83.9367 29.1352C85.0856 29.2974 86.2409 29.4299 87.4026 29.5328C88.3855 29.7364 89.4112 29.5648 90.2677 29.0534C91.1242 28.542 91.7461 27.73 92.0048 26.7851C93.0624 28.468 94.3128 30.0528 96.0229 30.7213C97.0008 31.0632 98.0655 31.0913 99.0609 30.8015C100.056 30.5117 100.93 29.9192 101.555 29.1109C102.541 27.7924 103.224 26.2832 103.559 24.6855C104.045 22.8116 104.314 20.6529 103.361 19.4639C102.598 18.5017 101.281 18.4844 100.066 18.5698C97.3848 18.7699 94.7315 19.238 92.1484 19.9666L91.9298 20.445C92.3737 17.85 91.4108 15.3532 89.6292 14.4652C88.4275 13.8715 86.9817 13.9711 85.577 14.0915C83.7726 14.1698 81.9897 14.5053 80.2854 15.0873C78.3302 15.8191 76.6552 17.1209 75.4895 18.8146C74.2425 20.6568 73.6229 23.1693 74.2436 24.9968Z" fill="#2F2E41"/>
<path d="M91.8073 14.5389C91.684 14.5013 92.0035 14.5496 91.8927 14.5527C91.9477 14.5494 92.0024 14.5415 92.0562 14.529C92.0653 14.5271 92.1897 14.4861 92.1071 14.5162C92.2927 14.4589 92.4582 14.3472 92.5838 14.1946C92.8773 13.8193 93.1076 13.3955 93.2649 12.9411C93.4635 12.3405 93.7827 11.7902 94.2016 11.3262C94.3204 11.2028 94.4658 11.11 94.6258 11.0556C94.7858 11.0011 94.956 10.9864 95.1226 11.0127C95.2891 11.039 95.4473 11.1055 95.5844 11.2069C95.7214 11.3082 95.8333 11.4416 95.9112 11.596C96.0692 12.1921 96.0151 12.827 95.7587 13.3852C95.5795 13.9533 95.313 14.4877 94.9692 14.968C94.3933 15.7533 93.6088 16.3484 92.7114 16.6808C91.6727 17.0709 90.54 17.1043 89.4815 16.7762C89.3416 16.7162 89.2216 16.6155 89.1362 16.4862C89.0507 16.357 89.0035 16.2049 89.0002 16.0484C88.9969 15.8918 89.0377 15.7377 89.1176 15.6047C89.1975 15.4718 89.3131 15.3657 89.4503 15.2995L91.2158 14.5522C91.3086 14.5096 91.4087 14.4862 91.5103 14.4836C91.6119 14.4809 91.713 14.499 91.8078 14.5368C91.9027 14.5746 91.9893 14.6313 92.0629 14.7038C92.1365 14.7762 92.1956 14.863 92.2367 14.9591C92.2779 15.0552 92.3003 15.1587 92.3027 15.2637C92.3051 15.3688 92.2875 15.4733 92.2508 15.5713C92.2141 15.6693 92.1592 15.7588 92.089 15.8348C92.0188 15.9108 91.9348 15.9718 91.8418 16.0142L91.8385 16.0157L90.0731 16.7629L90.0419 15.2861C90.2622 15.3519 90.4888 15.3919 90.7177 15.4056C90.9619 15.4309 91.2084 15.4201 91.4497 15.3737C91.6808 15.3423 91.9079 15.2851 92.127 15.2029C92.2673 15.1499 92.405 15.0896 92.5394 15.0222C92.5882 14.9977 92.6366 14.9722 92.6845 14.9458C92.6811 14.9477 92.8865 14.824 92.7964 14.8821C93.0247 14.7313 93.2389 14.5587 93.4363 14.3667C93.506 14.2987 93.5702 14.2248 93.6282 14.1459C93.7288 14.0181 93.8221 13.8844 93.9075 13.7454C94.0814 13.451 94.2192 13.1354 94.3176 12.8058C94.3625 12.6673 94.4004 12.5264 94.4311 12.3838C94.4396 12.3056 94.4533 12.228 94.4721 12.1516C94.5376 11.9697 94.4596 12.2579 94.535 12.3367L94.8604 12.5846C94.9215 12.6035 94.986 12.6078 95.0489 12.5974C95.1119 12.587 95.1718 12.562 95.2242 12.5244C95.2627 12.4683 95.2543 12.4776 95.1989 12.5523C95.1345 12.6403 95.0754 12.7323 95.0222 12.828C94.9056 13.0532 94.8001 13.2843 94.7061 13.5206C94.5119 14.023 94.2663 14.5025 93.9736 14.951C93.6868 15.4047 93.2688 15.7531 92.7792 15.9467C92.2895 16.1403 91.7533 16.1691 91.247 16.0291C91.0569 15.9508 90.9042 15.7985 90.8218 15.6049C90.7395 15.4113 90.734 15.192 90.8066 14.9943C90.8842 14.7994 91.0318 14.6432 91.2183 14.5583C91.4048 14.4734 91.6159 14.4665 91.8073 14.5389Z" fill="#2F2E41"/>
</svg>
