<svg width="440" height="345" viewBox="0 0 440 345" fill="none" xmlns="http://www.w3.org/2000/svg">
<path d="M440 81.9849H438.118V30.0553C438.118 22.0841 434.97 14.4394 429.368 8.80299C423.765 3.16653 416.166 3.92056e-09 408.242 3.92054e-09H298.876C294.953 -6.37439e-05 291.068 0.777276 287.443 2.28764C283.819 3.798 280.525 6.0118 277.751 8.80264C274.976 11.5935 272.776 14.9067 271.274 18.5532C269.773 22.1996 269 26.1079 269 30.0548V314.945C269 322.916 272.148 330.561 277.75 336.197C283.353 341.833 290.952 345 298.876 345H408.241C416.164 345 423.763 341.833 429.366 336.197C434.969 330.561 438.117 322.916 438.117 314.945V118.949H439.999L440 81.9849Z" fill="#3F3D56"/>
<path d="M432 27.7574V316.242C431.999 322.277 429.596 328.064 425.32 332.332C421.043 336.599 415.243 338.998 409.194 339H296.821C290.77 339.001 284.966 336.604 280.687 332.336C276.407 328.068 274.002 322.279 274 316.242V27.7574C274.002 21.7206 276.407 15.9318 280.686 11.6641C284.966 7.39632 290.769 4.99923 296.82 5H310.452C309.782 6.64218 309.527 8.42324 309.71 10.1867C309.892 11.9501 310.505 13.6418 311.496 15.1133C312.487 16.5847 313.826 17.7907 315.393 18.6253C316.961 19.4599 318.71 19.8976 320.487 19.8999H384.553C386.33 19.8976 388.079 19.4599 389.646 18.6253C391.214 17.7907 392.552 16.5847 393.543 15.1133C394.534 13.6418 395.148 11.9501 395.33 10.1867C395.512 8.42324 395.257 6.64218 394.588 5H409.19C415.238 5.00103 421.039 7.39841 425.316 11.6651C429.594 15.9318 431.998 21.7185 432 27.753V27.7574Z" fill="white"/>
<path d="M354.499 144C341.642 144.005 329.309 138.955 320.214 129.961C311.119 120.967 306.006 108.766 306 96.0408V95.9983C306 95.8978 306 95.792 306.006 95.6915C306.152 69.4056 327.909 48 354.499 48C367.361 47.9993 379.697 53.0557 388.793 62.0568C397.889 71.0579 402.999 83.2664 403 95.9966C403.001 108.727 397.892 120.936 388.797 129.938C379.702 138.94 367.367 143.998 354.504 143.999H354.499V144ZM354.499 49.0099C341.964 49.0376 329.947 53.9597 321.058 62.7066C312.169 71.4535 307.127 83.3186 307.027 95.7239C307.022 95.8311 307.022 95.9171 307.022 95.9988C307.021 105.293 309.804 114.38 315.021 122.109C320.238 129.838 327.653 135.862 336.329 139.42C345.005 142.978 354.552 143.91 363.763 142.097C372.975 140.285 381.436 135.81 388.077 129.239C394.719 122.667 399.242 114.294 401.076 105.178C402.909 96.0626 401.97 86.6134 398.377 78.0259C394.784 69.4383 388.699 62.0979 380.891 56.9331C373.083 51.7683 363.903 49.011 354.511 49.0099H354.499Z" fill="#E6E6E6"/>
<path d="M405.143 194H304.857C304.365 193.999 303.893 193.807 303.544 193.466C303.196 193.125 303.001 192.663 303 192.181V167.819C303.001 167.337 303.197 166.874 303.545 166.533C303.893 166.192 304.365 166.001 304.857 166H405.143C405.635 166.001 406.107 166.192 406.455 166.533C406.803 166.874 406.999 167.337 407 167.819V192.181C406.999 192.663 406.803 193.126 406.455 193.467C406.107 193.808 405.635 193.999 405.143 194V194ZM304.857 166.727C304.562 166.728 304.278 166.843 304.069 167.047C303.86 167.252 303.743 167.529 303.743 167.819V192.181C303.743 192.471 303.86 192.748 304.069 192.953C304.278 193.157 304.562 193.272 304.857 193.273H405.143C405.438 193.272 405.722 193.157 405.931 192.953C406.14 192.748 406.257 192.471 406.257 192.181V167.819C406.257 167.529 406.14 167.252 405.931 167.047C405.722 166.843 405.438 166.728 405.143 166.727H304.857Z" fill="#E6E6E6"/>
<path d="M335.301 175C334.956 175 334.625 175.158 334.381 175.439C334.137 175.72 334 176.102 334 176.499C334 176.897 334.137 177.279 334.381 177.56C334.625 177.841 334.956 177.999 335.301 177.999H396.649C396.819 178.006 396.99 177.975 397.15 177.907C397.31 177.838 397.457 177.734 397.583 177.601C397.708 177.467 397.81 177.306 397.881 177.127C397.952 176.948 397.993 176.754 397.999 176.558C398.006 176.361 397.978 176.165 397.919 175.98C397.86 175.795 397.769 175.626 397.653 175.481C397.537 175.337 397.397 175.22 397.242 175.138C397.087 175.055 396.919 175.009 396.748 175.002C396.729 175.001 396.71 175 396.691 175.001H335.301V175Z" fill="#E6E6E6"/>
<path d="M335.301 183C334.956 183 334.625 183.158 334.381 183.439C334.137 183.72 334 184.102 334 184.499C334 184.897 334.137 185.279 334.381 185.56C334.625 185.841 334.956 185.999 335.301 185.999H396.649C396.819 186.006 396.99 185.975 397.15 185.907C397.31 185.838 397.457 185.734 397.583 185.601C397.708 185.467 397.81 185.306 397.881 185.127C397.952 184.948 397.993 184.754 397.999 184.558C398.006 184.361 397.978 184.165 397.919 183.98C397.86 183.795 397.769 183.626 397.653 183.481C397.537 183.337 397.397 183.22 397.242 183.138C397.087 183.055 396.919 183.009 396.748 183.002C396.729 183.001 396.71 183 396.691 183.001L335.301 183Z" fill="#E6E6E6"/>
<path d="M405.143 236H304.857C304.365 235.999 303.893 235.801 303.544 235.448C303.196 235.095 303.001 234.616 303 234.116V208.884C303.001 208.384 303.197 207.906 303.545 207.552C303.893 207.199 304.365 207.001 304.857 207H405.143C405.635 207.001 406.107 207.199 406.455 207.552C406.803 207.906 406.999 208.384 407 208.884V234.117C406.999 234.616 406.803 235.095 406.455 235.448C406.107 235.801 405.635 235.999 405.143 236ZM304.857 207.753C304.562 207.754 304.278 207.873 304.069 208.085C303.86 208.297 303.743 208.584 303.743 208.884V234.117C303.743 234.417 303.86 234.704 304.069 234.916C304.278 235.128 304.562 235.247 304.857 235.247H405.143C405.438 235.247 405.722 235.128 405.931 234.916C406.14 234.704 406.257 234.417 406.257 234.117V208.884C406.257 208.584 406.14 208.297 405.931 208.085C405.722 207.873 405.438 207.754 405.143 207.753H304.857Z" fill="#E6E6E6"/>
<path d="M335.303 216C334.957 216 334.626 216.158 334.381 216.439C334.137 216.721 334 217.102 334 217.5C334 217.898 334.137 218.279 334.381 218.561C334.626 218.842 334.957 219 335.303 219H396.705C397.045 218.998 397.371 218.842 397.613 218.566C397.856 218.29 397.994 217.916 398 217.524C398.005 217.132 397.877 216.753 397.643 216.468C397.409 216.183 397.087 216.016 396.747 216.001L335.303 216Z" fill="#E6E6E6"/>
<path d="M335.303 224C334.957 224 334.626 224.158 334.381 224.439C334.137 224.721 334 225.102 334 225.5C334 225.898 334.137 226.279 334.381 226.561C334.626 226.842 334.957 227 335.303 227H396.705C397.045 226.998 397.371 226.842 397.613 226.566C397.856 226.29 397.994 225.916 398 225.524C398.005 225.132 397.877 224.753 397.643 224.468C397.409 224.183 397.087 224.016 396.747 224.001L335.303 224Z" fill="#E6E6E6"/>
<path d="M405.143 276.999H304.857C304.365 276.999 303.893 276.8 303.544 276.447C303.196 276.094 303.001 275.615 303 275.116V249.884C303.001 249.384 303.197 248.906 303.545 248.552C303.893 248.199 304.365 248.001 304.857 248H405.143C405.635 248.001 406.107 248.199 406.455 248.552C406.803 248.906 406.999 249.384 407 249.884V275.116C406.999 275.616 406.803 276.094 406.455 276.448C406.107 276.801 405.635 276.999 405.143 277V276.999ZM304.857 248.753C304.562 248.754 304.278 248.873 304.069 249.085C303.86 249.297 303.743 249.584 303.743 249.884V275.116C303.743 275.416 303.86 275.703 304.069 275.915C304.278 276.127 304.562 276.246 304.857 276.247H405.143C405.438 276.246 405.722 276.127 405.931 275.915C406.14 275.703 406.257 275.416 406.257 275.116V249.884C406.257 249.584 406.14 249.297 405.931 249.085C405.722 248.873 405.438 248.754 405.143 248.753H304.857Z" fill="#E6E6E6"/>
<path d="M335.301 257C334.956 257 334.625 257.158 334.381 257.439C334.137 257.72 334 258.102 334 258.499C334 258.897 334.137 259.279 334.381 259.56C334.625 259.841 334.956 259.999 335.301 259.999H396.649C396.819 260.006 396.99 259.975 397.15 259.907C397.31 259.838 397.457 259.734 397.583 259.601C397.708 259.467 397.81 259.306 397.881 259.127C397.952 258.948 397.993 258.755 397.999 258.558C398.006 258.361 397.978 258.165 397.919 257.98C397.86 257.795 397.769 257.626 397.653 257.481C397.537 257.337 397.397 257.22 397.242 257.138C397.087 257.055 396.919 257.009 396.748 257.002C396.729 257.001 396.71 257 396.691 257.001L335.301 257Z" fill="#E6E6E6"/>
<path d="M335.301 265C334.956 265 334.625 265.158 334.381 265.439C334.137 265.72 334 266.102 334 266.499C334 266.897 334.137 267.279 334.381 267.56C334.625 267.841 334.956 267.999 335.301 267.999H396.649C396.819 268.006 396.99 267.975 397.15 267.907C397.31 267.838 397.457 267.734 397.583 267.601C397.708 267.467 397.81 267.306 397.881 267.127C397.952 266.948 397.993 266.755 397.999 266.558C398.006 266.361 397.978 266.165 397.919 265.98C397.86 265.795 397.769 265.626 397.653 265.481C397.537 265.337 397.397 265.22 397.242 265.138C397.087 265.055 396.919 265.009 396.748 265.002C396.729 265.001 396.71 265 396.691 265.001L335.301 265Z" fill="#E6E6E6"/>
<path d="M370 94.3078H355.692V80H353.308V94.3078H339V96.6922H353.308V111H355.692V96.6922H370V94.3078Z" fill="#2CACAF"/>
<path d="M129.557 256C129.557 256 115.639 271.163 113.651 306.104C111.663 341.044 111 345 111 345H160.707L169.981 321.269L180.588 344.998H227.644C227.644 344.998 232.946 272.479 227.644 270.502C222.341 268.524 129.557 256 129.557 256Z" fill="#2F2E41"/>
<path d="M196 78C209.255 78 220 67.2548 220 54C220 40.7452 209.255 30 196 30C182.745 30 172 40.7452 172 54C172 67.2548 182.745 78 196 78Z" fill="#FFB8B8"/>
<path d="M299.001 257L262.335 190.728L241 156.267L266.335 145L280.334 172.172C280.334 172.172 299.001 199.343 303.667 221.876C308.333 244.409 313 255.012 313 255.012L299.001 257Z" fill="#FFB8B8"/>
<path d="M97.8796 237L152 189.369L149.363 151H134.183L129.56 170.846L86 228.4L97.8796 237Z" fill="#FFB8B8"/>
<path d="M168.337 88.831C168.337 88.831 187.984 97.0464 202.637 87C202.637 87 238.46 92.7913 240.444 94.7697C242.429 96.7481 238.46 156.134 238.46 156.134L230.522 189.788C230.522 189.788 241.769 241.256 225.23 254.453L228.538 272.269C228.538 272.269 155.108 277.548 126 259.732L131.291 241.915L145.184 185.827L136.583 107.967C136.583 107.967 143.197 90.1507 168.337 88.831Z" fill="#E4E4E4"/>
<path d="M223.95 97.6263L241.072 95C241.072 95 249.634 96.3143 257.536 112.743C265.439 129.172 274 150.857 274 150.857L244.366 164L220 125.886L223.95 97.6263Z" fill="#E4E4E4"/>
<path d="M140.333 105L136.333 108.294C136.333 108.294 131 127.4 131 140.576V158.365L155 161L140.333 105Z" fill="#E4E4E4"/>
<path d="M172.391 59.8698C172.391 59.8698 169.145 56.3762 169.473 52.0029C169.69 49.5151 169.53 47.009 169 44.5685C169 44.5685 170.016 37.4107 171.516 33.2613C173.016 29.1119 171.751 27.6684 178.2 25.4032C184.648 23.138 180.543 14.947 199.553 21.4765C200.276 22.2042 201.199 22.7021 202.206 22.9073C203.213 23.1126 204.258 23.0161 205.209 22.6299C208.719 21.3487 210.835 26.1545 210.835 26.1545C210.835 26.1545 213.024 24.3641 214.252 26.2255C215.481 28.0868 221.422 23.8448 223.602 37.385C225.782 50.9251 218.301 63 218.301 63C218.301 63 217.252 41.3327 204.906 40.9395C192.559 40.5462 178.597 35.8858 176.865 45.0098C175.134 54.1338 172.391 59.8698 172.391 59.8698Z" fill="#2F2E41"/>
<path d="M89.5 247C95.299 247 100 242.523 100 237C100 231.477 95.299 227 89.5 227C83.701 227 79 231.477 79 237C79 242.523 83.701 247 89.5 247Z" fill="#FFB8B8"/>
<path d="M15.1908 306L185 272.422L170.809 202L1 235.576L15.1908 306Z" fill="white"/>
<path d="M186 273.885L14.5927 308L0 235.113L171.407 201L186 273.885ZM16.4397 305.239L183.233 272.044L169.561 203.759L2.76812 236.955L16.4397 305.239Z" fill="#E4E4E4"/>
<path d="M70.8121 283.07L70.7423 283.099C70.1869 283.327 69.6241 283.542 69.046 283.73C68.8516 283.796 68.6502 283.856 68.455 283.915C68.2598 283.974 68.058 284.036 67.8559 284.09C67.5269 284.184 67.1902 284.268 66.8517 284.345C66.7067 284.382 66.5542 284.414 66.408 284.445L66.3201 284.464C66.1387 284.502 65.9573 284.54 65.7746 284.573L65.3023 284.655C65.2144 284.673 65.1277 284.686 65.0421 284.698C61.2868 285.284 57.4468 285.015 53.8108 283.913C50.1748 282.811 46.8375 280.903 44.0499 278.334C41.2622 275.764 39.0968 272.6 37.7165 269.078C36.3361 265.557 35.7767 261.77 36.0804 258.003C36.384 254.236 37.5429 250.586 39.4697 247.328C41.3965 244.07 44.0412 241.289 47.2048 239.193C50.3684 237.098 53.9687 235.743 57.7348 235.231C61.5009 234.718 65.3349 235.062 68.9485 236.235C65.6781 239.172 63.2416 242.912 61.8834 247.081C60.5251 251.249 60.2928 255.7 61.2096 259.986C62.1264 264.272 64.1601 268.243 67.107 271.501C70.0539 274.759 73.8104 277.19 78 278.55C75.8816 280.454 73.4511 281.983 70.8137 283.072L70.8121 283.07Z" fill="#2CACAF"/>
<path d="M106.593 271.158C107.692 271.706 108.831 272.17 110 272.549C106.727 275.497 102.728 277.531 98.4085 278.444L98.0924 278.511C94.3214 279.264 90.4269 279.146 86.7087 278.167C82.9906 277.189 79.5478 275.375 76.6453 272.865C73.7428 270.356 71.4581 267.218 69.9668 263.693C68.4755 260.168 67.8175 256.349 68.0434 252.532C68.2693 248.714 69.3731 244.999 71.2698 241.672C73.1665 238.345 75.8055 235.495 78.9839 233.341C82.1623 231.188 85.7952 229.788 89.6032 229.249C93.4112 228.711 97.2926 229.048 100.949 230.235C97.9006 232.959 95.5695 236.383 94.1595 240.209C92.7494 244.036 92.3034 248.147 92.8602 252.184C93.417 256.221 94.9599 260.061 97.3538 263.369C99.7478 266.676 102.92 269.351 106.593 271.158Z" fill="#2CACAF"/>
<path d="M149.453 241.799C150.482 246.636 150.053 251.668 148.221 256.261C146.39 260.854 143.237 264.8 139.163 267.601C135.088 270.403 130.274 271.933 125.33 271.998C120.386 272.063 115.534 270.661 111.387 267.968C107.239 265.276 103.984 261.414 102.031 256.871C100.079 252.329 99.5176 247.309 100.418 242.447C101.319 237.585 103.641 233.1 107.09 229.557C110.54 226.015 114.963 223.576 119.799 222.547C123.011 221.864 126.325 221.82 129.553 222.418C132.781 223.016 135.86 224.244 138.614 226.032C141.367 227.819 143.742 230.132 145.602 232.837C147.461 235.543 148.77 238.588 149.453 241.799Z" fill="#2CACAF"/>
<path d="M138.633 263.285C138.868 264.367 138.991 265.469 139 266.575C136.258 268.459 133.159 269.781 129.886 270.464C126.613 271.148 123.233 271.177 119.948 270.552C119.497 269.538 119.152 268.482 118.919 267.4C117.701 261.778 119.589 256.417 123.261 253.992C121.514 253.665 119.935 252.754 118.794 251.414C117.653 250.075 117.019 248.389 117 246.642C116.982 244.896 117.579 243.198 118.692 241.835C119.804 240.472 121.363 239.529 123.103 239.165C124.843 238.802 126.658 239.041 128.239 239.842C129.82 240.642 131.071 241.955 131.778 243.558C132.485 245.16 132.605 246.954 132.118 248.633C131.631 250.313 130.567 251.775 129.106 252.772C133.468 253.52 137.414 257.663 138.633 263.285Z" fill="white"/>
<path d="M106.696 270.208L106.713 270.282C106.923 271.641 107.018 273.013 106.997 274.387C104.409 276.163 101.515 276.675 98.2478 277.396L97.9337 277.462C94.6488 278.149 91.2557 278.178 87.9588 277.549C87.9141 277.457 87.8751 277.361 87.8421 277.264C87.4438 276.339 87.1373 275.379 86.9269 274.397C85.7041 268.775 87.5993 263.414 91.2855 260.989C89.5312 260.662 87.9467 259.752 86.8011 258.412C85.6554 257.072 85.0192 255.386 85.0004 253.64C84.9817 251.894 85.5816 250.195 86.6983 248.833C87.815 247.47 89.3796 246.527 91.1265 246.164C91.7184 246.039 92.3236 245.985 92.9289 246.003C92.4452 250.927 93.5028 255.878 95.9616 260.201C98.4204 264.524 102.164 268.014 106.697 270.209L106.696 270.208Z" fill="white"/>
<path d="M74.6923 277.614C74.89 278.589 74.993 279.579 75 280.572C73.0296 281.929 70.8684 282.998 68.5845 283.744C68.392 283.808 68.1927 283.867 67.9994 283.925C67.8061 283.982 67.6063 284.043 67.4062 284.096C67.0805 284.188 66.7471 284.27 66.4119 284.345C66.3433 284.366 66.2684 284.381 66.1986 284.396L65.8856 284.461C65.706 284.499 65.5263 284.536 65.3454 284.568L64.8778 284.648C64.7908 284.666 64.7049 284.678 64.6202 284.69C61.7436 285.146 58.8075 285.099 55.9478 284.549C55.9403 284.538 55.9354 284.524 55.9334 284.511C55.8936 284.431 55.8596 284.349 55.8316 284.264C55.4348 283.339 55.1294 282.379 54.9197 281.397C53.7014 275.774 55.5897 270.412 59.2622 267.986C57.5144 267.659 55.9358 266.748 54.7944 265.408C53.653 264.069 53.0191 262.382 53.0004 260.636C52.9818 258.889 53.5794 257.19 54.692 255.827C55.8045 254.464 57.3633 253.521 59.1037 253.158C59.5214 253.07 59.9458 253.017 60.3725 253C59.8536 258.055 60.9542 263.144 63.5212 267.556C66.0881 271.968 69.9934 275.484 74.6927 277.614L74.6923 277.614Z" fill="white"/>
<path d="M322 183.873C322 184.322 321.955 184.77 321.866 185.211C320.643 185.732 319.328 186 318 186C316.672 186 315.357 185.732 314.134 185.211C314.045 184.77 314 184.322 314 183.873C314 181.538 315.184 179.564 316.814 178.905C316.163 178.63 315.627 178.137 315.296 177.51C314.966 176.883 314.862 176.16 315.001 175.465C315.141 174.77 315.516 174.144 316.063 173.695C316.609 173.245 317.294 173 318 173C318.706 173 319.39 173.245 319.937 173.695C320.484 174.144 320.858 174.77 320.998 175.465C321.138 176.16 321.034 176.883 320.703 177.51C320.373 178.137 319.837 178.63 319.186 178.905C320.816 179.564 322 181.538 322 183.873Z" fill="#2CACAF"/>
<path d="M322 225.873C322 226.322 321.955 226.77 321.866 227.211C320.643 227.732 319.328 228 318 228C316.672 228 315.357 227.732 314.134 227.211C314.045 226.77 314 226.322 314 225.873C314 223.538 315.184 221.564 316.814 220.905C316.163 220.63 315.627 220.137 315.296 219.51C314.966 218.883 314.862 218.16 315.001 217.465C315.141 216.77 315.516 216.144 316.063 215.695C316.609 215.245 317.294 215 318 215C318.706 215 319.39 215.245 319.937 215.695C320.484 216.144 320.858 216.77 320.998 217.465C321.138 218.16 321.034 218.883 320.703 219.51C320.373 220.137 319.837 220.63 319.186 220.905C320.816 221.564 322 223.538 322 225.873Z" fill="#2CACAF"/>
<path d="M322 266.873C322 267.322 321.955 267.77 321.866 268.211C320.643 268.732 319.328 269 318 269C316.672 269 315.357 268.732 314.134 268.211C314.045 267.77 314 267.322 314 266.873C314 264.538 315.184 262.564 316.814 261.905C316.163 261.63 315.627 261.137 315.296 260.51C314.966 259.883 314.862 259.16 315.001 258.465C315.141 257.77 315.516 257.144 316.063 256.695C316.609 256.245 317.294 256 318 256C318.706 256 319.39 256.245 319.937 256.695C320.484 257.144 320.858 257.77 320.998 258.465C321.138 259.16 321.034 259.883 320.703 260.51C320.373 261.137 319.837 261.63 319.186 261.905C320.816 262.564 322 264.538 322 266.873Z" fill="#2CACAF"/>
<path d="M306.5 269C311.747 269 316 264.747 316 259.5C316 254.253 311.747 250 306.5 250C301.253 250 297 254.253 297 259.5C297 264.747 301.253 269 306.5 269Z" fill="#FFB8B8"/>
</svg>
