<svg width="465" height="304" viewBox="0 0 465 304" fill="none" xmlns="http://www.w3.org/2000/svg">
<path d="M279.287 50.49C381.2 77.8047 442.686 178.668 416.683 275.738C390.68 372.809 287.013 429.408 185.101 402.093C83.1885 374.779 21.7025 273.916 47.7056 176.845C73.7087 79.7739 177.375 23.1753 279.287 50.49Z" stroke="white" stroke-opacity="0.19"/>
<path d="M147 268.195L150.721 272L168 259.616L162.508 254L147 268.195Z" fill="#C78F8F"/>
<path d="M152.669 270.932L148.536 266.97L147.521 266L137 274.584L139.737 277.536L142.958 275.428L141.478 279.415L148.735 287.242C149.082 287.617 149.539 287.869 150.037 287.961C150.535 288.053 151.049 287.981 151.503 287.754C151.958 287.527 152.33 287.157 152.564 286.699C152.798 286.242 152.883 285.719 152.806 285.209L151.24 274.87L154 272.206L152.669 270.932Z" fill="#2F2E41"/>
<path d="M228 126.137L226.829 138.877C226.829 138.877 224.784 148.476 226.2 147.698C227.615 146.92 225.077 150.422 225.745 153.458C226.414 156.495 220.035 179.14 222.924 176.794C225.813 174.448 221.254 190.653 218.371 198.648C217.488 201.12 216.581 203.621 215.668 206.105C215.488 206.608 215.307 207.104 215.121 207.607C213.938 210.839 212.754 214.022 211.619 217.026C211.457 217.445 211.301 217.864 211.145 218.277C211.138 218.289 211.138 218.301 211.133 218.301C207.396 228.097 204.194 235.805 202.915 237.08C202.248 237.744 191.67 245.356 181.008 252.98C169.817 260.981 158.536 269 158.536 269L148 257.989C148 257.989 148.252 257.917 148.727 257.774C149.604 257.522 151.226 257.049 153.352 256.421C162.218 253.818 150.955 249.766 159.005 246.87C161.275 246.056 162.789 245.422 163.131 245.087C165.132 243.142 167.817 238.504 169.084 240.449C170.352 242.394 176.1 227.942 177.758 226.511C178.647 225.739 181.549 222.131 184.036 218.959C186.174 216.23 188.012 213.819 188.012 213.819C188.012 213.819 188.048 212.526 188.102 210.467C188.18 207.422 188.294 202.688 188.415 197.948C188.408 197.942 188.408 197.942 188.415 197.942C188.457 196.159 188.499 194.376 188.541 192.682C188.571 191.371 188.601 190.109 188.631 188.942C188.709 185.447 188.763 182.802 188.763 182.144C188.763 179.983 188.763 181.665 190.475 180.36C190.73 180.16 190.973 179.944 191.202 179.714C191.568 179.386 191.905 179.028 192.211 178.643C192.337 178.374 191.55 178.739 190.529 178.535C189.976 178.425 189.464 178.164 189.051 177.781C186.901 175.854 189.219 169.93 189.219 169.93C184.33 160.187 184.684 152.198 186.973 146.04C188.684 141.621 191.4 137.658 194.908 134.461C196.243 133.194 197.697 132.057 199.251 131.068L199.401 130.26L201.053 121.349C201.932 120.868 202.845 120.454 203.786 120.111C206.72 119.062 209.869 118.749 212.953 119.201C216.018 119.643 218.985 120.6 221.729 122.032C223.971 123.154 226.076 124.531 228 126.137Z" fill="#2F2E41"/>
<path d="M182 288.493L187.427 289L192 267.748L183.99 267L182 288.493Z" fill="#C78F8F"/>
<path d="M197.13 296.763L189.11 290.117L189.473 286.294L187.608 286.234L181.829 286.048H181.822L180.405 286L178 299.388L182.052 299.759L183.125 296.044L184.621 299.999L186.765 300.197L195.349 300.988C195.422 300.994 195.5 301 195.573 301C195.914 301 196.252 300.929 196.563 300.791C196.874 300.652 197.152 300.45 197.378 300.197C197.73 299.816 197.945 299.332 197.99 298.819C198.026 298.433 197.966 298.044 197.816 297.686C197.666 297.328 197.431 297.011 197.13 296.763Z" fill="#2F2E41"/>
<path d="M211.561 217.334C209.533 228.371 200.949 254.249 195.758 269.395C193.395 276.316 191.744 281 191.744 281L189.052 280.151H189.046L184.494 278.715L182.837 278.188H182.831L180.822 277.548C180.822 277.548 181.055 265.19 181.079 253.274C181.097 248.279 181.073 243.356 180.977 239.456C180.869 235.203 180.684 232.158 180.379 231.553C179.117 229.077 181.228 228.814 183.459 228.192C185.696 227.564 183.95 226.618 183.082 224.609C182.497 223.268 183.651 221.48 184.47 220.463C184.696 220.177 184.938 219.903 185.194 219.643C185.194 219.643 184.799 219.506 184.094 219.267C186.223 216.539 188.053 214.128 188.053 214.128C188.053 214.128 188.089 212.836 188.143 210.778C188.221 207.734 188.334 203.002 188.454 198.264C188.448 198.258 188.448 198.258 188.454 198.258C188.496 196.475 188.538 194.693 188.58 193C192.001 195.626 195.327 198.198 198.341 200.579C198.345 200.582 198.348 200.586 198.35 200.59C198.352 200.594 198.353 200.599 198.353 200.603C205.597 206.328 211.034 210.922 211.8 212.382C212.147 213.039 212.027 214.798 211.561 217.334Z" fill="#2F2E41"/>
<path d="M198 105L199.138 115.384L198.469 129L229.12 125.417L232 105L228.33 105.036L198 105Z" fill="#FFB6B6"/>
<path d="M223.405 71.2903L211.975 62.3458L205.975 62L197.072 67.6534L194.892 78.6775L189.736 91.0914L197.298 124.593C197.298 124.593 198.007 126.997 196.149 127.286C194.29 127.574 194.513 131.118 194.513 131.118C194.513 131.118 194.891 134.189 193.087 134.459C191.282 134.73 186.469 134.73 190.68 140.097C194.892 145.463 228.199 125.166 228.199 125.166L233.036 100.005C233.036 100.005 242.418 87.5147 232.315 80.3613L223.405 71.2903Z" fill="white"/>
<path d="M174.199 147.92C173.7 147.298 173.344 146.575 173.155 145.801C172.966 145.026 172.95 144.221 173.107 143.439C173.264 142.658 173.59 141.921 174.064 141.28C174.537 140.638 175.146 140.108 175.846 139.727L190.092 92L199 96.477L183.486 142.223C184.049 143.441 184.146 144.822 183.757 146.106C183.369 147.39 182.522 148.487 181.377 149.189C180.232 149.891 178.869 150.15 177.546 149.916C176.223 149.682 175.032 148.972 174.199 147.92Z" fill="#C78F8F"/>
<path d="M199.641 67.1354C199.641 67.1354 197.082 65.7802 195.331 71.6446C193.93 76.3395 182.558 104.304 182.413 111.103C181.477 111.301 180.633 111.803 180.016 112.531C179.398 113.259 179.04 114.17 179 115.123L193.06 117C195.517 114.935 196.162 112.147 195.211 111.319L198.264 103.011L211 76.5798L201.508 68.0822L199.641 67.1354Z" fill="white"/>
<path d="M274.858 132.657C275.039 131.868 275.047 131.049 274.881 130.256C274.715 129.464 274.379 128.718 273.897 128.071C273.415 127.425 272.798 126.892 272.09 126.512C271.382 126.132 270.6 125.913 269.8 125.871L236.965 88L230 96.3933L263.965 131.511C263.984 132.874 264.498 134.183 265.409 135.189C266.32 136.195 267.565 136.829 268.907 136.97C270.25 137.111 271.597 136.75 272.694 135.955C273.791 135.16 274.561 133.987 274.858 132.657Z" fill="#C78F8F"/>
<path d="M217.199 70.5998C217.199 70.5998 218.935 68.26 223.096 72.823C226.428 76.4759 249.024 96.9234 252.134 103.031C253.072 102.804 254.06 102.894 254.941 103.287C255.822 103.679 256.546 104.352 257 105.199L245.028 113C241.888 112.192 240.08 109.94 240.583 108.777L234.166 102.562L211 84.0972L215.915 72.269L217.199 70.5998Z" fill="white"/>
<path d="M375.138 148.784C374.199 148.454 373.424 147.765 372.977 146.863C372.531 145.961 372.448 144.918 372.747 143.955C372.81 143.76 372.89 143.571 372.984 143.39L364 133.415L367.376 127L378.229 142.017C378.939 142.473 379.481 143.155 379.769 143.957C380.057 144.759 380.076 145.636 379.823 146.45C379.675 146.911 379.438 147.339 379.127 147.708C378.816 148.077 378.437 148.38 378.01 148.6C377.584 148.819 377.12 148.952 376.643 148.989C376.167 149.026 375.687 148.968 375.233 148.817C375.201 148.807 375.17 148.796 375.138 148.784Z" fill="#FFB6B6"/>
<path d="M317.252 73.8677C316.951 75.261 316.919 76.6982 317.158 78.1033C317.221 78.5009 317.308 78.8944 317.418 79.2817C317.826 80.7293 318.213 82.0632 318.587 83.2666C318.807 84.0142 319.033 84.7185 319.249 85.3723C320.495 89.1891 321.468 91.35 322.158 91.8048C322.493 92.0272 322.829 92.2309 323.154 92.4298C324.824 93.443 326.033 94.1774 325.224 96.0473C325.107 96.3145 324.967 96.5716 324.807 96.816C324.539 97.2268 324.243 97.6188 323.92 97.9892C323.737 98.1987 323.567 98.4199 323.413 98.6516C323.211 98.9473 323.124 99.1965 323.232 99.4221C323.369 99.6998 323.748 99.8378 324.563 99.8768C324.692 99.8825 324.841 99.8904 324.999 99.8899C325.051 99.8932 325.104 99.8911 325.164 99.8916C325.269 99.893 325.387 99.8939 325.508 99.8894C326.514 99.8703 327.813 100.396 329.202 101.198C333.303 103.567 338.136 108.336 338.195 108.396L368.369 139L368.957 138.609L370.353 137.679L370.836 137.359L371.387 136.991L373.787 135.398L375 134.594L367.217 120.42L366.37 118.879L365.643 117.55L350.785 90.4837L344.884 81.1786L343.566 79.1054L337.954 70.2645C337.161 69.0136 336.128 67.9297 334.914 67.0748C333.699 66.2199 332.326 65.6107 330.874 65.282C329.422 64.9533 327.919 64.9115 326.45 65.159C324.982 65.4065 323.577 65.9385 322.316 66.7246C322.231 66.7776 322.146 66.8318 322.063 66.887C319.607 68.5071 317.883 71.0101 317.252 73.8677Z" fill="white"/>
<path d="M318.82 289L313.4 288.953L311 267L319 267.07L318.82 289Z" fill="#FFB6B6"/>
<path d="M320.965 285.642L319.537 285.543L313.714 285.13L311.839 285L311.804 289.057L303.071 295.208C302.64 295.512 302.313 295.952 302.14 296.462C301.966 296.972 301.954 297.527 302.105 298.045C302.257 298.563 302.564 299.017 302.982 299.341C303.399 299.665 303.906 299.842 304.427 299.846L315.296 299.939L317.199 295.937L317.895 299.963L322 300L320.965 285.642Z" fill="#2F2E41"/>
<path d="M377 284.409L371.792 286L363 266.348L370.687 264L377 284.409Z" fill="#FFB6B6"/>
<path d="M377.832 282L376.437 282.337L370.757 283.7L368.927 284.143L370.077 287.855L363.527 296.07C363.203 296.476 363.019 296.973 363.001 297.49C362.984 298.007 363.133 298.516 363.428 298.943C363.723 299.37 364.147 299.692 364.64 299.863C365.133 300.034 365.668 300.045 366.168 299.894L376.58 296.725L377.23 292.505L379.072 295.963L383 294.765L377.832 282Z" fill="#2F2E41"/>
<path d="M307.877 106L297.282 136.548L296.932 138.993C294.263 141.508 297.616 142.336 296.359 142.999C295.102 143.663 294.256 145.522 295.95 145.854C297.645 146.186 303.108 265.337 310.315 269.964C317.522 274.59 321.907 277.936 320.584 271.162C320.051 268.433 320.805 253.799 321.896 237.297C322.019 235.427 323.973 233.447 322.278 231.629C320.584 229.811 322.487 228.614 322.593 227.105C324.113 205.557 325.868 184.282 325.868 184.282C325.868 184.282 337.1 222.551 340.017 219.589C342.934 216.626 341.779 223.92 342.67 226.1C343.415 227.921 340.237 231.499 344.908 231.554C349.578 231.609 360.546 268.807 361.659 268.765C363.863 268.682 370.06 268.917 373.74 268.166C375.557 267.795 367.491 239.631 360.755 215.312C360.218 213.373 357.295 213.328 359.175 209.583C361.055 205.839 351.7 181.612 352.503 180.491C354.634 177.517 355.445 176.224 353.344 176.03C351.242 175.835 350.621 176.978 350.508 174.093C350.394 171.208 350.032 164.094 350.032 164.094C350.032 164.094 348.51 135.958 337.851 120.413L336.942 111.177L307.877 106Z" fill="#2F2E41"/>
<path d="M334.62 47L320.62 48.9866L319.775 59.0895L312.867 69.8594C312.867 69.8594 297.511 80.6293 308.221 97.6423C304.145 112.298 300.093 126.353 296.23 135.724C293.221 154.318 320.18 156.1 351 149.52C351 149.52 350.575 141.569 347.778 137.746C344.981 133.924 346.504 133.09 346.504 133.09L344.55 125.949C345.655 115.626 341.921 114.7 340.166 109.931L345.494 60.4489L334.62 47Z" fill="white"/>
<path d="M267.046 133.775C267.195 132.789 267.727 131.899 268.53 131.295C269.333 130.691 270.343 130.42 271.345 130.539C271.548 130.567 271.748 130.611 271.944 130.671L280.067 120L287 122.165L274.273 135.596C273.957 136.379 273.388 137.036 272.654 137.466C271.92 137.896 271.062 138.074 270.215 137.972C269.243 137.845 268.361 137.343 267.764 136.574C267.167 135.806 266.904 134.835 267.032 133.874C267.036 133.841 267.041 133.808 267.046 133.775Z" fill="#FFB6B6"/>
<path d="M339.432 67.1597C339.234 66.9131 339.018 66.6727 338.79 66.4381C337.206 64.8014 335.165 63.6824 332.935 63.2275C330.705 62.7727 328.39 63.0032 326.293 63.8889C326.089 63.9729 325.885 64.0692 325.688 64.1655C318.518 67.6946 314.649 70.0456 314.181 71.1459C314.019 71.5187 313.881 71.8854 313.743 72.2401C313.61 72.5888 313.484 72.9194 313.353 73.22C312.801 74.5068 312.165 75.3065 310.545 74.9457C310.008 74.814 309.49 74.6141 309.003 74.3506C308.781 74.2423 308.577 74.1281 308.385 74.0197C307.689 73.6351 307.185 73.3586 306.843 73.6111C306.513 73.8574 306.501 74.4827 306.801 75.9318C306.901 76.5366 306.884 77.1548 306.753 77.7535C306.357 79.5 305.735 81.1876 304.905 82.7739C303.662 85.2606 302.263 87.6664 300.718 89.9769L286.445 110.371L285.479 111.748L284.423 113.257L276 125.294L276.498 125.805L278.586 127.94L279.048 128.415L279.468 128.847L280.554 129.96L281.574 131L304.33 112.421L306.867 110.347L311.415 106.632L320.732 99.0258L338.364 82.6718C339.477 81.6476 340.373 80.4088 340.996 79.0295C341.62 77.6502 341.959 76.1589 341.994 74.645C341.994 74.5429 342 74.4466 342 74.3444C342.007 71.7226 341.098 69.1811 339.432 67.1597Z" fill="white"/>
<path d="M326.5 47C335.06 47 342 40.0604 342 31.5C342 22.9396 335.06 16 326.5 16C317.94 16 311 22.9396 311 31.5C311 40.0604 317.94 47 326.5 47Z" fill="#FFB6B6"/>
<path d="M346.786 53.3175C348.898 56.32 350.311 59.7519 350.923 63.3642C349.22 64.4459 347.238 65.014 345.217 64.9997C345.148 64.7369 345.08 64.4741 345.001 64.2112C344.416 62.1758 343.544 60.2324 342.413 58.4382C342.568 60.3729 342.304 62.3182 341.639 64.1431C340.571 63.6611 339.426 63.3678 338.256 63.2766C337.304 63.2766 336.364 63.4965 335.511 63.9191C334.521 60.6579 333.609 57.6594 332.962 55.5079C332.943 60.9013 324.982 65.6034 316.296 64.9219C315.983 64.7272 319.13 55.8584 318.826 55.6539C318.13 55.1964 317.453 54.6999 316.777 54.2131C319.62 49.8517 322.708 45.1788 322.178 44.4779C322.218 45.3444 319.1 49.511 315.708 53.444C313.826 52.0714 324.522 29.7388 319.237 27.928C319.149 28.7166 317.982 28.7166 316.561 28.5511C316.186 27.25 315.628 26.0079 314.904 24.8614C314.998 26.0163 314.858 27.1783 314.492 28.2785C313.089 28.2789 311.689 28.4257 310.316 28.7166C309.998 28.2203 309.648 27.7455 309.267 27.2952C309.305 27.8439 309.288 28.395 309.218 28.9405C307.816 29.2423 306.659 29.5927 306.493 29.8751C305.395 29.4759 307.267 27.6749 306.581 26.7403C304.836 24.4039 307.424 20.9966 309.061 18.5822C312.424 13.6368 319.806 11.9233 325.031 14.8926C325.267 14.0845 326.473 13.5491 328.022 13.1889C328.678 13.0452 329.35 12.9831 330.021 13.0039C336.688 13.1207 345.943 18.5822 346.305 25.1925C346.335 25.8544 346.384 26.5748 346.433 27.3439C346.903 34.7427 346.325 41.5671 351.413 46.9799C353.256 48.9366 353.276 58.2046 352.57 62.9749C350.736 61.057 349.433 53.5998 346.786 53.3175Z" fill="#2F2E41"/>
<path d="M195.721 37.6418C194.36 41.0174 190.52 47.6557 190 51.277L190.234 51.0478C190.681 51.8075 191.188 52.53 191.751 53.2083C192.761 52.1522 193.981 51.3171 195.332 50.7563C194.594 52.2644 194.167 53.9044 194.075 55.5797C195.524 60.103 202.223 58.0886 206.148 57.5947C210.068 62.0595 215.282 63.2246 222.111 60.6577C224.021 60.8535 226.159 60.9724 227.497 59.8486C228.835 58.7248 228.038 56.6436 228.758 55.0694C233.887 43.857 229.154 39.8116 225.132 34.7274C224.248 33.6086 224.251 31.9389 223.174 30.8715C221.68 29.3918 219.39 28.9367 217.278 28.5721C217.827 28.6009 218.374 28.4885 218.866 28.2459C219.358 28.0033 219.78 27.6386 220.089 27.1868C220.361 26.7317 220.501 26.2107 220.494 25.6812C220.488 25.1518 220.334 24.6345 220.051 24.1863C219.296 22.9395 217.727 22.2145 216.213 22.0334C214.721 21.9325 213.223 22.0607 211.77 22.4136C210.829 22.5369 209.918 22.8269 209.08 23.2699C208.685 23.48 208.363 23.8053 208.158 24.2024C207.953 24.5995 207.875 25.0493 207.934 25.4918C208.06 25.9005 208.277 26.2755 208.569 26.5889C208.861 26.9023 209.221 27.146 209.62 27.3018C210.23 27.5585 210.871 27.7332 211.527 27.8216C208.515 27.4323 205.455 27.9656 202.754 29.3506C199.37 31.1483 197.087 34.2679 195.721 37.6418Z" fill="#2F2E41"/>
<path d="M214 57C220.627 57 226 51.6274 226 45C226 38.3726 220.627 33 214 33C207.373 33 202 38.3726 202 45C202 51.6274 207.373 57 214 57Z" fill="#C78F8F"/>
<path d="M202.244 37.9968C202.963 40.1129 205.019 40.7948 206.92 41.2201C207.519 41.356 208.122 41.4827 208.731 41.5954C208.955 41.3222 209.194 41.0546 209.443 40.8015C210.479 39.7429 211.73 38.9059 213.117 38.3437C212.517 39.5378 212.119 40.818 211.937 42.1352C213.086 42.2974 214.241 42.4299 215.403 42.5328C216.386 42.7364 217.411 42.5648 218.268 42.0534C219.124 41.542 219.746 40.73 220.005 39.7851C221.062 41.468 222.313 43.0528 224.023 43.7213C225.001 44.0632 226.065 44.0913 227.061 43.8015C228.056 43.5117 228.93 42.9192 229.555 42.1109C230.541 40.7924 231.224 39.2832 231.559 37.6855C232.045 35.8116 232.314 33.6529 231.361 32.4639C230.598 31.5017 229.281 31.4844 228.066 31.5698C225.385 31.7699 222.732 32.238 220.148 32.9666L219.93 33.445C220.374 30.85 219.411 28.3532 217.629 27.4652C216.428 26.8715 214.982 26.9711 213.577 27.0915C211.773 27.1698 209.99 27.5053 208.285 28.0873C206.33 28.8191 204.655 30.1209 203.489 31.8146C202.243 33.6568 201.623 36.1693 202.244 37.9968Z" fill="#2F2E41"/>
<path d="M219.807 27.5389C219.684 27.5013 220.003 27.5496 219.893 27.5527C219.948 27.5494 220.002 27.5415 220.056 27.529C220.065 27.5271 220.19 27.4861 220.107 27.5162C220.293 27.4589 220.458 27.3472 220.584 27.1946C220.877 26.8193 221.108 26.3955 221.265 25.9411C221.464 25.3405 221.783 24.7902 222.202 24.3262C222.32 24.2028 222.466 24.11 222.626 24.0556C222.786 24.0011 222.956 23.9864 223.123 24.0127C223.289 24.039 223.447 24.1055 223.584 24.2069C223.721 24.3082 223.833 24.4416 223.911 24.596C224.069 25.1921 224.015 25.827 223.759 26.3852C223.58 26.9533 223.313 27.4877 222.969 27.968C222.393 28.7533 221.609 29.3484 220.711 29.6808C219.673 30.0709 218.54 30.1043 217.481 29.7762C217.342 29.7162 217.222 29.6155 217.136 29.4862C217.051 29.357 217.003 29.2049 217 29.0484C216.997 28.8918 217.038 28.7377 217.118 28.6047C217.198 28.4718 217.313 28.3657 217.45 28.2995L219.216 27.5522C219.309 27.5096 219.409 27.4862 219.51 27.4836C219.612 27.4809 219.713 27.499 219.808 27.5368C219.903 27.5746 219.989 27.6313 220.063 27.7038C220.137 27.7762 220.196 27.863 220.237 27.9591C220.278 28.0552 220.3 28.1587 220.303 28.2637C220.305 28.3688 220.288 28.4733 220.251 28.5713C220.214 28.6693 220.159 28.7588 220.089 28.8348C220.019 28.9108 219.935 28.9718 219.842 29.0142L219.839 29.0157L218.073 29.7629L218.042 28.2861C218.262 28.3519 218.489 28.3919 218.718 28.4056C218.962 28.4309 219.208 28.4201 219.45 28.3737C219.681 28.3423 219.908 28.2851 220.127 28.2029C220.267 28.1499 220.405 28.0896 220.539 28.0222C220.588 27.9977 220.637 27.9722 220.685 27.9458C220.681 27.9477 220.886 27.824 220.796 27.8821C221.025 27.7313 221.239 27.5587 221.436 27.3667C221.506 27.2987 221.57 27.2248 221.628 27.1459C221.729 27.0181 221.822 26.8844 221.908 26.7454C222.081 26.451 222.219 26.1354 222.318 25.8058C222.363 25.6673 222.4 25.5264 222.431 25.3838C222.44 25.3056 222.453 25.228 222.472 25.1516C222.538 24.9697 222.46 25.2579 222.535 25.3367L222.86 25.5846C222.922 25.6035 222.986 25.6078 223.049 25.5974C223.112 25.587 223.172 25.562 223.224 25.5244C223.263 25.4683 223.254 25.4776 223.199 25.5523C223.134 25.6403 223.075 25.7323 223.022 25.828C222.906 26.0532 222.8 26.2843 222.706 26.5206C222.512 27.023 222.266 27.5025 221.974 27.951C221.687 28.4047 221.269 28.7531 220.779 28.9467C220.29 29.1403 219.753 29.1691 219.247 29.0291C219.057 28.9508 218.904 28.7985 218.822 28.6049C218.739 28.4113 218.734 28.192 218.807 27.9943C218.884 27.7994 219.032 27.6432 219.218 27.5583C219.405 27.4734 219.616 27.4665 219.807 27.5389Z" fill="#2F2E41"/>
</svg>
