<svg width="342" height="295" viewBox="0 0 342 295" fill="none" xmlns="http://www.w3.org/2000/svg">
<g clip-path="url(#clip0_2426_37477)" filter="url(#filter0_dd_2426_37477)">
<path d="M15.2045 281.543H22.8639L26.5079 251.875L15.2031 251.875L15.2045 281.543Z" fill="#9F616A"/>
<path d="M13.25 279.033L28.3343 279.032H28.3349C30.8843 279.032 33.3293 280.049 35.132 281.86C36.9347 283.67 37.9475 286.125 37.9477 288.686V288.999L13.2505 289L13.25 279.033Z" fill="#2F2E41"/>
<path d="M10.388 175.575C10.388 175.575 7.06847 179.343 12.5651 194.032L11.597 274.575L29.41 274.226L33.3254 234.938L40.4544 177.605L10.388 175.575Z" fill="#2F2E41"/>
<path d="M46.5635 186.711L46.3685 186.682C23.5807 183.191 6.38466 179.846 6.21362 179.812L6 179.771L11.9736 165.18C11.9264 163.655 10.6334 120.842 13.1087 108.541C15.5051 96.6328 26.8005 94.6813 28.0877 94.4977L29.3802 90.1973L45.7087 98.7298L48.5565 108.572L49.135 135.548L46.5635 186.711Z" fill="white"/>
<path d="M56.3977 131.188C55.6624 131.188 54.935 131.341 54.2613 131.637C53.5876 131.933 52.9822 132.365 52.4831 132.908H25.0376L14.9844 135.057L16.6349 147.841L52.3969 140.118C52.989 140.789 53.7392 141.301 54.5789 141.606C55.4186 141.912 56.3212 142.001 57.2042 141.866C58.0871 141.732 58.9224 141.377 59.6337 140.834C60.345 140.292 60.9096 139.579 61.2761 138.761C61.6426 137.943 61.7992 137.046 61.7317 136.152C61.6641 135.258 61.3745 134.394 60.8894 133.641C60.4043 132.888 59.7391 132.269 58.9545 131.841C58.1698 131.412 57.2909 131.188 56.3977 131.188Z" fill="#9F616A"/>
<path d="M56.6354 85.3638C60.1394 78.9267 57.7836 70.8559 51.3736 67.3371C44.9636 63.8183 36.9267 66.184 33.4227 72.621C29.9187 79.0581 32.2745 87.1289 38.6845 90.6477C45.0945 94.1665 53.1314 91.8008 56.6354 85.3638Z" fill="#9F616A"/>
<path d="M32.5911 68.3734L31.9499 67.0773L35.1765 65.4674C35.1765 65.4674 38.736 59.6513 45.177 61.2857C51.6179 62.9202 54.5159 63.8984 54.5159 63.8984L57.7343 65.5246L56.119 67.1386L59.0168 68.1168L57.0809 69.0828L59.3334 70.3829L58.1208 77.0481C58.1208 77.0481 56.1068 71.9928 52.2349 73.9247C48.363 75.8565 41.2806 72.926 41.2806 72.926L35.1277 84.8842C35.1277 84.8842 33.8583 80.6923 31.5951 81.8101C31.5951 81.8101 25.8132 72.5632 32.5911 68.3734Z" fill="#2F2E41"/>
<path d="M16.8119 150.237L13.6733 140.861L12.9141 109.609L14.2514 105.174C14.7327 103.579 15.53 102.097 16.5953 100.817C17.6607 99.5383 18.9722 98.4884 20.4513 97.7305C21.9305 96.9726 23.5467 96.5223 25.2033 96.4067C26.8598 96.2912 28.5226 96.5126 30.0918 97.0579C31.6611 97.6031 33.1046 98.4608 34.3359 99.5797C35.5671 100.699 36.5608 102.056 37.2573 103.569C37.9538 105.083 38.3388 106.723 38.3892 108.389C38.4396 110.056 38.1545 111.716 37.5508 113.269L30.3829 131.715L30.7473 132.425L46.2765 132.299L51.7927 142.27L16.8119 150.237Z" fill="white"/>
<path d="M172.184 146.385C172.763 145.993 173.25 145.478 173.61 144.877C173.97 144.275 174.194 143.602 174.267 142.904C174.34 142.206 174.26 141.501 174.032 140.838C173.803 140.174 173.433 139.569 172.947 139.065L180.602 123.839L171.834 124.86L165.91 139.163C165.12 140.039 164.679 141.175 164.668 142.357C164.658 143.538 165.079 144.682 165.852 145.572C166.626 146.463 167.697 147.037 168.864 147.187C170.031 147.337 171.212 147.051 172.184 146.385Z" fill="#FFB7B7"/>
<path d="M233.571 254.241L226.672 254.241L223.391 227.52L233.572 227.52L233.571 254.241Z" fill="#FFB7B7"/>
<path d="M235.33 260.956L213.086 260.955V260.673C213.086 258.367 213.998 256.156 215.622 254.525C217.246 252.895 219.448 251.979 221.744 251.979H221.744L235.33 251.979L235.33 260.956Z" fill="#2F2E41"/>
<path d="M195.872 254.241L188.973 254.241L185.691 227.52L195.873 227.52L195.872 254.241Z" fill="#FFB7B7"/>
<path d="M195.943 260.956L173.699 260.955V260.673C173.699 258.367 174.612 256.156 176.235 254.525C177.859 252.895 180.061 251.979 182.357 251.979H182.358L195.943 251.979L195.943 260.956Z" fill="#2F2E41"/>
<path d="M195.307 141.384L188.554 157.005L182.984 246.795L197.052 246.23L200.894 203.427L212.746 165.304L219.559 207.805L222.373 245.099L234.013 245.605L238.651 141.384H195.307Z" fill="#2F2E41"/>
<path d="M229.06 64.2998L209.49 64.7914L198 70.7147L197.369 114.416L190.203 144.587C190.203 144.587 234.977 147.682 241.167 143.161L233.852 108.692L243.663 71.4411L229.06 64.2998Z" fill="#2CACAF"/>
<path d="M201.02 71.4397L199.198 70.2041C199.198 70.2041 191.65 72.4758 189.419 82.5826C189.419 82.5826 187.712 87.6533 186.963 91.1394C186.104 95.1381 167.133 131.867 167.133 131.867L178.491 135.14L199.315 101.321L201.02 71.4397Z" fill="#2CACAF"/>
<path d="M243.354 151.988C242.904 151.451 242.578 150.821 242.397 150.144C242.216 149.466 242.185 148.757 242.307 148.066C242.429 147.375 242.7 146.719 243.101 146.144C243.502 145.57 244.024 145.091 244.63 144.741L241.453 127.985L249.6 131.395L251.368 146.784C251.886 147.844 251.998 149.059 251.684 150.198C251.37 151.336 250.651 152.319 249.663 152.961C248.675 153.602 247.487 153.858 246.324 153.678C245.162 153.499 244.105 152.898 243.354 151.988Z" fill="#FFB7B7"/>
<path d="M240.715 71.9634L242.806 71.2803C242.806 71.2803 249.437 75.5541 248.806 85.8867C248.806 85.8867 249.054 91.2335 248.817 94.792C248.545 98.8735 252.193 139.432 252.193 139.432H240.377L235.312 102.703L240.715 71.9634Z" fill="#2CACAF"/>
<path d="M233.864 45.9656C233.864 48.6601 233.068 51.2941 231.577 53.5346C230.086 55.775 227.968 57.5212 225.489 58.5523C223.01 59.5835 220.282 59.8533 217.65 59.3276C215.019 58.8019 212.601 57.5044 210.704 55.5991C208.807 53.6938 207.515 51.2662 206.991 48.6235C206.468 45.9807 206.736 43.2414 207.763 40.752C208.79 38.2626 210.529 36.1349 212.76 34.6379C214.991 33.1409 217.614 32.3418 220.297 32.3418C223.886 32.3328 227.332 33.756 229.876 36.2982C232.42 38.8404 233.855 42.2935 233.863 45.8977C233.864 45.9204 233.864 45.943 233.864 45.9656Z" fill="#FFB7B7"/>
<path d="M206.774 27.6669C208.363 24.235 211.438 24.9136 214.128 26.0768C217.534 25.3181 220.774 23.0466 224.444 24.39C228.059 29.67 240.196 28.1165 237.614 36.7125C237.61 38.7723 241.473 37.5733 240.799 40.9468C242.845 47.4389 233.413 59.7341 227.997 57.1449C229.337 54.6801 232.396 49.0817 227.756 48.5264C217.774 57.8532 226.726 30.7661 214.184 38.6434C210.032 42.4598 204.347 31.4842 206.774 27.6669Z" fill="#2F2E41"/>
<path d="M245.731 153.347C246.377 153.477 247.044 153.464 247.684 153.308C248.325 153.151 248.923 152.856 249.438 152.442C249.952 152.029 250.37 151.507 250.662 150.913C250.954 150.32 251.112 149.669 251.127 149.007L285.191 116.81L277.526 110.67L246.395 144.331C245.286 144.38 244.234 144.836 243.438 145.613C242.642 146.389 242.157 147.432 242.075 148.543C241.993 149.654 242.32 150.757 242.994 151.643C243.668 152.528 244.641 153.134 245.731 153.347Z" fill="#9F616A"/>
<path d="M280.361 122.014L273.734 114.215C273.545 113.993 273.406 113.733 273.327 113.452C273.248 113.172 273.229 112.877 273.273 112.589C273.318 112.3 273.423 112.025 273.583 111.781C273.742 111.538 273.953 111.331 274.199 111.177L282.826 105.753C283.963 104.79 285.432 104.319 286.914 104.443C288.395 104.567 289.767 105.276 290.728 106.415C291.69 107.553 292.162 109.028 292.043 110.516C291.923 112.004 291.221 113.383 290.09 114.352L283.422 122.031C283.231 122.251 282.995 122.427 282.73 122.547C282.465 122.667 282.178 122.728 281.888 122.727C281.597 122.725 281.31 122.66 281.047 122.538C280.783 122.415 280.549 122.236 280.361 122.014Z" fill="#CBCBCB"/>
<path d="M262.541 280.893L254.212 280.892L250.25 248.632L262.543 248.632L262.541 280.893Z" fill="#9F616A"/>
<path d="M264.668 289L237.812 288.999V288.658C237.813 285.874 238.914 283.204 240.874 281.236C242.835 279.267 245.493 278.161 248.265 278.161H248.266L264.668 278.162L264.668 289Z" fill="#2F2E41"/>
<path d="M329.119 280.893L320.791 280.892L316.828 248.632L329.121 248.632L329.119 280.893Z" fill="#9F616A"/>
<path d="M331.242 289L304.387 288.999V288.658C304.387 285.874 305.488 283.204 307.448 281.236C309.409 279.267 312.067 278.161 314.84 278.161H314.84L331.242 278.162L331.242 289Z" fill="#2F2E41"/>
<path d="M306.713 139.116L315.108 107.967L304.217 101.819H289.015L283.102 108.172C283.102 108.172 273.223 115.074 275.615 122.722L279.472 140.14L273.572 167.805L243.849 209.2L236.812 249.86L264.51 257.152L294.461 197.929L308.982 263.504L335.997 262.14L326.688 182.629C326.688 182.629 324.035 158.408 310.125 143.284L306.713 139.116Z" fill="white"/>
<path d="M324.054 166.676C324.522 166.21 324.883 165.647 325.111 165.026C325.339 164.405 325.429 163.741 325.374 163.081C325.319 162.422 325.12 161.782 324.792 161.208C324.465 160.634 324.016 160.139 323.477 159.758L316.963 115.627L307.613 118.592L316.972 161.094C316.395 162.046 316.185 163.177 316.383 164.274C316.58 165.37 317.172 166.356 318.045 167.044C318.918 167.732 320.011 168.074 321.119 168.006C322.227 167.939 323.271 167.465 324.054 166.676Z" fill="#9F616A"/>
<path d="M318.571 122.552L308.429 123.727C308.14 123.76 307.848 123.731 307.572 123.64C307.295 123.55 307.042 123.401 306.828 123.204C306.614 123.006 306.446 122.764 306.333 122.495C306.221 122.226 306.167 121.936 306.177 121.645L306.505 111.428C306.344 109.945 306.774 108.457 307.703 107.292C308.632 106.127 309.982 105.379 311.459 105.212C312.936 105.045 314.419 105.474 315.582 106.403C316.745 107.332 317.493 108.687 317.663 110.17L320.292 120.01C320.368 120.292 320.381 120.587 320.333 120.874C320.285 121.162 320.175 121.436 320.012 121.677C319.848 121.918 319.635 122.121 319.387 122.272C319.138 122.423 318.86 122.519 318.571 122.552Z" fill="#CBCBCB"/>
<path d="M279.617 92.9615V79.8373C279.617 75.1731 281.462 70.7 284.746 67.4019C288.031 64.1038 292.485 62.251 297.13 62.251C301.774 62.251 306.229 64.1038 309.513 67.4019C312.797 70.7 314.642 75.1731 314.642 79.8373V92.9615C314.641 93.5878 314.393 94.1882 313.952 94.6311C313.511 95.074 312.913 95.3231 312.29 95.3238H281.97C281.346 95.3231 280.748 95.074 280.307 94.6311C279.866 94.1882 279.618 93.5878 279.617 92.9615Z" fill="#2F2E41"/>
<path d="M299.689 93.4378C305.911 90.0221 308.198 82.1879 304.796 75.9396C301.395 69.6912 293.594 67.3949 287.372 70.8105C281.149 74.2262 278.863 82.0604 282.264 88.3087C285.665 94.5571 293.467 96.8534 299.689 93.4378Z" fill="#9F616A"/>
<path d="M275.477 80.8871C275.481 77.1988 276.942 73.6628 279.539 71.0548C282.136 68.4468 285.657 66.9798 289.33 66.9756H291.944C295.616 66.9798 299.138 68.4468 301.735 71.0548C304.332 73.6628 305.792 77.1989 305.797 80.8872V81.1496H300.273L298.389 75.8518L298.012 81.1496H295.157L294.207 78.4766L294.017 81.1496H275.477V80.8871Z" fill="#2F2E41"/>
<path d="M292.266 96.7995C292.006 96.4469 291.852 96.0279 291.819 95.5907C291.786 95.1535 291.877 94.716 292.082 94.3285C294.851 89.0378 298.73 79.2619 293.582 73.233L293.212 72.7998H308.156V95.3313L294.58 97.7367C294.443 97.7611 294.304 97.7735 294.164 97.7736C293.794 97.7736 293.428 97.6853 293.098 97.516C292.768 97.3466 292.483 97.1011 292.266 96.7995Z" fill="#2F2E41"/>
<path d="M154.909 108.797C154.719 108.993 154.546 109.203 154.389 109.426L130.039 108.828L127.199 103.615L118.805 106.892L122.94 116.611C123.275 117.396 123.853 118.051 124.59 118.478C125.326 118.905 126.181 119.08 127.025 118.978L154.535 115.64C155.184 116.465 156.068 117.072 157.069 117.381C158.07 117.689 159.14 117.684 160.138 117.366C161.136 117.049 162.014 116.434 162.656 115.603C163.297 114.772 163.671 113.764 163.729 112.715C163.786 111.665 163.524 110.622 162.977 109.726C162.43 108.83 161.624 108.122 160.666 107.696C159.709 107.271 158.645 107.149 157.617 107.345C156.588 107.542 155.644 108.048 154.909 108.797Z" fill="#FFB7B7"/>
<path d="M75.5326 257.299H83.5389L87.3477 226.287L75.5312 226.288L75.5326 257.299Z" fill="#FFB7B7"/>
<path d="M73.4922 254.674L89.2595 254.674H89.2602C91.925 254.674 94.4807 255.737 96.3651 257.629C98.2494 259.522 99.3082 262.088 99.3083 264.764V265.092L73.4927 265.093L73.4922 254.674Z" fill="#2F2E41"/>
<path d="M148.234 257.12L155.596 253.961L146.968 223.939L136.102 228.602L148.234 257.12Z" fill="#FFB7B7"/>
<path d="M145.328 255.511L159.828 249.291L159.828 249.29C162.279 248.239 165.045 248.209 167.518 249.206C169.991 250.202 171.969 252.145 173.016 254.606L173.144 254.907L149.404 265.092L145.328 255.511Z" fill="#2F2E41"/>
<path d="M114.451 115.515L115.029 124.937L98.1064 126.756L80.3984 128.659L85.6103 114.353L114.451 115.515Z" fill="#FFB7B7"/>
<path d="M115.044 118.896C114.853 118.82 95.7379 111.354 83.9969 117.459L83.7082 117.609L81.3659 106.032L80.0312 81.1405L88.7159 77.0195L91.107 71.6407L107.394 70.6729L110.741 75.2822L122.136 79.0326L115.326 119.008L115.044 118.896Z" fill="#2EAAAD"/>
<path d="M115.641 96.4278L117.655 80.532L122.242 79.1299L122.32 79.1585C122.425 79.1976 124.918 80.1558 125.601 83.6217C126.256 86.9484 131.189 107.651 131.239 107.859L131.288 108.067L119.697 112.724L115.641 96.4278Z" fill="#2EAAAD"/>
<path d="M142.271 251.67L157.7 248.491L133.039 180.158L124.6 156.85C124.6 156.85 119.247 138.162 116.828 130.93L115.368 121.227L80.8177 125.067C80.8177 125.067 71.1678 139.299 74.0993 162.495L72.7734 249.683L88.2026 250.478L101.126 162.545L123.808 210.749C123.808 210.749 130.958 231.32 136.073 235.778L142.271 251.67Z" fill="#2F2E41"/>
<path d="M94.6724 128.303C94.4007 128.296 94.1289 128.311 93.8595 128.348L77.7409 110.01L79.6159 104.374L71.5158 100.421L67.231 110.074C66.8848 110.854 66.7999 111.726 66.989 112.558C67.1781 113.391 67.631 114.139 68.2797 114.691L89.4213 132.68C89.2601 133.719 89.4176 134.783 89.873 135.729C90.3283 136.676 91.0599 137.461 91.9703 137.98C92.8808 138.499 93.9271 138.727 94.9699 138.635C96.0128 138.542 97.0028 138.133 97.8083 137.461C98.6138 136.79 99.1967 135.888 99.4793 134.875C99.762 133.863 99.731 132.788 99.3906 131.794C99.0502 130.8 98.4164 129.933 97.5736 129.31C96.7307 128.686 95.7188 128.335 94.6724 128.303Z" fill="#FFB7B7"/>
<path d="M70.0586 103.138L76.36 85.1135C77.0682 82.9887 77.9556 81.6979 78.9977 81.2767C79.203 81.184 79.4252 81.135 79.6503 81.1329C79.8753 81.1308 80.0984 81.1756 80.3054 81.2644L83.131 84.8493L85.7534 95.9125L79.0296 111.795L70.0586 103.138Z" fill="#2EAAAD"/>
<path d="M111.767 66.9424H84.1033C83.5343 66.9418 82.9887 66.7145 82.5864 66.3104C82.184 65.9063 81.9577 65.3585 81.957 64.7871V52.8129C81.957 48.5574 83.6404 44.4762 86.6368 41.4671C89.6333 38.4581 93.6973 36.7676 97.9349 36.7676C102.173 36.7676 106.237 38.4581 109.233 41.4671C112.229 44.4762 113.913 48.5574 113.913 52.8129V64.7871C113.912 65.3585 113.686 65.9063 113.284 66.3104C112.881 66.7145 112.336 66.9418 111.767 66.9424Z" fill="#2F2E41"/>
<path d="M101.218 66.6635C107.688 66.6635 112.933 61.3966 112.933 54.8996C112.933 48.4026 107.688 43.1357 101.218 43.1357C94.7486 43.1357 89.5039 48.4026 89.5039 54.8996C89.5039 61.3966 94.7486 66.6635 101.218 66.6635Z" fill="#FFB7B7"/>
<path d="M117.695 54.0102H100.779L100.606 51.5714L99.7383 54.0102H97.1337L96.79 49.1766L95.071 54.0102H90.0312V53.7707C90.035 50.4056 91.3678 47.1794 93.7373 44.7999C96.1068 42.4204 99.3194 41.0819 102.67 41.0781H105.055C108.406 41.0819 111.619 42.4204 113.988 44.7999C116.358 47.1794 117.691 50.4056 117.694 53.7707L117.695 54.0102Z" fill="#2F2E41"/>
<path d="M100.641 69.1781C100.514 69.1779 100.387 69.1667 100.261 69.1444L87.875 66.9497V46.3926H101.51L101.172 46.7878C96.4756 52.2884 100.014 61.2078 102.541 66.0348C102.727 66.3884 102.811 66.7876 102.781 67.1864C102.751 67.5853 102.61 67.9676 102.373 68.2894C102.175 68.5645 101.915 68.7885 101.614 68.943C101.312 69.0975 100.979 69.1781 100.641 69.1781Z" fill="#2F2E41"/>
</g>
<defs>
<filter id="filter0_dd_2426_37477" x="0" y="-6" width="342" height="301" filterUnits="userSpaceOnUse" color-interpolation-filters="sRGB">
<feFlood flood-opacity="0" result="BackgroundImageFix"/>
<feColorMatrix in="SourceAlpha" type="matrix" values="0 0 0 0 0 0 0 0 0 0 0 0 0 0 0 0 0 0 127 0" result="hardAlpha"/>
<feOffset dy="2"/>
<feGaussianBlur stdDeviation="2"/>
<feColorMatrix type="matrix" values="0 0 0 0 0 0 0 0 0 0 0 0 0 0 0 0 0 0 0.08 0"/>
<feBlend mode="normal" in2="BackgroundImageFix" result="effect1_dropShadow_2426_37477"/>
<feColorMatrix in="SourceAlpha" type="matrix" values="0 0 0 0 0 0 0 0 0 0 0 0 0 0 0 0 0 0 127 0" result="hardAlpha"/>
<feOffset/>
<feGaussianBlur stdDeviation="3"/>
<feColorMatrix type="matrix" values="0 0 0 0 0 0 0 0 0 0 0 0 0 0 0 0 0 0 0.02 0"/>
<feBlend mode="normal" in2="effect1_dropShadow_2426_37477" result="effect2_dropShadow_2426_37477"/>
<feBlend mode="normal" in="SourceGraphic" in2="effect2_dropShadow_2426_37477" result="shape"/>
</filter>
<clipPath id="clip0_2426_37477">
<rect width="330" height="289" fill="white" transform="translate(6)"/>
</clipPath>
</defs>
</svg>
