<svg width="397" height="267" viewBox="0 0 397 267" fill="none" xmlns="http://www.w3.org/2000/svg">
<path d="M238.188 42.7568C325.076 66.0383 377.493 152.002 355.327 234.727C333.161 317.452 244.785 365.69 157.897 342.409C71.0087 319.127 18.5921 233.163 40.7581 150.439C62.9242 67.7137 151.3 19.4752 238.188 42.7568Z" stroke="white" stroke-opacity="0.19"/>
<path d="M124.883 229.117L128.04 232.442L142.702 221.62L138.042 216.713L124.883 229.117Z" fill="#C78F8F"/>
<path d="M130.057 230.956L126.482 227.611L125.604 226.791L116.504 234.04L118.871 236.532L121.658 234.752L120.378 238.119L126.654 244.728C126.955 245.045 127.349 245.258 127.78 245.336C128.211 245.413 128.655 245.352 129.048 245.16C129.442 244.969 129.763 244.657 129.966 244.27C130.169 243.884 130.242 243.443 130.176 243.012L128.821 234.281L131.208 232.032L130.057 230.956Z" fill="#2F2E41"/>
<path d="M194.276 108.062L193.275 118.95C193.275 118.95 191.527 127.154 192.737 126.489C193.947 125.824 191.778 128.816 192.349 131.411C192.92 134.007 187.469 153.359 189.938 151.354C192.407 149.349 188.511 163.199 186.047 170.031C185.292 172.143 184.517 174.281 183.737 176.404C183.583 176.833 183.429 177.258 183.27 177.687C182.259 180.449 181.247 183.17 180.277 185.737C180.139 186.095 180.005 186.453 179.872 186.806C179.866 186.816 179.866 186.826 179.861 186.826C176.668 195.199 173.932 201.786 172.839 202.875C172.269 203.443 163.229 209.948 154.118 216.464C144.554 223.301 134.914 230.155 134.914 230.155L125.91 220.744C125.91 220.744 126.126 220.683 126.531 220.56C127.281 220.345 128.667 219.941 130.484 219.404C138.061 217.18 128.436 213.717 135.315 211.242C137.255 210.547 138.548 210.004 138.841 209.718C140.55 208.056 142.845 204.092 143.928 205.754C145.011 207.417 149.924 195.066 151.341 193.843C152.1 193.184 154.58 190.1 156.705 187.389C158.532 185.057 160.103 182.996 160.103 182.996C160.103 182.996 160.134 181.891 160.18 180.132C160.247 177.529 160.344 173.483 160.447 169.433C160.442 169.428 160.442 169.428 160.447 169.428C160.483 167.904 160.519 166.38 160.555 164.932C160.581 163.812 160.606 162.733 160.632 161.736C160.699 158.749 160.745 156.489 160.745 155.926C160.745 154.08 160.745 155.517 162.208 154.402C162.426 154.231 162.634 154.047 162.829 153.85C163.142 153.569 163.43 153.263 163.691 152.934C163.799 152.704 163.127 153.016 162.254 152.842C161.781 152.748 161.344 152.525 160.991 152.198C159.153 150.551 161.135 145.488 161.135 145.488C156.956 137.162 157.259 130.334 159.215 125.072C160.677 121.295 162.999 117.908 165.996 115.176C167.137 114.093 168.38 113.122 169.708 112.276L169.836 111.586L171.248 103.971C171.998 103.56 172.779 103.206 173.583 102.912C176.091 102.016 178.781 101.749 181.417 102.135C184.036 102.512 186.572 103.33 188.917 104.554C190.833 105.513 192.631 106.69 194.276 108.062Z" fill="#2F2E41"/>
<path d="M154.852 246.081L159.426 246.505L163.28 228.736L156.529 228.11L154.852 246.081Z" fill="#C78F8F"/>
<path d="M168.024 253.046L161.227 247.374L161.535 244.111L159.954 244.06L155.057 243.901H155.052L153.851 243.86L151.812 255.286L155.247 255.603L156.155 252.432L157.423 255.807L159.24 255.976L166.514 256.651C166.576 256.656 166.643 256.661 166.704 256.661C166.994 256.662 167.279 256.601 167.543 256.483C167.807 256.365 168.042 256.192 168.234 255.976C168.532 255.651 168.714 255.238 168.752 254.8C168.782 254.47 168.732 254.139 168.605 253.833C168.478 253.528 168.278 253.257 168.024 253.046Z" fill="#2F2E41"/>
<path d="M180.277 185.737C178.536 195.172 171.17 217.297 166.714 230.246C164.687 236.163 163.27 240.168 163.27 240.168L160.96 239.441H160.955L157.048 238.214L155.626 237.764H155.621L153.896 237.217C153.896 237.217 154.097 226.651 154.117 216.463C154.133 212.193 154.112 207.984 154.03 204.649C153.938 201.013 153.778 198.41 153.517 197.893C152.433 195.776 154.246 195.551 156.16 195.019C158.08 194.482 156.581 193.674 155.837 191.956C155.334 190.81 156.324 189.281 157.028 188.411C157.222 188.167 157.429 187.933 157.649 187.711C157.649 187.711 157.31 187.593 156.704 187.388C158.532 185.056 160.103 182.995 160.103 182.995C160.103 182.995 160.133 181.891 160.18 180.131C160.246 177.528 160.344 173.483 160.447 169.432C160.441 169.427 160.441 169.427 160.447 169.427C160.483 167.903 160.518 166.379 160.555 164.932C163.491 167.177 166.345 169.376 168.932 171.412C168.935 171.414 168.938 171.417 168.939 171.421C168.941 171.424 168.942 171.428 168.942 171.432C175.159 176.326 179.825 180.254 180.482 181.502C180.78 182.064 180.677 183.568 180.277 185.737Z" fill="#2F2E41"/>
<path d="M168.656 89.6562L169.618 98.5458L169.053 110.203L194.968 107.135L197.403 89.6562L194.3 89.6869L168.656 89.6562Z" fill="#FFB6B6"/>
<path d="M190.701 60.9435L180.948 53.2722L175.828 52.9756L168.231 57.8243L166.371 67.2792L161.972 77.9262L168.424 106.659C168.424 106.659 169.03 108.721 167.444 108.968C165.858 109.216 166.048 112.255 166.048 112.255C166.048 112.255 166.371 114.889 164.831 115.121C163.291 115.353 159.184 115.353 162.778 119.956C166.371 124.559 194.792 107.15 194.792 107.15L198.92 85.571C198.92 85.571 206.925 74.8586 198.304 68.7234L190.701 60.9435Z" fill="white"/>
<path d="M148.122 126.181C147.693 125.646 147.386 125.025 147.223 124.36C147.061 123.694 147.047 123.002 147.182 122.33C147.317 121.659 147.598 121.025 148.006 120.474C148.414 119.923 148.938 119.467 149.541 119.14L161.809 78.1211L169.48 81.9688L156.12 121.285C156.605 122.331 156.688 123.519 156.354 124.622C156.019 125.726 155.29 126.668 154.304 127.272C153.318 127.875 152.144 128.098 151.005 127.897C149.866 127.695 148.84 127.085 148.122 126.181Z" fill="#C78F8F"/>
<path d="M169.99 57.4451C169.99 57.4451 167.797 56.284 166.298 61.3084C165.097 65.3308 155.353 89.29 155.229 95.1151C154.427 95.2844 153.704 95.7147 153.175 96.3382C152.646 96.9616 152.339 97.7429 152.305 98.5588L164.352 100.167C166.457 98.3982 167.009 96.009 166.195 95.2999L168.811 88.1823L179.723 65.5367L171.59 58.2563L169.99 57.4451Z" fill="white"/>
<path d="M234.366 112.698C234.521 112.031 234.528 111.338 234.386 110.668C234.244 109.998 233.956 109.368 233.543 108.821C233.129 108.274 232.601 107.824 231.994 107.502C231.387 107.181 230.717 106.996 230.031 106.96L201.888 74.9385L195.918 82.0354L225.03 111.729C225.046 112.882 225.487 113.988 226.267 114.839C227.048 115.69 228.115 116.226 229.266 116.345C230.417 116.464 231.571 116.159 232.511 115.487C233.451 114.815 234.111 113.822 234.366 112.698Z" fill="#C78F8F"/>
<path d="M184.81 60.1434C184.81 60.1434 186.284 58.1517 189.817 62.0358C192.646 65.1452 211.831 82.5504 214.471 87.7491C215.268 87.5563 216.106 87.6329 216.854 87.967C217.602 88.3011 218.217 88.8736 218.602 89.5943L208.438 96.235C205.772 95.547 204.237 93.6307 204.664 92.6404L199.216 87.3497L179.547 71.6326L183.72 61.5642L184.81 60.1434Z" fill="white"/>
<path d="M320.328 127.153C319.515 126.874 318.845 126.289 318.458 125.524C318.072 124.76 318 123.875 318.258 123.058C318.314 122.893 318.382 122.733 318.464 122.579L310.691 114.12L313.612 108.681L323.002 121.415C323.616 121.802 324.084 122.38 324.334 123.06C324.583 123.74 324.6 124.483 324.381 125.174C324.252 125.565 324.048 125.928 323.779 126.24C323.51 126.553 323.181 126.81 322.813 126.997C322.444 127.183 322.042 127.295 321.63 127.327C321.217 127.359 320.803 127.309 320.41 127.181C320.382 127.172 320.355 127.163 320.328 127.153Z" fill="#FFB6B6"/>
<path d="M270.497 62.9065C270.24 64.1008 270.212 65.3329 270.416 66.5374C270.47 66.8782 270.544 67.2156 270.638 67.5476C270.986 68.7885 271.317 69.932 271.636 70.9637C271.823 71.6045 272.016 72.2083 272.201 72.7687C273.264 76.0407 274.095 77.8931 274.684 78.2829C274.969 78.4736 275.256 78.6482 275.534 78.8187C276.959 79.6873 277.991 80.3168 277.301 81.9198C277.2 82.1489 277.081 82.3693 276.944 82.5788C276.716 82.9309 276.463 83.2669 276.188 83.5844C276.031 83.764 275.886 83.9537 275.754 84.1523C275.582 84.4058 275.508 84.6194 275.6 84.8129C275.717 85.0509 276.041 85.1692 276.736 85.2026C276.847 85.2075 276.973 85.2143 277.109 85.2139C277.153 85.2167 277.198 85.2149 277.249 85.2153C277.338 85.2165 277.44 85.2173 277.543 85.2134C278.401 85.1971 279.51 85.6475 280.696 86.3352C284.196 88.3663 288.321 92.4545 288.371 92.5054L314.124 118.741L314.626 118.406L315.818 117.608L316.23 117.334L316.7 117.019L318.749 115.653L319.784 114.964L313.141 102.813L312.418 101.493L311.798 100.353L299.117 77.1505L294.08 69.1737L292.955 67.3965L288.165 59.8177C287.489 58.7453 286.607 57.8162 285.57 57.0833C284.533 56.3504 283.362 55.8282 282.123 55.5464C280.883 55.2646 279.6 55.2288 278.347 55.441C277.094 55.6532 275.895 56.1092 274.818 56.7831C274.746 56.8286 274.674 56.8749 274.602 56.9223C272.507 58.3111 271.035 60.4568 270.497 62.9065Z" fill="white"/>
<path d="M272.205 246.243L267.487 246.203L265.398 227.649L272.362 227.708L272.205 246.243Z" fill="#FFB6B6"/>
<path d="M273.459 244.075L272.227 243.993L267.202 243.65L265.584 243.543L265.554 246.903L258.018 251.997C257.646 252.249 257.364 252.612 257.214 253.035C257.064 253.458 257.054 253.917 257.185 254.346C257.315 254.775 257.58 255.151 257.941 255.419C258.301 255.688 258.738 255.834 259.188 255.837L268.567 255.914L270.21 252.6L270.81 255.935L274.352 255.965L273.459 244.075Z" fill="#2F2E41"/>
<path d="M321.88 242.809L317.371 244.19L309.758 227.13L316.414 225.092L321.88 242.809Z" fill="#FFB6B6"/>
<path d="M322.422 240.367L321.221 240.659L316.329 241.84L314.753 242.224L315.744 245.441L310.102 252.56C309.824 252.912 309.665 253.343 309.65 253.791C309.634 254.239 309.763 254.68 310.017 255.05C310.271 255.42 310.637 255.699 311.061 255.847C311.486 255.995 311.946 256.005 312.377 255.874L321.344 253.127L321.904 249.471L323.49 252.468L326.873 251.429L322.422 240.367Z" fill="#2F2E41"/>
<path d="M262.717 90.2314L253.713 116.301L253.416 118.387C251.147 120.533 253.997 121.24 252.928 121.806C251.86 122.372 251.141 123.958 252.581 124.242C254.021 124.525 258.664 226.206 264.788 230.154C270.913 234.102 274.64 236.958 273.515 231.177C273.062 228.848 273.703 216.36 274.63 202.278C274.735 200.682 276.395 198.992 274.955 197.441C273.515 195.889 275.132 194.868 275.223 193.58C276.515 175.191 278.006 157.036 278.006 157.036C278.006 157.036 287.551 189.694 290.03 187.166C292.508 184.638 291.527 190.862 292.285 192.722C292.918 194.276 290.217 197.33 294.186 197.376C298.155 197.423 307.476 229.167 308.422 229.132C310.295 229.06 315.561 229.261 318.688 228.62C320.233 228.303 313.378 204.27 307.654 183.516C307.197 181.861 304.713 181.822 306.311 178.627C307.908 175.432 299.958 154.757 300.641 153.801C302.451 151.263 303.141 150.159 301.355 149.993C299.569 149.827 299.042 150.803 298.945 148.341C298.849 145.879 298.541 139.808 298.541 139.808C298.541 139.808 297.247 115.797 288.189 102.531L287.416 94.6492L262.717 90.2314Z" fill="#2F2E41"/>
<path d="M285.212 40.458L273.272 42.1519L272.551 50.7658L266.659 59.9485C266.659 59.9485 253.562 69.1312 262.696 83.6369C259.22 96.1326 255.764 108.116 252.47 116.106C249.903 131.96 272.897 133.48 299.183 127.869C299.183 127.869 298.82 121.09 296.435 117.831C294.049 114.572 295.348 113.86 295.348 113.86L293.681 107.772C294.624 98.9706 291.44 98.1808 289.943 94.1146L294.487 51.9248L285.212 40.458Z" fill="white"/>
<path d="M227.891 114.202C228.018 113.355 228.471 112.591 229.154 112.072C229.838 111.553 230.698 111.32 231.551 111.423C231.724 111.446 231.895 111.484 232.062 111.536L238.978 102.369L244.882 104.229L234.044 115.766C233.776 116.439 233.291 117.004 232.666 117.373C232.041 117.742 231.311 117.895 230.589 117.807C229.761 117.699 229.011 117.267 228.502 116.607C227.994 115.946 227.769 115.112 227.879 114.287C227.882 114.259 227.886 114.23 227.891 114.202Z" fill="#FFB6B6"/>
<path d="M289.321 57.1291C289.152 56.9193 288.967 56.7148 288.772 56.5153C287.416 55.1231 285.67 54.1712 283.762 53.7843C281.854 53.3974 279.874 53.5935 278.079 54.3469C277.905 54.4184 277.73 54.5003 277.561 54.5822C271.427 57.5841 268.116 59.5838 267.715 60.5198C267.577 60.8369 267.459 61.1488 267.341 61.4505C267.228 61.7471 267.12 62.0283 267.007 62.284C266.535 63.3785 265.991 64.0588 264.604 63.7519C264.145 63.6399 263.702 63.4698 263.285 63.2457C263.095 63.1536 262.921 63.0564 262.756 62.9643C262.161 62.6371 261.73 62.4019 261.437 62.6167C261.155 62.8262 261.145 63.3581 261.401 64.5907C261.486 65.1051 261.472 65.6309 261.36 66.1402C261.021 67.6258 260.489 69.0613 259.779 70.4106C258.715 72.5258 257.518 74.5722 256.196 76.5375L243.984 93.885L243.158 95.0562L242.254 96.34L235.047 106.579L235.473 107.013L237.259 108.829L237.655 109.233L238.014 109.601L238.943 110.547L239.816 111.432L259.286 95.629L261.458 93.8645L265.349 90.7041L273.321 84.2346L288.408 70.3237C289.36 69.4526 290.126 68.3989 290.66 67.2256C291.193 66.0524 291.484 64.7839 291.513 63.4962C291.513 63.4093 291.518 63.3274 291.518 63.2405C291.524 61.0103 290.747 58.8485 289.321 57.1291Z" fill="white"/>
<path d="M278.042 40.1444C285.41 40.1444 291.384 34.1929 291.384 26.8515C291.384 19.51 285.41 13.5586 278.042 13.5586C270.673 13.5586 264.699 19.51 264.699 26.8515C264.699 34.1929 270.673 40.1444 278.042 40.1444Z" fill="#FFB6B6"/>
<path d="M295.725 45.2844C297.516 47.8377 298.713 50.756 299.232 53.8278C297.788 54.7476 296.109 55.2307 294.396 55.2186C294.337 54.9951 294.279 54.7715 294.213 54.548C293.716 52.8172 292.978 51.1646 292.019 49.6389C292.151 51.2841 291.927 52.9383 291.363 54.4901C290.457 54.0802 289.487 53.8309 288.496 53.7533C287.688 53.7532 286.892 53.9403 286.169 54.2996C285.33 51.5264 284.557 48.9766 284.009 47.1471C283.992 51.7334 277.245 55.7318 269.883 55.1524C269.617 54.9868 272.285 47.4451 272.027 47.2712C271.437 46.8822 270.864 46.46 270.29 46.046C272.7 42.3373 275.317 38.3636 274.869 37.7676C274.902 38.5044 272.26 42.0476 269.385 45.392C267.789 44.2248 276.855 25.234 272.376 23.6942C272.301 24.3648 271.312 24.3648 270.107 24.2241C269.79 23.1177 269.317 22.0614 268.703 21.0865C268.783 22.0686 268.664 23.0567 268.354 23.9923C267.164 23.9926 265.978 24.1174 264.814 24.3648C264.545 23.9427 264.248 23.539 263.925 23.1561C263.957 23.6227 263.943 24.0913 263.884 24.5552C262.696 24.8118 261.715 25.1098 261.574 25.3499C260.643 25.0105 262.23 23.479 261.649 22.6842C260.17 20.6974 262.363 17.8 263.751 15.7469C266.601 11.5415 272.858 10.0845 277.287 12.6094C277.486 11.9222 278.508 11.4669 279.821 11.1606C280.377 11.0385 280.947 10.9856 281.516 11.0033C287.166 11.1027 295.01 15.7469 295.318 21.368C295.343 21.9309 295.384 22.5435 295.426 23.1975C295.825 29.4892 295.335 35.2924 299.647 39.8952C301.209 41.5591 301.226 49.4402 300.628 53.4967C299.074 51.8658 297.968 45.5245 295.725 45.2844Z" fill="#2F2E41"/>
<path d="M166.961 32.3793C165.789 35.2873 162.483 41.0061 162.035 44.1258L162.237 43.9283C162.621 44.5827 163.058 45.2051 163.543 45.7894C164.413 44.8797 165.463 44.1603 166.627 43.6771C165.991 44.9764 165.623 46.3892 165.544 47.8324C166.792 51.7291 172.56 49.9938 175.94 49.5683C179.315 53.4146 183.806 54.4183 189.686 52.207C191.33 52.3757 193.171 52.478 194.324 51.5099C195.476 50.5418 194.79 48.7489 195.41 47.3928C199.826 37.7335 195.75 34.2485 192.288 29.8687C191.526 28.9048 191.529 27.4665 190.601 26.5468C189.315 25.2721 187.343 24.8801 185.524 24.566C185.997 24.5908 186.467 24.494 186.891 24.285C187.315 24.076 187.678 23.7618 187.945 23.3726C188.179 22.9805 188.3 22.5317 188.294 22.0756C188.288 21.6195 188.156 21.1738 187.912 20.7878C187.262 19.7137 185.91 19.0891 184.607 18.933C183.322 18.8461 182.032 18.9566 180.781 19.2606C179.971 19.3668 179.187 19.6166 178.465 19.9983C178.125 20.1793 177.848 20.4596 177.671 20.8016C177.495 21.1437 177.427 21.5312 177.478 21.9124C177.587 22.2645 177.774 22.5875 178.025 22.8575C178.277 23.1275 178.586 23.3375 178.93 23.4717C179.455 23.6928 180.007 23.8433 180.572 23.9194C177.978 23.5841 175.343 24.0436 173.018 25.2367C170.104 26.7853 168.137 29.4728 166.961 32.3793Z" fill="#2F2E41"/>
<path d="M182.741 48.6822C188.494 48.6822 193.158 44.0358 193.158 38.304C193.158 32.5723 188.494 27.9258 182.741 27.9258C176.988 27.9258 172.324 32.5723 172.324 38.304C172.324 44.0358 176.988 48.6822 182.741 48.6822Z" fill="#C78F8F"/>
<path d="M172.72 32.7398C173.324 34.5585 175.05 35.1445 176.645 35.51C177.148 35.6268 177.655 35.7356 178.165 35.8325C178.354 35.5977 178.554 35.3677 178.764 35.1502C179.633 34.2405 180.683 33.5211 181.847 33.0379C181.344 34.0642 181.009 35.1644 180.856 36.2964C181.821 36.4358 182.791 36.5497 183.766 36.6381C184.591 36.8131 185.452 36.6656 186.171 36.2261C186.889 35.7866 187.411 35.0887 187.629 34.2767C188.516 35.723 189.566 37.085 191.001 37.6595C191.822 37.9533 192.716 37.9775 193.551 37.7284C194.387 37.4794 195.121 36.9702 195.645 36.2755C196.472 35.1423 197.046 33.8454 197.327 32.4723C197.735 30.8618 197.961 29.0066 197.161 27.9848C196.52 27.1578 195.415 27.143 194.395 27.2164C192.145 27.3884 189.917 27.7906 187.749 28.4168L187.566 28.828C187.938 26.5978 187.13 24.452 185.635 23.6889C184.626 23.1786 183.412 23.2642 182.233 23.3677C180.719 23.435 179.222 23.7234 177.792 24.2235C176.15 24.8524 174.744 25.9712 173.766 27.4267C172.719 29.01 172.199 31.1692 172.72 32.7398Z" fill="#2F2E41"/>
<path d="M187.567 23.0398C187.464 23.0096 187.73 23.0484 187.638 23.0509C187.684 23.0482 187.729 23.0419 187.774 23.0319C187.782 23.0303 187.886 22.9974 187.817 23.0216C187.971 22.9755 188.109 22.8858 188.214 22.7632C188.459 22.4618 188.651 22.1214 188.782 21.7564C188.947 21.274 189.214 20.832 189.563 20.4593C189.662 20.3601 189.783 20.2857 189.916 20.2419C190.05 20.1981 190.192 20.1863 190.33 20.2075C190.469 20.2286 190.601 20.282 190.715 20.3634C190.83 20.4448 190.923 20.5519 190.988 20.676C191.12 21.1548 191.074 21.6647 190.861 22.1131C190.711 22.5694 190.489 22.9987 190.203 23.3844C189.722 24.0152 189.069 24.4932 188.32 24.7602C187.455 25.0735 186.51 25.1004 185.628 24.8369C185.511 24.7887 185.411 24.7077 185.34 24.6039C185.269 24.5001 185.229 24.3779 185.227 24.2522C185.224 24.1265 185.258 24.0027 185.325 23.8959C185.391 23.7891 185.488 23.7039 185.602 23.6507L187.074 23.0505C187.151 23.0162 187.235 22.9975 187.319 22.9953C187.404 22.9932 187.488 23.0077 187.567 23.0381C187.646 23.0684 187.719 23.114 187.78 23.1722C187.841 23.2304 187.89 23.3001 187.925 23.3773C187.959 23.4545 187.978 23.5376 187.98 23.622C187.982 23.7064 187.967 23.7903 187.937 23.869C187.906 23.9477 187.86 24.0197 187.802 24.0807C187.743 24.1418 187.673 24.1907 187.596 24.2248L187.593 24.226L186.121 24.8261L186.095 23.6399C186.279 23.6928 186.468 23.725 186.658 23.7359C186.862 23.7562 187.068 23.7476 187.269 23.7103C187.461 23.6851 187.651 23.6391 187.833 23.5731C187.95 23.5306 188.065 23.4821 188.177 23.428C188.218 23.4083 188.258 23.3878 188.298 23.3666C188.295 23.3682 188.466 23.2688 188.391 23.3155C188.582 23.1943 188.76 23.0557 188.925 22.9015C188.983 22.8468 189.036 22.7875 189.085 22.7241C189.169 22.6215 189.246 22.5141 189.318 22.4024C189.463 22.166 189.577 21.9125 189.659 21.6477C189.697 21.5365 189.728 21.4233 189.754 21.3088C189.761 21.2459 189.773 21.1836 189.788 21.1223C189.843 20.9762 189.778 21.2076 189.841 21.2709L190.112 21.4701C190.163 21.4852 190.217 21.4887 190.269 21.4803C190.322 21.472 190.371 21.4519 190.415 21.4217C190.447 21.3767 190.44 21.3841 190.394 21.4441C190.34 21.5148 190.291 21.5887 190.247 21.6655C190.15 21.8464 190.062 22.0321 189.983 22.2218C189.821 22.6254 189.617 23.0106 189.373 23.3708C189.134 23.7352 188.785 24.0151 188.377 24.1706C187.969 24.326 187.522 24.3492 187.1 24.2367C186.941 24.1739 186.814 24.0515 186.745 23.896C186.677 23.7405 186.672 23.5644 186.733 23.4055C186.797 23.249 186.92 23.1235 187.076 23.0554C187.231 22.9872 187.407 22.9816 187.567 23.0398Z" fill="#2F2E41"/>
</svg>
