<svg width="598" height="445" viewBox="0 0 598 445" fill="none" xmlns="http://www.w3.org/2000/svg">
<g clip-path="url(#clip0_2470_41572)">
<path d="M223.779 74.7959C241.373 89.5231 260.986 77.1931 279.785 76.2511C288.503 75.8142 297.203 77.9166 305.795 79.4851C313.95 80.9737 322.076 83.139 329.531 86.8317C337.658 90.7155 344.57 96.7449 349.522 104.27C350.506 105.808 351.99 104.672 351.979 102.833C351.86 83.3106 343.422 84.8915 334.612 86.3313C326.236 87.7001 319.116 79.3854 310.85 77.5961C302.201 75.8551 293.46 74.609 284.669 73.8638C275.139 72.9172 265.585 72.275 256.007 71.9372C245.268 71.5583 234.525 71.5626 223.778 71.9503C221.953 72.0152 221.945 74.8611 223.779 74.7959Z" fill="#3F3D56"/>
<path d="M164.434 231.853C164.685 232.123 164.822 232.479 164.815 232.848C164.809 233.217 164.66 233.568 164.399 233.829C164.138 234.09 163.787 234.239 163.418 234.245C163.05 234.252 162.693 234.115 162.424 233.864C150.798 223.895 139.173 213.932 127.547 203.976C127.534 203.96 127.518 203.948 127.5 203.938C126.693 203.332 125.929 202.669 125.215 201.956C114.395 200.694 102.504 196.521 91.2394 194.709C81.2924 196.189 71.3739 197.953 61.3984 199.262C52.7071 200.47 43.9449 201.098 35.1701 201.14C28.0299 201.102 30.0957 182.792 23.6192 179.415C16.8867 175.905 3.38522 187.263 1.65942 180.168C0.806736 176.536 0.251757 172.84 0 169.118V145.983C0.91979 135.91 16.9531 139.018 24.5675 131.989C35.9937 121.441 39.8734 96.6981 54.4952 96.4041C71.9201 96.0364 89.3505 96.8 106.677 98.69C120.805 100.246 135.664 101.754 148.731 107.777C154.335 110.366 159.617 125.343 163.476 130.209C167.881 135.894 170.373 142.826 170.597 150.015C171.29 165.276 164.348 179.239 160.546 193.647C157.246 206.12 155.388 221.239 164.434 231.853Z" fill="#F2F2F2"/>
<path d="M128.868 205.437C140.655 215.542 152.442 225.646 164.232 235.747C164.502 235.999 164.858 236.136 165.227 236.129C165.596 236.123 165.948 235.974 166.209 235.713C166.47 235.452 166.619 235.1 166.625 234.731C166.632 234.362 166.495 234.005 166.243 233.735C157.198 223.129 159.056 208.009 162.354 195.529C166.161 181.12 173.102 167.163 172.407 151.905C172.187 144.714 169.693 137.779 165.284 132.097C161.298 127.315 156.25 123.531 150.543 121.048C137.476 115.025 122.62 113.51 108.485 111.959C91.1613 110.067 73.7329 109.302 56.3099 109.669C41.6838 109.97 24.5744 110.237 13.1489 120.788C2.74356 130.397 1.32235 145.507 1.42269 158.848C1.48082 166.577 1.62906 174.516 3.46591 182.059C5.1926 189.149 8.93707 196.056 15.6717 199.564C22.1494 202.939 29.8452 202.992 36.9787 203.026C45.7534 202.989 54.5156 202.36 63.2057 201.143C80.5983 198.868 97.8249 195.192 115.358 194.081C119.649 193.809 123.952 193.688 128.251 193.778C130.082 193.816 130.082 190.971 128.251 190.933C111.203 190.576 94.3303 193.505 77.5568 196.172C61.3328 198.751 44.7476 201.183 28.2797 199.878C24.6696 199.709 21.1199 198.887 17.8024 197.453C14.5984 195.93 11.8873 193.536 9.97917 190.545C5.69195 183.866 4.87966 175.5 4.50932 167.709C4.08685 160.965 4.14942 154.201 4.69655 147.467C5.32839 140.937 6.84999 134.314 10.3258 128.677C18.2543 115.819 34.2845 110.469 47.9657 112.779C63.372 115.38 75.1566 127.698 98.6658 113.855C106.045 109.509 115.716 115.557 124.183 116.834C130.512 117.707 136.754 119.12 142.841 121.058C148.698 122.846 154.155 125.748 158.913 129.604C163.893 133.817 167.36 139.543 168.785 145.909C172.051 160.571 165.579 175.205 161.302 188.925C157.489 201.156 154.237 215.52 159.37 227.86C160.567 230.728 162.208 233.39 164.232 235.747L166.243 233.735C154.457 223.63 142.669 213.526 130.88 203.425C129.497 202.239 127.476 204.243 128.868 205.437Z" fill="#E6E6E6"/>
<path d="M78.6466 139.231H35.7668C35.3733 139.231 34.9959 139.074 34.7177 138.796C34.4395 138.518 34.2832 138.14 34.2832 137.747C34.2832 137.353 34.4395 136.976 34.7177 136.697C34.9959 136.419 35.3733 136.263 35.7668 136.263H78.6466C79.0401 136.263 79.4174 136.419 79.6957 136.697C79.9739 136.976 80.1302 137.353 80.1302 137.747C80.1302 138.14 79.9739 138.518 79.6957 138.796C79.4174 139.074 79.0401 139.231 78.6466 139.231Z" fill="white"/>
<path d="M78.6466 170.877H35.7668C35.5719 170.877 35.379 170.839 35.199 170.764C35.019 170.69 34.8555 170.58 34.7177 170.443C34.5799 170.305 34.4707 170.141 34.3961 169.961C34.3216 169.781 34.2832 169.588 34.2832 169.393C34.2832 169.198 34.3216 169.005 34.3961 168.825C34.4707 168.645 34.5799 168.482 34.7177 168.344C34.8555 168.206 35.019 168.097 35.199 168.022C35.379 167.948 35.5719 167.909 35.7668 167.909H78.6466C79.0401 167.909 79.4174 168.066 79.6957 168.344C79.9739 168.622 80.1302 169 80.1302 169.393C80.1302 169.787 79.9739 170.164 79.6957 170.443C79.4174 170.721 79.0401 170.877 78.6466 170.877Z" fill="white"/>
<path d="M113.472 155.065H35.7668C35.3733 155.065 34.9959 154.908 34.7177 154.63C34.4395 154.352 34.2832 153.974 34.2832 153.581C34.2832 153.187 34.4395 152.81 34.7177 152.531C34.9959 152.253 35.3733 152.097 35.7668 152.097H113.472C113.865 152.097 114.243 152.253 114.521 152.531C114.799 152.81 114.955 153.187 114.955 153.581C114.955 153.974 114.799 154.352 114.521 154.63C114.243 154.908 113.865 155.065 113.472 155.065Z" fill="white"/>
<path d="M211.846 303.94C212.097 304.21 212.234 304.567 212.227 304.935C212.221 305.304 212.071 305.656 211.811 305.916C211.55 306.177 211.199 306.326 210.83 306.333C210.462 306.339 210.105 306.203 209.835 305.951C198.21 295.982 186.585 286.02 174.959 276.063C174.946 276.048 174.93 276.035 174.912 276.025C174.104 275.419 173.341 274.757 172.626 274.043C161.807 272.782 149.916 268.608 138.651 266.796C128.704 268.276 116.889 279.525 106.914 280.834C98.2224 282.043 89.4602 282.67 80.6854 282.713C73.5452 282.675 75.611 259.622 69.1345 256.245C62.402 252.736 50.797 259.35 49.0712 252.256C48.1893 248.642 43.8352 244.933 43.5508 241.205V218.071C44.4706 207.997 51.1383 198.019 58.7527 190.991C70.179 180.443 87.2851 180.168 101.907 179.874C119.332 179.506 136.762 180.27 154.088 182.16C168.217 183.715 183.076 185.223 196.143 191.247C201.85 193.732 206.899 197.516 210.888 202.297C215.292 207.981 217.785 214.914 218.009 222.102C218.701 237.364 211.76 251.326 207.958 265.734C204.658 278.207 202.799 293.326 211.846 303.94Z" fill="#F2F2F2"/>
<path d="M176.281 277.525C188.067 287.63 199.855 297.734 211.644 307.835C211.914 308.087 212.271 308.224 212.639 308.217C213.008 308.211 213.36 308.061 213.621 307.801C213.882 307.54 214.031 307.188 214.037 306.819C214.044 306.45 213.907 306.093 213.655 305.823C204.61 295.217 206.469 280.097 209.766 267.617C213.573 253.208 220.514 239.25 219.819 223.992C219.599 216.802 217.105 209.867 212.696 204.184C208.71 199.403 203.662 195.619 197.955 193.136C184.889 187.113 170.032 185.598 155.897 184.047C138.573 182.155 121.145 181.39 103.722 181.757C89.0959 182.058 71.9865 182.325 60.561 192.876C50.1557 202.485 48.7345 217.595 48.8348 230.935C48.8929 238.665 49.0412 246.603 50.878 254.147C52.6047 261.237 56.3492 268.144 63.0838 271.652C69.5615 275.027 77.2573 275.08 84.3908 275.114C93.1655 275.077 101.928 274.448 110.618 273.231C128.01 270.955 145.237 267.28 162.77 266.169C167.061 265.897 171.364 265.776 175.663 265.866C177.494 265.904 177.494 263.059 175.663 263.02C158.615 262.664 141.742 265.593 124.969 268.259C108.745 270.839 92.1597 273.271 75.6918 271.966C72.0817 271.797 68.532 270.975 65.2145 269.541C62.0105 268.018 59.2994 265.624 57.3913 262.633C53.1041 255.954 52.2918 247.588 51.9214 239.796C51.499 233.053 51.5615 226.289 52.1087 219.554C52.7405 213.025 54.2621 206.402 57.7379 200.765C65.6664 187.907 83.7419 177.307 95.3778 184.866C108.672 193.504 125.675 193.877 146.078 185.943C154.059 182.839 163.128 187.644 171.596 188.922C177.924 189.795 184.166 191.208 190.253 193.146C196.11 194.934 201.567 197.836 206.325 201.692C211.305 205.905 214.772 211.631 216.198 217.997C219.463 232.659 212.991 247.293 208.714 261.013C204.901 273.243 201.649 287.607 206.782 299.948C207.979 302.816 209.62 305.477 211.644 307.835L213.655 305.823C201.869 295.718 190.081 285.614 178.292 275.513C176.909 274.327 174.888 276.331 176.281 277.525Z" fill="#E6E6E6"/>
<path d="M126.059 211.319H83.1789C82.7854 211.319 82.408 211.162 82.1298 210.884C81.8516 210.606 81.6953 210.228 81.6953 209.835C81.6953 209.441 81.8516 209.064 82.1298 208.785C82.408 208.507 82.7854 208.351 83.1789 208.351H126.059C126.452 208.351 126.83 208.507 127.108 208.785C127.386 209.064 127.542 209.441 127.542 209.835C127.542 210.228 127.386 210.606 127.108 210.884C126.83 211.162 126.452 211.319 126.059 211.319Z" fill="white"/>
<path d="M126.059 242.965H83.1789C82.7854 242.965 82.408 242.809 82.1298 242.53C81.8516 242.252 81.6953 241.875 81.6953 241.481C81.6953 241.087 81.8516 240.71 82.1298 240.432C82.408 240.153 82.7854 239.997 83.1789 239.997H126.059C126.452 239.997 126.83 240.153 127.108 240.432C127.386 240.71 127.542 241.087 127.542 241.481C127.542 241.875 127.386 242.252 127.108 242.53C126.83 242.809 126.452 242.965 126.059 242.965Z" fill="white"/>
<path d="M160.884 227.153H83.1789C82.7854 227.153 82.408 226.996 82.1298 226.718C81.8516 226.44 81.6953 226.062 81.6953 225.669C81.6953 225.275 81.8516 224.898 82.1298 224.619C82.408 224.341 82.7854 224.185 83.1789 224.185H160.884C161.277 224.185 161.655 224.341 161.933 224.619C162.211 224.898 162.368 225.275 162.368 225.669C162.368 226.062 162.211 226.44 161.933 226.718C161.655 226.996 161.277 227.153 160.884 227.153Z" fill="white"/>
<path d="M445.578 356.562H325.746C324.646 356.562 323.591 356.125 322.814 355.347C322.036 354.57 321.6 353.515 321.6 352.415C321.6 351.315 322.036 350.26 322.814 349.482C323.591 348.705 324.646 348.268 325.746 348.268H445.578C446.677 348.268 447.732 348.705 448.509 349.482C449.287 350.26 449.724 351.315 449.724 352.415C449.724 353.515 449.287 354.57 448.509 355.347C447.732 356.125 446.677 356.562 445.578 356.562Z" fill="#F2F2F2"/>
<path d="M445.578 444.999H325.746C324.646 444.999 323.591 444.563 322.814 443.785C322.036 443.007 321.6 441.952 321.6 440.852C321.6 439.752 322.036 438.698 322.814 437.92C323.591 437.142 324.646 436.705 325.746 436.705H445.578C446.677 436.705 447.732 437.142 448.509 437.92C449.287 438.698 449.724 439.752 449.724 440.852C449.724 441.952 449.287 443.007 448.509 443.785C447.732 444.563 446.677 444.999 445.578 444.999Z" fill="#F2F2F2"/>
<path d="M542.901 400.81H325.746C325.201 400.811 324.661 400.704 324.157 400.496C323.654 400.288 323.196 399.983 322.81 399.598C322.425 399.212 322.119 398.755 321.91 398.251C321.701 397.748 321.594 397.208 321.594 396.663C321.594 396.118 321.701 395.578 321.91 395.074C322.119 394.571 322.425 394.113 322.81 393.728C323.196 393.343 323.654 393.038 324.157 392.83C324.661 392.621 325.201 392.515 325.746 392.516H542.901C543.999 392.517 545.052 392.955 545.829 393.733C546.605 394.51 547.041 395.564 547.041 396.663C547.041 397.762 546.605 398.816 545.829 399.593C545.052 400.371 543.999 400.808 542.901 400.81Z" fill="#F2F2F2"/>
<path d="M258.109 396.153L264.918 402.562L293.422 378.761L283.374 369.302L258.109 396.153Z" fill="#FFB6B6"/>
<path d="M270.505 423.868L266.722 406.222L271.307 401.349L268.839 399.284L261.175 392.896L259.301 391.325L241.672 407.185L246.782 411.99L252.229 408.027L250.019 415.043L263.553 427.788C264.202 428.398 265.029 428.786 265.914 428.893C266.798 429.001 267.694 428.822 268.47 428.385C269.246 427.947 269.862 427.273 270.228 426.46C270.595 425.648 270.691 424.739 270.505 423.868Z" fill="#2F2E41"/>
<path d="M224.922 420.937L234.164 422.343L244.102 386.556L230.461 384.482L224.922 420.937Z" fill="#FFB6B6"/>
<path d="M250.865 436.698L237.729 424.328L238.734 417.712L235.53 417.415L225.595 416.514L223.16 416.287L217.662 439.358L224.597 440.408L226.828 434.05L228.994 441.08L247.371 443.875C248.251 444.009 249.152 443.858 249.941 443.443C250.73 443.029 251.366 442.373 251.756 441.572C252.146 440.771 252.27 439.866 252.11 438.989C251.949 438.112 251.513 437.31 250.865 436.698Z" fill="#2F2E41"/>
<path d="M313.838 166.716L340.344 214.203C340.344 214.203 339.238 311.867 342.761 315.489C346.283 319.112 349.473 322.361 346.283 322.331C343.094 322.302 344.123 345.406 344.123 345.406L285.332 390.935L271.108 379.553L306.792 335.495L287.085 245.312C287.085 245.312 272.928 330.597 270.376 333.149C267.825 335.701 266.285 335.683 268.969 338.245C271.652 340.806 268.969 346.599 268.969 346.599L240.998 404.668L225.826 402.754C225.826 402.754 228.456 355.348 237.616 334.997V238.822C236.926 247.067 269.195 163.608 249.462 169.872C255.705 167.89 313.838 166.716 313.838 166.716Z" fill="#2F2E41"/>
<path d="M301.68 53.5498H279.768L276.666 65.9629L259.818 70.6232C259.818 70.6232 251.484 125.903 258.483 130.362C265.482 134.821 260.602 148.769 260.602 148.769C260.602 148.769 243.172 167.598 245.264 170.388C247.355 173.177 251.598 168.933 246.688 173.845C241.778 178.757 238.989 178.059 240.383 179.454C241.246 180.339 241.914 181.393 242.346 182.551L236.332 198.214C236.332 198.214 268.271 204.56 284.306 195.494C300.341 186.428 335.897 203.863 335.897 203.863C335.897 203.863 334.068 194.709 332.543 193.358C331.017 192.007 327.46 195.422 329.935 190.925C332.411 186.428 334.503 188.52 332.411 186.428C330.32 184.336 321.256 156.44 321.256 156.44C321.256 156.44 314.285 141.097 321.954 134.821C329.623 128.544 332.543 107.958 332.543 107.958L323.349 70.6232L308.01 67.174L301.68 53.5498Z" fill="#E6E6E6"/>
<path d="M214.939 196.08L220.202 174.979L208.571 170.29L203.801 192.797C202.712 193.603 201.87 194.696 201.369 195.954C200.867 197.212 200.727 198.585 200.963 199.919C201.199 201.253 201.802 202.494 202.705 203.503C203.608 204.513 204.774 205.25 206.073 205.633C207.371 206.016 208.751 206.029 210.057 205.67C211.362 205.311 212.542 204.596 213.463 203.603C214.385 202.611 215.011 201.381 215.271 200.052C215.532 198.723 215.417 197.347 214.939 196.08Z" fill="#FFB6B6"/>
<path d="M266.061 69.2123L265.714 69.1525C262.485 68.5976 259.169 68.8383 256.054 69.8538C252.939 70.8693 250.118 72.629 247.836 74.9805C241.879 81.1117 215.284 126.708 216.241 134.328C217.134 141.435 217.478 139.854 214.229 143.483C210.98 147.111 209.744 141.585 209.694 149.14C209.644 156.694 212.529 156.629 209.462 158.476C206.395 160.323 204.367 159.036 204.927 164.133C205.487 169.23 204.63 170.582 204.448 172.364C204.267 174.145 199.863 185.575 199.863 185.575C199.863 185.575 212.824 189.057 218.05 194.269C218.05 194.269 218.645 181.371 221.283 180.2C223.922 179.029 226.379 179.639 225.637 176.324C224.895 173.009 221.086 171.54 225.753 171.656C230.419 171.772 237.627 146.948 237.627 146.948L268.794 90.0665L266.061 69.2123Z" fill="#E6E6E6"/>
<path d="M336.398 206.533L337.335 184.805L349.818 183.608L348.011 206.545C348.826 207.626 349.324 208.914 349.447 210.262C349.571 211.611 349.317 212.967 348.712 214.179C348.108 215.391 347.177 216.41 346.026 217.122C344.874 217.834 343.546 218.21 342.192 218.209C340.838 218.207 339.512 217.828 338.361 217.114C337.211 216.4 336.283 215.379 335.681 214.165C335.079 212.952 334.827 211.595 334.954 210.247C335.081 208.898 335.581 207.612 336.398 206.533Z" fill="#FFB6B6"/>
<path d="M323.349 70.3711L323.698 70.4123C326.952 70.7963 330.063 71.9678 332.763 73.8254C335.462 75.683 337.668 78.1707 339.189 81.0732C343.164 88.6429 355.737 139.912 352.659 146.948C349.788 153.509 349.906 151.896 351.993 156.297C354.079 160.698 356.832 155.75 354.738 163.009C352.643 170.267 349.895 169.385 352.312 172.027C354.73 174.668 357.04 174.01 355.057 178.739C353.075 183.467 353.513 185.007 353.182 186.767C352.851 188.527 353.833 200.737 353.833 200.737C353.833 200.737 340.418 200.398 333.928 203.914C333.928 203.914 337.015 191.376 334.817 189.505C332.619 187.633 330.09 187.522 331.741 184.553C333.392 181.584 337.461 181.257 332.954 180.044C328.446 178.831 328.573 152.982 328.573 152.982L314.814 89.5935L323.349 70.3711Z" fill="#E6E6E6"/>
<path d="M240.935 38.9037C240.762 46.3855 243.557 53.63 247.572 59.9931C248.914 56.2983 250.792 52.8215 253.147 49.6746C252.02 56.6467 253.221 63.7961 256.565 70.0165C256.683 70.1009 256.805 70.1792 256.93 70.2512C260.204 72.2207 264.353 73.0184 267.894 71.5959C260.578 63.7075 259.647 50.6376 265.781 41.7896C267.517 39.2789 269.763 37.0584 270.839 34.2012C272.537 29.6424 270.904 24.623 269.875 19.87C268.912 15.4463 268.743 10.1822 271.71 6.94018C271.393 6.48712 270.961 6.12648 270.459 5.89523C269.957 5.66397 269.403 5.57041 268.853 5.62413C267.023 5.8826 265.692 7.47306 264.844 9.11115C263.996 10.7492 263.436 12.5647 262.254 13.9795C260.066 16.6277 256.339 17.2538 253.198 18.6495C245.591 22.0387 241.118 30.5786 240.935 38.9037Z" fill="#2F2E41"/>
<path d="M304.965 34.6258C304.531 33.104 307.527 42.4069 306.081 42.5748C299.496 43.3305 290.457 47.2643 285.87 49.0995C285.664 49.0755 285.457 49.0515 285.257 49.0216C284.765 48.9676 284.285 48.8896 283.811 48.7997C273.132 46.7785 269.025 30.3691 269.025 30.2192C269.025 29.4815 270.795 9.22045 273.584 8.92058C274.316 8.84109 275.052 8.80105 275.789 8.80062H282.708C284.139 8.49201 285.591 8.28161 287.051 8.17089H287.063C300.992 7.10932 311.975 15.6018 310.948 25.9355C310.942 25.9474 310.93 25.9594 310.924 25.9714C310.626 26.4153 310.365 26.8351 310.134 27.2369C309.91 27.6148 309.721 27.9746 309.557 28.3165C308.288 30.9554 311.551 34.2759 309.387 34.8957C306.509 35.7201 316.957 62.8141 305.565 62.8141C311.106 64.39 306.165 38.8241 304.965 34.6258Z" fill="#2F2E41"/>
<path d="M292.532 50.5239C301.579 50.5239 308.913 43.1874 308.913 34.1374C308.913 25.0874 301.579 17.751 292.532 17.751C283.485 17.751 276.15 25.0874 276.15 34.1374C276.15 43.1874 283.485 50.5239 292.532 50.5239Z" fill="#FFB6B6"/>
<path d="M310.949 26.8295C310.675 26.9735 310.408 27.1054 310.135 27.2374C309.849 27.3753 309.564 27.5133 309.278 27.6392C303.793 30.1282 299.328 30.4041 296.619 26.8296C296.546 24.9487 296.124 23.0979 295.373 21.3718C295.506 23.3007 294.998 25.2194 293.928 26.8296H288.473C282.854 30.56 279.968 30.9499 283.868 43.1967C284.955 46.6093 289.279 66.467 287.578 69.4118C287.086 69.3578 281.851 47.6075 281.377 47.5175C270.698 45.4964 263.913 27.8971 264.782 26.9015C264.777 24.0704 265.428 21.2766 266.683 18.739C268.271 15.5239 270.745 12.8308 273.815 10.9782C275.644 10.0908 277.551 9.37409 279.513 8.8371C279.561 8.82509 279.604 8.81307 279.652 8.8011C280.254 8.63916 280.867 8.48922 281.481 8.36327C282.748 8.09556 284.03 7.90133 285.32 7.78153C285.411 7.77553 285.502 7.76953 285.587 7.76953C286.102 7.77074 286.608 7.90945 287.051 8.17137C287.057 8.17137 287.057 8.17735 287.063 8.17735C287.38 8.36261 287.657 8.60934 287.877 8.90305C288.265 9.39723 288.475 10.008 288.473 10.6363H294.547C294.772 10.6363 294.997 10.6423 295.221 10.6543C299.276 10.7929 303.132 12.4399 306.037 15.2729C308.941 18.106 310.684 21.9212 310.924 25.9719C310.943 26.2598 310.949 26.5416 310.949 26.8295Z" fill="#2F2E41"/>
<path d="M275.13 21.591C281.091 21.591 285.922 16.7577 285.922 10.7955C285.922 4.83331 281.091 0 275.13 0C269.17 0 264.338 4.83331 264.338 10.7955C264.338 16.7577 269.17 21.591 275.13 21.591Z" fill="#2F2E41"/>
<path d="M377.678 336.055C378.119 336.076 378.555 335.96 378.928 335.724C379.301 335.488 379.592 335.143 379.762 334.735C379.932 334.328 379.973 333.879 379.879 333.447C379.786 333.016 379.562 332.624 379.238 332.324L379.09 331.738C379.11 331.691 379.129 331.644 379.149 331.597C379.593 330.548 380.337 329.654 381.287 329.026C382.238 328.399 383.353 328.066 384.492 328.071C385.63 328.075 386.743 328.415 387.689 329.05C388.635 329.685 389.372 330.585 389.808 331.637C391.552 335.837 393.771 340.045 394.318 344.486C394.558 346.449 394.457 348.438 394.018 350.367C398.113 341.432 400.239 331.721 400.252 321.891C400.253 319.425 400.116 316.96 399.842 314.509C399.616 312.5 399.301 310.505 398.899 308.524C396.704 297.776 391.992 287.702 385.149 279.129C381.838 277.322 379.159 274.542 377.475 271.165C376.865 269.951 376.434 268.655 376.195 267.318C376.569 267.367 377.604 261.675 377.322 261.326C377.843 260.536 378.775 260.143 379.343 259.372C382.171 255.537 386.067 256.206 388.101 261.418C392.446 263.612 392.489 267.25 389.822 270.748C388.126 272.974 387.893 275.986 386.405 278.37C386.558 278.566 386.717 278.756 386.87 278.952C389.669 282.552 392.109 286.418 394.154 290.494C393.656 285.927 394.25 281.308 395.886 277.016C397.543 273.016 400.651 269.647 403.387 266.188C404.11 265.259 405.093 264.566 406.211 264.196C407.328 263.825 408.531 263.795 409.666 264.108C410.801 264.421 411.817 265.063 412.588 265.954C413.358 266.845 413.846 267.944 413.992 269.113C413.997 269.164 414.003 269.215 414.008 269.266C413.602 269.495 413.204 269.739 412.815 269.996C412.326 270.323 411.947 270.79 411.728 271.336C411.508 271.882 411.459 272.481 411.586 273.055C411.714 273.63 412.011 274.152 412.44 274.555C412.87 274.957 413.41 275.22 413.992 275.31L414.051 275.319C413.906 276.784 413.65 278.236 413.285 279.662C416.796 293.241 409.217 298.187 398.397 298.409C398.158 298.532 397.925 298.654 397.686 298.771C399.741 304.595 401.03 310.662 401.52 316.819C401.798 320.451 401.782 324.1 401.471 327.73L401.49 327.601C402.274 323.565 404.426 319.923 407.584 317.291C412.273 313.437 418.899 312.018 423.958 308.921C424.496 308.575 425.121 308.391 425.76 308.389C426.399 308.388 427.025 308.569 427.564 308.912C428.104 309.254 428.534 309.744 428.804 310.323C429.074 310.903 429.173 311.547 429.089 312.181L429.068 312.316C428.314 312.623 427.58 312.977 426.87 313.376C426.463 313.605 426.065 313.849 425.676 314.106C425.187 314.433 424.808 314.9 424.589 315.446C424.37 315.992 424.321 316.591 424.448 317.165C424.575 317.74 424.873 318.262 425.302 318.664C425.731 319.067 426.272 319.33 426.853 319.419L426.913 319.429C426.955 319.435 426.992 319.441 427.035 319.447C425.746 322.525 423.938 325.358 421.688 327.822C419.494 339.676 410.067 340.8 399.983 337.348H399.977C398.87 342.158 397.267 346.839 395.194 351.316H378.106C378.045 351.126 377.99 350.93 377.935 350.74C379.516 350.84 381.104 350.745 382.663 350.459C381.395 348.903 380.127 347.334 378.859 345.778C378.831 345.749 378.805 345.718 378.78 345.686C378.137 344.89 377.488 344.1 376.844 343.303L376.844 343.302C376.81 340.861 377.09 338.425 377.678 336.055Z" fill="#F2F2F2"/>
<path d="M127.986 443.71C127.986 443.858 128.015 444.005 128.071 444.142C128.128 444.279 128.211 444.404 128.316 444.509C128.421 444.614 128.545 444.697 128.682 444.754C128.82 444.81 128.966 444.839 129.115 444.839H596.871C597.17 444.839 597.457 444.72 597.669 444.508C597.88 444.296 597.999 444.009 597.999 443.71C597.999 443.41 597.88 443.123 597.669 442.912C597.457 442.7 597.17 442.581 596.871 442.581H129.115C128.967 442.581 128.82 442.609 128.682 442.666C128.545 442.723 128.421 442.806 128.316 442.911C128.211 443.016 128.128 443.14 128.071 443.277C128.015 443.414 127.986 443.561 127.986 443.71Z" fill="#CCCCCC"/>
<path d="M339.802 201.504C341.121 202.896 339.122 204.705 337.583 203.511C324.749 193.558 311.915 183.612 299.08 173.671C299.065 173.655 299.048 173.643 299.028 173.633C298.142 173.032 297.299 172.371 296.505 171.654C284.561 170.394 271.433 166.228 258.997 164.419C248.015 165.896 237.065 167.658 226.053 168.964C216.447 170.172 206.778 170.798 197.097 170.84C189.214 170.802 180.724 170.754 173.574 167.383C166.142 163.879 162.007 156.985 160.102 149.901C159.162 146.286 158.549 142.593 158.27 138.868V115.771C159.285 105.713 162.384 95.7509 170.79 88.7335C183.404 78.2027 202.289 77.9281 218.432 77.6346C237.662 77.2672 256.898 78.0293 276.039 79.9168C291.637 81.47 308.041 82.9757 322.467 88.9892C328.654 91.5745 334.484 95.1638 338.745 100.022C343.54 105.526 346.313 112.501 346.607 119.796C347.371 135.033 339.708 148.973 335.51 163.358C331.867 175.811 329.816 190.907 339.802 201.504Z" fill="#2CACAF"/>
<path d="M244.588 103.188H201.708C201.513 103.188 201.32 103.149 201.14 103.075C200.96 103 200.797 102.891 200.659 102.753C200.521 102.615 200.412 102.452 200.338 102.272C200.263 102.092 200.225 101.899 200.225 101.704C200.225 101.509 200.263 101.316 200.338 101.136C200.412 100.956 200.521 100.792 200.659 100.654C200.797 100.517 200.96 100.407 201.14 100.333C201.32 100.258 201.513 100.22 201.708 100.22H244.588C244.981 100.22 245.359 100.376 245.637 100.654C245.915 100.933 246.072 101.31 246.072 101.704C246.072 102.097 245.915 102.475 245.637 102.753C245.359 103.031 244.981 103.188 244.588 103.188Z" fill="white"/>
<path d="M244.588 134.833H201.708C201.315 134.833 200.937 134.677 200.659 134.399C200.381 134.12 200.225 133.743 200.225 133.349C200.225 132.956 200.381 132.578 200.659 132.3C200.937 132.022 201.315 131.865 201.708 131.865H244.588C244.981 131.865 245.359 132.022 245.637 132.3C245.915 132.578 246.072 132.956 246.072 133.349C246.072 133.743 245.915 134.12 245.637 134.399C245.359 134.677 244.981 134.833 244.588 134.833Z" fill="white"/>
<path d="M279.413 119.021H201.708C201.315 119.021 200.937 118.864 200.659 118.586C200.381 118.308 200.225 117.93 200.225 117.537C200.225 117.143 200.381 116.766 200.659 116.487C200.937 116.209 201.315 116.053 201.708 116.053H279.413C279.807 116.053 280.184 116.209 280.462 116.487C280.741 116.766 280.897 117.143 280.897 117.537C280.897 117.93 280.741 118.308 280.462 118.586C280.184 118.864 279.807 119.021 279.413 119.021Z" fill="white"/>
<path d="M349.522 104.27C353.497 110.614 355.745 117.915 355.057 125.441C354.463 131.935 351.799 138.042 348.888 143.798C345.871 149.762 342.493 155.553 340.026 161.78C337.318 168.568 336.317 175.917 337.111 183.182C337.599 187.899 338.551 192.552 339.447 197.203L342.183 211.403L344.561 210.019L305.23 176.006C303.851 174.814 301.83 176.818 303.218 178.019L342.549 212.031C342.774 212.242 343.062 212.376 343.369 212.411C343.676 212.446 343.986 212.381 344.254 212.225C344.521 212.07 344.73 211.832 344.852 211.547C344.973 211.263 344.999 210.947 344.926 210.646C343.319 202.304 341.419 193.957 340.242 185.54C339.565 181.296 339.47 176.979 339.959 172.709C340.441 169.455 341.296 166.266 342.508 163.208C347.225 150.878 356.061 140.091 357.764 126.686C358.831 118.286 356.431 109.94 351.978 102.834C351.008 101.286 348.546 102.713 349.522 104.27Z" fill="#3F3D56"/>
<path d="M307.716 163.557L249.549 170.441L220.466 173.882C211.606 174.931 202.372 176.403 193.519 174.548C178.614 171.424 169.359 157.915 166.448 143.677C164.645 134.864 165.283 125.642 166.8 116.838C167.608 112.144 168.675 107.499 169.827 102.878C170.855 98.761 171.621 94.3273 173.396 90.4516C174.813 87.3001 176.921 84.5082 179.563 82.283C182.206 80.0578 185.316 78.4565 188.662 77.5978C190.752 77.1694 192.869 76.8887 194.999 76.758C197.391 76.5178 199.785 76.2967 202.181 76.0948C206.972 75.691 211.769 75.364 216.572 75.1138C218.973 74.9887 221.375 74.8827 223.778 74.796C225.603 74.7291 225.612 71.8832 223.778 71.9504C213.779 72.3165 203.8 73.0097 193.841 74.0302C189.784 74.4483 186.032 75.0526 182.37 76.9537C179.205 78.6095 176.425 80.9153 174.213 83.7202C171.946 86.6139 170.283 89.9335 169.323 93.4821C168.014 98.1972 166.826 102.959 165.742 107.731C163.557 117.349 161.987 127.263 162.716 137.151C163.795 151.777 170.795 167.38 184.38 174.343C192.402 178.455 201.556 178.639 210.346 177.854C220.149 176.978 229.925 175.609 239.698 174.452L300.211 167.291L307.716 166.403C309.512 166.19 309.533 163.342 307.716 163.557Z" fill="#3F3D56"/>
</g>
<defs>
<clipPath id="clip0_2470_41572">
<rect width="598" height="445" fill="white"/>
</clipPath>
</defs>
</svg>
