<svg width="320" height="387" viewBox="0 0 320 387" fill="none" xmlns="http://www.w3.org/2000/svg">
<g clip-path="url(#clip0_2450_40729)">
<path d="M194.59 65.0478C209.889 77.8556 226.945 67.1326 243.291 66.3133C250.872 65.9334 258.437 67.7618 265.908 69.1258C273 70.4205 280.065 72.3035 286.548 75.5149C293.615 78.8925 299.626 84.1361 303.932 90.6801C304.788 92.0176 306.078 91.0299 306.068 89.431C305.965 72.4527 298.628 73.8276 290.967 75.0797C283.683 76.2701 277.491 69.0392 270.304 67.483C262.783 65.9689 255.182 64.8852 247.538 64.2372C239.251 63.414 230.943 62.8555 222.615 62.5617C213.276 62.2322 203.935 62.236 194.59 62.5731C193.002 62.6295 192.995 65.1045 194.59 65.0478Z" fill="#3F3D56"/>
<path d="M142.986 201.634C143.204 201.868 143.323 202.178 143.318 202.499C143.312 202.819 143.182 203.125 142.956 203.352C142.729 203.579 142.423 203.709 142.103 203.714C141.782 203.72 141.472 203.601 141.238 203.382C131.129 194.713 121.02 186.049 110.911 177.39C110.899 177.377 110.885 177.365 110.87 177.357C110.167 176.83 109.503 176.254 108.882 175.633C99.4742 174.536 89.1343 170.906 79.3386 169.331C70.689 170.618 62.0643 172.152 53.3899 173.29C45.8322 174.341 38.213 174.887 30.5827 174.924C24.3738 174.891 26.1702 158.967 20.5385 156.03C14.6841 152.978 2.94367 162.855 1.44297 156.685C0.70151 153.526 0.218919 150.312 0 147.075V126.956C0.799818 118.196 14.7418 120.898 21.363 114.786C31.2989 105.613 34.6725 84.0944 47.3871 83.8387C62.5392 83.5189 77.6961 84.183 92.7623 85.8267C105.048 87.1795 117.969 88.4911 129.331 93.7292C134.204 95.9811 138.797 109.006 142.153 113.238C145.983 118.181 148.151 124.21 148.346 130.462C148.947 143.734 142.912 155.877 139.605 168.407C136.736 179.254 135.12 192.403 142.986 201.634Z" fill="#F2F2F2"/>
<path d="M112.059 178.661C122.308 187.449 132.558 196.236 142.81 205.021C143.044 205.24 143.355 205.359 143.675 205.353C143.996 205.348 144.302 205.218 144.529 204.991C144.756 204.764 144.885 204.458 144.891 204.137C144.897 203.816 144.778 203.506 144.559 203.271C136.693 194.047 138.309 180.898 141.177 170.045C144.487 157.513 150.523 145.375 149.919 132.106C149.727 125.853 147.558 119.822 143.724 114.88C140.259 110.721 135.869 107.431 130.906 105.271C119.544 100.033 106.626 98.7158 94.3344 97.3664C79.2701 95.7212 64.1149 95.0562 48.9645 95.3756C36.2462 95.6372 21.3685 95.8696 11.4332 105.045C2.38511 113.401 1.14927 126.542 1.23653 138.144C1.28707 144.866 1.41598 151.77 3.01324 158.33C4.51471 164.496 7.77077 170.503 13.627 173.554C19.2598 176.489 25.9517 176.535 32.1548 176.564C39.785 176.532 47.4043 175.985 54.9609 174.927C70.0849 172.948 85.0645 169.751 100.311 168.785C104.042 168.549 107.784 168.444 111.522 168.522C113.114 168.555 113.114 166.08 111.522 166.047C96.6977 165.737 82.0257 168.284 67.4401 170.603C53.3322 172.847 38.9104 174.961 24.5904 173.826C21.4512 173.679 18.3645 172.965 15.4798 171.718C12.6936 170.393 10.3362 168.311 8.67694 165.71C4.94893 159.902 4.24259 152.626 3.92056 145.85C3.55319 139.986 3.6076 134.103 4.08336 128.246C4.63279 122.568 5.95592 116.808 8.97835 111.906C15.8727 100.724 29.812 96.0705 41.7087 98.0794C55.1055 100.342 65.353 111.054 85.7957 99.0154C92.2128 95.2364 100.622 100.495 107.985 101.607C113.488 102.366 118.916 103.595 124.209 105.28C129.302 106.835 134.047 109.358 138.185 112.712C142.515 116.376 145.53 121.355 146.769 126.892C149.609 139.642 143.981 152.369 140.262 164.301C136.947 174.938 134.118 187.429 138.582 198.162C139.623 200.656 141.05 202.97 142.81 205.021L144.559 203.271C134.31 194.483 124.06 185.696 113.808 176.911C112.605 175.88 110.848 177.622 112.059 178.661Z" fill="#E6E6E6"/>
<path d="M68.3894 121.084H31.1026C30.7604 121.084 30.4323 120.948 30.1903 120.706C29.9484 120.464 29.8125 120.136 29.8125 119.794C29.8125 119.451 29.9484 119.123 30.1903 118.881C30.4323 118.639 30.7604 118.503 31.1026 118.503H68.3894C68.7315 118.503 69.0597 118.639 69.3016 118.881C69.5435 119.123 69.6794 119.451 69.6794 119.794C69.6794 120.136 69.5435 120.464 69.3016 120.706C69.0597 120.948 68.7315 121.084 68.3894 121.084Z" fill="white"/>
<path d="M68.3894 148.606H31.1026C30.9331 148.606 30.7654 148.572 30.6089 148.507C30.4524 148.442 30.3101 148.347 30.1903 148.228C30.0705 148.108 29.9755 147.965 29.9107 147.809C29.8459 147.652 29.8125 147.484 29.8125 147.315C29.8125 147.146 29.8459 146.978 29.9107 146.821C29.9755 146.665 30.0705 146.522 30.1903 146.402C30.3101 146.283 30.4524 146.188 30.6089 146.123C30.7654 146.058 30.9331 146.024 31.1026 146.024H68.3894C68.7315 146.024 69.0597 146.16 69.3016 146.402C69.5435 146.644 69.6794 146.973 69.6794 147.315C69.6794 147.657 69.5435 147.986 69.3016 148.228C69.0597 148.47 68.7315 148.606 68.3894 148.606Z" fill="white"/>
<path d="M98.6722 134.854H31.1026C30.7604 134.854 30.4323 134.718 30.1903 134.476C29.9484 134.234 29.8125 133.905 29.8125 133.563C29.8125 133.221 29.9484 132.892 30.1903 132.65C30.4323 132.408 30.7604 132.272 31.1026 132.272H98.6722C99.0143 132.272 99.3425 132.408 99.5844 132.65C99.8263 132.892 99.9622 133.221 99.9622 133.563C99.9622 133.905 99.8263 134.234 99.5844 134.476C99.3425 134.718 99.0143 134.854 98.6722 134.854Z" fill="white"/>
<path d="M184.214 264.326C184.433 264.56 184.552 264.87 184.546 265.191C184.541 265.512 184.411 265.817 184.184 266.044C183.957 266.271 183.652 266.401 183.331 266.406C183.011 266.412 182.701 266.293 182.466 266.074C172.357 257.405 162.248 248.741 152.139 240.082C152.128 240.069 152.114 240.057 152.098 240.049C151.396 239.522 150.732 238.946 150.111 238.325C140.703 237.228 130.363 233.598 120.567 232.023C111.918 233.31 101.644 243.093 92.9693 244.231C85.4116 245.282 77.7923 245.828 70.1621 245.865C63.9532 245.832 65.7495 225.783 60.1178 222.847C54.2635 219.795 44.1721 225.547 42.6714 219.377C41.9046 216.234 38.1185 213.009 37.8711 209.767V189.648C38.6709 180.888 44.469 172.21 51.0902 166.097C61.026 156.924 75.901 156.685 88.6156 156.43C103.768 156.11 118.925 156.774 133.991 158.418C146.277 159.77 159.197 161.082 170.56 166.32C175.523 168.482 179.913 171.772 183.382 175.93C187.212 180.873 189.379 186.902 189.574 193.154C190.176 206.426 184.14 218.569 180.834 231.099C177.964 241.946 176.348 255.095 184.214 264.326Z" fill="#F2F2F2"/>
<path d="M153.287 241.353C163.536 250.142 173.787 258.928 184.038 267.713C184.273 267.932 184.583 268.051 184.904 268.045C185.224 268.04 185.53 267.91 185.757 267.683C185.984 267.456 186.114 267.15 186.12 266.829C186.125 266.508 186.006 266.198 185.787 265.963C177.922 256.74 179.538 243.59 182.405 232.737C185.716 220.206 191.751 208.068 191.147 194.798C190.956 188.545 188.787 182.514 184.953 177.572C181.487 173.413 177.098 170.123 172.134 167.964C160.773 162.726 147.854 161.408 135.563 160.059C120.499 158.414 105.343 157.749 90.1931 158.068C77.4747 158.33 62.597 158.562 52.6618 167.737C43.6136 176.094 42.3778 189.234 42.465 200.836C42.5156 207.558 42.6445 214.462 44.2418 221.022C45.7432 227.189 48.9993 233.195 54.8555 236.246C60.4883 239.181 67.1802 239.227 73.3833 239.257C81.0135 239.225 88.6328 238.678 96.1894 237.619C111.313 235.64 126.293 232.443 141.539 231.478C145.27 231.241 149.012 231.136 152.751 231.214C154.343 231.247 154.343 228.773 152.751 228.739C137.926 228.43 123.254 230.976 108.669 233.296C94.5608 235.539 80.1389 237.654 65.8189 236.519C62.6797 236.372 59.5931 235.657 56.7083 234.41C53.9222 233.086 51.5647 231.004 49.9055 228.402C46.1774 222.594 45.4711 215.318 45.1491 208.542C44.7817 202.678 44.8361 196.795 45.3119 190.939C45.8613 185.26 47.1844 179.501 50.2069 174.598C57.1012 163.416 72.8191 154.197 82.9372 160.772C94.4974 168.283 109.282 168.608 127.024 161.708C133.965 159.009 141.85 163.188 149.214 164.299C154.716 165.058 160.144 166.287 165.437 167.972C170.53 169.527 175.276 172.051 179.413 175.404C183.744 179.068 186.758 184.048 187.998 189.584C190.837 202.335 185.209 215.062 181.49 226.994C178.175 237.63 175.347 250.122 179.811 260.854C180.852 263.348 182.278 265.663 184.038 267.713L185.787 265.963C175.538 257.175 165.288 248.388 155.037 239.603C153.834 238.572 152.076 240.315 153.287 241.353Z" fill="#E6E6E6"/>
<path d="M109.616 183.776H72.3291C71.987 183.776 71.6588 183.641 71.4169 183.398C71.175 183.156 71.0391 182.828 71.0391 182.486C71.0391 182.144 71.175 181.815 71.4169 181.573C71.6588 181.331 71.987 181.195 72.3291 181.195H109.616C109.958 181.195 110.286 181.331 110.528 181.573C110.77 181.815 110.906 182.144 110.906 182.486C110.906 182.828 110.77 183.156 110.528 183.398C110.286 183.641 109.958 183.776 109.616 183.776Z" fill="white"/>
<path d="M109.616 211.298H72.3291C71.987 211.298 71.6588 211.162 71.4169 210.92C71.175 210.678 71.0391 210.35 71.0391 210.007C71.0391 209.665 71.175 209.337 71.4169 209.095C71.6588 208.853 71.987 208.717 72.3291 208.717H109.616C109.958 208.717 110.286 208.853 110.528 209.095C110.77 209.337 110.906 209.665 110.906 210.007C110.906 210.35 110.77 210.678 110.528 210.92C110.286 211.162 109.958 211.298 109.616 211.298Z" fill="white"/>
<path d="M139.899 197.546H72.3291C71.987 197.546 71.6588 197.41 71.4169 197.168C71.175 196.926 71.0391 196.598 71.0391 196.255C71.0391 195.913 71.175 195.585 71.4169 195.343C71.6588 195.101 71.987 194.965 72.3291 194.965H139.899C140.241 194.965 140.569 195.101 140.811 195.343C141.053 195.585 141.189 195.913 141.189 196.255C141.189 196.598 141.053 196.926 140.811 197.168C140.569 197.41 140.241 197.546 139.899 197.546Z" fill="white"/>
<path d="M387.459 310.088H283.258C282.301 310.088 281.384 309.708 280.708 309.032C280.032 308.356 279.652 307.438 279.652 306.482C279.652 305.525 280.032 304.608 280.708 303.931C281.384 303.255 282.301 302.875 283.258 302.875H387.459C388.416 302.875 389.333 303.255 390.009 303.931C390.685 304.608 391.065 305.525 391.065 306.482C391.065 307.438 390.685 308.356 390.009 309.032C389.333 309.708 388.416 310.088 387.459 310.088Z" fill="#F2F2F2"/>
<path d="M387.459 387H283.258C282.301 387 281.384 386.62 280.708 385.944C280.032 385.268 279.652 384.35 279.652 383.394C279.652 382.437 280.032 381.52 280.708 380.844C281.384 380.167 282.301 379.787 283.258 379.787H387.459C388.416 379.787 389.333 380.167 390.009 380.844C390.685 381.52 391.065 382.437 391.065 383.394C391.065 384.35 390.685 385.268 390.009 385.944C389.333 386.62 388.416 387 387.459 387Z" fill="#F2F2F2"/>
<path d="M472.087 348.57H283.257C282.783 348.571 282.314 348.478 281.876 348.297C281.438 348.116 281.04 347.85 280.704 347.515C280.369 347.18 280.103 346.783 279.921 346.345C279.74 345.907 279.646 345.437 279.646 344.963C279.646 344.489 279.74 344.02 279.921 343.582C280.103 343.144 280.369 342.746 280.704 342.411C281.04 342.076 281.438 341.81 281.876 341.629C282.314 341.449 282.783 341.356 283.257 341.356H472.087C473.043 341.358 473.958 341.739 474.633 342.415C475.308 343.091 475.687 344.008 475.687 344.963C475.687 345.919 475.308 346.835 474.633 347.512C473.958 348.188 473.043 348.568 472.087 348.57Z" fill="#F2F2F2"/>
<path d="M224.443 344.519L230.364 350.093L255.15 329.395L246.413 321.168L224.443 344.519Z" fill="#FFB6B6"/>
<path d="M235.221 368.622L231.931 353.277L235.918 349.039L233.772 347.243L227.108 341.687L225.478 340.321L210.148 354.114L214.592 358.293L219.329 354.846L217.407 360.948L229.176 372.031C229.74 372.562 230.459 372.899 231.228 372.993C231.997 373.086 232.776 372.931 233.451 372.551C234.126 372.17 234.662 371.584 234.98 370.877C235.299 370.17 235.383 369.38 235.221 368.622Z" fill="#2F2E41"/>
<path d="M195.586 366.073L203.623 367.296L212.264 336.173L200.403 334.37L195.586 366.073Z" fill="#FFB6B6"/>
<path d="M218.144 379.78L206.721 369.022L207.595 363.268L204.809 363.01L196.17 362.226L194.052 362.029L189.271 382.093L195.301 383.006L197.242 377.477L199.126 383.591L215.105 386.022C215.871 386.138 216.654 386.006 217.34 385.646C218.026 385.286 218.579 384.715 218.918 384.019C219.257 383.322 219.365 382.535 219.226 381.772C219.086 381.01 218.707 380.312 218.144 379.78Z" fill="#2F2E41"/>
<path d="M272.903 144.986L295.952 186.284C295.952 186.284 294.99 271.219 298.053 274.369C301.116 277.519 303.89 280.345 301.116 280.319C298.343 280.294 299.238 300.386 299.238 300.386L248.115 339.981L235.747 330.083L266.776 291.767L249.64 213.339C249.64 213.339 237.329 287.508 235.11 289.727C232.891 291.947 231.553 291.931 233.886 294.159C236.219 296.386 233.886 301.424 233.886 301.424L209.564 351.925L196.371 350.26C196.371 350.26 198.658 309.033 206.623 291.334V207.694C206.023 214.865 234.083 142.283 216.924 147.731C222.353 146.008 272.903 144.986 272.903 144.986Z" fill="#2F2E41"/>
<path d="M262.331 46.5703H243.276L240.578 57.3656L225.928 61.4184C225.928 61.4184 218.681 109.493 224.768 113.371C230.854 117.249 226.61 129.379 226.61 129.379C226.61 129.379 211.454 145.754 213.272 148.18C215.091 150.606 218.781 146.915 214.511 151.186C210.241 155.458 207.816 154.851 209.029 156.064C209.778 156.834 210.36 157.751 210.735 158.758L205.506 172.379C205.506 172.379 233.279 177.898 247.222 170.014C261.166 162.129 292.084 177.292 292.084 177.292C292.084 177.292 290.494 169.331 289.167 168.156C287.841 166.981 284.747 169.952 286.9 166.041C289.053 162.129 290.872 163.949 289.053 162.129C287.234 160.31 279.353 136.05 279.353 136.05C279.353 136.05 273.291 122.707 279.959 117.249C286.628 111.79 289.167 93.8867 289.167 93.8867L281.173 61.4184L267.835 58.4187L262.331 46.5703Z" fill="#E6E6E6"/>
<path d="M186.905 170.523L191.481 152.173L181.367 148.095L177.219 167.668C176.272 168.369 175.54 169.32 175.104 170.414C174.668 171.508 174.546 172.702 174.751 173.862C174.957 175.022 175.481 176.101 176.266 176.979C177.051 177.857 178.065 178.498 179.194 178.831C180.324 179.164 181.524 179.175 182.659 178.863C183.794 178.551 184.82 177.929 185.621 177.066C186.422 176.203 186.967 175.133 187.193 173.977C187.42 172.822 187.32 171.625 186.905 170.523Z" fill="#FFB6B6"/>
<path d="M231.358 60.1919L231.056 60.1399C228.249 59.6573 225.365 59.8667 222.657 60.7498C219.948 61.633 217.495 63.1633 215.511 65.2083C210.33 70.5404 187.204 110.194 188.037 116.821C188.813 123.001 189.112 121.627 186.287 124.782C183.462 127.938 182.387 123.132 182.343 129.702C182.3 136.272 184.809 136.215 182.142 137.821C179.475 139.427 177.711 138.308 178.198 142.741C178.686 147.173 177.94 148.35 177.782 149.899C177.624 151.448 173.795 161.389 173.795 161.389C173.795 161.389 185.065 164.416 189.61 168.949C189.61 168.949 190.127 157.732 192.421 156.714C194.716 155.695 196.852 156.226 196.207 153.343C195.562 150.46 192.25 149.183 196.308 149.283C200.365 149.384 206.633 127.796 206.633 127.796L233.735 78.3281L231.358 60.1919Z" fill="#E6E6E6"/>
<path d="M292.52 179.614L293.335 160.718L304.189 159.678L302.618 179.625C303.327 180.565 303.759 181.685 303.867 182.858C303.975 184.03 303.754 185.21 303.228 186.264C302.702 187.318 301.893 188.204 300.892 188.823C299.89 189.442 298.736 189.77 297.558 189.768C296.381 189.767 295.227 189.437 294.227 188.816C293.227 188.195 292.42 187.307 291.896 186.252C291.373 185.197 291.154 184.017 291.264 182.844C291.374 181.672 291.809 180.553 292.52 179.614Z" fill="#FFB6B6"/>
<path d="M281.173 61.1992L281.477 61.235C284.307 61.569 287.012 62.5878 289.359 64.2033C291.706 65.8188 293.624 67.9823 294.948 70.5064C298.404 77.0895 309.337 121.676 306.66 127.795C304.163 133.502 304.267 132.098 306.081 135.926C307.895 139.754 310.289 135.45 308.468 141.763C306.647 148.075 304.257 147.308 306.359 149.606C308.461 151.903 310.469 151.33 308.746 155.442C307.022 159.555 307.403 160.894 307.115 162.424C306.827 163.955 307.681 174.574 307.681 174.574C307.681 174.574 296.016 174.279 290.372 177.336C290.372 177.336 293.057 166.433 291.145 164.805C289.234 163.178 287.035 163.081 288.471 160.499C289.907 157.917 293.445 157.632 289.525 156.578C285.605 155.523 285.716 133.043 285.716 133.043L273.752 77.9162L281.173 61.1992Z" fill="#E6E6E6"/>
<path d="M209.509 33.8328C209.357 40.3394 211.788 46.6397 215.28 52.1734C216.446 48.9602 218.08 45.9365 220.128 43.1998C219.147 49.2632 220.192 55.4808 223.099 60.8904C223.202 60.9638 223.308 61.0319 223.417 61.0945C226.264 62.8073 229.872 63.5011 232.951 62.264C226.589 55.4037 225.78 44.0373 231.113 36.3425C232.623 34.1591 234.576 32.228 235.511 29.7432C236.988 25.7785 235.569 21.4134 234.673 17.2799C233.836 13.4328 233.689 8.85471 236.269 6.03528C235.994 5.64127 235.618 5.32764 235.182 5.12652C234.745 4.92541 234.263 4.84405 233.784 4.89076C232.194 5.11554 231.036 6.49871 230.298 7.92329C229.561 9.34783 229.075 10.9267 228.047 12.1571C226.144 14.4602 222.903 15.0047 220.171 16.2185C213.557 19.1659 209.667 26.5927 209.509 33.8328Z" fill="#2F2E41"/>
<path d="M265.188 30.1133C264.81 28.7898 267.415 36.8802 266.158 37.0263C260.432 37.6834 252.572 41.1045 248.583 42.7006C248.404 42.6797 248.224 42.6588 248.05 42.6328C247.622 42.5858 247.205 42.518 246.793 42.4398C237.507 40.6821 233.936 26.4114 233.936 26.281C233.936 25.6395 235.475 8.01921 237.899 7.75842C238.536 7.68929 239.176 7.65447 239.817 7.6541H245.833C247.078 7.38571 248.34 7.20273 249.61 7.10645H249.62C261.733 6.18324 271.283 13.5688 270.39 22.5556C270.385 22.5661 270.375 22.5765 270.369 22.5869C270.11 22.9729 269.883 23.338 269.683 23.6875C269.487 24.0161 269.323 24.329 269.181 24.6263C268.077 26.9213 270.915 29.809 269.033 30.3481C266.53 31.0649 275.615 54.6276 265.709 54.6276C270.528 55.9981 266.23 33.7644 265.188 30.1133Z" fill="#2F2E41"/>
<path d="M254.376 43.9389C262.243 43.9389 268.621 37.5586 268.621 29.6882C268.621 21.8178 262.243 15.4375 254.376 15.4375C246.508 15.4375 240.131 21.8178 240.131 29.6882C240.131 37.5586 246.508 43.9389 254.376 43.9389Z" fill="#FFB6B6"/>
<path d="M270.39 23.3326C270.152 23.4578 269.92 23.5725 269.682 23.6873C269.434 23.8073 269.185 23.9273 268.937 24.0368C264.167 26.2013 260.285 26.4412 257.929 23.3326C257.866 21.697 257.499 20.0874 256.846 18.5863C256.961 20.2638 256.519 21.9324 255.589 23.3326H250.845C245.959 26.5769 243.45 26.9159 246.841 37.5666C247.787 40.5344 251.547 57.8039 250.068 60.3648C249.64 60.3179 245.088 41.4024 244.676 41.3242C235.389 39.5665 229.489 24.261 230.245 23.3952C230.241 20.9331 230.807 18.5035 231.898 16.2965C233.278 13.5005 235.43 11.1584 238.099 9.5473C239.69 8.77558 241.349 8.15226 243.054 7.68526C243.096 7.67481 243.133 7.66436 243.176 7.65395C243.698 7.51312 244.232 7.38273 244.765 7.27319C245.868 7.04037 246.982 6.87145 248.104 6.76727C248.183 6.76206 248.262 6.75684 248.336 6.75684C248.784 6.75788 249.224 6.87852 249.609 7.1063C249.615 7.1063 249.615 7.1115 249.62 7.1115C249.896 7.27261 250.136 7.48719 250.328 7.74262C250.665 8.17239 250.847 8.70354 250.845 9.25H256.128C256.323 9.25 256.519 9.2552 256.714 9.26562C260.239 9.38615 263.593 10.8185 266.119 13.2823C268.644 15.7461 270.16 19.064 270.369 22.5868C270.384 22.8371 270.39 23.0822 270.39 23.3326Z" fill="#2F2E41"/>
<path d="M239.244 18.7769C244.427 18.7769 248.629 14.5735 248.629 9.38844C248.629 4.20335 244.427 0 239.244 0C234.061 0 229.859 4.20335 229.859 9.38844C229.859 14.5735 234.061 18.7769 239.244 18.7769Z" fill="#2F2E41"/>
<path d="M295.48 175.241C296.627 176.452 294.888 178.025 293.55 176.987C282.39 168.331 271.229 159.681 260.069 151.036C260.056 151.022 260.041 151.011 260.024 151.003C259.254 150.48 258.521 149.905 257.83 149.282C247.443 148.186 236.028 144.563 225.214 142.989C215.665 144.274 206.143 145.806 196.567 146.943C188.214 147.993 179.806 148.537 171.388 148.573C164.533 148.54 157.151 148.499 150.934 145.567C144.47 142.52 140.875 136.524 139.218 130.364C138.401 127.22 137.868 124.009 137.625 120.769V100.682C138.508 91.9356 141.202 83.2715 148.512 77.1688C159.481 68.0105 175.903 67.7717 189.94 67.5164C206.662 67.1969 223.389 67.8597 240.033 69.5013C253.597 70.8519 267.861 72.1614 280.405 77.3912C285.785 79.6395 290.855 82.7609 294.56 86.9859C298.73 91.7723 301.141 97.8387 301.397 104.182C302.061 117.434 295.398 129.557 291.747 142.067C288.58 152.897 286.795 166.025 295.48 175.241Z" fill="#2CACAF"/>
<path d="M212.686 89.7384H175.399C175.23 89.7384 175.062 89.705 174.906 89.6401C174.749 89.5753 174.607 89.4802 174.487 89.3604C174.367 89.2405 174.272 89.0983 174.208 88.9417C174.143 88.7851 174.109 88.6173 174.109 88.4478C174.109 88.2783 174.143 88.1105 174.208 87.9539C174.272 87.7973 174.367 87.6551 174.487 87.5352C174.607 87.4154 174.749 87.3203 174.906 87.2555C175.062 87.1906 175.23 87.1572 175.399 87.1572H212.686C213.028 87.1572 213.357 87.2932 213.598 87.5352C213.84 87.7772 213.976 88.1055 213.976 88.4478C213.976 88.7901 213.84 89.1184 213.598 89.3604C213.357 89.6024 213.028 89.7384 212.686 89.7384Z" fill="white"/>
<path d="M212.686 117.26H175.399C175.057 117.26 174.729 117.124 174.487 116.882C174.245 116.64 174.109 116.312 174.109 115.969C174.109 115.627 174.245 115.299 174.487 115.057C174.729 114.815 175.057 114.679 175.399 114.679H212.686C213.028 114.679 213.357 114.815 213.598 115.057C213.84 115.299 213.976 115.627 213.976 115.969C213.976 116.312 213.84 116.64 213.598 116.882C213.357 117.124 213.028 117.26 212.686 117.26Z" fill="white"/>
<path d="M242.969 103.508H175.399C175.057 103.508 174.729 103.372 174.487 103.13C174.245 102.888 174.109 102.56 174.109 102.217C174.109 101.875 174.245 101.547 174.487 101.305C174.729 101.063 175.057 100.927 175.399 100.927H242.969C243.311 100.927 243.639 101.063 243.881 101.305C244.123 101.547 244.259 101.875 244.259 102.217C244.259 102.56 244.123 102.888 243.881 103.13C243.639 103.372 243.311 103.508 242.969 103.508Z" fill="white"/>
<path d="M303.931 90.6797C307.388 96.1965 309.342 102.546 308.744 109.091C308.227 114.739 305.912 120.05 303.38 125.055C300.757 130.242 297.819 135.279 295.674 140.694C293.319 146.597 292.448 152.988 293.139 159.306C293.564 163.408 294.391 167.455 295.17 171.5L297.55 183.849L299.617 182.645L265.416 153.066C264.217 152.029 262.46 153.772 263.667 154.816L297.868 184.395C298.064 184.579 298.314 184.695 298.581 184.726C298.848 184.756 299.118 184.699 299.35 184.564C299.582 184.429 299.765 184.222 299.87 183.975C299.976 183.727 299.998 183.453 299.935 183.191C298.537 175.936 296.886 168.677 295.862 161.357C295.273 157.666 295.19 153.912 295.616 150.199C296.035 147.368 296.778 144.596 297.832 141.936C301.934 131.212 309.617 121.832 311.098 110.174C312.026 102.869 309.939 95.6105 306.067 89.4307C305.224 88.0843 303.083 89.325 303.931 90.6797Z" fill="#3F3D56"/>
<path d="M267.58 142.24L217 148.227L191.71 151.22C184.006 152.132 175.977 153.412 168.278 151.799C155.317 149.082 147.27 137.333 144.738 124.951C143.171 117.287 143.726 109.267 145.044 101.61C145.747 97.5279 146.675 93.4882 147.677 89.4703C148.57 85.8895 149.237 82.0337 150.78 78.6631C152.012 75.9224 153.845 73.4944 156.143 71.5592C158.441 69.624 161.145 68.2314 164.055 67.4846C165.872 67.112 167.713 66.868 169.565 66.7542C171.645 66.5454 173.727 66.3531 175.81 66.1775C179.977 65.8264 184.148 65.542 188.325 65.3244C190.413 65.2156 192.501 65.1234 194.591 65.048C196.178 64.9899 196.185 62.5149 194.591 62.5733C185.896 62.8916 177.219 63.4946 168.559 64.382C165.03 64.7457 161.768 65.2712 158.583 66.9245C155.831 68.3645 153.414 70.3698 151.491 72.8091C149.519 75.3256 148.073 78.2125 147.238 81.2986C146.1 85.3992 145.067 89.5404 144.124 93.6902C142.224 102.055 140.859 110.677 141.493 119.276C142.432 131.995 148.518 145.565 160.331 151.62C167.307 155.196 175.267 155.357 182.911 154.674C191.435 153.912 199.936 152.721 208.434 151.715L261.054 145.488L267.58 144.715C269.142 144.53 269.161 142.053 267.58 142.24Z" fill="#3F3D56"/>
</g>
<defs>
<clipPath id="clip0_2450_40729">
<rect width="320" height="387" fill="white"/>
</clipPath>
</defs>
</svg>
