<svg width="14" height="14" viewBox="0 0 14 14" fill="none" xmlns="http://www.w3.org/2000/svg">
<path d="M11.375 3.7848C10.5243 3.02802 9.4419 2.51302 8.26406 2.30468C7.08623 2.09635 5.8657 2.204 4.75626 2.61407C3.64682 3.02414 2.69811 3.71829 2.02966 4.60905C1.36122 5.49981 1.00295 6.54732 1 7.61961" stroke="white" stroke-width="1.2" stroke-miterlimit="10" stroke-linecap="round"/>
<path d="M10.8849 1L11.4892 3.18724C11.517 3.28256 11.5229 3.38193 11.5065 3.47933C11.4901 3.57674 11.4518 3.67017 11.3938 3.75397C11.3358 3.83776 11.2594 3.91018 11.1692 3.96686C11.0789 4.02353 10.9768 4.06327 10.8689 4.08367L8.41968 4.63049" stroke="white" stroke-width="1.2" stroke-linecap="round" stroke-linejoin="round"/>
<path d="M2.62427 10.2157C3.47488 10.9727 4.55737 11.4879 5.73533 11.6963C6.91328 11.9048 8.13398 11.7972 9.24357 11.3871C10.3532 10.977 11.302 10.2827 11.9705 9.39185C12.6389 8.50095 12.9972 7.45328 13 6.38086" stroke="white" stroke-width="1.2" stroke-miterlimit="10" stroke-linecap="round"/>
<path d="M3.11341 12.9996L2.5091 10.8124C2.48138 10.717 2.47559 10.6176 2.49208 10.5202C2.50857 10.4228 2.547 10.3294 2.60504 10.2456C2.66308 10.1618 2.73953 10.0894 2.82978 10.0328C2.92002 9.97611 3.02219 9.93637 3.13012 9.91595L5.57859 9.36914" stroke="white" stroke-width="1.2" stroke-linecap="round" stroke-linejoin="round"/>
</svg>
