<svg width="15" height="17" viewBox="0 0 15 17" fill="none" xmlns="http://www.w3.org/2000/svg">
<path d="M14.5218 8.14441C14.5682 8.19083 14.6051 8.24596 14.6303 8.30664C14.6555 8.36732 14.6684 8.43236 14.6684 8.49805C14.6684 8.56374 14.6555 8.62878 14.6303 8.68946C14.6051 8.75014 14.5682 8.80527 14.5218 8.85169L7.6828 15.6829C6.83856 16.5265 5.69366 17.0002 4.49996 17C3.30626 16.9998 2.16155 16.5255 1.31764 15.6816C0.473736 14.8377 -0.000234346 13.6933 8.6924e-08 12.5001C0.00023452 11.3069 0.474655 10.1626 1.31889 9.31904L9.59214 0.928331C9.88611 0.634208 10.2352 0.400842 10.6193 0.241559C11.0035 0.0822753 11.4154 0.000193741 11.8313 3.42558e-07C12.2472 -0.000193056 12.6591 0.0815056 13.0434 0.240432C13.4278 0.399358 13.7771 0.632398 14.0713 0.926249C14.3655 1.2201 14.599 1.569 14.7583 1.95304C14.9177 2.33708 14.9998 2.74873 15 3.16449C15.0002 3.58025 14.9185 3.99198 14.7595 4.37617C14.6005 4.76035 14.3673 5.10948 14.0734 5.4036L5.7993 13.791C5.4557 14.1351 4.98942 14.3287 4.50303 14.3292C4.01664 14.3296 3.54999 14.1369 3.20573 13.7935C2.86147 13.45 2.6678 12.9839 2.66733 12.4977C2.66686 12.0115 2.85963 11.5451 3.20323 11.201L10.1439 4.14733C10.2369 4.05276 10.3637 3.99902 10.4964 3.99793C10.6291 3.99683 10.7568 4.04848 10.8514 4.14149C10.946 4.23451 10.9998 4.36129 11.0009 4.49393C11.002 4.62657 10.9503 4.75421 10.8573 4.84877L3.91663 11.9057C3.83903 11.9829 3.7774 12.0746 3.73526 12.1756C3.69312 12.2766 3.67129 12.3849 3.67102 12.4943C3.67075 12.6037 3.69204 12.7122 3.73368 12.8133C3.77532 12.9145 3.8365 13.0066 3.91371 13.0841C3.99092 13.1617 4.08266 13.2233 4.1837 13.2654C4.28473 13.3075 4.39307 13.3294 4.50253 13.3296C4.612 13.3299 4.72045 13.3086 4.82169 13.267C4.92292 13.2254 5.01497 13.1642 5.09257 13.087L13.3633 4.69882C13.77 4.29294 13.9988 3.7422 13.9992 3.16773C13.9997 2.59327 13.7719 2.04215 13.3658 1.63561C12.9598 1.22907 12.4088 1.00042 11.8341 0.999949C11.2594 0.999481 10.7081 1.22724 10.3014 1.63311L2.02729 10.0205C1.37038 10.6764 1.00102 11.5662 1.00047 12.4943C0.999927 13.4224 1.36823 14.3127 2.02437 14.9694C2.68051 15.626 3.57073 15.9952 4.4992 15.9958C5.42767 15.9963 6.31832 15.6282 6.97524 14.9723L13.8142 8.14108C13.8608 8.09482 13.9162 8.05821 13.977 8.03334C14.0378 8.00848 14.1029 7.99583 14.1687 7.99614C14.2344 7.99645 14.2994 8.00971 14.36 8.03515C14.4206 8.06059 14.4755 8.09772 14.5218 8.14441Z" fill="#797B80"/>
</svg>
