<svg width="12" height="12" viewBox="0 0 12 12" fill="none" xmlns="http://www.w3.org/2000/svg">
<path d="M7.45303 6.71363C6.46645 7.70022 4.86688 7.70022 3.8803 6.71363L2.62091 5.45424C2.34563 5.17896 2.34173 4.73387 2.61214 4.4538C2.88934 4.1667 3.34809 4.16267 3.63029 4.44487L3.66279 4.47738C4.14088 4.95546 4.95833 4.61686 4.95833 3.94075V0.708333C4.95833 0.317132 5.27547 0 5.66667 0C6.05787 0 6.375 0.317132 6.375 0.708333V3.94075C6.375 4.61686 7.19245 4.95546 7.67054 4.47738L7.70305 4.44487C7.98524 4.16267 8.444 4.1667 8.7212 4.4538C8.99161 4.73387 8.9877 5.17896 8.71242 5.45424L7.45303 6.71363ZM1.41667 11.3333C1.02708 11.3333 0.693694 11.1947 0.4165 10.9175C0.139305 10.6403 0.000472222 10.3067 0 9.91667V8.5C0 8.1088 0.317132 7.79167 0.708333 7.79167C1.09953 7.79167 1.41667 8.1088 1.41667 8.5V8.85417C1.41667 9.44097 1.89236 9.91667 2.47917 9.91667H8.85417C9.44097 9.91667 9.91667 9.44097 9.91667 8.85417V8.5C9.91667 8.1088 10.2338 7.79167 10.625 7.79167C11.0162 7.79167 11.3333 8.1088 11.3333 8.5V9.91667C11.3333 10.3062 11.1947 10.6399 10.9175 10.9175C10.6403 11.1952 10.3067 11.3338 9.91667 11.3333H1.41667Z" fill="#7B7B7B"/>
</svg>
