<svg width="26" height="28" viewBox="0 0 26 28" fill="none" xmlns="http://www.w3.org/2000/svg">
<path d="M21.6707 14.2578H20.8244C20.8107 14.2588 20.7978 14.2646 20.7881 14.2744C20.7784 14.2841 20.7725 14.297 20.7715 14.3107V16.9956C20.5867 17.0485 20.4013 17.0749 20.1901 17.0749C19.6347 17.0749 19.5025 16.9032 19.5025 16.1624V14.3107C19.5016 14.297 19.4957 14.2841 19.486 14.2744C19.4763 14.2646 19.4633 14.2588 19.4496 14.2578H18.604C18.5903 14.2588 18.5774 14.2646 18.5677 14.2744C18.558 14.2841 18.5521 14.297 18.5511 14.3107V16.2552C18.5511 17.4716 18.9609 17.9348 20.005 17.9348C20.5998 17.9348 21.274 17.7762 21.6707 17.6306C21.6837 17.6172 21.6968 17.6041 21.6968 17.5908V14.311C21.7232 14.2846 21.6968 14.2581 21.6707 14.2581V14.2578ZM3.7466 14.2712H2.88731C2.86087 14.2712 2.8478 14.2843 2.8478 14.3107C2.71558 14.8396 2.43807 15.739 2.06785 16.6783L1.20887 14.2977C1.19549 14.2843 1.18243 14.2712 1.16905 14.2712H0.296693C0.283315 14.2712 0.270248 14.2843 0.25687 14.2977C0.243804 14.3107 0.243804 14.3241 0.25687 14.3372L1.55234 17.882C1.43729 18.1242 1.31381 18.3623 1.18211 18.596C1.08971 18.7546 1.01038 18.9133 0.931048 19.0853C0.917982 19.0987 0.917982 19.1118 0.931048 19.1252C0.944426 19.1382 0.957493 19.1516 0.97087 19.1516H1.90918C1.92256 19.1516 1.949 19.1382 1.949 19.1252C2.14412 18.7441 2.3249 18.3559 2.49096 17.9613C3.04598 16.6649 3.48216 15.4481 3.81287 14.3372C3.81287 14.3241 3.81287 14.3107 3.79949 14.2977C3.77305 14.2712 3.75998 14.2712 3.7466 14.2712ZM6.8266 16.9956C6.82616 16.9887 6.82324 16.9823 6.81837 16.9774C6.8135 16.9725 6.80703 16.9696 6.80016 16.9692H6.76034C6.54878 17.0485 6.16549 17.1014 5.90105 17.1014C5.30651 17.1014 5.02869 16.9427 5.02869 16.0436C5.02869 15.3159 5.1214 14.9852 5.90105 14.9852C6.12598 14.9852 6.32416 15.0116 6.5886 15.091C6.61505 15.091 6.62811 15.091 6.64149 15.0645L6.98496 14.377V14.3372C6.98452 14.3303 6.98159 14.3238 6.97673 14.319C6.97186 14.3141 6.96538 14.3112 6.95852 14.3107C6.59418 14.2 6.21586 14.1421 5.83509 14.1387C4.60589 14.1387 4.05056 14.7208 4.05056 16.0302C4.05056 17.3528 4.60589 17.9479 5.83509 17.9479C6.13905 17.9479 6.76034 17.882 7.05123 17.7628C7.07767 17.7494 7.09074 17.723 7.07767 17.6965L6.8266 16.9956ZM14.8763 14.2712H14.0173C13.9909 14.2712 13.9775 14.2843 13.9775 14.3107C13.8453 14.853 13.5678 15.739 13.1975 16.6783L12.3386 14.2977C12.3252 14.2843 12.3121 14.2712 12.2987 14.2712H11.4264C11.4133 14.2712 11.3999 14.2843 11.3869 14.2977C11.3735 14.3107 11.3735 14.3241 11.3869 14.3372L12.682 17.882C12.567 18.1242 12.4435 18.3623 12.3118 18.596C12.2194 18.7546 12.1401 18.9133 12.0607 19.0853C12.0477 19.0987 12.0477 19.1118 12.0607 19.1252C12.0741 19.1382 12.0872 19.1516 12.1006 19.1516H13.0389C13.0522 19.1516 13.0787 19.1382 13.0787 19.1252C13.2738 18.7441 13.4546 18.3559 13.6206 17.9613C14.1626 16.6649 14.6118 15.4481 14.9426 14.3372C14.9426 14.3241 14.9426 14.3107 14.9292 14.2977C14.9027 14.2712 14.8897 14.2712 14.8763 14.2712ZM18.0487 14.2578H15.5505C15.5368 14.2588 15.5238 14.2646 15.5141 14.2744C15.5044 14.2841 15.4985 14.297 15.4976 14.3107V17.7892C15.4976 17.8157 15.524 17.8421 15.5505 17.8421H16.3967C16.4228 17.8421 16.4496 17.8157 16.4496 17.7892V15.091H17.7578C17.7712 15.091 17.7976 15.0779 17.7976 15.0645C17.9034 14.8265 17.9958 14.5752 18.1016 14.3241V14.2843C18.0751 14.2712 18.0621 14.2578 18.0487 14.2578Z" fill="#EF3E58"/>
<path d="M4.75152 8.91474C3.53539 8.91474 3.0597 9.44363 3.0597 10.7795C3.0597 12.1419 3.5357 12.6711 4.75152 12.6711C5.98072 12.6711 6.45641 12.1419 6.45641 10.7795C6.45641 9.44363 5.98072 8.91474 4.75152 8.91474ZM4.75152 11.9039C4.1965 11.9039 4.02445 11.7583 4.02445 10.806C4.02445 9.8011 4.20956 9.70839 4.75152 9.70839C5.30685 9.70839 5.49196 9.80079 5.49196 10.806C5.49196 11.7452 5.31992 11.9039 4.75152 11.9039ZM9.84067 11.7583C9.84023 11.7514 9.83731 11.745 9.83244 11.7401C9.82757 11.7352 9.8211 11.7323 9.81423 11.7319H9.77441C9.56285 11.8112 9.17956 11.8641 8.91543 11.8641C8.32058 11.8641 8.04276 11.7054 8.04276 10.8063C8.04276 10.0783 8.1221 9.7479 8.91543 9.7479C9.14005 9.7479 9.33854 9.77435 9.60267 9.85368C9.62912 9.85368 9.64218 9.85368 9.65556 9.82723L9.99903 9.13968V9.09986C9.99859 9.09299 9.99566 9.08651 9.9908 9.08165C9.98593 9.07678 9.97945 9.07385 9.97258 9.07341C9.60835 8.96273 9.23014 8.90479 8.84947 8.90137C7.61996 8.90137 7.06463 9.48315 7.06463 10.7929C7.06463 12.1151 7.61996 12.7106 8.84916 12.7106C9.15312 12.7106 9.77441 12.6443 10.0653 12.5255C10.0917 12.5121 10.1048 12.4857 10.0917 12.4592L9.84067 11.7583ZM0.29703 9.02052C0.283314 9.02147 0.270403 9.02734 0.260682 9.03706C0.25096 9.04678 0.245085 9.0597 0.244141 9.07341V12.5516C0.244141 12.5784 0.270585 12.6045 0.29703 12.6045H1.14325C1.16938 12.6045 1.19614 12.5784 1.19614 12.5516V9.85368H2.50436C2.51774 9.85368 2.54418 9.84061 2.54418 9.82723C2.64996 9.58923 2.74236 9.33786 2.84814 9.08679V9.04697C2.83476 9.03359 2.8217 9.02052 2.80832 9.02052H0.29703Z" fill="#0F67B1"/>
<path fill-rule="evenodd" clip-rule="evenodd" d="M25.6232 17.472V17.4191C25.6232 17.3927 25.6232 17.3528 25.6365 17.3264C25.6761 16.837 25.7025 16.2419 25.7289 15.554V15.5011L25.7554 14.0199C25.7554 13.5041 25.7423 13.0013 25.7289 12.5384V12.4855L25.6365 10.7134C25.6365 10.6867 25.6365 10.6472 25.6232 10.6207V10.5678C25.6232 10.5149 25.6101 10.4751 25.6101 10.4222V10.3693C25.5703 9.85351 25.5438 9.53618 25.5308 9.50973C25.5308 9.45684 25.5174 9.40396 25.5174 9.36413V9.32462C25.5061 9.23532 25.4885 9.14694 25.4645 9.06018C25.4645 9.0468 25.4645 9.03342 25.4514 9.02036C25.2268 7.94889 24.632 6.77196 23.8915 5.8856C23.6009 5.54182 23.2967 5.23756 22.9797 4.99956C21.7854 4.11901 20.5455 3.30224 19.265 2.55267C17.3221 1.40187 15.5774 0.608222 15.3528 0.502444C15.3394 0.502444 15.3394 0.489378 15.3394 0.489378C14.8239 0.264444 14.2026 0.105778 13.5287 0.0398222C13.3965 0.0264444 13.2643 0.0133778 13.1321 0.0133778C13.0129 0.0133778 12.8941 0 12.7752 0H12.5901C11.6779 0.0133778 10.8454 0.185111 10.1843 0.489378C10.0785 0.5292 8.32072 1.3356 6.32463 2.49978L6.2453 2.53929C4.96987 3.30161 3.73042 4.12258 2.53094 4.99956C2.02881 5.36978 1.57925 5.84578 1.16952 6.45431C1.07712 6.59991 1.07712 6.94369 1.47347 6.94369H2.49143C2.92761 6.94369 3.03338 6.67924 3.52245 6.32209C4.06441 5.92542 5.13494 5.13178 7.09121 3.96791C8.50552 3.13476 9.82743 2.4864 10.4618 2.18213C10.4752 2.18213 10.4882 2.16907 10.5016 2.16907C10.5016 2.16907 10.5147 2.16907 10.5147 2.156C10.5147 2.156 10.5281 2.156 10.5281 2.14262C10.5411 2.14262 10.5545 2.12956 10.5545 2.12956C10.5676 2.12956 10.5809 2.11618 10.594 2.11618C10.7527 2.03684 10.8585 1.99702 10.8585 1.99702C11.308 1.79884 11.9424 1.66662 12.6162 1.65324H12.8807C13.0792 1.65324 13.2773 1.66662 13.4625 1.69307C13.8722 1.74596 14.2424 1.82529 14.5464 1.95751C14.5728 1.97058 14.6123 1.98396 14.6388 1.99702C15.9299 2.59772 17.1915 3.2598 18.4194 3.98098C19.6476 4.70567 20.8387 5.49148 21.9881 6.33547C22.2392 6.52058 22.4906 6.78502 22.7286 7.07591C23.3231 7.84311 23.8122 8.88813 23.8915 9.69485C23.8915 9.70822 23.9313 10.0256 23.9709 10.5678C23.9709 10.6073 23.9709 10.6338 23.9842 10.6736V10.7529C23.9842 10.8058 23.9973 10.8456 23.9973 10.8985V10.9514C23.9973 10.9779 23.9973 11.0174 24.0107 11.0438C24.0107 11.1101 24.0237 11.176 24.0237 11.2423C24.0237 11.2821 24.0237 11.3216 24.0371 11.3615V11.3879C24.0371 11.4408 24.0371 11.4803 24.0502 11.5332V11.639C24.1395 13.2163 24.1395 14.7968 24.0502 16.3741V16.4799C24.0502 16.5328 24.0502 16.5726 24.0371 16.6255V16.6519C24.0371 16.6914 24.0371 16.7312 24.0237 16.7708C24.0237 16.837 24.0107 16.9033 24.0107 16.9692C24.0107 17.0091 24.0107 17.0355 23.9973 17.062V17.1148C23.9973 17.1677 23.9842 17.2072 23.9842 17.2601V17.3398C23.9842 17.3793 23.9842 17.4191 23.9709 17.4456C23.9313 17.9878 23.8915 18.3182 23.8915 18.3182C23.8122 19.1252 23.3231 20.17 22.7283 20.9372C22.4906 21.2414 22.2392 21.4928 21.9881 21.6776C21.9751 21.6776 21.6313 21.9424 21.0629 22.339C19.0481 23.7369 16.9165 24.9583 14.6917 25.9896L14.6388 26.016C14.6123 26.0294 14.5728 26.0425 14.5464 26.0559C14.2424 26.1747 13.8722 26.2674 13.4625 26.3203C13.2773 26.3468 13.0792 26.3598 12.8807 26.3598H12.6162C11.9424 26.3468 11.308 26.2276 10.8585 26.016C10.8585 26.016 10.7661 25.9765 10.594 25.8969C10.5809 25.8838 10.5545 25.8838 10.5411 25.8704C10.5281 25.8574 10.5147 25.8574 10.5016 25.844C10.4882 25.844 10.4882 25.8309 10.4752 25.8309C10.4618 25.8309 10.4487 25.8176 10.4357 25.8176C10.4223 25.8045 10.4092 25.8045 10.3828 25.7911H10.3694C9.24749 25.2571 8.14928 24.6746 7.07783 24.0455C5.1085 22.8947 4.05103 22.088 3.50938 21.691C3.02001 21.3338 2.91423 21.0694 2.47805 21.0694H1.47347C1.07712 21.0694 1.07712 21.4135 1.16952 21.5454C1.57925 22.1542 2.02881 22.6302 2.53094 23.0004C2.59721 23.0533 4.2097 24.2436 6.24561 25.4473C6.35107 25.5136 6.45685 25.5796 6.5757 25.6324C8.46601 26.717 10.0919 27.4577 10.1846 27.5106C10.832 27.8015 11.6779 27.9736 12.577 28H12.7618C12.881 28 12.9998 28 13.1187 27.9866C13.2509 27.9866 13.3831 27.9736 13.5153 27.9602C14.1895 27.8942 14.8239 27.7356 15.326 27.5106C15.326 27.5106 15.3394 27.5106 15.3394 27.4976C15.564 27.3918 17.3087 26.5848 19.2519 25.4473C20.1832 24.896 21.0957 24.3136 21.9881 23.7014L22.9663 23.0004C23.2836 22.7624 23.5876 22.4582 23.8785 22.1144C24.6189 21.228 25.2134 20.0511 25.4381 18.9796C25.4381 18.9666 25.4381 18.9532 25.4514 18.9401C25.4645 18.8474 25.4909 18.7547 25.5043 18.6757V18.6356C25.5174 18.5827 25.5174 18.5298 25.5174 18.49C25.5174 18.4635 25.5572 18.1462 25.5967 17.6304V17.5775C25.6232 17.5641 25.6232 17.5115 25.6232 17.472Z" fill="url(#paint0_linear_2522_28648)"/>
<path d="M10.7127 14.2578H8.12174C8.09529 14.2578 8.08223 14.2712 8.06885 14.2976C8.00289 15.4746 7.77827 16.7311 7.46094 17.7628C7.46094 17.7759 7.46094 17.7892 7.474 17.8023C7.48738 17.8157 7.50045 17.8157 7.51383 17.8157H8.39956C8.42569 17.8157 8.43907 17.8023 8.43907 17.7892C8.69014 16.9959 8.88863 15.9639 8.96796 15.091H9.81387V17.7759C9.81387 17.8023 9.84032 17.8287 9.86676 17.8287H10.7127C10.7391 17.8287 10.7656 17.8023 10.7656 17.7759V14.2976C10.7656 14.2843 10.7391 14.2578 10.7127 14.2578Z" fill="#EF3E58"/>
<defs>
<linearGradient id="paint0_linear_2522_28648" x1="1233.08" y1="-0.252" x2="1233.08" y2="2804.76" gradientUnits="userSpaceOnUse">
<stop offset="0.4" stop-color="#1466AC"/>
<stop offset="0.66" stop-color="#EF4058"/>
</linearGradient>
</defs>
</svg>
